<svg xmlns="http://www.w3.org/2000/svg" xmlns:xlink="http://www.w3.org/1999/xlink" width="172" height="48" viewBox="0 0 172 48">
  <defs>
    <clipPath id="clip-path">
      <rect id="Rectangle_4909" data-name="Rectangle 4909" width="170.08" height="30.657" fill="none"/>
    </clipPath>
    <clipPath id="clip-path-2">
      <rect id="Rectangle_4906" data-name="Rectangle 4906" width="7.125" height="6.448" fill="none"/>
    </clipPath>
    <clipPath id="clip-path-3">
      <rect id="Rectangle_4908" data-name="Rectangle 4908" width="6.397" height="9.783" fill="none"/>
    </clipPath>
  </defs>
  <g id="Loans_Logo_Dark" data-name="Loans Logo Dark" transform="translate(1 8.672)">
    <rect id="Rectangle_4915" data-name="Rectangle 4915" width="172" height="48" transform="translate(-1 -8.672)" fill="none"/>
    <g id="Group_11534" data-name="Group 11534">
      <g id="Group_11533" data-name="Group 11533" clip-path="url(#clip-path)">
        <path id="Path_11520" data-name="Path 11520" d="M557.946,111.345h0a3.608,3.608,0,0,1,3.608-3.608H562a3.608,3.608,0,1,1,0,7.216h-.448a3.608,3.608,0,0,1-3.608-3.608" transform="translate(-438.665 -84.704)" fill="#4e36fc"/>
        <path id="Path_11521" data-name="Path 11521" d="M605.854,57.6v-.122h5.83v.856c0,1.508.9,1.835,3.873,1.835,2.487,0,2.895-.367,2.895-1.386,0-1.1-.571-1.345-3.3-1.835l-3.1-.571c-4.036-.734-6.238-2.446-6.238-6.238s3.1-6.482,8.928-6.482c5.015,0,8.847,2.365,8.847,6.972V51.2h-5.83v-.571c0-1.345-.571-2.079-3.18-2.079-2.446,0-3.017.53-3.017,1.509s.367,1.264,2.813,1.753l3.751.775c4.322.815,6.116,2.772,6.116,6.116,0,3.832-3.139,6.279-8.806,6.279-6.441,0-9.581-2.406-9.581-7.379" transform="translate(-476.299 -34.326)" fill="#191919"/>
        <path id="Path_11522" data-name="Path 11522" d="M701.546,54.383c0-6.564,3.914-10.722,10.315-10.722,6.156,0,9.785,3.669,9.785,9.01a18.513,18.513,0,0,1-.285,3.017H707.295c.122,2.854,1.264,4,4.607,4,2.446,0,3.507-.53,3.507-1.794v-.245h6.034v.408c0,4.362-3.751,6.931-9.621,6.931-7.053,0-10.274-4.118-10.274-10.6m5.789-2.406h8.439c.122-2.12-1.264-3.3-4.118-3.3-2.936,0-4.077,1.142-4.322,3.3" transform="translate(-551.566 -34.327)" fill="#191919"/>
        <rect id="Rectangle_4903" data-name="Rectangle 4903" width="7.125" height="29.972" transform="translate(0.018)" fill="#191919"/>
        <rect id="Rectangle_4904" data-name="Rectangle 4904" width="19.726" height="6.448" transform="translate(0 23.97)" fill="#4e36fc"/>
        <g id="Group_11529" data-name="Group 11529" transform="translate(0.018 23.97)" opacity="0.2">
          <g id="Group_11528" data-name="Group 11528">
            <g id="Group_11527" data-name="Group 11527" clip-path="url(#clip-path-2)">
              <rect id="Rectangle_4905" data-name="Rectangle 4905" width="7.125" height="6.448" transform="translate(0)" fill="#fff"/>
            </g>
          </g>
        </g>
        <path id="Path_11523" data-name="Path 11523" d="M115,42.067a10.687,10.687,0,1,0,10.687,10.687A10.685,10.685,0,0,0,115,42.067m0,14.977a4.29,4.29,0,1,1,4.29-4.29,4.29,4.29,0,0,1-4.29,4.29" transform="translate(-82.012 -33.074)" fill="#191919"/>
        <path id="Path_11524" data-name="Path 11524" d="M231.12,42.067a10.687,10.687,0,1,0,10.687,10.687A10.685,10.685,0,0,0,231.12,42.067m0,14.977a4.29,4.29,0,1,1,4.29-4.29,4.291,4.291,0,0,1-4.29,4.29" transform="translate(-173.308 -33.074)" fill="#191919"/>
        <rect id="Rectangle_4907" data-name="Rectangle 4907" width="6.397" height="10.743" transform="translate(62.102 19.68)" fill="#4e36fc"/>
        <g id="Group_11532" data-name="Group 11532" transform="translate(62.102 19.686)" opacity="0.2">
          <g id="Group_11531" data-name="Group 11531">
            <g id="Group_11530" data-name="Group 11530" clip-path="url(#clip-path-3)">
              <path id="Path_11525" data-name="Path 11525" d="M296.884,92.083a10.966,10.966,0,0,1-6.4,9.783V92.083Z" transform="translate(-290.487 -92.083)" fill="#fff"/>
            </g>
          </g>
        </g>
        <path id="Path_11526" data-name="Path 11526" d="M363.362,52.571V63.2a.01.01,0,0,1-.01.01h-6.376a.01.01,0,0,1-.01-.01V62.31s0,0,0,0V52.385h0a4.291,4.291,0,0,0-4.442-4.288,4.366,4.366,0,0,0-4.142,4.4V63.2a.01.01,0,0,1-.01.01H342a.01.01,0,0,1-.01-.01V52.385A10.684,10.684,0,0,1,352.84,41.7a10.807,10.807,0,0,1,10.522,10.871" transform="translate(-268.878 -32.784)" fill="#191919"/>
        <path id="Path_11527" data-name="Path 11527" d="M460.8,57.044v-.123h5.844v.858c0,1.512.9,1.839,3.883,1.839,2.493,0,2.9-.368,2.9-1.39,0-1.1-.572-1.348-3.31-1.839l-3.106-.572c-4.046-.735-6.253-2.452-6.253-6.252s3.106-6.5,8.95-6.5c5.027,0,8.868,2.37,8.868,6.988v.572h-5.844v-.572c0-1.349-.572-2.084-3.188-2.084-2.452,0-3.024.531-3.024,1.512s.368,1.267,2.82,1.758l3.76.776c4.332.817,6.13,2.779,6.13,6.13,0,3.842-3.147,6.294-8.827,6.294-6.457,0-9.6-2.411-9.6-7.4" transform="translate(-362.258 -33.861)" fill="#191919"/>
      </g>
    </g>
  </g>
</svg>
