<?xml version="1.0" encoding="utf-8"?>
<!-- Generator: Adobe Illustrator 27.6.1, SVG Export Plug-In . SVG Version: 6.00 Build 0)  -->
<svg version="1.1" id="Layer_1" xmlns="http://www.w3.org/2000/svg" xmlns:xlink="http://www.w3.org/1999/xlink" x="0px" y="0px"
	 viewBox="0 0 289 289" style="enable-background:new 0 0 289 289;" xml:space="preserve">
<style type="text/css">
	.st0{fill:#333333;}
</style>
<path class="st0" d="M132.5,16h24c4.4,0,8,3.6,8,8v240c0,4.4-3.6,8-8,8h-24c-4.4,0-8-3.6-8-8V24C124.5,19.6,128.1,16,132.5,16z"/>
<path class="st0" d="M192.5,108h20c4.4,0,8,3.6,8,8v40c0,4.4-3.6,8-8,8h-20c-4.4,0-8-3.6-8-8v-40C184.5,111.6,188.1,108,192.5,108z"
	/>
<path class="st0" d="M76.5,68h20c4.4,0,8,3.6,8,8v60c0,4.4-3.6,8-8,8h-20c-4.4,0-8-3.6-8-8V76C68.5,71.6,72.1,68,76.5,68z"/>
</svg>
