<?xml version="1.0" encoding="utf-8"?>
<!-- Generator: Adobe Illustrator 27.7.0, SVG Export Plug-In . SVG Version: 6.00 Build 0)  -->
<svg version="1.1" id="Layer_1" xmlns="http://www.w3.org/2000/svg" xmlns:xlink="http://www.w3.org/1999/xlink" x="0px" y="0px"
	 viewBox="0 0 492.3 280.2" style="enable-background:new 0 0 492.3 280.2;" xml:space="preserve">
<style type="text/css">
	.st0{fill:#FFFFFF;}
	.st1{fill:#E4E6EC;}
	.st2{fill:#FFBBBB;}
	.st3{fill:#93FAE7;}
	.st4{fill:url(#SVGID_1_);}
	.st5{fill:#333333;}
	.st6{fill:none;stroke:#000000;stroke-width:2;}
</style>
<path class="st0" d="M8.3,1h476c3.9,0,7,3.1,7,7v264c0,3.9-3.1,7-7,7H8.3c-3.9,0-7-3.1-7-7V8C1.3,4.1,4.4,1,8.3,1z"/>
<rect x="24.3" y="155" class="st1" width="444" height="1"/>
<rect x="24.3" y="122" class="st1" width="444" height="1"/>
<rect x="24.3" y="89" class="st1" width="444" height="1"/>
<rect x="38.3" y="108" class="st2" width="12" height="80"/>
<rect x="54.3" y="60" class="st3" width="12" height="128"/>
<rect x="101.3" y="114" class="st2" width="12" height="74"/>
<rect x="117.3" y="83" class="st3" width="12" height="105"/>
<linearGradient id="SVGID_1_" gradientUnits="userSpaceOnUse" x1="-1.7493" y1="267" x2="-1.7493" y2="181" gradientTransform="matrix(1 0 0 -1 172 410)">
	<stop  offset="0" style="stop-color:#FA8080"/>
	<stop  offset="1" style="stop-color:#FA8080;stop-opacity:0"/>
</linearGradient>
<rect x="164.3" y="108" class="st4" width="12" height="80"/>
<rect x="180.8" y="94" class="st3" width="12" height="94"/>
<rect x="227.3" y="172" class="st2" width="12" height="16"/>
<rect x="243.3" y="78" class="st3" width="12" height="110"/>
<rect x="290.3" y="178" class="st2" width="12" height="10"/>
<rect x="306.3" y="72" class="st3" width="12" height="116"/>
<rect x="353.3" y="170" class="st2" width="12" height="18"/>
<rect x="369.3" y="87" class="st3" width="12" height="101"/>
<rect x="415.3" y="183" class="st2" width="12" height="5"/>
<rect x="431.3" y="65" class="st3" width="12" height="123"/>
<rect x="24.3" y="188" class="st5" width="444" height="4"/>
<path class="st5" d="M52.3,188L52.3,188c2.2,0,4,1.8,4,4l0,0c0,2.2-1.8,4-4,4l0,0c-2.2,0-4-1.8-4-4l0,0C48.3,189.8,50,188,52.3,188z
	"/>
<path class="st5" d="M115.3,188L115.3,188c2.2,0,4,1.8,4,4l0,0c0,2.2-1.8,4-4,4l0,0c-2.2,0-4-1.8-4-4l0,0
	C111.3,189.8,113,188,115.3,188z"/>
<path class="st5" d="M178.3,188L178.3,188c2.2,0,4,1.8,4,4l0,0c0,2.2-1.8,4-4,4l0,0c-2.2,0-4-1.8-4-4l0,0
	C174.3,189.8,176,188,178.3,188z"/>
<path class="st5" d="M241.3,188L241.3,188c2.2,0,4,1.8,4,4l0,0c0,2.2-1.8,4-4,4l0,0c-2.2,0-4-1.8-4-4l0,0
	C237.3,189.8,239,188,241.3,188z"/>
<path class="st5" d="M304.3,188L304.3,188c2.2,0,4,1.8,4,4l0,0c0,2.2-1.8,4-4,4l0,0c-2.2,0-4-1.8-4-4l0,0
	C300.3,189.8,302,188,304.3,188z"/>
<path class="st5" d="M367.3,188L367.3,188c2.2,0,4,1.8,4,4l0,0c0,2.2-1.8,4-4,4l0,0c-2.2,0-4-1.8-4-4l0,0
	C363.3,189.8,365,188,367.3,188z"/>
<path class="st5" d="M430.3,188L430.3,188c2.2,0,4,1.8,4,4l0,0c0,2.2-1.8,4-4,4l0,0c-2.2,0-4-1.8-4-4l0,0
	C426.3,189.8,428,188,430.3,188z"/>
<path class="st5" d="M42.5,240.1l-2.3,2.3l-7.2-7.2l2.4-2.4c0.7-0.7,1.5-1.2,2.2-1.4c0.8-0.2,1.6-0.2,2.4,0.1
	c0.8,0.3,1.6,0.8,2.3,1.5c0.7,0.8,1.3,1.5,1.5,2.3c0.3,0.8,0.3,1.6,0.1,2.4C43.7,238.6,43.2,239.4,42.5,240.1z M40.3,240.4l1.2-1.2
	c0.5-0.5,0.9-1.1,1.1-1.7c0.2-0.6,0.1-1.1-0.1-1.7c-0.2-0.6-0.6-1.2-1.2-1.7c-0.6-0.6-1.1-1-1.7-1.2c-0.6-0.2-1.1-0.2-1.7-0.1
	c-0.6,0.1-1.1,0.5-1.6,1l-1.3,1.3L40.3,240.4z M48.9,233.9c-0.3,0.3-0.7,0.6-1.1,0.7c-0.4,0.1-0.8,0.2-1.2,0.1
	c-0.4-0.1-0.8-0.3-1.1-0.7c-0.3-0.3-0.5-0.6-0.6-0.9c-0.1-0.3-0.1-0.6,0-0.9c0.1-0.3,0.2-0.6,0.4-0.9c0.2-0.3,0.4-0.6,0.6-0.9
	c0.3-0.4,0.5-0.7,0.7-0.9c0.2-0.2,0.3-0.4,0.3-0.6c0-0.1,0-0.3-0.1-0.4l0,0c-0.3-0.3-0.6-0.5-1-0.5c-0.3,0-0.7,0.2-1,0.5
	c-0.4,0.4-0.6,0.7-0.6,1.1c0,0.4,0,0.7,0.1,0.9l-1.2,0.8c-0.2-0.4-0.3-0.9-0.3-1.3c0-0.4,0.1-0.8,0.3-1.2c0.2-0.4,0.5-0.7,0.8-1.1
	c0.2-0.2,0.5-0.4,0.8-0.6c0.3-0.2,0.6-0.3,1-0.4c0.3-0.1,0.7-0.1,1.1,0c0.4,0.1,0.8,0.4,1.2,0.8l3.6,3.6l-1,1l-0.7-0.7l0,0
	c0.1,0.2,0.1,0.4,0.1,0.7s-0.1,0.6-0.2,0.9C49.4,233.3,49.2,233.6,48.9,233.9z M48.3,232.9c0.3-0.3,0.5-0.6,0.6-0.9
	c0.1-0.3,0.1-0.6,0-0.9c-0.1-0.3-0.2-0.6-0.4-0.8l-0.7-0.7c0,0.1,0,0.2-0.1,0.3c-0.1,0.1-0.2,0.3-0.3,0.4c-0.1,0.2-0.2,0.3-0.3,0.5
	c-0.1,0.1-0.2,0.3-0.3,0.4c-0.2,0.2-0.3,0.5-0.4,0.7c-0.1,0.2-0.2,0.4-0.1,0.7c0,0.2,0.1,0.4,0.3,0.6c0.3,0.3,0.6,0.4,0.9,0.3
	C47.7,233.3,48,233.2,48.3,232.9z M55.4,231.3c-0.2,0.2-0.3,0.3-0.5,0.4c-0.2,0.1-0.3,0.2-0.4,0.2l-0.6-1.1c0.2-0.1,0.4-0.3,0.6-0.4
	c0.1-0.2,0.2-0.3,0.2-0.6c0-0.2-0.1-0.5-0.2-0.8l-0.2-0.5l-7.4-3.5l1.1-1.1l5.6,2.8l0.1-0.1l-2.8-5.6l1.1-1.1l3.9,8.3
	c0.2,0.4,0.3,0.8,0.3,1.1c0,0.4,0,0.7-0.1,1C55.9,230.7,55.7,231,55.4,231.3z M63.6,219l-6-8.4l0.8-0.8l6,8.4L63.6,219z M58.4,220.3
	l-0.7-1l5.5-5.5l0.7,1L58.4,220.3z M61.1,221.5l-6-8.4l0.8-0.8l6,8.4L61.1,221.5z M56.3,217.4l-0.7-1l5.5-5.5l0.7,1L56.3,217.4z
	 M62.7,205.5l7.2,7.2l-1.1,1.1l-6.1-6.1l0,0l-0.6,2.8l-1-1l0.6-3L62.7,205.5z"/>
<path class="st5" d="M104.8,240.8l-2.3,2.3l-7.2-7.2l2.4-2.4c0.7-0.7,1.5-1.2,2.2-1.4c0.8-0.2,1.6-0.2,2.4,0.1
	c0.8,0.3,1.6,0.8,2.3,1.5c0.7,0.8,1.3,1.5,1.5,2.3c0.3,0.8,0.3,1.6,0.1,2.4C106,239.3,105.5,240.1,104.8,240.8z M102.6,241.1
	l1.2-1.2c0.5-0.5,0.9-1.1,1.1-1.7c0.2-0.6,0.1-1.1-0.1-1.7c-0.2-0.6-0.6-1.2-1.2-1.7c-0.6-0.6-1.1-1-1.7-1.2
	c-0.6-0.2-1.1-0.2-1.7-0.1c-0.6,0.1-1.1,0.5-1.6,1l-1.3,1.3L102.6,241.1z M111.2,234.6c-0.3,0.3-0.7,0.6-1.1,0.7
	c-0.4,0.1-0.8,0.2-1.2,0.1c-0.4-0.1-0.8-0.3-1.1-0.7c-0.3-0.3-0.5-0.6-0.6-0.9c-0.1-0.3-0.1-0.6,0-0.9s0.2-0.6,0.4-0.9
	c0.2-0.3,0.4-0.6,0.6-0.9c0.3-0.4,0.5-0.7,0.7-0.9c0.2-0.2,0.3-0.4,0.3-0.6c0-0.1,0-0.3-0.1-0.4l0,0c-0.3-0.3-0.6-0.5-1-0.5
	c-0.3,0-0.7,0.2-1,0.5c-0.4,0.4-0.6,0.7-0.6,1.1c0,0.4,0,0.7,0.1,0.9l-1.2,0.8c-0.2-0.4-0.3-0.9-0.3-1.3c0-0.4,0.1-0.8,0.3-1.2
	c0.2-0.4,0.5-0.7,0.8-1.1c0.2-0.2,0.5-0.4,0.8-0.6c0.3-0.2,0.6-0.3,1-0.4c0.3-0.1,0.7-0.1,1.1,0.1c0.4,0.1,0.8,0.4,1.2,0.8l3.6,3.6
	l-1,1l-0.7-0.7l0,0c0.1,0.2,0.1,0.4,0.1,0.7c0,0.3-0.1,0.6-0.2,0.9C111.7,234,111.5,234.3,111.2,234.6z M110.6,233.6
	c0.3-0.3,0.5-0.6,0.6-0.9c0.1-0.3,0.1-0.6,0-0.9c-0.1-0.3-0.2-0.6-0.4-0.8l-0.7-0.7c0,0.1,0,0.2-0.1,0.3c-0.1,0.1-0.2,0.3-0.3,0.4
	c-0.1,0.2-0.2,0.3-0.3,0.5c-0.1,0.1-0.2,0.3-0.3,0.4c-0.2,0.2-0.3,0.5-0.4,0.7c-0.1,0.2-0.2,0.4-0.1,0.7c0,0.2,0.1,0.4,0.3,0.6
	c0.3,0.3,0.6,0.4,0.9,0.3C110,234,110.3,233.9,110.6,233.6z M117.7,232c-0.2,0.2-0.3,0.3-0.5,0.4c-0.2,0.1-0.3,0.2-0.4,0.2l-0.6-1.1
	c0.2-0.1,0.4-0.3,0.6-0.4c0.1-0.2,0.2-0.3,0.2-0.6c0-0.2-0.1-0.5-0.2-0.8l-0.2-0.5l-7.4-3.5l1.1-1.1l5.6,2.8l0.1-0.1l-2.8-5.6
	l1.1-1.1l3.9,8.3c0.2,0.4,0.3,0.8,0.3,1.1c0,0.4,0,0.7-0.1,1S118,231.7,117.7,232z M125.9,219.7l-6-8.4l0.8-0.8l6,8.4L125.9,219.7z
	 M120.7,221l-0.7-1l5.5-5.5l0.7,1L120.7,221z M123.4,222.2l-6-8.4l0.8-0.8l6,8.4L123.4,222.2z M118.6,218.1l-0.7-1l5.5-5.5l0.7,1
	L118.6,218.1z M129.5,216.1l-0.8-0.8l-0.1-5c0-0.5,0-1-0.1-1.4c0-0.4-0.1-0.7-0.2-1s-0.3-0.5-0.5-0.7c-0.2-0.2-0.5-0.4-0.8-0.4
	c-0.3-0.1-0.6,0-0.9,0.1c-0.3,0.1-0.6,0.3-0.8,0.5c-0.3,0.3-0.4,0.5-0.5,0.8c-0.1,0.3-0.1,0.6,0,0.9c0.1,0.3,0.3,0.6,0.5,0.8l-1,1
	c-0.4-0.4-0.7-0.9-0.8-1.5c-0.1-0.5-0.1-1.1,0.1-1.6c0.2-0.5,0.5-1,0.9-1.5c0.5-0.5,0.9-0.8,1.5-0.9c0.5-0.2,1-0.2,1.5-0.1
	c0.5,0.1,0.9,0.4,1.3,0.7c0.3,0.3,0.5,0.6,0.6,0.9c0.2,0.4,0.3,0.8,0.3,1.4c0.1,0.6,0.1,1.3,0.1,2.2l0.1,2.9l0.1,0.1l3.2-3.2
	l0.9,0.9L129.5,216.1z"/>
<path class="st5" d="M168.2,241l-2.3,2.3l-7.2-7.2l2.4-2.4c0.7-0.7,1.5-1.2,2.2-1.4c0.8-0.2,1.6-0.2,2.4,0.1
	c0.8,0.3,1.6,0.8,2.3,1.5c0.8,0.8,1.3,1.5,1.5,2.3c0.3,0.8,0.3,1.6,0.1,2.4C169.4,239.5,168.9,240.2,168.2,241z M166,241.3l1.2-1.2
	c0.5-0.5,0.9-1.1,1.1-1.7c0.2-0.6,0.1-1.1-0.1-1.7c-0.2-0.6-0.6-1.2-1.2-1.7c-0.6-0.6-1.1-1-1.7-1.2c-0.6-0.2-1.1-0.2-1.7-0.1
	s-1.1,0.5-1.6,1l-1.3,1.3L166,241.3z M174.6,234.8c-0.3,0.3-0.7,0.6-1.1,0.7c-0.4,0.1-0.8,0.2-1.2,0.1c-0.4-0.1-0.8-0.3-1.1-0.7
	c-0.3-0.3-0.5-0.6-0.6-0.9c-0.1-0.3-0.1-0.6,0-0.9c0.1-0.3,0.2-0.6,0.4-0.9c0.2-0.3,0.4-0.6,0.6-0.9c0.3-0.4,0.5-0.7,0.7-0.9
	c0.2-0.2,0.3-0.4,0.3-0.6c0-0.1,0-0.3-0.1-0.4l0,0c-0.3-0.3-0.6-0.5-1-0.5c-0.3,0-0.7,0.2-1,0.5c-0.4,0.4-0.6,0.7-0.6,1.1
	c0,0.4,0,0.7,0.1,0.9l-1.2,0.8c-0.2-0.4-0.3-0.9-0.3-1.3c0-0.4,0.1-0.8,0.3-1.2c0.2-0.4,0.5-0.7,0.8-1.1c0.2-0.2,0.5-0.4,0.8-0.6
	c0.3-0.2,0.6-0.3,1-0.4c0.3-0.1,0.7-0.1,1.1,0c0.4,0.1,0.8,0.4,1.2,0.8l3.6,3.6l-1,1l-0.7-0.7l0,0c0.1,0.2,0.1,0.4,0.1,0.7
	c0,0.3-0.1,0.6-0.2,0.9C175.1,234.2,174.9,234.5,174.6,234.8z M174,233.7c0.3-0.3,0.5-0.6,0.6-0.9c0.1-0.3,0.1-0.6,0-0.9
	c-0.1-0.3-0.2-0.6-0.4-0.8l-0.7-0.7c0,0.1,0,0.2-0.1,0.3c-0.1,0.1-0.2,0.3-0.3,0.4c-0.1,0.2-0.2,0.3-0.3,0.5
	c-0.1,0.1-0.2,0.3-0.3,0.4c-0.2,0.2-0.3,0.5-0.4,0.7c-0.1,0.2-0.2,0.4-0.1,0.7c0,0.2,0.1,0.4,0.3,0.6c0.3,0.3,0.6,0.4,0.9,0.3
	C173.4,234.2,173.7,234,174,233.7z M181,232.2c-0.2,0.2-0.3,0.3-0.5,0.4c-0.2,0.1-0.3,0.2-0.4,0.2l-0.6-1.1c0.2-0.1,0.4-0.3,0.6-0.4
	c0.1-0.2,0.2-0.3,0.2-0.6c0-0.2-0.1-0.5-0.2-0.8l-0.2-0.5l-7.4-3.5l1.1-1.1l5.6,2.8l0.1-0.1l-2.8-5.6l1.1-1.1l3.9,8.3
	c0.2,0.4,0.3,0.8,0.3,1.1c0,0.4,0,0.7-0.1,1C181.5,231.6,181.3,231.9,181,232.2z M189.3,219.9l-6-8.4l0.8-0.8l6,8.4L189.3,219.9z
	 M184.1,221.2l-0.7-1l5.5-5.5l0.7,1L184.1,221.2z M186.7,222.4l-6-8.4l0.8-0.8l6,8.4L186.7,222.4z M182,218.3l-0.7-1l5.5-5.5l0.7,1
	L182,218.3z M195.5,213.9c-0.5,0.5-1,0.8-1.5,1c-0.5,0.2-1.1,0.3-1.6,0.2c-0.5-0.1-1-0.3-1.4-0.7l1.1-1.1c0.2,0.2,0.5,0.3,0.8,0.3
	c0.3,0,0.6,0,0.9-0.2c0.3-0.1,0.6-0.3,0.8-0.6c0.3-0.3,0.5-0.6,0.6-0.9c0.1-0.3,0.2-0.6,0.1-0.9c-0.1-0.3-0.2-0.6-0.4-0.8
	c-0.2-0.2-0.5-0.4-0.8-0.4c-0.3-0.1-0.6,0-1,0.1c-0.3,0.1-0.7,0.4-1,0.7l-0.6,0.6l-0.9-0.9l0.6-0.6c0.3-0.3,0.5-0.6,0.6-0.8
	c0.1-0.3,0.1-0.6,0.1-0.9c-0.1-0.3-0.2-0.5-0.4-0.8c-0.2-0.2-0.5-0.4-0.7-0.4c-0.3-0.1-0.5-0.1-0.8,0c-0.3,0.1-0.5,0.3-0.8,0.5
	c-0.2,0.2-0.4,0.5-0.5,0.8c-0.1,0.3-0.2,0.6-0.1,0.9c0,0.3,0.2,0.5,0.4,0.8l-1.1,1.1c-0.4-0.4-0.6-0.9-0.7-1.4c-0.1-0.5,0-1,0.2-1.6
	c0.2-0.5,0.5-1,1-1.5c0.5-0.5,1-0.8,1.5-0.9c0.5-0.2,1-0.2,1.5-0.1c0.5,0.1,0.9,0.3,1.3,0.7c0.4,0.4,0.6,0.9,0.7,1.4
	c0.1,0.5-0.1,1-0.3,1.5l0.1,0.1c0.6-0.4,1.1-0.6,1.7-0.5c0.6,0,1.1,0.3,1.5,0.7c0.4,0.4,0.6,0.9,0.7,1.4c0.1,0.5,0,1.1-0.2,1.6
	C196.3,212.8,195.9,213.4,195.5,213.9z"/>
<path class="st5" d="M231.1,241l-2.3,2.3l-7.2-7.2l2.4-2.4c0.7-0.7,1.5-1.2,2.2-1.4c0.8-0.2,1.6-0.2,2.4,0.1
	c0.8,0.3,1.6,0.8,2.3,1.5c0.7,0.8,1.3,1.5,1.5,2.3c0.3,0.8,0.3,1.6,0.1,2.4C232.3,239.5,231.8,240.3,231.1,241z M228.9,241.3
	l1.2-1.2c0.5-0.5,0.9-1.1,1.1-1.7c0.2-0.6,0.1-1.1-0.1-1.7c-0.2-0.6-0.6-1.2-1.2-1.7c-0.6-0.6-1.1-1-1.7-1.2
	c-0.6-0.2-1.1-0.2-1.7-0.1c-0.6,0.1-1.1,0.5-1.6,1l-1.3,1.3L228.9,241.3z M237.5,234.8c-0.3,0.3-0.7,0.6-1.1,0.7
	c-0.4,0.1-0.8,0.2-1.2,0.1c-0.4-0.1-0.8-0.3-1.1-0.7c-0.3-0.3-0.5-0.6-0.6-0.9c-0.1-0.3-0.1-0.6,0-0.9s0.2-0.6,0.4-0.9
	c0.2-0.3,0.4-0.6,0.6-0.9c0.3-0.4,0.5-0.7,0.7-0.9c0.2-0.2,0.3-0.4,0.3-0.6c0-0.1,0-0.3-0.1-0.4l0,0c-0.3-0.3-0.6-0.5-1-0.5
	c-0.3,0-0.7,0.2-1,0.5c-0.4,0.4-0.6,0.7-0.6,1.1c0,0.4,0,0.7,0.1,0.9l-1.2,0.8c-0.2-0.4-0.3-0.9-0.3-1.3c0-0.4,0.1-0.8,0.3-1.2
	c0.2-0.4,0.5-0.7,0.8-1.1c0.2-0.2,0.5-0.4,0.8-0.6c0.3-0.2,0.6-0.3,1-0.4c0.3-0.1,0.7-0.1,1.1,0c0.4,0.1,0.8,0.4,1.2,0.8l3.6,3.6
	l-1,1l-0.7-0.7l0,0c0.1,0.2,0.1,0.4,0.1,0.7c0,0.3-0.1,0.6-0.2,0.9C238,234.2,237.8,234.5,237.5,234.8z M236.9,233.8
	c0.3-0.3,0.5-0.6,0.6-0.9c0.1-0.3,0.1-0.6,0-0.9c-0.1-0.3-0.2-0.6-0.4-0.8l-0.7-0.7c0,0.1,0,0.2-0.1,0.3c-0.1,0.1-0.2,0.3-0.3,0.4
	c-0.1,0.2-0.2,0.3-0.3,0.5c-0.1,0.1-0.2,0.3-0.3,0.4c-0.2,0.2-0.3,0.5-0.4,0.7c-0.1,0.2-0.2,0.4-0.1,0.7c0,0.2,0.1,0.4,0.3,0.6
	c0.3,0.3,0.6,0.4,0.9,0.3C236.3,234.2,236.6,234.1,236.9,233.8z M244,232.2c-0.2,0.2-0.3,0.3-0.5,0.4c-0.2,0.1-0.3,0.2-0.4,0.2
	l-0.6-1.1c0.2-0.1,0.4-0.3,0.6-0.4s0.2-0.3,0.2-0.6c0-0.2-0.1-0.5-0.2-0.8l-0.2-0.5l-7.4-3.5l1.1-1.1l5.6,2.8l0.1-0.1l-2.8-5.6
	l1.1-1.1l3.9,8.3c0.2,0.4,0.3,0.8,0.3,1.1c0,0.4,0,0.7-0.1,1C244.5,231.6,244.3,231.9,244,232.2z M252.2,219.9l-6-8.4l0.8-0.8l6,8.4
	L252.2,219.9z M247,221.2l-0.7-1l5.5-5.5l0.7,1L247,221.2z M249.7,222.4l-6-8.4l0.8-0.8l6,8.4L249.7,222.4z M244.9,218.3l-0.7-1
	l5.5-5.5l0.7,1L244.9,218.3z M254.2,215.1l-0.9-0.9l-1.8-8l0.7-0.7l1.3,1.3l-0.4,0.4l1.3,5.7l0.1,0.1l4.3-4.3l0.9,0.9L254.2,215.1z
	 M259.1,213.1l-1.7-1.7L257,211l-5.1-5.1l1-1l7.2,7.2L259.1,213.1z"/>
<path class="st5" d="M294.3,240.8l-2.3,2.3l-7.2-7.2l2.4-2.4c0.7-0.7,1.5-1.2,2.2-1.4c0.8-0.2,1.6-0.2,2.4,0.1
	c0.8,0.3,1.6,0.8,2.3,1.5c0.8,0.8,1.3,1.5,1.5,2.3c0.3,0.8,0.3,1.6,0.1,2.4C295.5,239.3,295,240.1,294.3,240.8z M292.1,241.1
	l1.2-1.2c0.5-0.5,0.9-1.1,1.1-1.7c0.2-0.6,0.1-1.1-0.1-1.7c-0.2-0.6-0.6-1.1-1.2-1.7c-0.6-0.6-1.1-1-1.7-1.2
	c-0.6-0.2-1.1-0.2-1.7-0.1c-0.6,0.1-1.1,0.5-1.6,1l-1.3,1.3L292.1,241.1z M300.7,234.7c-0.3,0.3-0.7,0.6-1.1,0.7
	c-0.4,0.1-0.8,0.2-1.2,0.1c-0.4-0.1-0.8-0.3-1.1-0.7c-0.3-0.3-0.5-0.6-0.6-0.9c-0.1-0.3-0.1-0.6,0-0.9c0.1-0.3,0.2-0.6,0.4-0.9
	c0.2-0.3,0.4-0.6,0.6-0.9c0.3-0.4,0.5-0.7,0.7-0.9c0.2-0.2,0.3-0.4,0.3-0.6c0-0.1,0-0.3-0.1-0.4l0,0c-0.3-0.3-0.6-0.5-1-0.5
	c-0.3,0-0.7,0.2-1,0.5c-0.4,0.4-0.6,0.7-0.6,1.1c0,0.4,0,0.7,0.1,0.9l-1.2,0.8c-0.2-0.4-0.3-0.9-0.3-1.3c0-0.4,0.1-0.8,0.3-1.2
	c0.2-0.4,0.5-0.7,0.8-1.1c0.2-0.2,0.5-0.4,0.8-0.6c0.3-0.2,0.6-0.3,1-0.4c0.3-0.1,0.7-0.1,1.1,0c0.4,0.1,0.8,0.4,1.2,0.8l3.6,3.6
	l-1,1l-0.7-0.7l0,0c0.1,0.2,0.1,0.4,0.1,0.7c0,0.3-0.1,0.6-0.2,0.9C301.2,234.1,301,234.4,300.7,234.7z M300.1,233.6
	c0.3-0.3,0.5-0.6,0.6-0.9c0.1-0.3,0.1-0.6,0-0.9c-0.1-0.3-0.2-0.6-0.4-0.8l-0.7-0.7c0,0.1,0,0.2-0.1,0.3c-0.1,0.1-0.2,0.3-0.3,0.4
	c-0.1,0.2-0.2,0.3-0.3,0.5c-0.1,0.1-0.2,0.3-0.3,0.4c-0.2,0.2-0.3,0.5-0.4,0.7c-0.1,0.2-0.2,0.4-0.1,0.7c0,0.2,0.1,0.4,0.3,0.6
	c0.3,0.3,0.6,0.4,0.9,0.3C299.5,234.1,299.8,233.9,300.1,233.6z M307.1,232c-0.2,0.2-0.3,0.3-0.5,0.4c-0.2,0.1-0.3,0.2-0.4,0.2
	l-0.6-1.1c0.2-0.1,0.4-0.3,0.6-0.4c0.1-0.2,0.2-0.3,0.2-0.6c0-0.2-0.1-0.5-0.2-0.8l-0.2-0.5l-7.4-3.5l1.1-1.1l5.6,2.8l0.1-0.1
	l-2.8-5.6l1.1-1.1l3.9,8.3c0.2,0.4,0.3,0.8,0.3,1.1c0,0.4,0,0.7-0.1,1C307.6,231.4,307.4,231.7,307.1,232z M315.4,219.7l-6-8.4
	l0.8-0.8l6,8.4L315.4,219.7z M310.2,221.1l-0.7-1l5.5-5.5l0.7,1L310.2,221.1z M312.8,222.3l-6-8.4l0.8-0.8l6,8.4L312.8,222.3z
	 M308.1,218.2l-0.7-1l5.5-5.5l0.7,1L308.1,218.2z M321.4,213.9c-0.4,0.4-0.9,0.8-1.4,0.9c-0.5,0.2-1,0.2-1.5,0.1s-1-0.3-1.4-0.7
	l1.1-1.1c0.3,0.3,0.7,0.4,1.2,0.4c0.4,0,0.8-0.2,1.2-0.6c0.3-0.3,0.5-0.6,0.5-0.9c0.1-0.3,0.1-0.7,0-1c-0.1-0.3-0.3-0.7-0.6-1
	c-0.3-0.3-0.6-0.5-1-0.6c-0.4-0.1-0.7-0.1-1.1,0c-0.4,0.1-0.7,0.3-1,0.6c-0.2,0.2-0.4,0.5-0.5,0.8c-0.1,0.3-0.2,0.6-0.2,0.8
	l-1.1,0.8l-3.2-4l4-4l0.9,0.9l-3.1,3.1l1.8,2.2l0,0c0-0.3,0.1-0.6,0.2-0.9c0.1-0.3,0.3-0.6,0.6-0.9c0.4-0.4,0.9-0.7,1.5-0.9
	c0.6-0.1,1.1-0.1,1.7,0c0.6,0.2,1.1,0.5,1.5,0.9c0.5,0.5,0.8,1,0.9,1.6c0.2,0.6,0.1,1.2,0,1.7C322.2,212.9,321.9,213.4,321.4,213.9z
	"/>
<path class="st5" d="M357.2,240.9l-2.3,2.3l-7.2-7.2l2.4-2.4c0.7-0.7,1.5-1.2,2.2-1.4c0.8-0.2,1.6-0.2,2.4,0.1
	c0.8,0.3,1.6,0.8,2.3,1.5c0.8,0.8,1.3,1.5,1.5,2.3c0.3,0.8,0.3,1.6,0.1,2.4C358.4,239.4,357.9,240.2,357.2,240.9z M355,241.2
	l1.2-1.2c0.5-0.5,0.9-1.1,1.1-1.7c0.2-0.6,0.1-1.1-0.1-1.7c-0.2-0.6-0.6-1.1-1.2-1.7c-0.6-0.6-1.1-1-1.7-1.2
	c-0.6-0.2-1.1-0.2-1.7-0.1c-0.6,0.1-1.1,0.5-1.6,1l-1.3,1.3L355,241.2z M363.6,234.7c-0.3,0.3-0.7,0.6-1.1,0.7
	c-0.4,0.1-0.8,0.2-1.2,0.1c-0.4-0.1-0.8-0.3-1.1-0.7c-0.3-0.3-0.5-0.6-0.6-0.9c-0.1-0.3-0.1-0.6,0-0.9c0.1-0.3,0.2-0.6,0.4-0.9
	c0.2-0.3,0.4-0.6,0.6-0.9c0.3-0.4,0.5-0.7,0.7-0.9c0.2-0.2,0.3-0.4,0.3-0.6c0-0.1,0-0.3-0.1-0.4l0,0c-0.3-0.3-0.6-0.5-1-0.5
	c-0.3,0-0.7,0.2-1,0.5c-0.4,0.4-0.6,0.7-0.6,1.1c0,0.4,0,0.7,0.1,0.9l-1.2,0.8c-0.2-0.4-0.3-0.9-0.3-1.3c0-0.4,0.1-0.8,0.3-1.2
	c0.2-0.4,0.5-0.7,0.8-1.1c0.2-0.2,0.5-0.4,0.8-0.6c0.3-0.2,0.6-0.3,1-0.4c0.3-0.1,0.7-0.1,1.1,0.1c0.4,0.1,0.8,0.4,1.2,0.8l3.6,3.6
	l-1,1l-0.7-0.7l0,0c0.1,0.2,0.1,0.4,0.1,0.7c0,0.3-0.1,0.6-0.2,0.9C364.1,234.1,363.9,234.4,363.6,234.7z M363,233.7
	c0.3-0.3,0.5-0.6,0.6-0.9c0.1-0.3,0.1-0.6,0-0.9c-0.1-0.3-0.2-0.6-0.4-0.8l-0.7-0.7c0,0.1,0,0.2-0.1,0.3c-0.1,0.1-0.2,0.3-0.3,0.4
	c-0.1,0.2-0.2,0.3-0.3,0.5c-0.1,0.1-0.2,0.3-0.3,0.4c-0.2,0.2-0.3,0.5-0.4,0.7c-0.1,0.2-0.2,0.4-0.1,0.7c0,0.2,0.1,0.4,0.3,0.6
	c0.3,0.3,0.6,0.4,0.9,0.3C362.4,234.1,362.7,234,363,233.7z M370.1,232.1c-0.2,0.2-0.3,0.3-0.5,0.4c-0.2,0.1-0.3,0.2-0.4,0.2
	l-0.6-1.1c0.2-0.1,0.4-0.3,0.6-0.4s0.2-0.3,0.2-0.6c0-0.2-0.1-0.5-0.2-0.8l-0.2-0.5l-7.4-3.5l1.1-1.1l5.6,2.8l0.1-0.1l-2.8-5.6
	l1.1-1.1l3.9,8.3c0.2,0.4,0.3,0.8,0.3,1.1c0,0.4,0,0.7-0.1,1C370.6,231.5,370.4,231.8,370.1,232.1z M378.3,219.8l-6-8.4l0.8-0.8
	l6,8.4L378.3,219.8z M373.1,221.2l-0.7-1l5.5-5.5l0.7,1L373.1,221.2z M375.8,222.4l-6-8.4l0.8-0.8l6,8.4L375.8,222.4z M371,218.2
	l-0.7-1l5.5-5.5l0.7,1L371,218.2z M384.5,213.8c-0.3,0.3-0.7,0.6-1.1,0.8c-0.4,0.2-0.9,0.3-1.4,0.3c-0.5,0-1.1-0.2-1.7-0.4
	c-0.6-0.3-1.2-0.8-1.9-1.4c-0.6-0.6-1.1-1.2-1.5-1.9c-0.4-0.6-0.6-1.2-0.7-1.8c-0.1-0.6-0.1-1.1,0.1-1.6c0.2-0.5,0.4-1,0.9-1.4
	c0.4-0.4,0.9-0.7,1.4-0.9c0.5-0.2,1-0.2,1.5-0.1c0.5,0.1,1,0.3,1.4,0.6l-1.1,1.1c-0.4-0.2-0.8-0.3-1.2-0.3c-0.4,0-0.8,0.2-1.1,0.6
	c-0.5,0.5-0.7,1.2-0.5,1.9c0.2,0.8,0.7,1.5,1.5,2.4l0.1-0.1c-0.1-0.3-0.1-0.7-0.1-1c0-0.3,0.1-0.6,0.3-0.9c0.1-0.3,0.3-0.6,0.6-0.8
	c0.4-0.4,0.9-0.7,1.4-0.8c0.5-0.1,1.1-0.1,1.6,0c0.6,0.2,1.1,0.5,1.5,0.9c0.5,0.5,0.8,1,0.9,1.6c0.2,0.6,0.2,1.2,0,1.8
	C385.3,212.8,385,213.3,384.5,213.8z M383.6,212.9c0.3-0.3,0.5-0.6,0.5-0.9s0.1-0.7,0-1.1s-0.3-0.7-0.6-1c-0.3-0.3-0.6-0.5-0.9-0.6
	c-0.4-0.1-0.7-0.1-1,0c-0.3,0.1-0.7,0.3-0.9,0.5c-0.2,0.2-0.4,0.4-0.5,0.7c-0.1,0.3-0.1,0.5-0.1,0.8c0,0.3,0.1,0.5,0.2,0.8
	c0.1,0.3,0.3,0.5,0.5,0.7c0.3,0.3,0.6,0.5,0.9,0.6c0.4,0.1,0.7,0.1,1.1,0C383,213.4,383.3,213.2,383.6,212.9z"/>
<path class="st5" d="M420,240.6l-2.3,2.3l-7.2-7.2l2.4-2.4c0.7-0.7,1.5-1.2,2.2-1.4c0.8-0.2,1.6-0.2,2.4,0.1
	c0.8,0.3,1.6,0.8,2.3,1.5c0.8,0.8,1.3,1.5,1.5,2.3c0.3,0.8,0.3,1.6,0.1,2.4C421.2,239.1,420.7,239.9,420,240.6z M417.8,240.9
	l1.2-1.2c0.5-0.5,0.9-1.1,1.1-1.7c0.2-0.6,0.1-1.1-0.1-1.7c-0.2-0.6-0.6-1.1-1.2-1.7c-0.6-0.6-1.1-1-1.7-1.2
	c-0.6-0.2-1.1-0.2-1.7-0.1c-0.6,0.2-1.1,0.5-1.6,1l-1.3,1.3L417.8,240.9z M426.4,234.5c-0.3,0.3-0.7,0.6-1.1,0.7
	c-0.4,0.1-0.8,0.2-1.2,0.1c-0.4-0.1-0.8-0.3-1.1-0.7c-0.3-0.3-0.5-0.6-0.6-0.9c-0.1-0.3-0.1-0.6,0-0.9c0.1-0.3,0.2-0.6,0.4-0.9
	c0.2-0.3,0.4-0.6,0.6-0.9c0.3-0.4,0.5-0.7,0.7-0.9c0.2-0.2,0.3-0.4,0.3-0.6s0-0.3-0.1-0.4l0,0c-0.3-0.3-0.6-0.5-1-0.5
	c-0.3,0-0.7,0.2-1,0.5c-0.4,0.4-0.6,0.7-0.6,1.1c0,0.4,0,0.7,0.1,0.9l-1.2,0.8c-0.2-0.4-0.3-0.9-0.3-1.3c0-0.4,0.1-0.8,0.3-1.2
	c0.2-0.4,0.5-0.7,0.8-1.1c0.2-0.2,0.5-0.4,0.8-0.6c0.3-0.2,0.6-0.3,1-0.4c0.3-0.1,0.7-0.1,1.1,0c0.4,0.1,0.8,0.4,1.2,0.8l3.6,3.6
	l-1,1l-0.7-0.7l0,0c0.1,0.2,0.1,0.4,0.1,0.7c0,0.3-0.1,0.6-0.2,0.9C426.9,233.9,426.7,234.2,426.4,234.5z M425.8,233.4
	c0.3-0.3,0.5-0.6,0.6-0.9c0.1-0.3,0.1-0.6,0-0.9c-0.1-0.3-0.2-0.6-0.4-0.8l-0.7-0.7c0,0.1,0,0.2-0.1,0.3c-0.1,0.1-0.2,0.3-0.3,0.4
	c-0.1,0.2-0.2,0.3-0.3,0.5c-0.1,0.1-0.2,0.3-0.3,0.4c-0.2,0.2-0.3,0.5-0.4,0.7c-0.1,0.2-0.2,0.4-0.1,0.7c0,0.2,0.1,0.4,0.3,0.6
	c0.3,0.3,0.6,0.4,0.9,0.3C425.2,233.9,425.5,233.7,425.8,233.4z M432.8,231.8c-0.2,0.2-0.3,0.3-0.5,0.4c-0.2,0.1-0.3,0.2-0.4,0.2
	l-0.6-1.1c0.2-0.1,0.4-0.3,0.6-0.4s0.2-0.3,0.2-0.6c0-0.2-0.1-0.5-0.2-0.8l-0.2-0.5l-7.4-3.5l1.1-1.1l5.6,2.8l0.1-0.1l-2.8-5.6
	l1.1-1.1l3.9,8.3c0.2,0.4,0.3,0.8,0.3,1.1c0,0.4,0,0.7-0.1,1C433.3,231.2,433.1,231.5,432.8,231.8z M441.1,219.5l-6-8.4l0.8-0.8
	l6,8.4L441.1,219.5z M435.9,220.9l-0.7-1l5.5-5.5l0.7,1L435.9,220.9z M438.6,222.1l-6-8.4l0.8-0.8l6,8.4L438.6,222.1z M433.8,217.9
	l-0.7-1l5.5-5.5l0.7,1L433.8,217.9z M444.9,215.7l-3.1-9.4l-0.1-0.1l-3.6,3.6l-0.9-0.9l4.8-4.8l1,1l3.1,9.4L444.9,215.7z"/>
<path class="st6" d="M8.3,1h476c3.9,0,7,3.1,7,7v264c0,3.9-3.1,7-7,7H8.3c-3.9,0-7-3.1-7-7V8C1.3,4.1,4.4,1,8.3,1z"/>
</svg>
