<?xml version="1.0" encoding="utf-8"?>
<!-- Generator: Adobe Illustrator 27.7.0, SVG Export Plug-In . SVG Version: 6.00 Build 0)  -->
<svg version="1.1" id="Layer_1" xmlns="http://www.w3.org/2000/svg" xmlns:xlink="http://www.w3.org/1999/xlink" x="0px" y="0px"
	 viewBox="0 0 492.7 280.6" style="enable-background:new 0 0 492.7 280.6;" xml:space="preserve">
<style type="text/css">
	.st0{fill:#FFFFFF;}
	.st1{fill:none;}
	.st2{clip-path:url(#SVGID_00000117668818629039985290000002210157231809149828_);}
	.st3{clip-path:url(#SVGID_00000016062306421042093860000018012973401468984477_);fill:#E4E6EC;}
	.st4{clip-path:url(#SVGID_00000115480266454258583170000018042007126192185763_);}
	.st5{clip-path:url(#SVGID_00000126303437943546153910000009498082404515637166_);fill:#E4E6EC;}
	.st6{clip-path:url(#SVGID_00000039095352715213951420000015723129862828411583_);}
	.st7{clip-path:url(#SVGID_00000028324036244123070830000018007419639941117852_);fill:#E4E6EC;}
	.st8{clip-path:url(#SVGID_00000119812126148883508440000010122922128546380719_);}
	.st9{clip-path:url(#SVGID_00000044858677681062741510000004494688176189295550_);fill:#E4E6EC;}
	.st10{clip-path:url(#SVGID_00000075151143497950008250000010912755056688650157_);}
	.st11{clip-path:url(#SVGID_00000167393466476971028430000011265422915797636533_);fill:#E4E6EC;}
	.st12{fill:#8759DA;}
	.st13{fill:#F7F8F8;}
	.st14{fill:none;stroke:#000000;stroke-width:2;}
</style>
<path class="st0" d="M8.7,1h476c3.9,0,7,3.1,7,7v264c0,3.9-3.1,7-7,7H8.7c-3.9,0-7-3.1-7-7V8C1.7,4.1,4.8,1,8.7,1z"/>
<rect x="187.1" y="24" class="st1" width="119.1" height="24"/>
<path class="st0" d="M32.7,52h428c4.4,0,8,3.6,8,8v130c0,4.4-3.6,8-8,8h-428c-4.4,0-8-3.6-8-8V60C24.7,55.6,28.3,52,32.7,52z"/>
<path d="M40.3,75.4c-0.1-0.5-0.3-1-0.8-1.2c-0.4-0.3-1-0.4-1.7-0.4c-0.5,0-0.9,0.1-1.2,0.2c-0.3,0.1-0.6,0.4-0.8,0.6
	c-0.2,0.3-0.3,0.6-0.3,0.9c0,0.3,0.1,0.5,0.2,0.7c0.1,0.2,0.3,0.4,0.5,0.5c0.2,0.1,0.4,0.2,0.7,0.3c0.2,0.1,0.5,0.2,0.7,0.2l1.1,0.3
	c0.4,0.1,0.8,0.2,1.1,0.4c0.4,0.2,0.8,0.4,1.1,0.6c0.3,0.3,0.6,0.6,0.8,0.9c0.2,0.4,0.3,0.8,0.3,1.3c0,0.7-0.2,1.2-0.5,1.8
	c-0.3,0.5-0.8,0.9-1.5,1.2c-0.6,0.3-1.4,0.4-2.3,0.4c-0.9,0-1.6-0.1-2.3-0.4c-0.6-0.3-1.1-0.7-1.5-1.2c-0.4-0.5-0.6-1.1-0.6-1.8h1.8
	c0,0.4,0.2,0.8,0.4,1.1c0.2,0.3,0.6,0.5,0.9,0.6c0.4,0.1,0.8,0.2,1.2,0.2c0.5,0,0.9-0.1,1.3-0.2c0.4-0.2,0.7-0.4,0.9-0.7
	c0.2-0.3,0.3-0.6,0.3-1c0-0.3-0.1-0.6-0.3-0.8c-0.2-0.2-0.5-0.4-0.8-0.5c-0.3-0.1-0.7-0.3-1.1-0.4l-1.4-0.4
	c-0.9-0.3-1.7-0.6-2.2-1.1c-0.5-0.5-0.8-1.1-0.8-2c0-0.7,0.2-1.3,0.5-1.8c0.4-0.5,0.9-0.9,1.5-1.2c0.6-0.3,1.3-0.4,2.1-0.4
	c0.8,0,1.5,0.1,2.1,0.4c0.6,0.3,1.1,0.7,1.4,1.1c0.3,0.5,0.5,1,0.5,1.7H40.3z M48.2,75.3v1.4h-4.8v-1.4H48.2z M44.7,73.2h1.7v8.3
	c0,0.3,0,0.6,0.1,0.7c0.1,0.2,0.2,0.3,0.4,0.3c0.2,0.1,0.3,0.1,0.5,0.1c0.1,0,0.3,0,0.4,0c0.1,0,0.2,0,0.2,0l0.3,1.4
	c-0.1,0-0.2,0.1-0.4,0.1c-0.2,0-0.4,0.1-0.7,0.1c-0.4,0-0.9-0.1-1.2-0.2c-0.4-0.2-0.7-0.4-0.9-0.8c-0.2-0.3-0.4-0.8-0.4-1.3V73.2z
	 M52.6,84.2c-0.6,0-1.1-0.1-1.5-0.3c-0.4-0.2-0.8-0.5-1.1-0.9c-0.3-0.4-0.4-0.9-0.4-1.4c0-0.5,0.1-0.9,0.3-1.2
	c0.2-0.3,0.4-0.6,0.8-0.8s0.7-0.3,1.1-0.4c0.4-0.1,0.8-0.2,1.2-0.2c0.5-0.1,0.9-0.1,1.3-0.1c0.3,0,0.6-0.1,0.7-0.2
	c0.1-0.1,0.2-0.2,0.2-0.4v0c0-0.5-0.1-0.9-0.4-1.2c-0.3-0.3-0.7-0.4-1.2-0.4c-0.6,0-1,0.1-1.4,0.4c-0.3,0.2-0.6,0.5-0.7,0.8
	l-1.6-0.4c0.2-0.5,0.5-1,0.8-1.3c0.4-0.3,0.8-0.6,1.3-0.7c0.5-0.2,1-0.2,1.5-0.2c0.3,0,0.7,0,1.1,0.1c0.4,0.1,0.8,0.2,1.1,0.4
	c0.3,0.2,0.6,0.5,0.8,0.9c0.2,0.4,0.3,0.9,0.3,1.6V84h-1.7v-1.2h-0.1c-0.1,0.2-0.3,0.4-0.5,0.6c-0.2,0.2-0.5,0.4-0.8,0.5
	C53.5,84.1,53.1,84.2,52.6,84.2z M53,82.8c0.5,0,0.9-0.1,1.2-0.3c0.3-0.2,0.6-0.4,0.8-0.7c0.2-0.3,0.3-0.6,0.3-1v-1.1
	c-0.1,0.1-0.2,0.1-0.4,0.2c-0.2,0-0.4,0.1-0.6,0.1c-0.2,0-0.4,0.1-0.6,0.1c-0.2,0-0.4,0-0.5,0.1c-0.3,0-0.6,0.1-0.9,0.2
	c-0.3,0.1-0.5,0.2-0.6,0.4c-0.2,0.2-0.2,0.4-0.2,0.7c0,0.4,0.2,0.7,0.5,1C52.1,82.7,52.5,82.8,53,82.8z M63.3,75.3v1.4h-4.8v-1.4
	H63.3z M59.8,73.2h1.7v8.3c0,0.3,0,0.6,0.1,0.7c0.1,0.2,0.2,0.3,0.4,0.3c0.2,0.1,0.3,0.1,0.5,0.1c0.1,0,0.3,0,0.4,0
	c0.1,0,0.2,0,0.2,0l0.3,1.4C63.3,84,63.2,84,63,84c-0.2,0-0.4,0.1-0.7,0.1c-0.4,0-0.9-0.1-1.2-0.2c-0.4-0.2-0.7-0.4-0.9-0.8
	c-0.2-0.3-0.4-0.8-0.4-1.3V73.2z M70.7,80.4v-5.1h1.7V84h-1.7v-1.5h-0.1c-0.2,0.5-0.5,0.9-1,1.2c-0.4,0.3-1,0.5-1.6,0.5
	c-0.6,0-1.1-0.1-1.5-0.4c-0.4-0.2-0.8-0.6-1-1.1c-0.2-0.5-0.4-1.1-0.4-1.8v-5.6h1.7v5.3c0,0.6,0.2,1.1,0.5,1.4
	c0.3,0.4,0.8,0.5,1.3,0.5c0.3,0,0.6-0.1,0.9-0.2c0.3-0.2,0.6-0.4,0.8-0.7C70.6,81.3,70.7,80.9,70.7,80.4z M81.2,77.4l-1.5,0.3
	c-0.1-0.2-0.2-0.4-0.3-0.6c-0.1-0.2-0.3-0.3-0.6-0.4c-0.2-0.1-0.5-0.2-0.9-0.2c-0.5,0-0.9,0.1-1.2,0.3c-0.3,0.2-0.5,0.5-0.5,0.8
	c0,0.3,0.1,0.5,0.3,0.7c0.2,0.2,0.6,0.3,1,0.4l1.4,0.3c0.8,0.2,1.4,0.5,1.8,0.9c0.4,0.4,0.6,0.9,0.6,1.5c0,0.5-0.2,1-0.5,1.4
	c-0.3,0.4-0.7,0.7-1.3,1c-0.5,0.2-1.2,0.3-1.9,0.3c-1,0-1.8-0.2-2.4-0.6c-0.6-0.4-1-1-1.1-1.8l1.6-0.2c0.1,0.4,0.3,0.8,0.6,1
	c0.3,0.2,0.7,0.3,1.2,0.3c0.6,0,1-0.1,1.3-0.3c0.3-0.2,0.5-0.5,0.5-0.9c0-0.3-0.1-0.5-0.3-0.7c-0.2-0.2-0.5-0.3-0.9-0.4l-1.5-0.3
	c-0.8-0.2-1.4-0.5-1.8-0.9c-0.4-0.4-0.6-0.9-0.6-1.5c0-0.5,0.1-1,0.4-1.4c0.3-0.4,0.7-0.7,1.2-0.9c0.5-0.2,1.1-0.3,1.7-0.3
	c0.9,0,1.7,0.2,2.2,0.6C80.7,76.2,81,76.7,81.2,77.4z"/>
<path d="M416.1,84V72.4h7v1.2h-5.6v3.9h5v1.2h-5V84H416.1z M427.9,84.2c-0.6,0-1.1-0.1-1.5-0.3c-0.4-0.2-0.8-0.5-1.1-0.9
	c-0.3-0.4-0.4-0.9-0.4-1.5c0-0.5,0.1-0.9,0.3-1.2c0.2-0.3,0.5-0.6,0.8-0.7c0.3-0.2,0.7-0.3,1.1-0.4c0.4-0.1,0.8-0.2,1.2-0.2
	c0.5-0.1,1-0.1,1.3-0.2c0.3,0,0.6-0.1,0.7-0.2c0.2-0.1,0.2-0.2,0.2-0.5v0c0-0.6-0.2-1-0.5-1.3c-0.3-0.3-0.8-0.5-1.4-0.5
	c-0.6,0-1.1,0.1-1.5,0.4c-0.4,0.3-0.6,0.6-0.8,0.9l-1.3-0.5c0.2-0.5,0.5-0.9,0.9-1.2c0.4-0.3,0.8-0.5,1.2-0.6
	c0.5-0.1,0.9-0.2,1.3-0.2c0.3,0,0.6,0,1,0.1c0.4,0.1,0.7,0.2,1.1,0.4c0.3,0.2,0.6,0.5,0.9,0.9c0.2,0.4,0.3,1,0.3,1.7V84h-1.3v-1.2
	h-0.1c-0.1,0.2-0.2,0.4-0.5,0.6c-0.2,0.2-0.5,0.4-0.8,0.6C428.8,84.1,428.4,84.2,427.9,84.2z M428.1,83c0.5,0,1-0.1,1.3-0.3
	c0.4-0.2,0.6-0.5,0.8-0.8c0.2-0.3,0.3-0.7,0.3-1v-1.2c-0.1,0.1-0.2,0.1-0.4,0.2c-0.2,0.1-0.4,0.1-0.7,0.1c-0.2,0-0.5,0.1-0.7,0.1
	c-0.2,0-0.4,0-0.6,0.1c-0.3,0-0.7,0.1-1,0.2c-0.3,0.1-0.5,0.2-0.7,0.4c-0.2,0.2-0.3,0.5-0.3,0.8c0,0.5,0.2,0.8,0.5,1.1
	C427.1,82.9,427.5,83,428.1,83z M434.3,84v-8.7h1.3V84H434.3z M435,73.8c-0.3,0-0.5-0.1-0.7-0.3c-0.2-0.2-0.3-0.4-0.3-0.6
	s0.1-0.5,0.3-0.6c0.2-0.2,0.4-0.3,0.7-0.3c0.3,0,0.5,0.1,0.7,0.3c0.2,0.2,0.3,0.4,0.3,0.6s-0.1,0.5-0.3,0.6
	C435.5,73.7,435.3,73.8,435,73.8z M439.5,72.4V84h-1.3V72.4H439.5z M445.6,84.2c-0.8,0-1.6-0.2-2.2-0.6c-0.6-0.4-1.1-0.9-1.4-1.6
	c-0.3-0.7-0.5-1.5-0.5-2.4c0-0.9,0.2-1.7,0.5-2.4c0.3-0.7,0.8-1.2,1.4-1.6c0.6-0.4,1.3-0.6,2.1-0.6c0.5,0,0.9,0.1,1.3,0.2
	c0.4,0.2,0.8,0.4,1.2,0.7c0.4,0.3,0.7,0.8,0.9,1.3c0.2,0.6,0.3,1.2,0.3,2.1v0.6h-6.7v-1.2h5.4c0-0.5-0.1-0.9-0.3-1.3
	c-0.2-0.4-0.5-0.7-0.8-0.9c-0.4-0.2-0.8-0.3-1.3-0.3c-0.5,0-1,0.1-1.4,0.4c-0.4,0.3-0.7,0.6-0.9,1c-0.2,0.4-0.3,0.9-0.3,1.4v0.8
	c0,0.7,0.1,1.2,0.3,1.7c0.2,0.5,0.6,0.8,1,1c0.4,0.2,0.9,0.4,1.4,0.4c0.4,0,0.7,0,1-0.1c0.3-0.1,0.5-0.3,0.7-0.5
	c0.2-0.2,0.4-0.5,0.5-0.8L449,82c-0.1,0.4-0.4,0.8-0.7,1.2c-0.3,0.3-0.7,0.6-1.2,0.8C446.7,84.1,446.2,84.2,445.6,84.2z M454.5,84.2
	c-0.7,0-1.4-0.2-1.9-0.6c-0.6-0.4-1-0.9-1.3-1.6c-0.3-0.7-0.5-1.5-0.5-2.4c0-0.9,0.2-1.7,0.5-2.4c0.3-0.7,0.8-1.2,1.3-1.6
	c0.6-0.4,1.2-0.6,1.9-0.6c0.6,0,1,0.1,1.3,0.3c0.3,0.2,0.6,0.4,0.8,0.6c0.2,0.2,0.3,0.4,0.4,0.6h0.1v-4.3h1.3V84h-1.3v-1.3h-0.2
	c-0.1,0.2-0.2,0.4-0.4,0.6c-0.2,0.2-0.4,0.5-0.8,0.6C455.5,84.1,455.1,84.2,454.5,84.2z M454.7,83c0.5,0,1-0.1,1.4-0.4
	c0.4-0.3,0.7-0.7,0.8-1.2c0.2-0.5,0.3-1.1,0.3-1.7c0-0.7-0.1-1.2-0.3-1.7c-0.2-0.5-0.5-0.9-0.8-1.1c-0.4-0.3-0.8-0.4-1.4-0.4
	c-0.6,0-1,0.1-1.4,0.4c-0.4,0.3-0.7,0.7-0.8,1.2c-0.2,0.5-0.3,1-0.3,1.7c0,0.6,0.1,1.2,0.3,1.7c0.2,0.5,0.5,0.9,0.9,1.2
	C453.7,82.8,454.1,83,454.7,83z"/>
<g>
	<defs>
		<polygon id="SVGID_1_" points="-6.3,1 -5.3,1 -6.3,2 		"/>
	</defs>
	<defs>
		<polygon id="SVGID_00000083048694096319474310000007932521722113369781_" points="-8.3,-1 -9.3,-1 -8.3,-2 		"/>
	</defs>
	<clipPath id="SVGID_00000172419134409090280520000013435092786350168492_">
		<use xlink:href="#SVGID_1_"  style="overflow:visible;"/>
	</clipPath>
	
		<clipPath id="SVGID_00000108292224631740235080000008739749250257306809_" style="clip-path:url(#SVGID_00000172419134409090280520000013435092786350168492_);">
		<use xlink:href="#SVGID_00000083048694096319474310000007932521722113369781_"  style="overflow:visible;"/>
	</clipPath>
	<path style="clip-path:url(#SVGID_00000108292224631740235080000008739749250257306809_);fill:#E4E6EC;" d="M460.7,89.5h-428v1h428
		V89.5z"/>
</g>
<path d="M33.4,97.9v-1.5h9v1.5h-3.6V108H37V97.9H33.4z M45.6,108.2c-0.6,0-1.1-0.1-1.5-0.3c-0.4-0.2-0.8-0.5-1.1-0.9
	c-0.3-0.4-0.4-0.9-0.4-1.4c0-0.5,0.1-0.9,0.3-1.2s0.4-0.6,0.8-0.8c0.3-0.2,0.7-0.3,1.1-0.4s0.8-0.2,1.2-0.2c0.5-0.1,0.9-0.1,1.3-0.1
	c0.3,0,0.6-0.1,0.7-0.2c0.1-0.1,0.2-0.2,0.2-0.4v0c0-0.5-0.1-0.9-0.4-1.2c-0.3-0.3-0.7-0.4-1.2-0.4c-0.6,0-1,0.1-1.4,0.4
	c-0.3,0.2-0.6,0.5-0.7,0.8l-1.6-0.4c0.2-0.5,0.5-1,0.8-1.3c0.4-0.3,0.8-0.6,1.3-0.7c0.5-0.2,1-0.2,1.5-0.2c0.3,0,0.7,0,1.1,0.1
	c0.4,0.1,0.8,0.2,1.1,0.4c0.3,0.2,0.6,0.5,0.8,0.9c0.2,0.4,0.3,0.9,0.3,1.6v5.8h-1.7v-1.2h-0.1c-0.1,0.2-0.3,0.4-0.5,0.6
	c-0.2,0.2-0.5,0.4-0.8,0.5S46.1,108.2,45.6,108.2z M46,106.8c0.5,0,0.9-0.1,1.2-0.3c0.3-0.2,0.6-0.4,0.8-0.7c0.2-0.3,0.3-0.6,0.3-1
	v-1.1c-0.1,0.1-0.2,0.1-0.4,0.2c-0.2,0-0.4,0.1-0.6,0.1c-0.2,0-0.4,0.1-0.6,0.1c-0.2,0-0.4,0-0.5,0.1c-0.3,0-0.6,0.1-0.9,0.2
	c-0.3,0.1-0.5,0.2-0.6,0.4c-0.2,0.2-0.2,0.4-0.2,0.7c0,0.4,0.2,0.7,0.5,1C45.1,106.7,45.5,106.8,46,106.8z M55.8,111.5
	c-0.7,0-1.3-0.1-1.8-0.3c-0.5-0.2-0.9-0.4-1.2-0.7c-0.3-0.3-0.5-0.6-0.7-1l1.5-0.6c0.1,0.2,0.2,0.3,0.4,0.5c0.2,0.2,0.4,0.4,0.7,0.5
	c0.3,0.1,0.7,0.2,1.2,0.2c0.6,0,1.2-0.2,1.6-0.5c0.4-0.3,0.6-0.8,0.6-1.5v-1.7H58c-0.1,0.2-0.2,0.4-0.4,0.6
	c-0.2,0.2-0.5,0.4-0.8,0.6c-0.3,0.2-0.8,0.2-1.3,0.2c-0.7,0-1.3-0.2-1.9-0.5c-0.5-0.3-1-0.8-1.3-1.4c-0.3-0.6-0.5-1.4-0.5-2.3
	c0-0.9,0.2-1.7,0.5-2.4c0.3-0.7,0.8-1.2,1.3-1.5c0.6-0.4,1.2-0.5,1.9-0.5c0.5,0,1,0.1,1.3,0.3c0.3,0.2,0.6,0.4,0.8,0.6
	c0.2,0.2,0.3,0.4,0.4,0.6h0.1v-1.4h1.7v8.9c0,0.8-0.2,1.4-0.5,1.8c-0.3,0.5-0.8,0.8-1.4,1.1C57.2,111.3,56.6,111.5,55.8,111.5z
	 M55.8,106.5c0.5,0,0.9-0.1,1.2-0.3c0.3-0.2,0.6-0.6,0.8-1c0.2-0.4,0.3-0.9,0.3-1.6c0-0.6-0.1-1.1-0.3-1.6c-0.2-0.4-0.4-0.8-0.8-1
	c-0.3-0.3-0.8-0.4-1.2-0.4c-0.5,0-0.9,0.1-1.3,0.4c-0.3,0.3-0.6,0.6-0.8,1.1c-0.2,0.5-0.3,1-0.3,1.5c0,0.6,0.1,1.1,0.3,1.5
	c0.2,0.4,0.4,0.8,0.8,1C54.9,106.3,55.3,106.5,55.8,106.5z M68,102.8v5.2h-1.7v-8.7h1.6v1.4H68c0.2-0.5,0.5-0.8,0.9-1.1
	c0.4-0.3,1-0.4,1.6-0.4c0.6,0,1.1,0.1,1.6,0.4c0.4,0.2,0.8,0.6,1,1.1c0.2,0.5,0.4,1.1,0.4,1.8v5.6h-1.7v-5.3c0-0.6-0.2-1.1-0.5-1.5
	c-0.3-0.4-0.8-0.5-1.4-0.5c-0.4,0-0.7,0.1-1.1,0.3c-0.3,0.2-0.5,0.4-0.7,0.8C68.1,102,68,102.4,68,102.8z M78.4,108.2
	c-0.6,0-1.1-0.1-1.5-0.3c-0.4-0.2-0.8-0.5-1.1-0.9c-0.3-0.4-0.4-0.9-0.4-1.4c0-0.5,0.1-0.9,0.3-1.2s0.4-0.6,0.8-0.8
	c0.3-0.2,0.7-0.3,1.1-0.4c0.4-0.1,0.8-0.2,1.2-0.2c0.5-0.1,0.9-0.1,1.3-0.1c0.3,0,0.6-0.1,0.7-0.2c0.1-0.1,0.2-0.2,0.2-0.4v0
	c0-0.5-0.1-0.9-0.4-1.2c-0.3-0.3-0.7-0.4-1.2-0.4c-0.6,0-1,0.1-1.4,0.4c-0.3,0.2-0.6,0.5-0.7,0.8l-1.6-0.4c0.2-0.5,0.5-1,0.8-1.3
	c0.4-0.3,0.8-0.6,1.3-0.7c0.5-0.2,1-0.2,1.5-0.2c0.3,0,0.7,0,1.1,0.1c0.4,0.1,0.8,0.2,1.1,0.4c0.3,0.2,0.6,0.5,0.8,0.9
	c0.2,0.4,0.3,0.9,0.3,1.6v5.8H81v-1.2H81c-0.1,0.2-0.3,0.4-0.5,0.6c-0.2,0.2-0.5,0.4-0.8,0.5C79.3,108.1,78.9,108.2,78.4,108.2z
	 M78.7,106.8c0.5,0,0.9-0.1,1.2-0.3c0.3-0.2,0.6-0.4,0.8-0.7c0.2-0.3,0.3-0.6,0.3-1v-1.1c-0.1,0.1-0.2,0.1-0.4,0.2
	c-0.2,0-0.4,0.1-0.6,0.1c-0.2,0-0.4,0.1-0.6,0.1c-0.2,0-0.4,0-0.5,0.1c-0.3,0-0.6,0.1-0.9,0.2c-0.3,0.1-0.5,0.2-0.6,0.4
	c-0.2,0.2-0.2,0.4-0.2,0.7c0,0.4,0.2,0.7,0.5,1C77.9,106.7,78.3,106.8,78.7,106.8z M84.9,108v-8.7h1.6v1.4h0.1
	c0.2-0.5,0.5-0.9,0.9-1.1c0.4-0.3,0.9-0.4,1.5-0.4c0.6,0,1.1,0.1,1.5,0.4c0.4,0.3,0.7,0.6,0.9,1.1h0.1c0.2-0.5,0.5-0.8,1-1.1
	c0.5-0.3,1-0.4,1.6-0.4c0.8,0,1.4,0.2,1.9,0.7c0.5,0.5,0.8,1.2,0.8,2.2v5.9h-1.7v-5.7c0-0.6-0.2-1-0.5-1.3c-0.3-0.3-0.7-0.4-1.2-0.4
	c-0.6,0-1,0.2-1.3,0.5c-0.3,0.3-0.5,0.8-0.5,1.3v5.6H90v-5.8c0-0.5-0.1-0.9-0.4-1.1c-0.3-0.3-0.7-0.4-1.2-0.4
	c-0.3,0-0.6,0.1-0.9,0.3c-0.3,0.2-0.5,0.4-0.7,0.7c-0.2,0.3-0.2,0.6-0.2,1v5.4H84.9z M102.9,108.2c-0.9,0-1.6-0.2-2.2-0.6
	c-0.6-0.4-1.1-0.9-1.4-1.6c-0.3-0.7-0.5-1.5-0.5-2.4c0-0.9,0.2-1.7,0.5-2.4c0.3-0.7,0.8-1.2,1.4-1.6c0.6-0.4,1.3-0.6,2.1-0.6
	c0.5,0,1,0.1,1.4,0.2c0.5,0.2,0.9,0.4,1.2,0.8c0.4,0.3,0.7,0.8,0.9,1.4c0.2,0.6,0.3,1.2,0.3,2v0.6h-6.9v-1.3h5.3
	c0-0.4-0.1-0.8-0.3-1.2c-0.2-0.3-0.4-0.6-0.8-0.8c-0.3-0.2-0.7-0.3-1.1-0.3c-0.5,0-0.9,0.1-1.2,0.4c-0.4,0.2-0.6,0.5-0.8,0.9
	c-0.2,0.4-0.3,0.8-0.3,1.2v1c0,0.6,0.1,1.1,0.3,1.5c0.2,0.4,0.5,0.7,0.9,0.9c0.4,0.2,0.8,0.3,1.3,0.3c0.3,0,0.6,0,0.9-0.1
	c0.3-0.1,0.5-0.2,0.7-0.4c0.2-0.2,0.3-0.4,0.4-0.7l1.6,0.3c-0.1,0.5-0.4,0.9-0.7,1.2c-0.3,0.4-0.7,0.6-1.2,0.8
	C104.1,108.1,103.5,108.2,102.9,108.2z"/>
<path d="M355.1,108V96.4h7v1.2h-5.6v3.9h5v1.2h-5v5.2H355.1z M366.9,108.2c-0.6,0-1.1-0.1-1.5-0.3c-0.4-0.2-0.8-0.5-1.1-0.9
	c-0.3-0.4-0.4-0.9-0.4-1.5c0-0.5,0.1-0.9,0.3-1.2c0.2-0.3,0.5-0.6,0.8-0.7c0.3-0.2,0.7-0.3,1.1-0.4c0.4-0.1,0.8-0.2,1.2-0.2
	c0.5-0.1,1-0.1,1.3-0.2c0.3,0,0.6-0.1,0.7-0.2c0.2-0.1,0.2-0.2,0.2-0.5v0c0-0.6-0.2-1-0.5-1.3c-0.3-0.3-0.8-0.5-1.4-0.5
	c-0.6,0-1.1,0.1-1.5,0.4c-0.4,0.3-0.6,0.6-0.8,0.9l-1.3-0.5c0.2-0.5,0.5-0.9,0.9-1.2c0.4-0.3,0.8-0.5,1.2-0.6
	c0.5-0.1,0.9-0.2,1.3-0.2c0.3,0,0.6,0,1,0.1c0.4,0.1,0.7,0.2,1.1,0.4c0.3,0.2,0.6,0.5,0.9,0.9c0.2,0.4,0.3,1,0.3,1.7v5.8h-1.3v-1.2
	h-0.1c-0.1,0.2-0.2,0.4-0.5,0.6c-0.2,0.2-0.5,0.4-0.8,0.6C367.8,108.1,367.4,108.2,366.9,108.2z M367.1,107c0.5,0,1-0.1,1.3-0.3
	c0.4-0.2,0.6-0.5,0.8-0.8c0.2-0.3,0.3-0.7,0.3-1v-1.2c-0.1,0.1-0.2,0.1-0.4,0.2c-0.2,0.1-0.4,0.1-0.7,0.1c-0.2,0-0.5,0.1-0.7,0.1
	c-0.2,0-0.4,0.1-0.6,0.1c-0.3,0-0.7,0.1-1,0.2c-0.3,0.1-0.5,0.2-0.7,0.4c-0.2,0.2-0.3,0.5-0.3,0.8c0,0.5,0.2,0.8,0.5,1.1
	C366.1,106.9,366.5,107,367.1,107z M376.9,108.2c-0.8,0-1.5-0.2-2.1-0.6c-0.6-0.4-1-0.9-1.4-1.6c-0.3-0.7-0.5-1.5-0.5-2.3
	c0-0.9,0.2-1.7,0.5-2.3c0.3-0.7,0.8-1.2,1.4-1.6c0.6-0.4,1.3-0.6,2.1-0.6c0.6,0,1.2,0.1,1.7,0.3c0.5,0.2,0.9,0.5,1.2,1
	c0.3,0.4,0.5,0.9,0.6,1.4H379c-0.1-0.4-0.3-0.8-0.7-1.1c-0.3-0.3-0.8-0.5-1.4-0.5c-0.5,0-1,0.1-1.4,0.4c-0.4,0.3-0.7,0.6-0.9,1.1
	c-0.2,0.5-0.3,1.1-0.3,1.7c0,0.7,0.1,1.3,0.3,1.8c0.2,0.5,0.5,0.9,0.9,1.2c0.4,0.3,0.9,0.4,1.4,0.4c0.3,0,0.7-0.1,0.9-0.2
	c0.3-0.1,0.5-0.3,0.7-0.5c0.2-0.2,0.3-0.5,0.4-0.8h1.3c-0.1,0.5-0.3,1-0.6,1.4c-0.3,0.4-0.7,0.7-1.2,1
	C378.1,108.1,377.5,108.2,376.9,108.2z M385.9,108.2c-0.8,0-1.6-0.2-2.2-0.6c-0.6-0.4-1.1-0.9-1.4-1.6c-0.3-0.7-0.5-1.5-0.5-2.4
	c0-0.9,0.2-1.7,0.5-2.4c0.3-0.7,0.8-1.2,1.4-1.6c0.6-0.4,1.3-0.6,2.1-0.6c0.5,0,0.9,0.1,1.3,0.2c0.4,0.2,0.8,0.4,1.2,0.7
	c0.4,0.3,0.7,0.8,0.9,1.3c0.2,0.6,0.3,1.2,0.3,2.1v0.6h-6.7v-1.2h5.4c0-0.5-0.1-0.9-0.3-1.3c-0.2-0.4-0.5-0.7-0.8-0.9
	c-0.4-0.2-0.8-0.3-1.3-0.3c-0.5,0-1,0.1-1.4,0.4c-0.4,0.3-0.7,0.6-0.9,1c-0.2,0.4-0.3,0.9-0.3,1.4v0.8c0,0.7,0.1,1.2,0.3,1.7
	c0.2,0.5,0.6,0.8,1,1c0.4,0.2,0.9,0.4,1.4,0.4c0.4,0,0.7,0,1-0.1c0.3-0.1,0.5-0.3,0.7-0.5c0.2-0.2,0.4-0.5,0.5-0.8l1.3,0.4
	c-0.1,0.4-0.4,0.8-0.7,1.2c-0.3,0.3-0.7,0.6-1.2,0.8C387,108.1,386.5,108.2,385.9,108.2z M391.7,108V96.4h1.3v4.3h0.1
	c0.1-0.2,0.2-0.3,0.4-0.6c0.2-0.2,0.4-0.5,0.8-0.6c0.3-0.2,0.8-0.3,1.4-0.3c0.7,0,1.4,0.2,1.9,0.6c0.6,0.4,1,0.9,1.3,1.6
	c0.3,0.7,0.5,1.5,0.5,2.4c0,0.9-0.2,1.7-0.5,2.4c-0.3,0.7-0.8,1.2-1.3,1.6c-0.6,0.4-1.2,0.6-1.9,0.6c-0.6,0-1-0.1-1.3-0.3
	c-0.3-0.2-0.6-0.4-0.8-0.6c-0.2-0.2-0.3-0.4-0.4-0.6H393v1.3H391.7z M393.1,103.6c0,0.7,0.1,1.2,0.3,1.7c0.2,0.5,0.5,0.9,0.8,1.2
	c0.4,0.3,0.8,0.4,1.4,0.4c0.6,0,1-0.1,1.4-0.4c0.4-0.3,0.7-0.7,0.9-1.2c0.2-0.5,0.3-1.1,0.3-1.7c0-0.6-0.1-1.2-0.3-1.7
	c-0.2-0.5-0.5-0.9-0.8-1.2c-0.4-0.3-0.8-0.4-1.4-0.4c-0.5,0-1,0.1-1.4,0.4c-0.4,0.3-0.7,0.7-0.8,1.1
	C393.2,102.4,393.1,103,393.1,103.6z M405,108.2c-0.8,0-1.5-0.2-2.1-0.6c-0.6-0.4-1.1-0.9-1.4-1.6c-0.3-0.7-0.5-1.5-0.5-2.4
	c0-0.9,0.2-1.7,0.5-2.4c0.3-0.7,0.8-1.2,1.4-1.6c0.6-0.4,1.3-0.6,2.1-0.6c0.8,0,1.5,0.2,2.1,0.6c0.6,0.4,1.1,0.9,1.4,1.6
	c0.3,0.7,0.5,1.5,0.5,2.4c0,0.9-0.2,1.7-0.5,2.4c-0.3,0.7-0.8,1.2-1.4,1.6C406.5,108,405.8,108.2,405,108.2z M405,107
	c0.6,0,1.1-0.2,1.5-0.5c0.4-0.3,0.7-0.7,0.9-1.2c0.2-0.5,0.3-1,0.3-1.6c0-0.6-0.1-1.1-0.3-1.6c-0.2-0.5-0.5-0.9-0.9-1.2
	c-0.4-0.3-0.9-0.5-1.5-0.5c-0.6,0-1.1,0.2-1.5,0.5c-0.4,0.3-0.7,0.7-0.9,1.2c-0.2,0.5-0.3,1-0.3,1.6c0,0.6,0.1,1.1,0.3,1.6
	c0.2,0.5,0.5,0.9,0.9,1.2C404,106.8,404.5,107,405,107z M414.6,108.2c-0.8,0-1.5-0.2-2.1-0.6c-0.6-0.4-1.1-0.9-1.4-1.6
	c-0.3-0.7-0.5-1.5-0.5-2.4c0-0.9,0.2-1.7,0.5-2.4c0.3-0.7,0.8-1.2,1.4-1.6c0.6-0.4,1.3-0.6,2.1-0.6s1.5,0.2,2.1,0.6
	c0.6,0.4,1.1,0.9,1.4,1.6c0.3,0.7,0.5,1.5,0.5,2.4c0,0.9-0.2,1.7-0.5,2.4c-0.3,0.7-0.8,1.2-1.4,1.6
	C416.1,108,415.4,108.2,414.6,108.2z M414.6,107c0.6,0,1.1-0.2,1.5-0.5c0.4-0.3,0.7-0.7,0.9-1.2c0.2-0.5,0.3-1,0.3-1.6
	c0-0.6-0.1-1.1-0.3-1.6c-0.2-0.5-0.5-0.9-0.9-1.2c-0.4-0.3-0.9-0.5-1.5-0.5c-0.6,0-1.1,0.2-1.5,0.5c-0.4,0.3-0.7,0.7-0.9,1.2
	c-0.2,0.5-0.3,1-0.3,1.6c0,0.6,0.1,1.1,0.3,1.6c0.2,0.5,0.5,0.9,0.9,1.2C413.5,106.8,414,107,414.6,107z M421.8,104.8l0-1.7h0.3
	l3.8-3.9h1.7l-4.1,4.1h-0.1L421.8,104.8z M420.6,108V96.4h1.3V108H420.6z M426.1,108l-3.4-4.3l1-0.9l4.2,5.2H426.1z M435.3,108v1.2
	h-7.3V108H435.3z M440.3,99.3v1.1h-4.5v-1.1H440.3z M437.1,97.2h1.3v8.3c0,0.4,0.1,0.7,0.2,0.9c0.1,0.2,0.3,0.3,0.4,0.4
	c0.2,0.1,0.4,0.1,0.6,0.1c0.1,0,0.3,0,0.4,0c0.1,0,0.2,0,0.2,0l0.3,1.2c-0.1,0-0.2,0.1-0.4,0.1c-0.2,0-0.4,0.1-0.6,0.1
	c-0.4,0-0.8-0.1-1.1-0.2c-0.4-0.2-0.7-0.4-0.9-0.7c-0.2-0.3-0.4-0.8-0.4-1.3V97.2z M444.9,108.2c-0.6,0-1.1-0.1-1.5-0.3
	c-0.4-0.2-0.8-0.5-1.1-0.9c-0.3-0.4-0.4-0.9-0.4-1.5c0-0.5,0.1-0.9,0.3-1.2c0.2-0.3,0.5-0.6,0.8-0.7c0.3-0.2,0.7-0.3,1.1-0.4
	c0.4-0.1,0.8-0.2,1.2-0.2c0.5-0.1,1-0.1,1.3-0.2c0.3,0,0.6-0.1,0.7-0.2c0.2-0.1,0.2-0.2,0.2-0.5v0c0-0.6-0.2-1-0.5-1.3
	c-0.3-0.3-0.8-0.5-1.4-0.5c-0.6,0-1.1,0.1-1.5,0.4c-0.4,0.3-0.6,0.6-0.8,0.9l-1.3-0.5c0.2-0.5,0.5-0.9,0.9-1.2
	c0.4-0.3,0.8-0.5,1.2-0.6c0.5-0.1,0.9-0.2,1.3-0.2c0.3,0,0.6,0,1,0.1c0.4,0.1,0.7,0.2,1.1,0.4c0.3,0.2,0.6,0.5,0.9,0.9
	c0.2,0.4,0.3,1,0.3,1.7v5.8h-1.3v-1.2h-0.1c-0.1,0.2-0.2,0.4-0.5,0.6c-0.2,0.2-0.5,0.4-0.8,0.6C445.9,108.1,445.4,108.2,444.9,108.2
	z M445.1,107c0.5,0,1-0.1,1.3-0.3c0.4-0.2,0.6-0.5,0.8-0.8c0.2-0.3,0.3-0.7,0.3-1v-1.2c-0.1,0.1-0.2,0.1-0.4,0.2
	c-0.2,0.1-0.4,0.1-0.7,0.1c-0.2,0-0.5,0.1-0.7,0.1c-0.2,0-0.4,0.1-0.6,0.1c-0.3,0-0.7,0.1-1,0.2c-0.3,0.1-0.5,0.2-0.7,0.4
	c-0.2,0.2-0.3,0.5-0.3,0.8c0,0.5,0.2,0.8,0.5,1.1C444.1,106.9,444.6,107,445.1,107z M454.9,111.5c-0.6,0-1.2-0.1-1.7-0.2
	c-0.5-0.2-0.9-0.4-1.2-0.6c-0.3-0.3-0.6-0.5-0.7-0.9l1.1-0.8c0.1,0.2,0.3,0.3,0.5,0.5c0.2,0.2,0.4,0.4,0.8,0.5
	c0.3,0.2,0.8,0.2,1.3,0.2c0.7,0,1.3-0.2,1.7-0.5c0.5-0.3,0.7-0.9,0.7-1.6v-1.8h-0.1c-0.1,0.2-0.2,0.4-0.4,0.6
	c-0.2,0.2-0.4,0.4-0.8,0.6c-0.3,0.2-0.8,0.3-1.4,0.3c-0.7,0-1.3-0.2-1.9-0.5c-0.6-0.3-1-0.8-1.3-1.5c-0.3-0.6-0.5-1.4-0.5-2.3
	c0-0.9,0.2-1.7,0.5-2.3c0.3-0.7,0.8-1.2,1.3-1.5c0.6-0.4,1.2-0.6,1.9-0.6c0.6,0,1,0.1,1.4,0.3c0.3,0.2,0.6,0.4,0.8,0.6
	c0.2,0.2,0.3,0.4,0.4,0.6h0.1v-1.4h1.3v9c0,0.8-0.2,1.4-0.5,1.8c-0.3,0.5-0.8,0.8-1.4,1C456.2,111.3,455.6,111.5,454.9,111.5z
	 M454.8,106.7c0.5,0,1-0.1,1.4-0.4c0.4-0.2,0.7-0.6,0.8-1.1c0.2-0.5,0.3-1,0.3-1.7c0-0.6-0.1-1.2-0.3-1.7c-0.2-0.5-0.5-0.9-0.8-1.1
	c-0.4-0.3-0.8-0.4-1.4-0.4c-0.6,0-1,0.1-1.4,0.4c-0.4,0.3-0.7,0.7-0.8,1.2c-0.2,0.5-0.3,1-0.3,1.6c0,0.6,0.1,1.1,0.3,1.6
	c0.2,0.5,0.5,0.8,0.9,1.1C453.8,106.5,454.3,106.7,454.8,106.7z"/>
<g>
	<defs>
		<polygon id="SVGID_00000039113658164275025160000012819431187178706344_" points="-6.3,1 -5.3,1 -6.3,2 		"/>
	</defs>
	<defs>
		<polygon id="SVGID_00000106139575922996343410000003027455209072205194_" points="-8.3,-1 -9.3,-1 -8.3,-2 		"/>
	</defs>
	<clipPath id="SVGID_00000015318621496297297510000010158729166156870845_">
		<use xlink:href="#SVGID_00000039113658164275025160000012819431187178706344_"  style="overflow:visible;"/>
	</clipPath>
	
		<clipPath id="SVGID_00000155147978296047811300000014490121526311764124_" style="clip-path:url(#SVGID_00000015318621496297297510000010158729166156870845_);">
		<use xlink:href="#SVGID_00000106139575922996343410000003027455209072205194_"  style="overflow:visible;"/>
	</clipPath>
	<path style="clip-path:url(#SVGID_00000155147978296047811300000014490121526311764124_);fill:#E4E6EC;" d="M460.7,113.5h-428v1
		h428V113.5z"/>
</g>
<path d="M34,132v-11.6h7.3v1.5h-5.5v3.5h5.2v1.5h-5.2v3.6h5.6v1.5H34z M50.9,123.3l-3.2,8.7h-1.8l-3.2-8.7h1.8l2.2,6.7h0.1l2.2-6.7
	H50.9z M56,132.2c-0.9,0-1.6-0.2-2.2-0.6c-0.6-0.4-1.1-0.9-1.4-1.6c-0.3-0.7-0.5-1.5-0.5-2.4c0-0.9,0.2-1.7,0.5-2.4
	c0.3-0.7,0.8-1.2,1.4-1.6c0.6-0.4,1.3-0.6,2.1-0.6c0.5,0,1,0.1,1.4,0.2c0.5,0.2,0.9,0.4,1.2,0.8c0.4,0.3,0.7,0.8,0.9,1.4
	c0.2,0.6,0.3,1.2,0.3,2v0.6h-6.9v-1.3h5.3c0-0.4-0.1-0.8-0.3-1.2c-0.2-0.3-0.4-0.6-0.8-0.8c-0.3-0.2-0.7-0.3-1.1-0.3
	c-0.5,0-0.9,0.1-1.2,0.4c-0.4,0.2-0.6,0.5-0.8,0.9c-0.2,0.4-0.3,0.8-0.3,1.2v1c0,0.6,0.1,1.1,0.3,1.5c0.2,0.4,0.5,0.7,0.9,0.9
	c0.4,0.2,0.8,0.3,1.3,0.3c0.3,0,0.6,0,0.9-0.1c0.3-0.1,0.5-0.2,0.7-0.4c0.2-0.2,0.3-0.4,0.4-0.7l1.6,0.3c-0.1,0.5-0.4,0.9-0.7,1.2
	c-0.3,0.4-0.7,0.6-1.2,0.8C57.2,132.1,56.6,132.2,56,132.2z M63.3,126.8v5.2h-1.7v-8.7h1.6v1.4h0.1c0.2-0.5,0.5-0.8,0.9-1.1
	c0.4-0.3,1-0.4,1.6-0.4c0.6,0,1.1,0.1,1.6,0.4c0.4,0.2,0.8,0.6,1,1.1c0.2,0.5,0.4,1.1,0.4,1.8v5.6h-1.7v-5.3c0-0.6-0.2-1.1-0.5-1.5
	c-0.3-0.4-0.8-0.5-1.4-0.5c-0.4,0-0.7,0.1-1.1,0.3c-0.3,0.2-0.5,0.4-0.7,0.8C63.4,126,63.3,126.4,63.3,126.8z M75.3,123.3v1.4h-4.8
	v-1.4H75.3z M71.8,121.2h1.7v8.3c0,0.3,0,0.6,0.1,0.7c0.1,0.2,0.2,0.3,0.4,0.3c0.2,0.1,0.3,0.1,0.5,0.1c0.1,0,0.3,0,0.4,0
	c0.1,0,0.2,0,0.2,0l0.3,1.4c-0.1,0-0.2,0.1-0.4,0.1c-0.2,0-0.4,0.1-0.7,0.1c-0.4,0-0.9-0.1-1.2-0.2c-0.4-0.2-0.7-0.4-0.9-0.8
	c-0.2-0.3-0.4-0.8-0.4-1.3V121.2z M83.1,126.8v5.2h-1.7v-8.7H83v1.4h0.1c0.2-0.5,0.5-0.8,0.9-1.1c0.4-0.3,1-0.4,1.6-0.4
	c0.6,0,1.1,0.1,1.6,0.4c0.4,0.2,0.8,0.6,1,1.1c0.2,0.5,0.4,1.1,0.4,1.8v5.6H87v-5.3c0-0.6-0.2-1.1-0.5-1.5c-0.3-0.4-0.8-0.5-1.4-0.5
	c-0.4,0-0.7,0.1-1.1,0.3c-0.3,0.2-0.5,0.4-0.7,0.8C83.2,126,83.1,126.4,83.1,126.8z M93.5,132.2c-0.6,0-1.1-0.1-1.5-0.3
	c-0.4-0.2-0.8-0.5-1.1-0.9c-0.3-0.4-0.4-0.9-0.4-1.4c0-0.5,0.1-0.9,0.3-1.2c0.2-0.3,0.4-0.6,0.8-0.8c0.3-0.2,0.7-0.3,1.1-0.4
	c0.4-0.1,0.8-0.2,1.2-0.2c0.5-0.1,0.9-0.1,1.3-0.1c0.3,0,0.6-0.1,0.7-0.2c0.1-0.1,0.2-0.2,0.2-0.4v0c0-0.5-0.1-0.9-0.4-1.2
	c-0.3-0.3-0.7-0.4-1.2-0.4c-0.6,0-1,0.1-1.4,0.4c-0.3,0.2-0.6,0.5-0.7,0.8l-1.6-0.4c0.2-0.5,0.5-1,0.8-1.3c0.4-0.3,0.8-0.6,1.3-0.7
	c0.5-0.2,1-0.2,1.5-0.2c0.3,0,0.7,0,1.1,0.1c0.4,0.1,0.8,0.2,1.1,0.4c0.3,0.2,0.6,0.5,0.8,0.9c0.2,0.4,0.3,0.9,0.3,1.6v5.8h-1.7
	v-1.2h-0.1c-0.1,0.2-0.3,0.4-0.5,0.6c-0.2,0.2-0.5,0.4-0.8,0.5S94,132.2,93.5,132.2z M93.8,130.8c0.5,0,0.9-0.1,1.2-0.3
	c0.3-0.2,0.6-0.4,0.8-0.7c0.2-0.3,0.3-0.6,0.3-1v-1.1c-0.1,0.1-0.2,0.1-0.4,0.2c-0.2,0-0.4,0.1-0.6,0.1c-0.2,0-0.4,0.1-0.6,0.1
	c-0.2,0-0.4,0-0.5,0.1c-0.3,0-0.6,0.1-0.9,0.2c-0.3,0.1-0.5,0.2-0.6,0.4c-0.2,0.2-0.2,0.4-0.2,0.7c0,0.4,0.2,0.7,0.5,1
	C93,130.7,93.4,130.8,93.8,130.8z M100,132v-8.7h1.6v1.4h0.1c0.2-0.5,0.5-0.9,0.9-1.1c0.4-0.3,0.9-0.4,1.5-0.4
	c0.6,0,1.1,0.1,1.5,0.4c0.4,0.3,0.7,0.6,0.9,1.1h0.1c0.2-0.5,0.5-0.8,1-1.1c0.5-0.3,1-0.4,1.6-0.4c0.8,0,1.4,0.2,1.9,0.7
	c0.5,0.5,0.8,1.2,0.8,2.2v5.9h-1.7v-5.7c0-0.6-0.2-1-0.5-1.3s-0.7-0.4-1.2-0.4c-0.6,0-1,0.2-1.3,0.5c-0.3,0.3-0.5,0.8-0.5,1.3v5.6
	h-1.7v-5.8c0-0.5-0.1-0.9-0.4-1.1c-0.3-0.3-0.7-0.4-1.2-0.4c-0.3,0-0.6,0.1-0.9,0.3c-0.3,0.2-0.5,0.4-0.7,0.7
	c-0.2,0.3-0.2,0.6-0.2,1v5.4H100z M117.9,132.2c-0.9,0-1.6-0.2-2.2-0.6c-0.6-0.4-1.1-0.9-1.4-1.6c-0.3-0.7-0.5-1.5-0.5-2.4
	c0-0.9,0.2-1.7,0.5-2.4c0.3-0.7,0.8-1.2,1.4-1.6c0.6-0.4,1.3-0.6,2.1-0.6c0.5,0,1,0.1,1.4,0.2c0.5,0.2,0.9,0.4,1.2,0.8
	c0.4,0.3,0.7,0.8,0.9,1.4c0.2,0.6,0.3,1.2,0.3,2v0.6h-6.9v-1.3h5.3c0-0.4-0.1-0.8-0.3-1.2c-0.2-0.3-0.4-0.6-0.8-0.8
	c-0.3-0.2-0.7-0.3-1.1-0.3c-0.5,0-0.9,0.1-1.2,0.4c-0.4,0.2-0.6,0.5-0.8,0.9c-0.2,0.4-0.3,0.8-0.3,1.2v1c0,0.6,0.1,1.1,0.3,1.5
	c0.2,0.4,0.5,0.7,0.9,0.9c0.4,0.2,0.8,0.3,1.3,0.3c0.3,0,0.6,0,0.9-0.1c0.3-0.1,0.5-0.2,0.7-0.4c0.2-0.2,0.3-0.4,0.4-0.7l1.6,0.3
	c-0.1,0.5-0.4,0.9-0.7,1.2c-0.3,0.4-0.7,0.6-1.2,0.8C119.1,132.1,118.6,132.2,117.9,132.2z"/>
<path d="M342.1,132v-11.6h3.9c0.9,0,1.7,0.2,2.2,0.5c0.6,0.3,1,0.8,1.3,1.3s0.4,1.2,0.4,1.9c0,0.7-0.1,1.3-0.4,1.9
	c-0.3,0.6-0.7,1-1.3,1.3c-0.6,0.3-1.3,0.5-2.2,0.5h-2.8v-1.2h2.8c0.6,0,1.1-0.1,1.5-0.3c0.4-0.2,0.7-0.5,0.8-0.9
	c0.2-0.4,0.3-0.8,0.3-1.3c0-0.5-0.1-0.9-0.3-1.2c-0.2-0.4-0.4-0.7-0.8-0.9c-0.4-0.2-0.9-0.3-1.5-0.3h-2.5V132H342.1z M357.6,128.4
	v-5.2h1.3v8.7h-1.3v-1.5h-0.1c-0.2,0.4-0.5,0.8-1,1.1c-0.4,0.3-1,0.5-1.6,0.5c-0.5,0-1-0.1-1.5-0.4c-0.4-0.2-0.8-0.6-1-1.1
	c-0.2-0.5-0.4-1.1-0.4-1.8v-5.5h1.3v5.5c0,0.6,0.2,1.1,0.5,1.5c0.4,0.4,0.8,0.6,1.4,0.6c0.3,0,0.7-0.1,1-0.3
	c0.3-0.2,0.6-0.4,0.9-0.8C357.4,129.4,357.6,129,357.6,128.4z M361.4,132v-8.7h1.3v1.3h0.1c0.2-0.4,0.4-0.8,0.9-1.1
	c0.4-0.3,0.9-0.4,1.4-0.4c0.1,0,0.2,0,0.4,0c0.1,0,0.3,0,0.3,0v1.4c0,0-0.1,0-0.3-0.1c-0.2,0-0.3,0-0.5,0c-0.4,0-0.8,0.1-1.1,0.3
	c-0.3,0.2-0.6,0.4-0.8,0.7c-0.2,0.3-0.3,0.7-0.3,1.1v5.5H361.4z M370.6,132.2c-0.8,0-1.5-0.2-2.1-0.6c-0.6-0.4-1-0.9-1.4-1.6
	c-0.3-0.7-0.5-1.5-0.5-2.3c0-0.9,0.2-1.7,0.5-2.3c0.3-0.7,0.8-1.2,1.4-1.6c0.6-0.4,1.3-0.6,2.1-0.6c0.6,0,1.2,0.1,1.7,0.3
	c0.5,0.2,0.9,0.5,1.2,1c0.3,0.4,0.5,0.9,0.6,1.4h-1.3c-0.1-0.4-0.3-0.8-0.7-1.1c-0.3-0.3-0.8-0.5-1.4-0.5c-0.5,0-1,0.1-1.4,0.4
	c-0.4,0.3-0.7,0.6-0.9,1.1c-0.2,0.5-0.3,1.1-0.3,1.7c0,0.7,0.1,1.3,0.3,1.8c0.2,0.5,0.5,0.9,0.9,1.2c0.4,0.3,0.9,0.4,1.4,0.4
	c0.3,0,0.7-0.1,0.9-0.2c0.3-0.1,0.5-0.3,0.7-0.5c0.2-0.2,0.3-0.5,0.4-0.8h1.3c-0.1,0.5-0.3,1-0.6,1.4c-0.3,0.4-0.7,0.7-1.2,1
	C371.8,132.1,371.2,132.2,370.6,132.2z M377.3,126.8v5.2H376v-11.6h1.3v4.3h0.1c0.2-0.5,0.5-0.8,0.9-1.1c0.4-0.3,1-0.4,1.6-0.4
	c0.6,0,1.1,0.1,1.6,0.4c0.4,0.2,0.8,0.6,1,1.1c0.2,0.5,0.4,1.1,0.4,1.9v5.5h-1.3v-5.5c0-0.7-0.2-1.2-0.5-1.6
	c-0.4-0.4-0.9-0.6-1.5-0.6c-0.4,0-0.8,0.1-1.2,0.3c-0.3,0.2-0.6,0.5-0.8,0.8C377.4,125.8,377.3,126.2,377.3,126.8z M388,132.2
	c-0.6,0-1.1-0.1-1.5-0.3c-0.5-0.2-0.8-0.5-1.1-0.9c-0.3-0.4-0.4-0.9-0.4-1.5c0-0.5,0.1-0.9,0.3-1.2c0.2-0.3,0.5-0.6,0.8-0.7
	c0.3-0.2,0.7-0.3,1.1-0.4c0.4-0.1,0.8-0.2,1.2-0.2c0.5-0.1,1-0.1,1.3-0.2c0.3,0,0.6-0.1,0.7-0.2c0.2-0.1,0.2-0.2,0.2-0.5v0
	c0-0.6-0.2-1-0.5-1.3c-0.3-0.3-0.8-0.5-1.4-0.5c-0.6,0-1.1,0.1-1.5,0.4c-0.4,0.3-0.6,0.6-0.8,0.9l-1.3-0.5c0.2-0.5,0.5-0.9,0.9-1.2
	c0.4-0.3,0.8-0.5,1.2-0.6c0.5-0.1,0.9-0.2,1.3-0.2c0.3,0,0.6,0,1,0.1c0.4,0.1,0.7,0.2,1.1,0.4c0.3,0.2,0.6,0.5,0.9,0.9
	c0.2,0.4,0.3,1,0.3,1.7v5.8h-1.3v-1.2h-0.1c-0.1,0.2-0.2,0.4-0.5,0.6c-0.2,0.2-0.5,0.4-0.8,0.6C388.9,132.1,388.5,132.2,388,132.2z
	 M388.2,131c0.5,0,1-0.1,1.3-0.3c0.4-0.2,0.6-0.5,0.8-0.8c0.2-0.3,0.3-0.7,0.3-1v-1.2c-0.1,0.1-0.2,0.1-0.4,0.2
	c-0.2,0.1-0.4,0.1-0.7,0.1c-0.2,0-0.5,0.1-0.7,0.1c-0.2,0-0.4,0.1-0.6,0.1c-0.3,0-0.7,0.1-1,0.2c-0.3,0.1-0.5,0.2-0.7,0.4
	c-0.2,0.2-0.3,0.5-0.3,0.8c0,0.5,0.2,0.8,0.5,1.1C387.2,130.9,387.7,131,388.2,131z M400.6,125.2l-1.2,0.3c-0.1-0.2-0.2-0.4-0.3-0.6
	c-0.1-0.2-0.3-0.4-0.6-0.5s-0.6-0.2-1-0.2c-0.5,0-1,0.1-1.3,0.4c-0.4,0.2-0.5,0.6-0.5,0.9c0,0.3,0.1,0.6,0.4,0.8
	c0.2,0.2,0.6,0.4,1.1,0.5l1.3,0.3c0.8,0.2,1.4,0.5,1.7,0.9c0.4,0.4,0.6,0.9,0.6,1.5c0,0.5-0.1,0.9-0.4,1.3c-0.3,0.4-0.7,0.7-1.2,0.9
	c-0.5,0.2-1.1,0.3-1.8,0.3c-0.9,0-1.6-0.2-2.2-0.6c-0.6-0.4-1-1-1.1-1.7l1.3-0.3c0.1,0.5,0.3,0.8,0.7,1.1c0.3,0.2,0.8,0.4,1.3,0.4
	c0.6,0,1.1-0.1,1.5-0.4c0.4-0.3,0.6-0.6,0.6-1c0-0.3-0.1-0.6-0.3-0.8c-0.2-0.2-0.5-0.4-1-0.5l-1.5-0.3c-0.8-0.2-1.4-0.5-1.8-0.9
	c-0.4-0.4-0.6-0.9-0.6-1.5c0-0.5,0.1-0.9,0.4-1.3c0.3-0.4,0.7-0.7,1.1-0.9c0.5-0.2,1-0.3,1.6-0.3c0.9,0,1.5,0.2,2,0.6
	C400.1,124.1,400.4,124.6,400.6,125.2z M406.5,132.2c-0.8,0-1.6-0.2-2.2-0.6c-0.6-0.4-1.1-0.9-1.4-1.6c-0.3-0.7-0.5-1.5-0.5-2.4
	c0-0.9,0.2-1.7,0.5-2.4c0.3-0.7,0.8-1.2,1.4-1.6c0.6-0.4,1.3-0.6,2.1-0.6c0.5,0,0.9,0.1,1.3,0.2c0.4,0.2,0.8,0.4,1.2,0.7
	c0.4,0.3,0.7,0.8,0.9,1.3c0.2,0.6,0.3,1.2,0.3,2.1v0.6h-6.7v-1.2h5.4c0-0.5-0.1-0.9-0.3-1.3c-0.2-0.4-0.5-0.7-0.8-0.9
	c-0.4-0.2-0.8-0.3-1.3-0.3c-0.5,0-1,0.1-1.4,0.4c-0.4,0.3-0.7,0.6-0.9,1c-0.2,0.4-0.3,0.9-0.3,1.4v0.8c0,0.7,0.1,1.2,0.3,1.7
	c0.2,0.5,0.6,0.8,1,1c0.4,0.2,0.9,0.4,1.4,0.4c0.4,0,0.7,0,1-0.1c0.3-0.1,0.5-0.3,0.7-0.5c0.2-0.2,0.4-0.5,0.5-0.8l1.3,0.4
	c-0.1,0.4-0.4,0.8-0.7,1.2c-0.3,0.3-0.7,0.6-1.2,0.8C407.6,132.1,407.1,132.2,406.5,132.2z M418.2,132v1.2h-7.3V132H418.2z
	 M423,132.2c-0.8,0-1.6-0.2-2.2-0.6c-0.6-0.4-1.1-0.9-1.4-1.6c-0.3-0.7-0.5-1.5-0.5-2.4c0-0.9,0.2-1.7,0.5-2.4
	c0.3-0.7,0.8-1.2,1.4-1.6c0.6-0.4,1.3-0.6,2.1-0.6c0.5,0,0.9,0.1,1.3,0.2c0.4,0.2,0.8,0.4,1.2,0.7c0.4,0.3,0.7,0.8,0.9,1.3
	c0.2,0.6,0.3,1.2,0.3,2.1v0.6h-6.7v-1.2h5.4c0-0.5-0.1-0.9-0.3-1.3c-0.2-0.4-0.5-0.7-0.8-0.9c-0.4-0.2-0.8-0.3-1.3-0.3
	c-0.5,0-1,0.1-1.4,0.4c-0.4,0.3-0.7,0.6-0.9,1c-0.2,0.4-0.3,0.9-0.3,1.4v0.8c0,0.7,0.1,1.2,0.3,1.7c0.2,0.5,0.6,0.8,1,1
	c0.4,0.2,0.9,0.4,1.4,0.4c0.4,0,0.7,0,1-0.1c0.3-0.1,0.5-0.3,0.7-0.5c0.2-0.2,0.4-0.5,0.5-0.8l1.3,0.4c-0.1,0.4-0.4,0.8-0.7,1.2
	c-0.3,0.3-0.7,0.6-1.2,0.8C424.1,132.1,423.6,132.2,423,132.2z M435.5,123.3l-3.2,8.7H431l-3.2-8.7h1.5l2.4,7h0.1l2.4-7H435.5z
	 M440.7,132.2c-0.8,0-1.6-0.2-2.2-0.6c-0.6-0.4-1.1-0.9-1.4-1.6c-0.3-0.7-0.5-1.5-0.5-2.4c0-0.9,0.2-1.7,0.5-2.4
	c0.3-0.7,0.8-1.2,1.4-1.6c0.6-0.4,1.3-0.6,2.1-0.6c0.5,0,0.9,0.1,1.3,0.2c0.4,0.2,0.8,0.4,1.2,0.7c0.4,0.3,0.7,0.8,0.9,1.3
	c0.2,0.6,0.3,1.2,0.3,2.1v0.6h-6.7v-1.2h5.4c0-0.5-0.1-0.9-0.3-1.3c-0.2-0.4-0.5-0.7-0.8-0.9c-0.4-0.2-0.8-0.3-1.3-0.3
	c-0.5,0-1,0.1-1.4,0.4c-0.4,0.3-0.7,0.6-0.9,1c-0.2,0.4-0.3,0.9-0.3,1.4v0.8c0,0.7,0.1,1.2,0.3,1.7c0.2,0.5,0.6,0.8,1,1
	c0.4,0.2,0.9,0.4,1.4,0.4c0.4,0,0.7,0,1-0.1c0.3-0.1,0.5-0.3,0.7-0.5c0.2-0.2,0.4-0.5,0.5-0.8l1.3,0.4c-0.1,0.4-0.4,0.8-0.7,1.2
	c-0.3,0.3-0.7,0.6-1.2,0.8C441.8,132.1,441.3,132.2,440.7,132.2z M447.7,126.8v5.2h-1.3v-8.7h1.3v1.4h0.1c0.2-0.4,0.5-0.8,0.9-1.1
	c0.4-0.3,1-0.4,1.6-0.4c0.6,0,1.1,0.1,1.6,0.4c0.4,0.2,0.8,0.6,1,1.1c0.2,0.5,0.4,1.1,0.4,1.8v5.5h-1.3v-5.5c0-0.7-0.2-1.2-0.5-1.6
	c-0.4-0.4-0.8-0.6-1.5-0.6c-0.4,0-0.8,0.1-1.1,0.3c-0.3,0.2-0.6,0.5-0.8,0.8C447.8,125.8,447.7,126.2,447.7,126.8z M459.5,123.3v1.1
	h-4.5v-1.1H459.5z M456.3,121.2h1.3v8.3c0,0.4,0.1,0.7,0.2,0.9c0.1,0.2,0.3,0.3,0.4,0.4c0.2,0.1,0.4,0.1,0.6,0.1c0.1,0,0.3,0,0.4,0
	c0.1,0,0.2,0,0.2,0l0.3,1.2c-0.1,0-0.2,0.1-0.4,0.1c-0.2,0-0.4,0.1-0.6,0.1c-0.4,0-0.8-0.1-1.1-0.2c-0.4-0.2-0.7-0.4-0.9-0.7
	c-0.2-0.3-0.4-0.8-0.4-1.3V121.2z"/>
<g>
	<defs>
		<polygon id="SVGID_00000161630936184737418910000009541903461128278173_" points="-6.3,1 -5.3,1 -6.3,2 		"/>
	</defs>
	<defs>
		<polygon id="SVGID_00000145739062167128191170000007916555593081725369_" points="-8.3,-1 -9.3,-1 -8.3,-2 		"/>
	</defs>
	<clipPath id="SVGID_00000103976895685922357430000011755375575684279450_">
		<use xlink:href="#SVGID_00000161630936184737418910000009541903461128278173_"  style="overflow:visible;"/>
	</clipPath>
	
		<clipPath id="SVGID_00000161599685901124273280000017393905008614705819_" style="clip-path:url(#SVGID_00000103976895685922357430000011755375575684279450_);">
		<use xlink:href="#SVGID_00000145739062167128191170000007916555593081725369_"  style="overflow:visible;"/>
	</clipPath>
	<path style="clip-path:url(#SVGID_00000161599685901124273280000017393905008614705819_);fill:#E4E6EC;" d="M460.7,137.5h-428v1
		h428V137.5z"/>
</g>
<path d="M35.7,144.4V156H34v-11.6H35.7z M42.2,147.3v1.4h-4.8v-1.4H42.2z M38.7,145.2h1.7v8.3c0,0.3,0,0.6,0.1,0.7
	c0.1,0.2,0.2,0.3,0.4,0.3c0.2,0.1,0.3,0.1,0.5,0.1c0.1,0,0.3,0,0.4,0c0.1,0,0.2,0,0.2,0l0.3,1.4c-0.1,0-0.2,0.1-0.4,0.1
	c-0.2,0-0.4,0.1-0.7,0.1c-0.4,0-0.9-0.1-1.2-0.2c-0.4-0.2-0.7-0.4-0.9-0.8c-0.2-0.3-0.4-0.8-0.4-1.3V145.2z M47.8,156.2
	c-0.9,0-1.6-0.2-2.2-0.6c-0.6-0.4-1.1-0.9-1.4-1.6c-0.3-0.7-0.5-1.5-0.5-2.4c0-0.9,0.2-1.7,0.5-2.4c0.3-0.7,0.8-1.2,1.4-1.6
	c0.6-0.4,1.3-0.6,2.1-0.6c0.5,0,1,0.1,1.4,0.2c0.5,0.2,0.9,0.4,1.2,0.8c0.4,0.3,0.7,0.8,0.9,1.4c0.2,0.6,0.3,1.2,0.3,2v0.6h-6.9
	v-1.3h5.3c0-0.4-0.1-0.8-0.3-1.2c-0.2-0.3-0.4-0.6-0.8-0.8c-0.3-0.2-0.7-0.3-1.1-0.3c-0.5,0-0.9,0.1-1.2,0.4
	c-0.4,0.2-0.6,0.5-0.8,0.9c-0.2,0.4-0.3,0.8-0.3,1.2v1c0,0.6,0.1,1.1,0.3,1.5c0.2,0.4,0.5,0.7,0.9,0.9c0.4,0.2,0.8,0.3,1.3,0.3
	c0.3,0,0.6,0,0.9-0.1c0.3-0.1,0.5-0.2,0.7-0.4c0.2-0.2,0.3-0.4,0.4-0.7l1.6,0.3c-0.1,0.5-0.4,0.9-0.7,1.2c-0.3,0.4-0.7,0.6-1.2,0.8
	C49,156.1,48.4,156.2,47.8,156.2z M53.4,156v-8.7H55v1.4h0.1c0.2-0.5,0.5-0.9,0.9-1.1c0.4-0.3,0.9-0.4,1.5-0.4
	c0.6,0,1.1,0.1,1.5,0.4c0.4,0.3,0.7,0.6,0.9,1.1h0.1c0.2-0.5,0.5-0.8,1-1.1c0.5-0.3,1-0.4,1.6-0.4c0.8,0,1.4,0.2,1.9,0.7
	c0.5,0.5,0.8,1.2,0.8,2.2v5.9h-1.7v-5.7c0-0.6-0.2-1-0.5-1.3c-0.3-0.3-0.7-0.4-1.2-0.4c-0.6,0-1,0.2-1.3,0.5
	c-0.3,0.3-0.5,0.8-0.5,1.3v5.6h-1.7v-5.8c0-0.5-0.1-0.9-0.4-1.1c-0.3-0.3-0.7-0.4-1.2-0.4c-0.3,0-0.6,0.1-0.9,0.3
	c-0.3,0.2-0.5,0.4-0.7,0.7c-0.2,0.3-0.2,0.6-0.2,1v5.4H53.4z M79.2,147.3l-3.2,8.7h-1.8l-3.2-8.7h1.8l2.2,6.7h0.1l2.2-6.7H79.2z
	 M83.1,156.2c-0.6,0-1.1-0.1-1.5-0.3c-0.4-0.2-0.8-0.5-1.1-0.9c-0.3-0.4-0.4-0.9-0.4-1.4c0-0.5,0.1-0.9,0.3-1.2
	c0.2-0.3,0.4-0.6,0.8-0.8c0.3-0.2,0.7-0.3,1.1-0.4c0.4-0.1,0.8-0.2,1.2-0.2c0.5-0.1,0.9-0.1,1.3-0.1c0.3,0,0.6-0.1,0.7-0.2
	c0.1-0.1,0.2-0.2,0.2-0.4v0c0-0.5-0.1-0.9-0.4-1.2c-0.3-0.3-0.7-0.4-1.2-0.4c-0.6,0-1,0.1-1.4,0.4c-0.3,0.2-0.6,0.5-0.7,0.8
	l-1.6-0.4c0.2-0.5,0.5-1,0.8-1.3c0.4-0.3,0.8-0.6,1.3-0.7c0.5-0.2,1-0.2,1.5-0.2c0.3,0,0.7,0,1.1,0.1c0.4,0.1,0.8,0.2,1.1,0.4
	c0.3,0.2,0.6,0.5,0.8,0.9c0.2,0.4,0.3,0.9,0.3,1.6v5.8h-1.7v-1.2h-0.1c-0.1,0.2-0.3,0.4-0.5,0.6c-0.2,0.2-0.5,0.4-0.8,0.5
	C84,156.1,83.6,156.2,83.1,156.2z M83.5,154.8c0.5,0,0.9-0.1,1.2-0.3c0.3-0.2,0.6-0.4,0.8-0.7c0.2-0.3,0.3-0.6,0.3-1v-1.1
	c-0.1,0.1-0.2,0.1-0.4,0.2c-0.2,0-0.4,0.1-0.6,0.1c-0.2,0-0.4,0.1-0.6,0.1c-0.2,0-0.4,0-0.5,0.1c-0.3,0-0.6,0.1-0.9,0.2
	c-0.3,0.1-0.5,0.2-0.6,0.4c-0.2,0.2-0.2,0.4-0.2,0.7c0,0.4,0.2,0.7,0.5,1C82.6,154.7,83,154.8,83.5,154.8z M91.4,144.4V156h-1.7
	v-11.6H91.4z M99.2,152.4v-5.1h1.7v8.7h-1.7v-1.5h-0.1c-0.2,0.5-0.5,0.9-1,1.2c-0.4,0.3-1,0.5-1.6,0.5c-0.6,0-1.1-0.1-1.5-0.4
	c-0.4-0.2-0.8-0.6-1-1.1c-0.2-0.5-0.4-1.1-0.4-1.8v-5.6h1.7v5.3c0,0.6,0.2,1.1,0.5,1.4c0.3,0.4,0.8,0.5,1.3,0.5
	c0.3,0,0.6-0.1,0.9-0.2c0.3-0.2,0.6-0.4,0.8-0.7C99.1,153.3,99.2,152.9,99.2,152.4z M106.9,156.2c-0.9,0-1.6-0.2-2.2-0.6
	c-0.6-0.4-1.1-0.9-1.4-1.6c-0.3-0.7-0.5-1.5-0.5-2.4c0-0.9,0.2-1.7,0.5-2.4c0.3-0.7,0.8-1.2,1.4-1.6c0.6-0.4,1.3-0.6,2.1-0.6
	c0.5,0,1,0.1,1.4,0.2c0.5,0.2,0.9,0.4,1.2,0.8c0.4,0.3,0.7,0.8,0.9,1.4c0.2,0.6,0.3,1.2,0.3,2v0.6h-6.9v-1.3h5.3
	c0-0.4-0.1-0.8-0.3-1.2c-0.2-0.3-0.4-0.6-0.8-0.8c-0.3-0.2-0.7-0.3-1.1-0.3c-0.5,0-0.9,0.1-1.2,0.4c-0.4,0.2-0.6,0.5-0.8,0.9
	c-0.2,0.4-0.3,0.8-0.3,1.2v1c0,0.6,0.1,1.1,0.3,1.5c0.2,0.4,0.5,0.7,0.9,0.9c0.4,0.2,0.8,0.3,1.3,0.3c0.3,0,0.6,0,0.9-0.1
	c0.3-0.1,0.5-0.2,0.7-0.4c0.2-0.2,0.3-0.4,0.4-0.7l1.6,0.3c-0.1,0.5-0.4,0.9-0.7,1.2c-0.3,0.4-0.7,0.6-1.2,0.8
	C108.1,156.1,107.6,156.2,106.9,156.2z"/>
<path d="M427.3,157.5v-14.5h0.9v14.5H427.3z M430.5,147.3c-0.1-0.6-0.3-1-0.8-1.3c-0.5-0.3-1.1-0.5-1.8-0.5c-0.5,0-1,0.1-1.4,0.2
	c-0.4,0.2-0.7,0.4-0.9,0.7c-0.2,0.3-0.3,0.6-0.3,1c0,0.3,0.1,0.6,0.2,0.8c0.2,0.2,0.3,0.4,0.6,0.6c0.2,0.1,0.5,0.3,0.7,0.4
	c0.3,0.1,0.5,0.2,0.7,0.2l1.2,0.3c0.3,0.1,0.6,0.2,1,0.3c0.4,0.1,0.7,0.3,1.1,0.6c0.3,0.2,0.6,0.5,0.9,0.9c0.2,0.4,0.3,0.8,0.3,1.4
	c0,0.6-0.2,1.2-0.5,1.7c-0.3,0.5-0.8,0.9-1.4,1.2c-0.6,0.3-1.4,0.4-2.3,0.4c-0.8,0-1.6-0.1-2.2-0.4c-0.6-0.3-1.1-0.6-1.4-1.1
	c-0.3-0.5-0.5-1-0.6-1.7h1.5c0,0.4,0.2,0.8,0.4,1.1c0.3,0.3,0.6,0.5,1,0.6c0.4,0.1,0.8,0.2,1.3,0.2c0.5,0,1-0.1,1.4-0.3
	c0.4-0.2,0.8-0.4,1-0.7c0.2-0.3,0.4-0.7,0.4-1.1c0-0.4-0.1-0.7-0.3-0.9s-0.5-0.4-0.9-0.6c-0.4-0.2-0.7-0.3-1.1-0.4l-1.4-0.4
	c-0.9-0.3-1.6-0.6-2.2-1.1c-0.5-0.5-0.8-1.1-0.8-1.9c0-0.7,0.2-1.2,0.5-1.7c0.4-0.5,0.8-0.9,1.4-1.1c0.6-0.3,1.3-0.4,2-0.4
	c0.8,0,1.4,0.1,2,0.4c0.6,0.3,1,0.6,1.4,1.1c0.3,0.5,0.5,1,0.5,1.6H430.5z M438.2,144.4V156h-1.4v-10.2h-0.1l-2.8,1.9v-1.4l2.9-1.9
	H438.2z M445.3,156.2c-0.9,0-1.6-0.2-2.2-0.7c-0.6-0.5-1.1-1.1-1.4-2c-0.3-0.9-0.5-2-0.5-3.2c0-1.3,0.2-2.3,0.5-3.2
	c0.3-0.9,0.8-1.6,1.4-2c0.6-0.5,1.3-0.7,2.2-0.7c0.8,0,1.6,0.2,2.2,0.7c0.6,0.5,1.1,1.2,1.4,2c0.3,0.9,0.5,2,0.5,3.2
	c0,1.3-0.2,2.3-0.5,3.2c-0.3,0.9-0.8,1.6-1.4,2C446.9,155.9,446.2,156.2,445.3,156.2z M445.3,154.9c0.8,0,1.5-0.4,2-1.2
	c0.5-0.8,0.7-2,0.7-3.5c0-1-0.1-1.9-0.3-2.6c-0.2-0.7-0.5-1.2-0.9-1.6c-0.4-0.4-0.9-0.6-1.4-0.6c-0.8,0-1.5,0.4-2,1.2
	c-0.5,0.8-0.7,2-0.7,3.5c0,1,0.1,1.9,0.3,2.6s0.5,1.2,0.9,1.6C444.3,154.7,444.8,154.9,445.3,154.9z M455.3,156.2
	c-0.9,0-1.6-0.2-2.2-0.7c-0.6-0.5-1.1-1.1-1.4-2c-0.3-0.9-0.5-2-0.5-3.2c0-1.3,0.2-2.3,0.5-3.2c0.3-0.9,0.8-1.6,1.4-2
	c0.6-0.5,1.3-0.7,2.2-0.7c0.8,0,1.6,0.2,2.2,0.7c0.6,0.5,1.1,1.2,1.4,2c0.3,0.9,0.5,2,0.5,3.2c0,1.3-0.2,2.3-0.5,3.2
	c-0.3,0.9-0.8,1.6-1.4,2C456.9,155.9,456.2,156.2,455.3,156.2z M455.3,154.9c0.8,0,1.5-0.4,2-1.2c0.5-0.8,0.7-2,0.7-3.5
	c0-1-0.1-1.9-0.3-2.6c-0.2-0.7-0.5-1.2-0.9-1.6c-0.4-0.4-0.9-0.6-1.4-0.6c-0.8,0-1.5,0.4-2,1.2c-0.5,0.8-0.7,2-0.7,3.5
	c0,1,0.1,1.9,0.3,2.6s0.5,1.2,0.9,1.6C454.3,154.7,454.8,154.9,455.3,154.9z"/>
<g>
	<defs>
		<polygon id="SVGID_00000158725868521948644030000012489963520950149014_" points="-6.3,1 -5.3,1 -6.3,2 		"/>
	</defs>
	<defs>
		<polygon id="SVGID_00000036248945285484868890000015043335381850349713_" points="-8.3,-1 -9.3,-1 -8.3,-2 		"/>
	</defs>
	<clipPath id="SVGID_00000176747652977675907930000004545519664879153332_">
		<use xlink:href="#SVGID_00000158725868521948644030000012489963520950149014_"  style="overflow:visible;"/>
	</clipPath>
	
		<clipPath id="SVGID_00000117669483304586823400000000486477596713565872_" style="clip-path:url(#SVGID_00000176747652977675907930000004545519664879153332_);">
		<use xlink:href="#SVGID_00000036248945285484868890000015043335381850349713_"  style="overflow:visible;"/>
	</clipPath>
	<path style="clip-path:url(#SVGID_00000117669483304586823400000000486477596713565872_);fill:#E4E6EC;" d="M460.7,161.5h-428v1
		h428V161.5z"/>
</g>
<path d="M35.7,168.4V180H34v-11.6H35.7z M42.2,171.3v1.4h-4.8v-1.4H42.2z M38.7,169.2h1.7v8.3c0,0.3,0,0.6,0.1,0.7
	c0.1,0.2,0.2,0.3,0.4,0.3c0.2,0.1,0.3,0.1,0.5,0.1c0.1,0,0.3,0,0.4,0c0.1,0,0.2,0,0.2,0l0.3,1.4c-0.1,0-0.2,0.1-0.4,0.1
	c-0.2,0-0.4,0.1-0.7,0.1c-0.4,0-0.9-0.1-1.2-0.2c-0.4-0.2-0.7-0.4-0.9-0.8c-0.2-0.3-0.4-0.8-0.4-1.3V169.2z M47.8,180.2
	c-0.9,0-1.6-0.2-2.2-0.6c-0.6-0.4-1.1-0.9-1.4-1.6c-0.3-0.7-0.5-1.5-0.5-2.4c0-0.9,0.2-1.7,0.5-2.4c0.3-0.7,0.8-1.2,1.4-1.6
	c0.6-0.4,1.3-0.6,2.1-0.6c0.5,0,1,0.1,1.4,0.2c0.5,0.2,0.9,0.4,1.2,0.8c0.4,0.3,0.7,0.8,0.9,1.4c0.2,0.6,0.3,1.2,0.3,2v0.6h-6.9
	v-1.3h5.3c0-0.4-0.1-0.8-0.3-1.2c-0.2-0.3-0.4-0.6-0.8-0.8c-0.3-0.2-0.7-0.3-1.1-0.3c-0.5,0-0.9,0.1-1.2,0.4
	c-0.4,0.2-0.6,0.5-0.8,0.9c-0.2,0.4-0.3,0.8-0.3,1.2v1c0,0.6,0.1,1.1,0.3,1.5c0.2,0.4,0.5,0.7,0.9,0.9c0.4,0.2,0.8,0.3,1.3,0.3
	c0.3,0,0.6,0,0.9-0.1c0.3-0.1,0.5-0.2,0.7-0.4c0.2-0.2,0.3-0.4,0.4-0.7l1.6,0.3c-0.1,0.5-0.4,0.9-0.7,1.2c-0.3,0.4-0.7,0.6-1.2,0.8
	C49,180.1,48.4,180.2,47.8,180.2z M53.4,180v-8.7H55v1.4h0.1c0.2-0.5,0.5-0.9,0.9-1.1c0.4-0.3,0.9-0.4,1.5-0.4
	c0.6,0,1.1,0.1,1.5,0.4c0.4,0.3,0.7,0.6,0.9,1.1h0.1c0.2-0.5,0.5-0.8,1-1.1c0.5-0.3,1-0.4,1.6-0.4c0.8,0,1.4,0.2,1.9,0.7
	c0.5,0.5,0.8,1.2,0.8,2.2v5.9h-1.7v-5.7c0-0.6-0.2-1-0.5-1.3c-0.3-0.3-0.7-0.4-1.2-0.4c-0.6,0-1,0.2-1.3,0.5
	c-0.3,0.3-0.5,0.8-0.5,1.3v5.6h-1.7v-5.8c0-0.5-0.1-0.9-0.4-1.1c-0.3-0.3-0.7-0.4-1.2-0.4c-0.3,0-0.6,0.1-0.9,0.3
	c-0.3,0.2-0.5,0.4-0.7,0.7c-0.2,0.3-0.2,0.6-0.2,1v5.4H53.4z M73.5,174.8v5.2h-1.7v-8.7h1.6v1.4h0.1c0.2-0.5,0.5-0.8,0.9-1.1
	c0.4-0.3,1-0.4,1.6-0.4c0.6,0,1.1,0.1,1.6,0.4c0.4,0.2,0.8,0.6,1,1.1c0.2,0.5,0.4,1.1,0.4,1.8v5.6h-1.7v-5.3c0-0.6-0.2-1.1-0.5-1.5
	c-0.3-0.4-0.8-0.5-1.4-0.5c-0.4,0-0.7,0.1-1.1,0.3c-0.3,0.2-0.5,0.4-0.7,0.8C73.5,174,73.5,174.4,73.5,174.8z M83.9,180.2
	c-0.6,0-1.1-0.1-1.5-0.3c-0.4-0.2-0.8-0.5-1.1-0.9c-0.3-0.4-0.4-0.9-0.4-1.4c0-0.5,0.1-0.9,0.3-1.2c0.2-0.3,0.4-0.6,0.8-0.8
	c0.3-0.2,0.7-0.3,1.1-0.4c0.4-0.1,0.8-0.2,1.2-0.2c0.5-0.1,0.9-0.1,1.3-0.1c0.3,0,0.6-0.1,0.7-0.2c0.1-0.1,0.2-0.2,0.2-0.4v0
	c0-0.5-0.1-0.9-0.4-1.2c-0.3-0.3-0.7-0.4-1.2-0.4c-0.6,0-1,0.1-1.4,0.4c-0.3,0.2-0.6,0.5-0.7,0.8l-1.6-0.4c0.2-0.5,0.5-1,0.8-1.3
	c0.4-0.3,0.8-0.6,1.3-0.7c0.5-0.2,1-0.2,1.5-0.2c0.3,0,0.7,0,1.1,0.1c0.4,0.1,0.8,0.2,1.1,0.4c0.3,0.2,0.6,0.5,0.8,0.9
	c0.2,0.4,0.3,0.9,0.3,1.6v5.8h-1.7v-1.2h-0.1c-0.1,0.2-0.3,0.4-0.5,0.6c-0.2,0.2-0.5,0.4-0.8,0.5C84.8,180.1,84.3,180.2,83.9,180.2z
	 M84.2,178.8c0.5,0,0.9-0.1,1.2-0.3c0.3-0.2,0.6-0.4,0.8-0.7c0.2-0.3,0.3-0.6,0.3-1v-1.1c-0.1,0.1-0.2,0.1-0.4,0.2
	c-0.2,0-0.4,0.1-0.6,0.1c-0.2,0-0.4,0.1-0.6,0.1c-0.2,0-0.4,0-0.5,0.1c-0.3,0-0.6,0.1-0.9,0.2c-0.3,0.1-0.5,0.2-0.6,0.4
	c-0.2,0.2-0.2,0.4-0.2,0.7c0,0.4,0.2,0.7,0.5,1C83.4,178.7,83.8,178.8,84.2,178.8z M90.4,180v-8.7h1.6v1.4h0.1
	c0.2-0.5,0.5-0.9,0.9-1.1c0.4-0.3,0.9-0.4,1.5-0.4c0.6,0,1.1,0.1,1.5,0.4c0.4,0.3,0.7,0.6,0.9,1.1H97c0.2-0.5,0.5-0.8,1-1.1
	c0.5-0.3,1-0.4,1.6-0.4c0.8,0,1.4,0.2,1.9,0.7c0.5,0.5,0.8,1.2,0.8,2.2v5.9h-1.7v-5.7c0-0.6-0.2-1-0.5-1.3s-0.7-0.4-1.2-0.4
	c-0.6,0-1,0.2-1.3,0.5c-0.3,0.3-0.5,0.8-0.5,1.3v5.6h-1.7v-5.8c0-0.5-0.1-0.9-0.4-1.1c-0.3-0.3-0.7-0.4-1.2-0.4
	c-0.3,0-0.6,0.1-0.9,0.3c-0.3,0.2-0.5,0.4-0.7,0.7c-0.2,0.3-0.2,0.6-0.2,1v5.4H90.4z M108.3,180.2c-0.9,0-1.6-0.2-2.2-0.6
	c-0.6-0.4-1.1-0.9-1.4-1.6c-0.3-0.7-0.5-1.5-0.5-2.4c0-0.9,0.2-1.7,0.5-2.4c0.3-0.7,0.8-1.2,1.4-1.6c0.6-0.4,1.3-0.6,2.1-0.6
	c0.5,0,1,0.1,1.4,0.2c0.5,0.2,0.9,0.4,1.2,0.8c0.4,0.3,0.7,0.8,0.9,1.4c0.2,0.6,0.3,1.2,0.3,2v0.6h-6.9v-1.3h5.3
	c0-0.4-0.1-0.8-0.3-1.2c-0.2-0.3-0.4-0.6-0.8-0.8c-0.3-0.2-0.7-0.3-1.1-0.3c-0.5,0-0.9,0.1-1.2,0.4c-0.4,0.2-0.6,0.5-0.8,0.9
	c-0.2,0.4-0.3,0.8-0.3,1.2v1c0,0.6,0.1,1.1,0.3,1.5c0.2,0.4,0.5,0.7,0.9,0.9c0.4,0.2,0.8,0.3,1.3,0.3c0.3,0,0.6,0,0.9-0.1
	c0.3-0.1,0.5-0.2,0.7-0.4c0.2-0.2,0.3-0.4,0.4-0.7l1.6,0.3c-0.1,0.5-0.4,0.9-0.7,1.2c-0.3,0.4-0.7,0.6-1.2,0.8
	C109.5,180.1,109,180.2,108.3,180.2z"/>
<path d="M385.5,171.3c-0.1-0.6-0.3-1-0.8-1.3c-0.5-0.3-1.1-0.5-1.8-0.5c-0.5,0-1,0.1-1.4,0.2c-0.4,0.2-0.7,0.4-0.9,0.7
	c-0.2,0.3-0.3,0.6-0.3,1c0,0.3,0.1,0.6,0.2,0.8c0.2,0.2,0.3,0.4,0.6,0.6c0.2,0.1,0.5,0.3,0.7,0.4c0.3,0.1,0.5,0.2,0.7,0.2l1.2,0.3
	c0.3,0.1,0.6,0.2,1,0.3c0.4,0.1,0.7,0.3,1.1,0.6c0.3,0.2,0.6,0.5,0.9,0.9c0.2,0.4,0.3,0.8,0.3,1.4c0,0.6-0.2,1.2-0.5,1.7
	c-0.3,0.5-0.8,0.9-1.4,1.2c-0.6,0.3-1.4,0.4-2.3,0.4c-0.8,0-1.6-0.1-2.2-0.4c-0.6-0.3-1.1-0.6-1.4-1.1c-0.3-0.5-0.5-1-0.6-1.7h1.5
	c0,0.4,0.2,0.8,0.4,1.1c0.3,0.3,0.6,0.5,1,0.6c0.4,0.1,0.8,0.2,1.3,0.2c0.5,0,1-0.1,1.4-0.3c0.4-0.2,0.8-0.4,1-0.7
	c0.2-0.3,0.4-0.7,0.4-1.1c0-0.4-0.1-0.7-0.3-0.9s-0.5-0.4-0.9-0.6c-0.4-0.2-0.7-0.3-1.1-0.4l-1.4-0.4c-0.9-0.3-1.6-0.6-2.2-1.1
	c-0.5-0.5-0.8-1.1-0.8-1.9c0-0.7,0.2-1.2,0.5-1.7c0.4-0.5,0.8-0.9,1.4-1.1c0.6-0.3,1.3-0.4,2-0.4c0.8,0,1.4,0.1,2,0.4
	c0.6,0.3,1,0.6,1.4,1.1c0.3,0.5,0.5,1,0.5,1.6H385.5z M392.8,180.2c-0.8,0-1.6-0.2-2.2-0.6c-0.6-0.4-1.1-0.9-1.4-1.6
	c-0.3-0.7-0.5-1.5-0.5-2.4c0-0.9,0.2-1.7,0.5-2.4c0.3-0.7,0.8-1.2,1.4-1.6c0.6-0.4,1.3-0.6,2.1-0.6c0.5,0,0.9,0.1,1.3,0.2
	c0.4,0.2,0.8,0.4,1.2,0.7c0.4,0.3,0.7,0.8,0.9,1.3c0.2,0.6,0.3,1.2,0.3,2.1v0.6h-6.7v-1.2h5.4c0-0.5-0.1-0.9-0.3-1.3
	c-0.2-0.4-0.5-0.7-0.8-0.9c-0.4-0.2-0.8-0.3-1.3-0.3c-0.5,0-1,0.1-1.4,0.4c-0.4,0.3-0.7,0.6-0.9,1c-0.2,0.4-0.3,0.9-0.3,1.4v0.8
	c0,0.7,0.1,1.2,0.3,1.7c0.2,0.5,0.6,0.8,1,1c0.4,0.2,0.9,0.4,1.4,0.4c0.4,0,0.7,0,1-0.1c0.3-0.1,0.5-0.3,0.7-0.5
	c0.2-0.2,0.4-0.5,0.5-0.8l1.3,0.4c-0.1,0.4-0.4,0.8-0.7,1.2c-0.3,0.3-0.7,0.6-1.2,0.8C393.9,180.1,393.4,180.2,392.8,180.2z
	 M399.8,168.4V180h-1.3v-11.6H399.8z M406.1,171.3v1.1h-4.7v-1.1H406.1z M402.8,180v-9.9c0-0.5,0.1-0.9,0.4-1.2
	c0.2-0.3,0.5-0.6,0.9-0.8c0.4-0.2,0.8-0.2,1.2-0.2c0.3,0,0.6,0,0.8,0.1c0.2,0.1,0.4,0.1,0.5,0.1l-0.4,1.2c-0.1,0-0.2-0.1-0.3-0.1
	c-0.1,0-0.3-0.1-0.5-0.1c-0.4,0-0.8,0.1-1,0.3c-0.2,0.2-0.3,0.6-0.3,1v9.6H402.8z M408,180v-8.7h1.3v8.7H408z M408.7,169.8
	c-0.3,0-0.5-0.1-0.7-0.3c-0.2-0.2-0.3-0.4-0.3-0.6s0.1-0.5,0.3-0.6c0.2-0.2,0.4-0.3,0.7-0.3c0.3,0,0.5,0.1,0.7,0.3
	c0.2,0.2,0.3,0.4,0.3,0.6s-0.1,0.5-0.3,0.6C409.2,169.7,408.9,169.8,408.7,169.8z M415.4,180.2c-0.8,0-1.6-0.2-2.2-0.6
	c-0.6-0.4-1.1-0.9-1.4-1.6c-0.3-0.7-0.5-1.5-0.5-2.4c0-0.9,0.2-1.7,0.5-2.4c0.3-0.7,0.8-1.2,1.4-1.6c0.6-0.4,1.3-0.6,2.1-0.6
	c0.5,0,0.9,0.1,1.3,0.2c0.4,0.2,0.8,0.4,1.2,0.7c0.4,0.3,0.7,0.8,0.9,1.3c0.2,0.6,0.3,1.2,0.3,2.1v0.6h-6.7v-1.2h5.4
	c0-0.5-0.1-0.9-0.3-1.3c-0.2-0.4-0.5-0.7-0.8-0.9c-0.4-0.2-0.8-0.3-1.3-0.3c-0.5,0-1,0.1-1.4,0.4c-0.4,0.3-0.7,0.6-0.9,1
	c-0.2,0.4-0.3,0.9-0.3,1.4v0.8c0,0.7,0.1,1.2,0.3,1.7c0.2,0.5,0.6,0.8,1,1c0.4,0.2,0.9,0.4,1.4,0.4c0.4,0,0.7,0,1-0.1
	c0.3-0.1,0.5-0.3,0.7-0.5c0.2-0.2,0.4-0.5,0.5-0.8l1.3,0.4c-0.1,0.4-0.4,0.8-0.7,1.2c-0.3,0.3-0.7,0.6-1.2,0.8
	C416.6,180.1,416,180.2,415.4,180.2z M431.8,173.2l-1.2,0.3c-0.1-0.2-0.2-0.4-0.3-0.6c-0.1-0.2-0.3-0.4-0.6-0.5s-0.6-0.2-1-0.2
	c-0.5,0-1,0.1-1.3,0.4c-0.4,0.2-0.5,0.6-0.5,0.9c0,0.3,0.1,0.6,0.4,0.8c0.2,0.2,0.6,0.4,1.1,0.5l1.3,0.3c0.8,0.2,1.4,0.5,1.7,0.9
	c0.4,0.4,0.6,0.9,0.6,1.5c0,0.5-0.1,0.9-0.4,1.3c-0.3,0.4-0.7,0.7-1.2,0.9c-0.5,0.2-1.1,0.3-1.8,0.3c-0.9,0-1.6-0.2-2.2-0.6
	c-0.6-0.4-1-1-1.1-1.7l1.3-0.3c0.1,0.5,0.4,0.8,0.7,1.1c0.3,0.2,0.8,0.4,1.3,0.4c0.6,0,1.1-0.1,1.5-0.4c0.4-0.3,0.6-0.6,0.6-1
	c0-0.3-0.1-0.6-0.3-0.8c-0.2-0.2-0.5-0.4-1-0.5l-1.5-0.3c-0.8-0.2-1.4-0.5-1.8-0.9c-0.4-0.4-0.6-0.9-0.6-1.5c0-0.5,0.1-0.9,0.4-1.3
	c0.3-0.4,0.7-0.7,1.1-0.9c0.5-0.2,1-0.3,1.6-0.3c0.9,0,1.5,0.2,2,0.6C431.2,172.1,431.6,172.6,431.8,173.2z M437.8,171.3v1.1h-4.5
	v-1.1H437.8z M434.5,169.2h1.3v8.3c0,0.4,0.1,0.7,0.2,0.9c0.1,0.2,0.3,0.3,0.4,0.4c0.2,0.1,0.4,0.1,0.6,0.1c0.1,0,0.3,0,0.4,0
	c0.1,0,0.2,0,0.2,0l0.3,1.2c-0.1,0-0.2,0.1-0.4,0.1c-0.2,0-0.4,0.1-0.6,0.1c-0.4,0-0.8-0.1-1.1-0.2c-0.4-0.2-0.7-0.4-0.9-0.7
	c-0.2-0.3-0.4-0.8-0.4-1.3V169.2z M439.8,180v-8.7h1.3v8.7H439.8z M440.5,169.8c-0.3,0-0.5-0.1-0.7-0.3c-0.2-0.2-0.3-0.4-0.3-0.6
	s0.1-0.5,0.3-0.6c0.2-0.2,0.4-0.3,0.7-0.3c0.3,0,0.5,0.1,0.7,0.3c0.2,0.2,0.3,0.4,0.3,0.6s-0.1,0.5-0.3,0.6
	C440.9,169.7,440.7,169.8,440.5,169.8z M447.1,180.2c-0.8,0-1.5-0.2-2.1-0.6c-0.6-0.4-1-0.9-1.4-1.6c-0.3-0.7-0.5-1.5-0.5-2.3
	c0-0.9,0.2-1.7,0.5-2.3c0.3-0.7,0.8-1.2,1.4-1.6c0.6-0.4,1.3-0.6,2.1-0.6c0.6,0,1.2,0.1,1.7,0.3c0.5,0.2,0.9,0.5,1.2,1
	c0.3,0.4,0.5,0.9,0.6,1.4h-1.3c-0.1-0.4-0.3-0.8-0.7-1.1c-0.3-0.3-0.8-0.5-1.4-0.5c-0.5,0-1,0.1-1.4,0.4c-0.4,0.3-0.7,0.6-0.9,1.1
	c-0.2,0.5-0.3,1.1-0.3,1.7c0,0.7,0.1,1.3,0.3,1.8c0.2,0.5,0.5,0.9,0.9,1.2c0.4,0.3,0.9,0.4,1.4,0.4c0.3,0,0.7-0.1,0.9-0.2
	c0.3-0.1,0.5-0.3,0.7-0.5c0.2-0.2,0.3-0.5,0.4-0.8h1.3c-0.1,0.5-0.3,1-0.6,1.4c-0.3,0.4-0.7,0.7-1.2,1
	C448.3,180.1,447.8,180.2,447.1,180.2z M453.8,176.8l0-1.7h0.3l3.8-3.9h1.7l-4.1,4.1h-0.1L453.8,176.8z M452.5,180v-11.6h1.3V180
	H452.5z M458,180l-3.4-4.3l1-0.9l4.2,5.2H458z"/>
<g>
	<defs>
		<polygon id="SVGID_00000027572904062662741440000011451831217741418633_" points="-6.3,1 -5.3,1 -6.3,2 		"/>
	</defs>
	<defs>
		<polygon id="SVGID_00000016039303191880868120000000238002819141223848_" points="-8.3,-1 -9.3,-1 -8.3,-2 		"/>
	</defs>
	<clipPath id="SVGID_00000084500673954981127690000018022316407915975057_">
		<use xlink:href="#SVGID_00000027572904062662741440000011451831217741418633_"  style="overflow:visible;"/>
	</clipPath>
	
		<clipPath id="SVGID_00000171688229179573065640000001215494731288193411_" style="clip-path:url(#SVGID_00000084500673954981127690000018022316407915975057_);">
		<use xlink:href="#SVGID_00000016039303191880868120000000238002819141223848_"  style="overflow:visible;"/>
	</clipPath>
	<path style="clip-path:url(#SVGID_00000171688229179573065640000001215494731288193411_);fill:#E4E6EC;" d="M460.7,185.5h-428v1
		h428V185.5z"/>
</g>
<path class="st12" d="M32.7,202h428c4.4,0,8,3.6,8,8v40c0,4.4-3.6,8-8,8h-428c-4.4,0-8-3.6-8-8v-40C24.7,205.6,28.3,202,32.7,202z"
	/>
<path class="st13" d="M177.9,237v-14.5h5.7c1.1,0,2,0.2,2.8,0.6c0.8,0.4,1.4,0.9,1.8,1.7c0.4,0.7,0.6,1.5,0.6,2.5
	c0,1-0.2,1.8-0.6,2.5c-0.4,0.7-1,1.2-1.8,1.6c-0.8,0.4-1.7,0.6-2.9,0.6h-3.8v-2.5h3.3c0.6,0,1.1-0.1,1.5-0.2
	c0.4-0.2,0.7-0.4,0.9-0.7c0.2-0.3,0.3-0.7,0.3-1.2c0-0.5-0.1-0.9-0.3-1.2c-0.2-0.3-0.5-0.6-0.9-0.8c-0.4-0.2-0.9-0.3-1.5-0.3H181v12
	H177.9z M185.8,230.4l3.6,6.6H186l-3.5-6.6H185.8z M195.8,237.2c-1.1,0-2.1-0.2-2.9-0.7c-0.8-0.5-1.4-1.1-1.9-1.9
	c-0.4-0.8-0.7-1.8-0.7-3c0-1.1,0.2-2.1,0.7-3c0.4-0.8,1-1.5,1.8-2c0.8-0.5,1.7-0.7,2.8-0.7c0.7,0,1.4,0.1,2,0.3
	c0.6,0.2,1.2,0.6,1.6,1c0.5,0.5,0.8,1,1.1,1.7c0.3,0.7,0.4,1.5,0.4,2.4v0.8h-9.2v-1.9h6.4c0-0.4-0.1-0.8-0.3-1.2
	c-0.2-0.3-0.5-0.6-0.8-0.8c-0.3-0.2-0.7-0.3-1.2-0.3c-0.5,0-0.9,0.1-1.2,0.3c-0.4,0.2-0.6,0.5-0.8,0.8c-0.2,0.4-0.3,0.7-0.3,1.2v1.8
	c0,0.5,0.1,1,0.3,1.4c0.2,0.4,0.5,0.7,0.9,0.9c0.4,0.2,0.8,0.3,1.3,0.3c0.3,0,0.6,0,0.9-0.1c0.3-0.1,0.5-0.2,0.7-0.4
	c0.2-0.2,0.4-0.4,0.5-0.7l2.8,0.2c-0.1,0.7-0.4,1.3-0.9,1.8c-0.4,0.5-1,0.9-1.7,1.2C197.5,237.1,196.7,237.2,195.8,237.2z
	 M207.7,237.2c-1.1,0-2.1-0.2-2.9-0.7c-0.8-0.5-1.4-1.1-1.8-2c-0.4-0.8-0.6-1.8-0.6-2.9c0-1.1,0.2-2.1,0.6-2.9
	c0.4-0.8,1.1-1.5,1.9-2c0.8-0.5,1.8-0.7,2.9-0.7c1,0,1.8,0.2,2.5,0.5c0.7,0.3,1.3,0.8,1.7,1.5s0.6,1.4,0.7,2.2h-2.9
	c-0.1-0.5-0.3-1-0.6-1.3c-0.3-0.3-0.8-0.5-1.3-0.5c-0.5,0-0.9,0.1-1.2,0.4c-0.3,0.3-0.6,0.6-0.8,1.1s-0.3,1.1-0.3,1.8
	c0,0.7,0.1,1.3,0.3,1.8c0.2,0.5,0.5,0.9,0.8,1.1c0.4,0.3,0.8,0.4,1.2,0.4c0.3,0,0.7-0.1,0.9-0.2c0.3-0.1,0.5-0.3,0.7-0.6
	c0.2-0.3,0.3-0.6,0.4-1h2.9c0,0.8-0.3,1.6-0.7,2.2c-0.4,0.6-1,1.1-1.7,1.5C209.5,237,208.7,237.2,207.7,237.2z M219.5,237.2
	c-1.1,0-2.1-0.2-2.9-0.7c-0.8-0.5-1.4-1.1-1.9-2c-0.4-0.8-0.7-1.8-0.7-2.9c0-1.1,0.2-2.1,0.7-3c0.4-0.8,1.1-1.5,1.9-2
	c0.8-0.5,1.8-0.7,2.9-0.7c1.1,0,2.1,0.2,2.9,0.7c0.8,0.5,1.4,1.1,1.9,2c0.4,0.8,0.7,1.8,0.7,3c0,1.1-0.2,2.1-0.7,2.9
	c-0.4,0.8-1.1,1.5-1.9,2C221.5,237,220.6,237.2,219.5,237.2z M219.5,234.9c0.5,0,0.9-0.1,1.3-0.4c0.3-0.3,0.6-0.7,0.8-1.2
	c0.2-0.5,0.3-1.1,0.3-1.7c0-0.6-0.1-1.2-0.3-1.7c-0.2-0.5-0.4-0.9-0.8-1.2c-0.3-0.3-0.8-0.4-1.3-0.4c-0.5,0-0.9,0.1-1.3,0.4
	c-0.3,0.3-0.6,0.7-0.8,1.2c-0.2,0.5-0.3,1.1-0.3,1.7c0,0.6,0.1,1.2,0.3,1.7c0.2,0.5,0.4,0.9,0.8,1.2
	C218.5,234.7,219,234.9,219.5,234.9z M236.6,226.1l-3.8,10.9h-3.4l-3.8-10.9h3.2l2.3,7.8h0.1l2.3-7.8H236.6z M242.8,237.2
	c-1.1,0-2.1-0.2-2.9-0.7c-0.8-0.5-1.4-1.1-1.9-1.9c-0.4-0.8-0.7-1.8-0.7-3c0-1.1,0.2-2.1,0.7-3c0.4-0.8,1-1.5,1.8-2
	c0.8-0.5,1.7-0.7,2.8-0.7c0.7,0,1.4,0.1,2,0.3c0.6,0.2,1.2,0.6,1.6,1c0.5,0.5,0.8,1,1.1,1.7c0.3,0.7,0.4,1.5,0.4,2.4v0.8h-9.2v-1.9
	h6.4c0-0.4-0.1-0.8-0.3-1.2c-0.2-0.3-0.5-0.6-0.8-0.8c-0.3-0.2-0.7-0.3-1.2-0.3c-0.5,0-0.9,0.1-1.2,0.3c-0.4,0.2-0.6,0.5-0.8,0.8
	c-0.2,0.4-0.3,0.7-0.3,1.2v1.8c0,0.5,0.1,1,0.3,1.4c0.2,0.4,0.5,0.7,0.9,0.9c0.4,0.2,0.8,0.3,1.3,0.3c0.3,0,0.6,0,0.9-0.1
	c0.3-0.1,0.5-0.2,0.7-0.4c0.2-0.2,0.4-0.4,0.5-0.7l2.8,0.2c-0.1,0.7-0.4,1.3-0.9,1.8c-0.4,0.5-1,0.9-1.7,1.2
	C244.5,237.1,243.7,237.2,242.8,237.2z M249.8,237v-10.9h2.9v1.9h0.1c0.2-0.7,0.5-1.2,1-1.5c0.5-0.4,1-0.5,1.6-0.5
	c0.2,0,0.3,0,0.5,0c0.2,0,0.3,0,0.5,0.1v2.7c-0.1,0-0.3-0.1-0.6-0.1s-0.5-0.1-0.7-0.1c-0.4,0-0.8,0.1-1.2,0.3
	c-0.3,0.2-0.6,0.5-0.8,0.8c-0.2,0.3-0.3,0.7-0.3,1.2v6.2H249.8z M267.5,237.2c-1.1,0-2.1-0.2-2.9-0.7c-0.8-0.5-1.4-1.1-1.9-1.9
	c-0.4-0.8-0.7-1.8-0.7-3c0-1.1,0.2-2.1,0.7-3c0.4-0.8,1-1.5,1.8-2c0.8-0.5,1.7-0.7,2.8-0.7c0.7,0,1.4,0.1,2,0.3
	c0.6,0.2,1.2,0.6,1.6,1c0.5,0.5,0.8,1,1.1,1.7c0.3,0.7,0.4,1.5,0.4,2.4v0.8h-9.2v-1.9h6.4c0-0.4-0.1-0.8-0.3-1.2
	c-0.2-0.3-0.5-0.6-0.8-0.8c-0.3-0.2-0.7-0.3-1.2-0.3c-0.5,0-0.9,0.1-1.2,0.3c-0.4,0.2-0.6,0.5-0.8,0.8c-0.2,0.4-0.3,0.7-0.3,1.2v1.8
	c0,0.5,0.1,1,0.3,1.4c0.2,0.4,0.5,0.7,0.9,0.9c0.4,0.2,0.8,0.3,1.3,0.3c0.3,0,0.6,0,0.9-0.1c0.3-0.1,0.5-0.2,0.7-0.4
	c0.2-0.2,0.4-0.4,0.5-0.7l2.8,0.2c-0.1,0.7-0.4,1.3-0.9,1.8c-0.4,0.5-1,0.9-1.7,1.2C269.2,237.1,268.4,237.2,267.5,237.2z
	 M284.4,226.1l-3.8,10.9h-3.4l-3.8-10.9h3.2l2.3,7.8h0.1l2.3-7.8H284.4z M290.6,237.2c-1.1,0-2.1-0.2-2.9-0.7
	c-0.8-0.5-1.4-1.1-1.9-1.9c-0.4-0.8-0.7-1.8-0.7-3c0-1.1,0.2-2.1,0.7-3c0.4-0.8,1-1.5,1.8-2c0.8-0.5,1.7-0.7,2.8-0.7
	c0.7,0,1.4,0.1,2,0.3c0.6,0.2,1.2,0.6,1.6,1c0.5,0.5,0.8,1,1.1,1.7c0.3,0.7,0.4,1.5,0.4,2.4v0.8h-9.2v-1.9h6.4
	c0-0.4-0.1-0.8-0.3-1.2c-0.2-0.3-0.5-0.6-0.8-0.8c-0.3-0.2-0.7-0.3-1.2-0.3c-0.5,0-0.9,0.1-1.2,0.3c-0.4,0.2-0.6,0.5-0.8,0.8
	c-0.2,0.4-0.3,0.7-0.3,1.2v1.8c0,0.5,0.1,1,0.3,1.4c0.2,0.4,0.5,0.7,0.9,0.9c0.4,0.2,0.8,0.3,1.3,0.3c0.3,0,0.6,0,0.9-0.1
	c0.3-0.1,0.5-0.2,0.7-0.4c0.2-0.2,0.4-0.4,0.5-0.7l2.8,0.2c-0.1,0.7-0.4,1.3-0.9,1.8c-0.4,0.5-1,0.9-1.7,1.2
	C292.3,237.1,291.5,237.2,290.6,237.2z M300.6,230.7v6.3h-3v-10.9h2.9v1.9h0.1c0.2-0.6,0.6-1.1,1.2-1.5c0.6-0.4,1.3-0.6,2.1-0.6
	c0.8,0,1.4,0.2,2,0.5c0.6,0.3,1,0.8,1.3,1.4c0.3,0.6,0.5,1.3,0.5,2.2v6.9h-3v-6.4c0-0.7-0.2-1.2-0.5-1.6c-0.3-0.4-0.8-0.6-1.4-0.6
	c-0.4,0-0.8,0.1-1.1,0.3c-0.3,0.2-0.5,0.4-0.7,0.8C300.7,229.8,300.6,230.2,300.6,230.7z M315.8,226.1v2.3h-6.6v-2.3H315.8z
	 M310.7,223.5h3v10.2c0,0.3,0,0.5,0.1,0.7c0.1,0.2,0.2,0.3,0.4,0.3c0.2,0.1,0.3,0.1,0.5,0.1c0.1,0,0.3,0,0.4,0c0.1,0,0.3,0,0.3-0.1
	l0.5,2.3c-0.2,0-0.4,0.1-0.6,0.2c-0.3,0.1-0.6,0.1-1,0.1c-0.7,0-1.4-0.1-1.9-0.3c-0.5-0.2-1-0.6-1.3-1c-0.3-0.5-0.5-1.1-0.4-1.8
	V223.5z"/>
<path class="st14" d="M8.7,1h476c3.9,0,7,3.1,7,7v264c0,3.9-3.1,7-7,7H8.7c-3.9,0-7-3.1-7-7V8C1.7,4.1,4.8,1,8.7,1z"/>
<rect x="333.7" y="193" class="st1" width="100" height="100"/>
</svg>
