<svg width="18" height="18" viewBox="0 0 18 18" fill="none" xmlns="http://www.w3.org/2000/svg">
<path d="M8.99778 10.75C8.51593 10.75 8.10417 10.5784 7.7625 10.2353C7.42083 9.89214 7.25 9.47964 7.25 8.99778C7.25 8.51593 7.42158 8.10417 7.76472 7.7625C8.10786 7.42083 8.52036 7.25 9.00222 7.25C9.48407 7.25 9.89583 7.42158 10.2375 7.76472C10.5792 8.10786 10.75 8.52036 10.75 9.00222C10.75 9.48407 10.5784 9.89583 10.2353 10.2375C9.89214 10.5792 9.47964 10.75 8.99778 10.75ZM8.25 5V0H9.75V5H8.25ZM8.25 18V13H9.75V18H8.25ZM13 9.75V8.25H18V9.75H13ZM0 9.75V8.25H5V9.75H0Z" fill="#103E2B"/>
</svg>
