<svg width="492" height="280" viewBox="0 0 492 280" fill="none" xmlns="http://www.w3.org/2000/svg">
<g clip-path="url(#clip0_1330_6472)">
<rect width="492" height="280" rx="8" fill="white"/>
<g clip-path="url(#clip1_1330_6472)">
<rect width="375" height="1762" transform="translate(58 -120)" fill="white"/>
<path d="M84.2727 73H76.0227V49.7273H84.3409C86.6818 49.7273 88.697 50.1932 90.3864 51.125C92.0758 52.0492 93.375 53.3788 94.2841 55.1136C95.2008 56.8485 95.6591 58.9242 95.6591 61.3409C95.6591 63.7652 95.2008 65.8485 94.2841 67.5909C93.375 69.3333 92.0682 70.6705 90.3636 71.6023C88.6667 72.5341 86.6364 73 84.2727 73ZM80.9432 68.7841H84.0682C85.5227 68.7841 86.7462 68.5265 87.7386 68.0114C88.7386 67.4886 89.4886 66.6818 89.9886 65.5909C90.4962 64.4924 90.75 63.0758 90.75 61.3409C90.75 59.6212 90.4962 58.2159 89.9886 57.125C89.4886 56.0341 88.7424 55.2311 87.75 54.7159C86.7576 54.2008 85.5341 53.9432 84.0795 53.9432H80.9432V68.7841ZM104.19 73.3295C103.077 73.3295 102.084 73.1364 101.213 72.75C100.342 72.3561 99.6525 71.7765 99.1449 71.0114C98.6449 70.2386 98.3949 69.2765 98.3949 68.125C98.3949 67.1553 98.5729 66.3409 98.929 65.6818C99.285 65.0227 99.7699 64.4924 100.384 64.0909C100.997 63.6894 101.694 63.3864 102.474 63.1818C103.262 62.9773 104.088 62.8333 104.952 62.75C105.967 62.6439 106.785 62.5455 107.406 62.4545C108.027 62.3561 108.478 62.2121 108.759 62.0227C109.039 61.8333 109.179 61.553 109.179 61.1818V61.1136C109.179 60.3939 108.952 59.8371 108.497 59.4432C108.05 59.0492 107.414 58.8523 106.588 58.8523C105.717 58.8523 105.024 59.0455 104.509 59.4318C103.993 59.8106 103.652 60.2879 103.486 60.8636L99.0085 60.5C99.2358 59.4394 99.6828 58.5227 100.349 57.75C101.016 56.9697 101.876 56.3712 102.929 55.9545C103.99 55.5303 105.217 55.3182 106.611 55.3182C107.58 55.3182 108.509 55.4318 109.395 55.6591C110.289 55.8864 111.08 56.2386 111.77 56.7159C112.467 57.1932 113.016 57.8068 113.418 58.5568C113.819 59.2992 114.02 60.1894 114.02 61.2273V73H109.429V70.5795H109.293C109.012 71.125 108.637 71.6061 108.168 72.0227C107.698 72.4318 107.134 72.7538 106.474 72.9886C105.815 73.2159 105.054 73.3295 104.19 73.3295ZM105.577 69.9886C106.289 69.9886 106.918 69.8485 107.463 69.5682C108.009 69.2803 108.437 68.8939 108.747 68.4091C109.058 67.9242 109.213 67.375 109.213 66.7614V64.9091C109.062 65.0076 108.853 65.0985 108.588 65.1818C108.33 65.2576 108.039 65.3295 107.713 65.3977C107.387 65.4583 107.062 65.5152 106.736 65.5682C106.41 65.6136 106.115 65.6553 105.849 65.6932C105.281 65.7765 104.785 65.9091 104.361 66.0909C103.937 66.2727 103.607 66.5189 103.372 66.8295C103.137 67.1326 103.02 67.5114 103.02 67.9659C103.02 68.625 103.259 69.1288 103.736 69.4773C104.221 69.8182 104.834 69.9886 105.577 69.9886ZM117.776 73V55.5455H122.616V73H117.776ZM120.207 53.2955C119.488 53.2955 118.87 53.0568 118.355 52.5795C117.848 52.0947 117.594 51.5152 117.594 50.8409C117.594 50.1742 117.848 49.6023 118.355 49.125C118.87 48.6402 119.488 48.3977 120.207 48.3977C120.927 48.3977 121.541 48.6402 122.048 49.125C122.563 49.6023 122.821 50.1742 122.821 50.8409C122.821 51.5152 122.563 52.0947 122.048 52.5795C121.541 53.0568 120.927 53.2955 120.207 53.2955ZM131.335 49.7273V73H126.494V49.7273H131.335ZM138.202 79.5455C137.588 79.5455 137.012 79.4962 136.474 79.3977C135.944 79.3068 135.505 79.1894 135.156 79.0455L136.247 75.4318C136.815 75.6061 137.327 75.7008 137.781 75.7159C138.243 75.7311 138.641 75.625 138.974 75.3977C139.315 75.1705 139.592 74.7841 139.804 74.2386L140.088 73.5L133.827 55.5455H138.918L142.531 68.3636H142.713L146.361 55.5455H151.486L144.702 74.8864C144.376 75.8258 143.933 76.6439 143.372 77.3409C142.819 78.0455 142.118 78.5871 141.27 78.9659C140.421 79.3523 139.399 79.5455 138.202 79.5455ZM175.892 60.5227L171.46 60.7955C171.384 60.4167 171.222 60.0758 170.972 59.7727C170.722 59.4621 170.392 59.2159 169.983 59.0341C169.581 58.8447 169.1 58.75 168.54 58.75C167.79 58.75 167.157 58.9091 166.642 59.2273C166.127 59.5379 165.869 59.9545 165.869 60.4773C165.869 60.8939 166.036 61.2462 166.369 61.5341C166.703 61.822 167.275 62.053 168.085 62.2273L171.244 62.8636C172.941 63.2121 174.206 63.7727 175.04 64.5455C175.873 65.3182 176.29 66.3333 176.29 67.5909C176.29 68.7348 175.953 69.7386 175.278 70.6023C174.612 71.4659 173.695 72.1402 172.528 72.625C171.369 73.1023 170.032 73.3409 168.517 73.3409C166.206 73.3409 164.366 72.8598 162.994 71.8977C161.631 70.928 160.831 69.6098 160.597 67.9432L165.358 67.6932C165.502 68.3977 165.85 68.9356 166.403 69.3068C166.956 69.6705 167.665 69.8523 168.528 69.8523C169.377 69.8523 170.059 69.6894 170.574 69.3636C171.097 69.0303 171.362 68.6023 171.369 68.0795C171.362 67.6402 171.176 67.2803 170.812 67C170.449 66.7121 169.888 66.4924 169.131 66.3409L166.108 65.7386C164.403 65.3977 163.134 64.8068 162.301 63.9659C161.475 63.125 161.062 62.053 161.062 60.75C161.062 59.6288 161.366 58.6629 161.972 57.8523C162.585 57.0417 163.445 56.4167 164.551 55.9773C165.665 55.5379 166.968 55.3182 168.46 55.3182C170.665 55.3182 172.4 55.7841 173.665 56.7159C174.938 57.6477 175.68 58.9167 175.892 60.5227ZM190.531 65.5682V55.5455H195.372V73H190.724V69.8295H190.543C190.149 70.8523 189.493 71.6742 188.577 72.2955C187.668 72.9167 186.558 73.2273 185.247 73.2273C184.08 73.2273 183.054 72.9621 182.168 72.4318C181.281 71.9015 180.588 71.1477 180.088 70.1705C179.596 69.1932 179.346 68.0227 179.338 66.6591V55.5455H184.179V65.7955C184.187 66.8258 184.463 67.6402 185.009 68.2386C185.554 68.8371 186.285 69.1364 187.202 69.1364C187.785 69.1364 188.33 69.0038 188.838 68.7386C189.346 68.4659 189.755 68.0644 190.065 67.5341C190.384 67.0038 190.539 66.3485 190.531 65.5682ZM199.244 73V55.5455H203.858V58.625H204.062C204.426 57.6023 205.032 56.7955 205.881 56.2045C206.729 55.6136 207.744 55.3182 208.926 55.3182C210.123 55.3182 211.142 55.6174 211.983 56.2159C212.824 56.8068 213.384 57.6098 213.665 58.625H213.847C214.203 57.625 214.847 56.8258 215.778 56.2273C216.718 55.6212 217.828 55.3182 219.108 55.3182C220.737 55.3182 222.059 55.8371 223.074 56.875C224.097 57.9053 224.608 59.3674 224.608 61.2614V73H219.778V62.2159C219.778 61.2462 219.521 60.5189 219.006 60.0341C218.491 59.5492 217.847 59.3068 217.074 59.3068C216.195 59.3068 215.509 59.5871 215.017 60.1477C214.525 60.7008 214.278 61.4318 214.278 62.3409V73H209.585V62.1136C209.585 61.2576 209.339 60.5758 208.847 60.0682C208.362 59.5606 207.722 59.3068 206.926 59.3068C206.388 59.3068 205.903 59.4432 205.472 59.7159C205.047 59.9811 204.71 60.3561 204.46 60.8409C204.21 61.3182 204.085 61.8788 204.085 62.5227V73H199.244ZM228.432 73V55.5455H233.045V58.625H233.25C233.614 57.6023 234.22 56.7955 235.068 56.2045C235.917 55.6136 236.932 55.3182 238.114 55.3182C239.311 55.3182 240.33 55.6174 241.17 56.2159C242.011 56.8068 242.572 57.6098 242.852 58.625H243.034C243.39 57.625 244.034 56.8258 244.966 56.2273C245.905 55.6212 247.015 55.3182 248.295 55.3182C249.924 55.3182 251.246 55.8371 252.261 56.875C253.284 57.9053 253.795 59.3674 253.795 61.2614V73H248.966V62.2159C248.966 61.2462 248.708 60.5189 248.193 60.0341C247.678 59.5492 247.034 59.3068 246.261 59.3068C245.383 59.3068 244.697 59.5871 244.205 60.1477C243.712 60.7008 243.466 61.4318 243.466 62.3409V73H238.773V62.1136C238.773 61.2576 238.527 60.5758 238.034 60.0682C237.549 59.5606 236.909 59.3068 236.114 59.3068C235.576 59.3068 235.091 59.4432 234.659 59.7159C234.235 59.9811 233.898 60.3561 233.648 60.8409C233.398 61.3182 233.273 61.8788 233.273 62.5227V73H228.432ZM262.597 73.3295C261.483 73.3295 260.491 73.1364 259.619 72.75C258.748 72.3561 258.059 71.7765 257.551 71.0114C257.051 70.2386 256.801 69.2765 256.801 68.125C256.801 67.1553 256.979 66.3409 257.335 65.6818C257.691 65.0227 258.176 64.4924 258.79 64.0909C259.403 63.6894 260.1 63.3864 260.881 63.1818C261.669 62.9773 262.494 62.8333 263.358 62.75C264.373 62.6439 265.191 62.5455 265.812 62.4545C266.434 62.3561 266.884 62.2121 267.165 62.0227C267.445 61.8333 267.585 61.553 267.585 61.1818V61.1136C267.585 60.3939 267.358 59.8371 266.903 59.4432C266.456 59.0492 265.82 58.8523 264.994 58.8523C264.123 58.8523 263.43 59.0455 262.915 59.4318C262.4 59.8106 262.059 60.2879 261.892 60.8636L257.415 60.5C257.642 59.4394 258.089 58.5227 258.756 57.75C259.422 56.9697 260.282 56.3712 261.335 55.9545C262.396 55.5303 263.623 55.3182 265.017 55.3182C265.987 55.3182 266.915 55.4318 267.801 55.6591C268.695 55.8864 269.487 56.2386 270.176 56.7159C270.873 57.1932 271.422 57.8068 271.824 58.5568C272.225 59.2992 272.426 60.1894 272.426 61.2273V73H267.835V70.5795H267.699C267.419 71.125 267.044 71.6061 266.574 72.0227C266.104 72.4318 265.54 72.7538 264.881 72.9886C264.222 73.2159 263.46 73.3295 262.597 73.3295ZM263.983 69.9886C264.695 69.9886 265.324 69.8485 265.869 69.5682C266.415 69.2803 266.843 68.8939 267.153 68.4091C267.464 67.9242 267.619 67.375 267.619 66.7614V64.9091C267.468 65.0076 267.259 65.0985 266.994 65.1818C266.737 65.2576 266.445 65.3295 266.119 65.3977C265.794 65.4583 265.468 65.5152 265.142 65.5682C264.816 65.6136 264.521 65.6553 264.256 65.6932C263.688 65.7765 263.191 65.9091 262.767 66.0909C262.343 66.2727 262.013 66.5189 261.778 66.8295C261.544 67.1326 261.426 67.5114 261.426 67.9659C261.426 68.625 261.665 69.1288 262.142 69.4773C262.627 69.8182 263.241 69.9886 263.983 69.9886ZM276.182 73V55.5455H280.875V58.5909H281.057C281.375 57.5076 281.909 56.6894 282.659 56.1364C283.409 55.5758 284.273 55.2955 285.25 55.2955C285.492 55.2955 285.754 55.3106 286.034 55.3409C286.314 55.3712 286.561 55.4129 286.773 55.4659V59.7614C286.545 59.6932 286.231 59.6326 285.83 59.5795C285.428 59.5265 285.061 59.5 284.727 59.5C284.015 59.5 283.379 59.6553 282.818 59.9659C282.265 60.2689 281.826 60.6932 281.5 61.2386C281.182 61.7841 281.023 62.4129 281.023 63.125V73H276.182ZM292.795 79.5455C292.182 79.5455 291.606 79.4962 291.068 79.3977C290.538 79.3068 290.098 79.1894 289.75 79.0455L290.841 75.4318C291.409 75.6061 291.92 75.7008 292.375 75.7159C292.837 75.7311 293.235 75.625 293.568 75.3977C293.909 75.1705 294.186 74.7841 294.398 74.2386L294.682 73.5L288.42 55.5455H293.511L297.125 68.3636H297.307L300.955 55.5455H306.08L299.295 74.8864C298.97 75.8258 298.527 76.6439 297.966 77.3409C297.413 78.0455 296.712 78.5871 295.864 78.9659C295.015 79.3523 293.992 79.5455 292.795 79.5455Z" fill="#333333"/>
<path d="M74.4602 109.909H76.2756L79.9062 116.02H80.0597L83.6903 109.909H85.5057L80.7756 117.605V123H79.1903V117.605L74.4602 109.909ZM90.0792 123.205C89.1332 123.205 88.3171 122.996 87.631 122.578C86.9492 122.156 86.4229 121.568 86.0522 120.814C85.6857 120.055 85.5025 119.173 85.5025 118.168C85.5025 117.162 85.6857 116.276 86.0522 115.509C86.4229 114.737 86.9386 114.136 87.5991 113.706C88.2638 113.271 89.0394 113.054 89.9258 113.054C90.4371 113.054 90.9421 113.139 91.4407 113.31C91.9393 113.48 92.3931 113.757 92.8022 114.141C93.2113 114.52 93.5373 115.023 93.7802 115.649C94.0231 116.276 94.1445 117.047 94.1445 117.963V118.602H86.5763V117.298H92.6104C92.6104 116.744 92.4996 116.25 92.2781 115.815C92.0607 115.381 91.7496 115.038 91.3448 114.786C90.9442 114.535 90.4712 114.409 89.9258 114.409C89.3249 114.409 88.805 114.558 88.3661 114.857C87.9315 115.151 87.5969 115.534 87.3626 116.007C87.1282 116.48 87.011 116.987 87.011 117.528V118.398C87.011 119.139 87.1388 119.768 87.3945 120.283C87.6545 120.795 88.0146 121.185 88.4748 121.453C88.935 121.717 89.4698 121.849 90.0792 121.849C90.4755 121.849 90.8335 121.794 91.1531 121.683C91.4769 121.568 91.756 121.398 91.9904 121.172C92.2248 120.942 92.4059 120.656 92.5337 120.315L93.9911 120.724C93.8377 121.219 93.5799 121.653 93.2177 122.028C92.8555 122.399 92.408 122.689 91.8754 122.898C91.3427 123.102 90.744 123.205 90.0792 123.205ZM103.394 115.381L102.039 115.764C101.953 115.538 101.828 115.319 101.662 115.106C101.5 114.888 101.278 114.71 100.997 114.569C100.716 114.428 100.355 114.358 99.9165 114.358C99.3157 114.358 98.815 114.496 98.4144 114.773C98.0181 115.046 97.82 115.393 97.82 115.815C97.82 116.19 97.9563 116.487 98.229 116.704C98.5018 116.921 98.9279 117.102 99.5075 117.247L100.965 117.605C101.843 117.818 102.497 118.144 102.927 118.583C103.358 119.018 103.573 119.578 103.573 120.264C103.573 120.827 103.411 121.33 103.087 121.773C102.767 122.216 102.32 122.565 101.745 122.821C101.169 123.077 100.5 123.205 99.7376 123.205C98.7362 123.205 97.9073 122.987 97.2511 122.553C96.5948 122.118 96.1793 121.483 96.0046 120.648L97.4364 120.29C97.5728 120.818 97.8306 121.214 98.2099 121.479C98.5934 121.743 99.0941 121.875 99.712 121.875C100.415 121.875 100.973 121.726 101.387 121.428C101.804 121.125 102.013 120.763 102.013 120.341C102.013 120 101.894 119.714 101.655 119.484C101.417 119.25 101.05 119.075 100.556 118.96L98.9194 118.577C98.0202 118.364 97.3597 118.033 96.9379 117.586C96.5202 117.134 96.3114 116.57 96.3114 115.892C96.3114 115.338 96.467 114.848 96.7781 114.422C97.0934 113.996 97.5217 113.661 98.0629 113.418C98.6083 113.175 99.2262 113.054 99.9165 113.054C100.888 113.054 101.651 113.267 102.205 113.693C102.763 114.119 103.159 114.682 103.394 115.381ZM110.113 113.182V114.46H105.025V113.182H110.113ZM106.508 110.83H108.017V120.188C108.017 120.614 108.079 120.933 108.202 121.146C108.33 121.355 108.492 121.496 108.688 121.568C108.888 121.636 109.099 121.67 109.321 121.67C109.487 121.67 109.623 121.662 109.73 121.645C109.836 121.624 109.922 121.607 109.986 121.594L110.292 122.949C110.19 122.987 110.047 123.026 109.864 123.064C109.681 123.107 109.449 123.128 109.167 123.128C108.741 123.128 108.324 123.036 107.915 122.853C107.51 122.67 107.173 122.391 106.905 122.016C106.64 121.641 106.508 121.168 106.508 120.597V110.83ZM116.394 123.205C115.448 123.205 114.632 122.996 113.945 122.578C113.264 122.156 112.737 121.568 112.367 120.814C112 120.055 111.817 119.173 111.817 118.168C111.817 117.162 112 116.276 112.367 115.509C112.737 114.737 113.253 114.136 113.914 113.706C114.578 113.271 115.354 113.054 116.24 113.054C116.752 113.054 117.257 113.139 117.755 113.31C118.254 113.48 118.708 113.757 119.117 114.141C119.526 114.52 119.852 115.023 120.095 115.649C120.338 116.276 120.459 117.047 120.459 117.963V118.602H112.891V117.298H118.925C118.925 116.744 118.814 116.25 118.593 115.815C118.375 115.381 118.064 115.038 117.659 114.786C117.259 114.535 116.786 114.409 116.24 114.409C115.639 114.409 115.119 114.558 114.681 114.857C114.246 115.151 113.911 115.534 113.677 116.007C113.443 116.48 113.325 116.987 113.325 117.528V118.398C113.325 119.139 113.453 119.768 113.709 120.283C113.969 120.795 114.329 121.185 114.789 121.453C115.249 121.717 115.784 121.849 116.394 121.849C116.79 121.849 117.148 121.794 117.468 121.683C117.791 121.568 118.07 121.398 118.305 121.172C118.539 120.942 118.72 120.656 118.848 120.315L120.306 120.724C120.152 121.219 119.894 121.653 119.532 122.028C119.17 122.399 118.722 122.689 118.19 122.898C117.657 123.102 117.058 123.205 116.394 123.205ZM122.754 123V113.182H124.211V114.665H124.313C124.492 114.179 124.816 113.785 125.285 113.482C125.754 113.18 126.282 113.028 126.87 113.028C126.981 113.028 127.119 113.031 127.286 113.035C127.452 113.039 127.578 113.045 127.663 113.054V114.588C127.612 114.575 127.494 114.556 127.311 114.531C127.132 114.501 126.943 114.486 126.742 114.486C126.265 114.486 125.839 114.586 125.464 114.786C125.093 114.982 124.799 115.255 124.582 115.604C124.369 115.95 124.262 116.344 124.262 116.787V123H122.754ZM132.86 123.205C132.041 123.205 131.319 122.998 130.693 122.585C130.066 122.167 129.576 121.579 129.222 120.82C128.869 120.058 128.692 119.156 128.692 118.116C128.692 117.085 128.869 116.19 129.222 115.432C129.576 114.673 130.068 114.087 130.699 113.674C131.33 113.261 132.058 113.054 132.885 113.054C133.524 113.054 134.029 113.161 134.4 113.374C134.775 113.582 135.061 113.821 135.257 114.089C135.457 114.354 135.612 114.571 135.723 114.741H135.851V109.909H137.36V123H135.902V121.491H135.723C135.612 121.67 135.455 121.896 135.25 122.169C135.046 122.437 134.754 122.678 134.374 122.891C133.995 123.1 133.49 123.205 132.86 123.205ZM133.064 121.849C133.669 121.849 134.181 121.692 134.598 121.376C135.016 121.057 135.333 120.616 135.551 120.053C135.768 119.487 135.877 118.832 135.877 118.091C135.877 117.358 135.77 116.717 135.557 116.167C135.344 115.613 135.029 115.183 134.611 114.876C134.193 114.565 133.678 114.409 133.064 114.409C132.425 114.409 131.892 114.573 131.466 114.901C131.044 115.225 130.727 115.666 130.514 116.224C130.305 116.778 130.2 117.401 130.2 118.091C130.2 118.79 130.307 119.425 130.52 119.996C130.737 120.562 131.057 121.014 131.479 121.351C131.905 121.683 132.433 121.849 133.064 121.849ZM143.221 123.23C142.599 123.23 142.034 123.113 141.527 122.879C141.02 122.64 140.617 122.297 140.319 121.849C140.021 121.398 139.872 120.852 139.872 120.213C139.872 119.651 139.982 119.195 140.204 118.845C140.426 118.491 140.722 118.214 141.093 118.014C141.463 117.814 141.872 117.665 142.32 117.567C142.771 117.464 143.225 117.384 143.681 117.324C144.278 117.247 144.762 117.19 145.132 117.151C145.507 117.109 145.78 117.038 145.95 116.94C146.125 116.842 146.213 116.672 146.213 116.429V116.378C146.213 115.747 146.04 115.257 145.695 114.908C145.354 114.558 144.836 114.384 144.142 114.384C143.421 114.384 142.857 114.541 142.448 114.857C142.039 115.172 141.751 115.509 141.585 115.866L140.153 115.355C140.409 114.759 140.749 114.294 141.176 113.962C141.606 113.625 142.075 113.391 142.582 113.259C143.093 113.122 143.596 113.054 144.09 113.054C144.406 113.054 144.768 113.092 145.177 113.169C145.59 113.241 145.989 113.393 146.372 113.623C146.76 113.853 147.082 114.2 147.338 114.665C147.593 115.129 147.721 115.751 147.721 116.531V123H146.213V121.67H146.136C146.034 121.884 145.863 122.112 145.624 122.354C145.386 122.597 145.068 122.804 144.672 122.974C144.276 123.145 143.792 123.23 143.221 123.23ZM143.451 121.875C144.048 121.875 144.551 121.758 144.96 121.523C145.373 121.289 145.684 120.987 145.893 120.616C146.106 120.245 146.213 119.855 146.213 119.446V118.065C146.149 118.142 146.008 118.212 145.791 118.276C145.578 118.336 145.33 118.389 145.049 118.436C144.772 118.479 144.502 118.517 144.237 118.551C143.977 118.581 143.767 118.607 143.605 118.628C143.213 118.679 142.846 118.762 142.505 118.877C142.169 118.988 141.896 119.156 141.687 119.382C141.482 119.604 141.38 119.906 141.38 120.29C141.38 120.814 141.574 121.21 141.962 121.479C142.354 121.743 142.85 121.875 143.451 121.875ZM151.094 126.682C150.839 126.682 150.611 126.661 150.411 126.618C150.21 126.58 150.072 126.541 149.995 126.503L150.379 125.173C150.745 125.267 151.069 125.301 151.35 125.276C151.631 125.25 151.881 125.124 152.098 124.898C152.32 124.677 152.522 124.317 152.705 123.818L152.987 123.051L149.356 113.182H150.992L153.702 121.006H153.805L156.515 113.182H158.151L153.984 124.432C153.796 124.939 153.564 125.359 153.287 125.691C153.01 126.028 152.688 126.277 152.322 126.439C151.96 126.601 151.55 126.682 151.094 126.682ZM161.777 121.21L161.675 121.901C161.602 122.386 161.492 122.906 161.343 123.46C161.198 124.014 161.046 124.536 160.889 125.026C160.731 125.516 160.601 125.906 160.499 126.196H159.348C159.404 125.923 159.476 125.563 159.566 125.116C159.655 124.668 159.744 124.168 159.834 123.614C159.928 123.064 160.004 122.501 160.064 121.926L160.141 121.21H161.777ZM173.904 113.182V114.46H168.816V113.182H173.904ZM170.299 110.83H171.808V120.188C171.808 120.614 171.87 120.933 171.993 121.146C172.121 121.355 172.283 121.496 172.479 121.568C172.679 121.636 172.89 121.67 173.112 121.67C173.278 121.67 173.414 121.662 173.521 121.645C173.627 121.624 173.713 121.607 173.777 121.594L174.083 122.949C173.981 122.987 173.838 123.026 173.655 123.064C173.472 123.107 173.24 123.128 172.958 123.128C172.532 123.128 172.115 123.036 171.706 122.853C171.301 122.67 170.964 122.391 170.696 122.016C170.431 121.641 170.299 121.168 170.299 120.597V110.83ZM177.893 117.094V123H176.385V109.909H177.893V114.716H178.021C178.251 114.209 178.596 113.806 179.056 113.508C179.521 113.205 180.139 113.054 180.91 113.054C181.579 113.054 182.165 113.188 182.668 113.457C183.171 113.721 183.561 114.128 183.838 114.678C184.119 115.223 184.26 115.918 184.26 116.761V123H182.751V116.864C182.751 116.084 182.549 115.481 182.144 115.055C181.743 114.624 181.187 114.409 180.475 114.409C179.981 114.409 179.538 114.513 179.146 114.722C178.758 114.931 178.451 115.236 178.225 115.636C178.004 116.037 177.893 116.523 177.893 117.094ZM191.136 123.205C190.19 123.205 189.374 122.996 188.688 122.578C188.006 122.156 187.48 121.568 187.109 120.814C186.742 120.055 186.559 119.173 186.559 118.168C186.559 117.162 186.742 116.276 187.109 115.509C187.48 114.737 187.995 114.136 188.656 113.706C189.32 113.271 190.096 113.054 190.982 113.054C191.494 113.054 191.999 113.139 192.497 113.31C192.996 113.48 193.45 113.757 193.859 114.141C194.268 114.52 194.594 115.023 194.837 115.649C195.08 116.276 195.201 117.047 195.201 117.963V118.602H187.633V117.298H193.667C193.667 116.744 193.556 116.25 193.335 115.815C193.117 115.381 192.806 115.038 192.401 114.786C192.001 114.535 191.528 114.409 190.982 114.409C190.382 114.409 189.862 114.558 189.423 114.857C188.988 115.151 188.654 115.534 188.419 116.007C188.185 116.48 188.068 116.987 188.068 117.528V118.398C188.068 119.139 188.195 119.768 188.451 120.283C188.711 120.795 189.071 121.185 189.531 121.453C189.992 121.717 190.526 121.849 191.136 121.849C191.532 121.849 191.89 121.794 192.21 121.683C192.534 121.568 192.813 121.398 193.047 121.172C193.281 120.942 193.463 120.656 193.59 120.315L195.048 120.724C194.894 121.219 194.637 121.653 194.274 122.028C193.912 122.399 193.465 122.689 192.932 122.898C192.399 123.102 191.801 123.205 191.136 123.205ZM197.496 123V113.182H198.953V114.665H199.056C199.235 114.179 199.558 113.785 200.027 113.482C200.496 113.18 201.024 113.028 201.612 113.028C201.723 113.028 201.862 113.031 202.028 113.035C202.194 113.039 202.32 113.045 202.405 113.054V114.588C202.354 114.575 202.237 114.556 202.053 114.531C201.874 114.501 201.685 114.486 201.485 114.486C201.007 114.486 200.581 114.586 200.206 114.786C199.835 114.982 199.541 115.255 199.324 115.604C199.111 115.95 199.004 116.344 199.004 116.787V123H197.496ZM208.011 123.205C207.065 123.205 206.249 122.996 205.563 122.578C204.881 122.156 204.355 121.568 203.984 120.814C203.617 120.055 203.434 119.173 203.434 118.168C203.434 117.162 203.617 116.276 203.984 115.509C204.355 114.737 204.87 114.136 205.531 113.706C206.195 113.271 206.971 113.054 207.857 113.054C208.369 113.054 208.874 113.139 209.372 113.31C209.871 113.48 210.325 113.757 210.734 114.141C211.143 114.52 211.469 115.023 211.712 115.649C211.955 116.276 212.076 117.047 212.076 117.963V118.602H204.508V117.298H210.542C210.542 116.744 210.431 116.25 210.21 115.815C209.992 115.381 209.681 115.038 209.276 114.786C208.876 114.535 208.403 114.409 207.857 114.409C207.257 114.409 206.737 114.558 206.298 114.857C205.863 115.151 205.529 115.534 205.294 116.007C205.06 116.48 204.943 116.987 204.943 117.528V118.398C204.943 119.139 205.07 119.768 205.326 120.283C205.586 120.795 205.946 121.185 206.406 121.453C206.867 121.717 207.401 121.849 208.011 121.849C208.407 121.849 208.765 121.794 209.085 121.683C209.409 121.568 209.688 121.398 209.922 121.172C210.156 120.942 210.338 120.656 210.465 120.315L211.923 120.724C211.769 121.219 211.512 121.653 211.149 122.028C210.787 122.399 210.34 122.689 209.807 122.898C209.274 123.102 208.676 123.205 208.011 123.205ZM221.658 123L218.666 113.182H220.252L222.374 120.699H222.476L224.573 113.182H226.183L228.254 120.673H228.357L230.479 113.182H232.064L229.073 123H227.59L225.442 115.457H225.289L223.141 123H221.658ZM237.841 123.205C236.895 123.205 236.079 122.996 235.393 122.578C234.711 122.156 234.185 121.568 233.814 120.814C233.447 120.055 233.264 119.173 233.264 118.168C233.264 117.162 233.447 116.276 233.814 115.509C234.185 114.737 234.7 114.136 235.361 113.706C236.026 113.271 236.801 113.054 237.688 113.054C238.199 113.054 238.704 113.139 239.202 113.31C239.701 113.48 240.155 113.757 240.564 114.141C240.973 114.52 241.299 115.023 241.542 115.649C241.785 116.276 241.906 117.047 241.906 117.963V118.602H234.338V117.298H240.372C240.372 116.744 240.261 116.25 240.04 115.815C239.822 115.381 239.511 115.038 239.107 114.786C238.706 114.535 238.233 114.409 237.688 114.409C237.087 114.409 236.567 114.558 236.128 114.857C235.693 115.151 235.359 115.534 235.124 116.007C234.89 116.48 234.773 116.987 234.773 117.528V118.398C234.773 119.139 234.901 119.768 235.156 120.283C235.416 120.795 235.776 121.185 236.237 121.453C236.697 121.717 237.232 121.849 237.841 121.849C238.237 121.849 238.595 121.794 238.915 121.683C239.239 121.568 239.518 121.398 239.752 121.172C239.987 120.942 240.168 120.656 240.295 120.315L241.753 120.724C241.599 121.219 241.342 121.653 240.979 122.028C240.617 122.399 240.17 122.689 239.637 122.898C239.104 123.102 238.506 123.205 237.841 123.205ZM244.201 123V113.182H245.658V114.665H245.761C245.94 114.179 246.263 113.785 246.732 113.482C247.201 113.18 247.729 113.028 248.317 113.028C248.428 113.028 248.567 113.031 248.733 113.035C248.899 113.039 249.025 113.045 249.11 113.054V114.588C249.059 114.575 248.942 114.556 248.759 114.531C248.58 114.501 248.39 114.486 248.19 114.486C247.712 114.486 247.286 114.586 246.911 114.786C246.54 114.982 246.246 115.255 246.029 115.604C245.816 115.95 245.71 116.344 245.71 116.787V123H244.201ZM254.716 123.205C253.77 123.205 252.954 122.996 252.268 122.578C251.586 122.156 251.06 121.568 250.689 120.814C250.322 120.055 250.139 119.173 250.139 118.168C250.139 117.162 250.322 116.276 250.689 115.509C251.06 114.737 251.575 114.136 252.236 113.706C252.901 113.271 253.676 113.054 254.562 113.054C255.074 113.054 255.579 113.139 256.077 113.31C256.576 113.48 257.03 113.757 257.439 114.141C257.848 114.52 258.174 115.023 258.417 115.649C258.66 116.276 258.781 117.047 258.781 117.963V118.602H251.213V117.298H257.247C257.247 116.744 257.136 116.25 256.915 115.815C256.697 115.381 256.386 115.038 255.982 114.786C255.581 114.535 255.108 114.409 254.562 114.409C253.962 114.409 253.442 114.558 253.003 114.857C252.568 115.151 252.234 115.534 251.999 116.007C251.765 116.48 251.648 116.987 251.648 117.528V118.398C251.648 119.139 251.776 119.768 252.031 120.283C252.291 120.795 252.651 121.185 253.112 121.453C253.572 121.717 254.107 121.849 254.716 121.849C255.112 121.849 255.47 121.794 255.79 121.683C256.114 121.568 256.393 121.398 256.627 121.172C256.862 120.942 257.043 120.656 257.17 120.315L258.628 120.724C258.474 121.219 258.217 121.653 257.854 122.028C257.492 122.399 257.045 122.689 256.512 122.898C255.979 123.102 255.381 123.205 254.716 123.205ZM266.113 123V121.849L270.434 117.119C270.941 116.565 271.359 116.084 271.687 115.675C272.015 115.261 272.258 114.874 272.415 114.511C272.577 114.145 272.658 113.761 272.658 113.361C272.658 112.901 272.548 112.502 272.326 112.165C272.109 111.829 271.81 111.569 271.431 111.386C271.052 111.202 270.626 111.111 270.153 111.111C269.65 111.111 269.211 111.215 268.836 111.424C268.465 111.629 268.178 111.916 267.973 112.287C267.773 112.658 267.673 113.092 267.673 113.591H266.164C266.164 112.824 266.341 112.151 266.695 111.571C267.048 110.991 267.53 110.54 268.139 110.216C268.753 109.892 269.441 109.73 270.204 109.73C270.971 109.73 271.651 109.892 272.243 110.216C272.835 110.54 273.3 110.977 273.636 111.526C273.973 112.076 274.141 112.688 274.141 113.361C274.141 113.842 274.054 114.313 273.879 114.773C273.709 115.229 273.411 115.739 272.984 116.301C272.562 116.859 271.977 117.541 271.227 118.347L268.286 121.491V121.594H274.371V123H266.113ZM281.435 123.179C280.591 123.179 279.839 123.034 279.178 122.744C278.522 122.455 278 122.052 277.612 121.536C277.229 121.016 277.02 120.413 276.986 119.727H278.597C278.631 120.149 278.776 120.513 279.031 120.82C279.287 121.123 279.621 121.357 280.035 121.523C280.448 121.69 280.906 121.773 281.409 121.773C281.972 121.773 282.47 121.675 282.905 121.479C283.339 121.283 283.68 121.01 283.928 120.661C284.175 120.311 284.298 119.906 284.298 119.446C284.298 118.964 284.179 118.54 283.94 118.174C283.702 117.803 283.352 117.513 282.892 117.305C282.432 117.096 281.869 116.991 281.205 116.991H280.156V115.585H281.205C281.724 115.585 282.18 115.491 282.572 115.304C282.969 115.116 283.278 114.852 283.499 114.511C283.725 114.17 283.838 113.77 283.838 113.31C283.838 112.866 283.74 112.481 283.544 112.153C283.348 111.825 283.071 111.569 282.713 111.386C282.359 111.202 281.942 111.111 281.46 111.111C281.009 111.111 280.582 111.194 280.182 111.36C279.786 111.522 279.462 111.759 279.21 112.07C278.959 112.376 278.822 112.747 278.801 113.182H277.267C277.293 112.496 277.499 111.895 277.887 111.379C278.275 110.859 278.782 110.455 279.408 110.165C280.039 109.875 280.732 109.73 281.486 109.73C282.295 109.73 282.99 109.894 283.57 110.222C284.149 110.546 284.594 110.974 284.906 111.507C285.217 112.04 285.372 112.615 285.372 113.233C285.372 113.97 285.178 114.599 284.79 115.119C284.407 115.638 283.885 115.999 283.224 116.199V116.301C284.051 116.437 284.697 116.789 285.161 117.356C285.626 117.918 285.858 118.615 285.858 119.446C285.858 120.158 285.664 120.797 285.276 121.364C284.893 121.926 284.369 122.369 283.704 122.693C283.039 123.017 282.283 123.179 281.435 123.179ZM297.933 113.182V114.46H292.64V113.182H297.933ZM294.225 123V111.827C294.225 111.264 294.357 110.795 294.621 110.42C294.886 110.045 295.229 109.764 295.651 109.577C296.072 109.389 296.518 109.295 296.987 109.295C297.357 109.295 297.66 109.325 297.894 109.385C298.129 109.445 298.303 109.5 298.418 109.551L297.984 110.855C297.907 110.83 297.8 110.798 297.664 110.759C297.532 110.721 297.357 110.702 297.14 110.702C296.641 110.702 296.281 110.827 296.06 111.079C295.842 111.33 295.734 111.699 295.734 112.185V123H294.225ZM302.655 123.23C302.032 123.23 301.468 123.113 300.961 122.879C300.454 122.64 300.051 122.297 299.753 121.849C299.454 121.398 299.305 120.852 299.305 120.213C299.305 119.651 299.416 119.195 299.638 118.845C299.859 118.491 300.155 118.214 300.526 118.014C300.897 117.814 301.306 117.665 301.753 117.567C302.205 117.464 302.659 117.384 303.115 117.324C303.711 117.247 304.195 117.19 304.566 117.151C304.941 117.109 305.214 117.038 305.384 116.94C305.559 116.842 305.646 116.672 305.646 116.429V116.378C305.646 115.747 305.474 115.257 305.128 114.908C304.787 114.558 304.27 114.384 303.575 114.384C302.855 114.384 302.29 114.541 301.881 114.857C301.472 115.172 301.184 115.509 301.018 115.866L299.586 115.355C299.842 114.759 300.183 114.294 300.609 113.962C301.04 113.625 301.508 113.391 302.015 113.259C302.527 113.122 303.03 113.054 303.524 113.054C303.839 113.054 304.202 113.092 304.611 113.169C305.024 113.241 305.422 113.393 305.806 113.623C306.194 113.853 306.515 114.2 306.771 114.665C307.027 115.129 307.155 115.751 307.155 116.531V123H305.646V121.67H305.569C305.467 121.884 305.297 122.112 305.058 122.354C304.819 122.597 304.502 122.804 304.106 122.974C303.709 123.145 303.226 123.23 302.655 123.23ZM302.885 121.875C303.481 121.875 303.984 121.758 304.393 121.523C304.807 121.289 305.118 120.987 305.327 120.616C305.54 120.245 305.646 119.855 305.646 119.446V118.065C305.582 118.142 305.442 118.212 305.224 118.276C305.011 118.336 304.764 118.389 304.483 118.436C304.206 118.479 303.935 118.517 303.671 118.551C303.411 118.581 303.2 118.607 303.038 118.628C302.646 118.679 302.28 118.762 301.939 118.877C301.602 118.988 301.329 119.156 301.121 119.382C300.916 119.604 300.814 119.906 300.814 120.29C300.814 120.814 301.008 121.21 301.395 121.479C301.787 121.743 302.284 121.875 302.885 121.875ZM309.908 123V113.182H311.417V123H309.908ZM310.675 111.545C310.381 111.545 310.127 111.445 309.914 111.245C309.706 111.045 309.601 110.804 309.601 110.523C309.601 110.241 309.706 110.001 309.914 109.8C310.127 109.6 310.381 109.5 310.675 109.5C310.969 109.5 311.221 109.6 311.429 109.8C311.642 110.001 311.749 110.241 311.749 110.523C311.749 110.804 311.642 111.045 311.429 111.245C311.221 111.445 310.969 111.545 310.675 111.545ZM315.688 109.909V123H314.18V109.909H315.688ZM322.567 123.205C321.621 123.205 320.805 122.996 320.119 122.578C319.438 122.156 318.911 121.568 318.54 120.814C318.174 120.055 317.991 119.173 317.991 118.168C317.991 117.162 318.174 116.276 318.54 115.509C318.911 114.737 319.427 114.136 320.087 113.706C320.752 113.271 321.528 113.054 322.414 113.054C322.925 113.054 323.43 113.139 323.929 113.31C324.428 113.48 324.881 113.757 325.29 114.141C325.7 114.52 326.026 115.023 326.268 115.649C326.511 116.276 326.633 117.047 326.633 117.963V118.602H319.065V117.298H325.099C325.099 116.744 324.988 116.25 324.766 115.815C324.549 115.381 324.238 115.038 323.833 114.786C323.433 114.535 322.96 114.409 322.414 114.409C321.813 114.409 321.293 114.558 320.854 114.857C320.42 115.151 320.085 115.534 319.851 116.007C319.616 116.48 319.499 116.987 319.499 117.528V118.398C319.499 119.139 319.627 119.768 319.883 120.283C320.143 120.795 320.503 121.185 320.963 121.453C321.423 121.717 321.958 121.849 322.567 121.849C322.964 121.849 323.322 121.794 323.641 121.683C323.965 121.568 324.244 121.398 324.479 121.172C324.713 120.942 324.894 120.656 325.022 120.315L326.479 120.724C326.326 121.219 326.068 121.653 325.706 122.028C325.344 122.399 324.896 122.689 324.364 122.898C323.831 123.102 323.232 123.205 322.567 123.205ZM332.635 123.205C331.817 123.205 331.094 122.998 330.468 122.585C329.842 122.167 329.352 121.579 328.998 120.82C328.644 120.058 328.467 119.156 328.467 118.116C328.467 117.085 328.644 116.19 328.998 115.432C329.352 114.673 329.844 114.087 330.474 113.674C331.105 113.261 331.834 113.054 332.661 113.054C333.3 113.054 333.805 113.161 334.175 113.374C334.55 113.582 334.836 113.821 335.032 114.089C335.232 114.354 335.388 114.571 335.499 114.741H335.626V109.909H337.135V123H335.678V121.491H335.499C335.388 121.67 335.23 121.896 335.026 122.169C334.821 122.437 334.529 122.678 334.15 122.891C333.771 123.1 333.266 123.205 332.635 123.205ZM332.839 121.849C333.445 121.849 333.956 121.692 334.374 121.376C334.791 121.057 335.109 120.616 335.326 120.053C335.543 119.487 335.652 118.832 335.652 118.091C335.652 117.358 335.545 116.717 335.332 116.167C335.119 115.613 334.804 115.183 334.386 114.876C333.969 114.565 333.453 114.409 332.839 114.409C332.2 114.409 331.668 114.573 331.241 114.901C330.82 115.225 330.502 115.666 330.289 116.224C330.08 116.778 329.976 117.401 329.976 118.091C329.976 118.79 330.082 119.425 330.295 119.996C330.513 120.562 330.832 121.014 331.254 121.351C331.68 121.683 332.209 121.849 332.839 121.849ZM349.44 113.182V114.46H344.352V113.182H349.44ZM345.835 110.83H347.343V120.188C347.343 120.614 347.405 120.933 347.528 121.146C347.656 121.355 347.818 121.496 348.014 121.568C348.214 121.636 348.425 121.67 348.647 121.67C348.813 121.67 348.95 121.662 349.056 121.645C349.163 121.624 349.248 121.607 349.312 121.594L349.619 122.949C349.516 122.987 349.374 123.026 349.19 123.064C349.007 123.107 348.775 123.128 348.494 123.128C348.067 123.128 347.65 123.036 347.241 122.853C346.836 122.67 346.499 122.391 346.231 122.016C345.967 121.641 345.835 121.168 345.835 120.597V110.83ZM354.598 123.23C353.976 123.23 353.411 123.113 352.904 122.879C352.397 122.64 351.994 122.297 351.696 121.849C351.398 121.398 351.249 120.852 351.249 120.213C351.249 119.651 351.359 119.195 351.581 118.845C351.803 118.491 352.099 118.214 352.469 118.014C352.84 117.814 353.249 117.665 353.697 117.567C354.148 117.464 354.602 117.384 355.058 117.324C355.655 117.247 356.138 117.19 356.509 117.151C356.884 117.109 357.157 117.038 357.327 116.94C357.502 116.842 357.589 116.672 357.589 116.429V116.378C357.589 115.747 357.417 115.257 357.072 114.908C356.731 114.558 356.213 114.384 355.518 114.384C354.798 114.384 354.234 114.541 353.825 114.857C353.415 115.172 353.128 115.509 352.962 115.866L351.53 115.355C351.786 114.759 352.126 114.294 352.553 113.962C352.983 113.625 353.452 113.391 353.959 113.259C354.47 113.122 354.973 113.054 355.467 113.054C355.783 113.054 356.145 113.092 356.554 113.169C356.967 113.241 357.366 113.393 357.749 113.623C358.137 113.853 358.459 114.2 358.714 114.665C358.97 115.129 359.098 115.751 359.098 116.531V123H357.589V121.67H357.513C357.411 121.884 357.24 122.112 357.001 122.354C356.763 122.597 356.445 122.804 356.049 122.974C355.653 123.145 355.169 123.23 354.598 123.23ZM354.828 121.875C355.425 121.875 355.928 121.758 356.337 121.523C356.75 121.289 357.061 120.987 357.27 120.616C357.483 120.245 357.589 119.855 357.589 119.446V118.065C357.526 118.142 357.385 118.212 357.168 118.276C356.955 118.336 356.707 118.389 356.426 118.436C356.149 118.479 355.879 118.517 355.614 118.551C355.354 118.581 355.143 118.607 354.982 118.628C354.589 118.679 354.223 118.762 353.882 118.877C353.545 118.988 353.273 119.156 353.064 119.382C352.859 119.604 352.757 119.906 352.757 120.29C352.757 120.814 352.951 121.21 353.339 121.479C353.731 121.743 354.227 121.875 354.828 121.875ZM365.814 126.886C365.086 126.886 364.459 126.793 363.935 126.605C363.411 126.422 362.974 126.179 362.625 125.876C362.28 125.578 362.005 125.259 361.8 124.918L363.002 124.074C363.138 124.253 363.311 124.457 363.52 124.688C363.729 124.922 364.014 125.124 364.376 125.295C364.743 125.469 365.222 125.557 365.814 125.557C366.607 125.557 367.261 125.365 367.777 124.982C368.292 124.598 368.55 123.997 368.55 123.179V121.185H368.422C368.312 121.364 368.154 121.585 367.949 121.849C367.749 122.109 367.459 122.342 367.08 122.546C366.705 122.746 366.198 122.847 365.559 122.847C364.766 122.847 364.055 122.659 363.424 122.284C362.797 121.909 362.301 121.364 361.934 120.648C361.572 119.932 361.391 119.062 361.391 118.04C361.391 117.034 361.568 116.158 361.922 115.413C362.275 114.663 362.768 114.083 363.398 113.674C364.029 113.261 364.758 113.054 365.584 113.054C366.224 113.054 366.731 113.161 367.106 113.374C367.485 113.582 367.775 113.821 367.975 114.089C368.18 114.354 368.337 114.571 368.448 114.741H368.601V113.182H370.059V123.281C370.059 124.125 369.867 124.811 369.483 125.339C369.104 125.872 368.593 126.262 367.949 126.509C367.31 126.761 366.599 126.886 365.814 126.886ZM365.763 121.491C366.368 121.491 366.88 121.353 367.297 121.076C367.715 120.799 368.032 120.401 368.25 119.881C368.467 119.361 368.576 118.739 368.576 118.014C368.576 117.307 368.469 116.683 368.256 116.141C368.043 115.6 367.728 115.176 367.31 114.869C366.893 114.562 366.377 114.409 365.763 114.409C365.124 114.409 364.591 114.571 364.165 114.895C363.743 115.219 363.426 115.653 363.213 116.199C363.004 116.744 362.9 117.349 362.9 118.014C362.9 118.696 363.006 119.299 363.219 119.823C363.437 120.343 363.756 120.752 364.178 121.05C364.604 121.344 365.133 121.491 365.763 121.491ZM379.775 115.381L378.42 115.764C378.334 115.538 378.209 115.319 378.042 115.106C377.881 114.888 377.659 114.71 377.378 114.569C377.096 114.428 376.736 114.358 376.297 114.358C375.697 114.358 375.196 114.496 374.795 114.773C374.399 115.046 374.201 115.393 374.201 115.815C374.201 116.19 374.337 116.487 374.61 116.704C374.883 116.921 375.309 117.102 375.888 117.247L377.346 117.605C378.224 117.818 378.878 118.144 379.308 118.583C379.738 119.018 379.954 119.578 379.954 120.264C379.954 120.827 379.792 121.33 379.468 121.773C379.148 122.216 378.701 122.565 378.126 122.821C377.55 123.077 376.881 123.205 376.118 123.205C375.117 123.205 374.288 122.987 373.632 122.553C372.976 122.118 372.56 121.483 372.385 120.648L373.817 120.29C373.954 120.818 374.211 121.214 374.591 121.479C374.974 121.743 375.475 121.875 376.093 121.875C376.796 121.875 377.354 121.726 377.768 121.428C378.185 121.125 378.394 120.763 378.394 120.341C378.394 120 378.275 119.714 378.036 119.484C377.797 119.25 377.431 119.075 376.937 118.96L375.3 118.577C374.401 118.364 373.741 118.033 373.319 117.586C372.901 117.134 372.692 116.57 372.692 115.892C372.692 115.338 372.848 114.848 373.159 114.422C373.474 113.996 373.903 113.661 374.444 113.418C374.989 113.175 375.607 113.054 376.297 113.054C377.269 113.054 378.032 113.267 378.586 113.693C379.144 114.119 379.54 114.682 379.775 115.381ZM391.276 123.205C390.389 123.205 389.612 122.994 388.942 122.572C388.278 122.15 387.758 121.56 387.383 120.801C387.012 120.043 386.827 119.156 386.827 118.142C386.827 117.119 387.012 116.227 387.383 115.464C387.758 114.701 388.278 114.109 388.942 113.687C389.612 113.265 390.389 113.054 391.276 113.054C392.162 113.054 392.938 113.265 393.602 113.687C394.271 114.109 394.791 114.701 395.162 115.464C395.537 116.227 395.724 117.119 395.724 118.142C395.724 119.156 395.537 120.043 395.162 120.801C394.791 121.56 394.271 122.15 393.602 122.572C392.938 122.994 392.162 123.205 391.276 123.205ZM391.276 121.849C391.949 121.849 392.503 121.677 392.938 121.332C393.372 120.987 393.694 120.533 393.903 119.97C394.112 119.408 394.216 118.798 394.216 118.142C394.216 117.486 394.112 116.874 393.903 116.308C393.694 115.741 393.372 115.283 392.938 114.933C392.503 114.584 391.949 114.409 391.276 114.409C390.602 114.409 390.048 114.584 389.614 114.933C389.179 115.283 388.857 115.741 388.648 116.308C388.44 116.874 388.335 117.486 388.335 118.142C388.335 118.798 388.44 119.408 388.648 119.97C388.857 120.533 389.179 120.987 389.614 121.332C390.048 121.677 390.602 121.849 391.276 121.849ZM399.536 117.094V123H398.027V113.182H399.485V114.716H399.612C399.843 114.217 400.192 113.817 400.661 113.514C401.129 113.207 401.735 113.054 402.476 113.054C403.141 113.054 403.722 113.19 404.221 113.463C404.72 113.732 405.107 114.141 405.384 114.69C405.661 115.236 405.8 115.926 405.8 116.761V123H404.291V116.864C404.291 116.092 404.091 115.491 403.691 115.061C403.29 114.626 402.74 114.409 402.041 114.409C401.56 114.409 401.129 114.513 400.75 114.722C400.375 114.931 400.079 115.236 399.862 115.636C399.644 116.037 399.536 116.523 399.536 117.094ZM76.3523 148.682C76.0966 148.682 75.8686 148.661 75.6683 148.618C75.468 148.58 75.3295 148.541 75.2528 148.503L75.6364 147.173C76.0028 147.267 76.3267 147.301 76.608 147.276C76.8892 147.25 77.1385 147.124 77.3558 146.898C77.5774 146.677 77.7798 146.317 77.9631 145.818L78.2443 145.051L74.6136 135.182H76.25L78.9602 143.006H79.0625L81.7727 135.182H83.4091L79.2415 146.432C79.054 146.939 78.8217 147.359 78.5447 147.691C78.2678 148.028 77.946 148.277 77.5795 148.439C77.2173 148.601 76.8082 148.682 76.3523 148.682ZM89.0373 145.205C88.1509 145.205 87.3732 144.994 86.7042 144.572C86.0394 144.15 85.5195 143.56 85.1445 142.801C84.7738 142.043 84.5884 141.156 84.5884 140.142C84.5884 139.119 84.7738 138.227 85.1445 137.464C85.5195 136.701 86.0394 136.109 86.7042 135.687C87.3732 135.265 88.1509 135.054 89.0373 135.054C89.9237 135.054 90.6992 135.265 91.364 135.687C92.033 136.109 92.5529 136.701 92.9237 137.464C93.2987 138.227 93.4862 139.119 93.4862 140.142C93.4862 141.156 93.2987 142.043 92.9237 142.801C92.5529 143.56 92.033 144.15 91.364 144.572C90.6992 144.994 89.9237 145.205 89.0373 145.205ZM89.0373 143.849C89.7106 143.849 90.2646 143.677 90.6992 143.332C91.1339 142.987 91.4556 142.533 91.6644 141.97C91.8732 141.408 91.9776 140.798 91.9776 140.142C91.9776 139.486 91.8732 138.874 91.6644 138.308C91.4556 137.741 91.1339 137.283 90.6992 136.933C90.2646 136.584 89.7106 136.409 89.0373 136.409C88.364 136.409 87.81 136.584 87.3754 136.933C86.9407 137.283 86.619 137.741 86.4102 138.308C86.2013 138.874 86.0969 139.486 86.0969 140.142C86.0969 140.798 86.2013 141.408 86.4102 141.97C86.619 142.533 86.9407 142.987 87.3754 143.332C87.81 143.677 88.364 143.849 89.0373 143.849ZM101.976 140.986V135.182H103.485V145H101.976V143.338H101.874C101.644 143.837 101.286 144.261 100.8 144.61C100.314 144.955 99.7008 145.128 98.9593 145.128C98.3457 145.128 97.8002 144.994 97.323 144.725C96.8457 144.452 96.4707 144.043 96.198 143.498C95.9252 142.948 95.7889 142.256 95.7889 141.42V135.182H97.2974V141.318C97.2974 142.034 97.4977 142.605 97.8983 143.031C98.3031 143.457 98.8187 143.67 99.4451 143.67C99.8201 143.67 100.202 143.575 100.589 143.383C100.981 143.191 101.309 142.897 101.574 142.501C101.842 142.104 101.976 141.599 101.976 140.986ZM106.248 145V135.182H107.705V136.665H107.808C107.987 136.179 108.31 135.785 108.779 135.482C109.248 135.18 109.776 135.028 110.364 135.028C110.475 135.028 110.614 135.031 110.78 135.035C110.946 135.039 111.072 135.045 111.157 135.054V136.588C111.106 136.575 110.989 136.556 110.805 136.531C110.626 136.501 110.437 136.486 110.237 136.486C109.759 136.486 109.333 136.586 108.958 136.786C108.587 136.982 108.293 137.255 108.076 137.604C107.863 137.95 107.756 138.344 107.756 138.787V145H106.248ZM120.232 145L117.241 135.182H118.826L120.948 142.699H121.05L123.147 135.182H124.758L126.829 142.673H126.931L129.053 135.182H130.638L127.647 145H126.164L124.016 137.457H123.863L121.715 145H120.232ZM136.415 145.205C135.469 145.205 134.653 144.996 133.967 144.578C133.285 144.156 132.759 143.568 132.388 142.814C132.022 142.055 131.838 141.173 131.838 140.168C131.838 139.162 132.022 138.276 132.388 137.509C132.759 136.737 133.275 136.136 133.935 135.706C134.6 135.271 135.375 135.054 136.262 135.054C136.773 135.054 137.278 135.139 137.777 135.31C138.275 135.48 138.729 135.757 139.138 136.141C139.547 136.52 139.873 137.023 140.116 137.649C140.359 138.276 140.48 139.047 140.48 139.963V140.602H132.912V139.298H138.946C138.946 138.744 138.836 138.25 138.614 137.815C138.397 137.381 138.086 137.038 137.681 136.786C137.28 136.535 136.807 136.409 136.262 136.409C135.661 136.409 135.141 136.558 134.702 136.857C134.267 137.151 133.933 137.534 133.699 138.007C133.464 138.48 133.347 138.987 133.347 139.528V140.398C133.347 141.139 133.475 141.768 133.73 142.283C133.99 142.795 134.35 143.185 134.811 143.453C135.271 143.717 135.806 143.849 136.415 143.849C136.811 143.849 137.169 143.794 137.489 143.683C137.813 143.568 138.092 143.398 138.326 143.172C138.561 142.942 138.742 142.656 138.87 142.315L140.327 142.724C140.174 143.219 139.916 143.653 139.554 144.028C139.191 144.399 138.744 144.689 138.211 144.898C137.679 145.102 137.08 145.205 136.415 145.205ZM142.98 145V131.909H144.488V136.741H144.616C144.727 136.571 144.88 136.354 145.076 136.089C145.277 135.821 145.562 135.582 145.933 135.374C146.308 135.161 146.815 135.054 147.454 135.054C148.281 135.054 149.01 135.261 149.64 135.674C150.271 136.087 150.763 136.673 151.117 137.432C151.471 138.19 151.647 139.085 151.647 140.116C151.647 141.156 151.471 142.058 151.117 142.82C150.763 143.579 150.273 144.167 149.647 144.585C149.02 144.998 148.298 145.205 147.48 145.205C146.849 145.205 146.344 145.1 145.965 144.891C145.586 144.678 145.294 144.437 145.089 144.169C144.885 143.896 144.727 143.67 144.616 143.491H144.437V145H142.98ZM144.463 140.091C144.463 140.832 144.571 141.487 144.789 142.053C145.006 142.616 145.324 143.057 145.741 143.376C146.159 143.692 146.67 143.849 147.275 143.849C147.906 143.849 148.432 143.683 148.854 143.351C149.28 143.014 149.6 142.562 149.813 141.996C150.03 141.425 150.139 140.79 150.139 140.091C150.139 139.401 150.032 138.778 149.819 138.224C149.61 137.666 149.293 137.225 148.867 136.901C148.445 136.573 147.914 136.409 147.275 136.409C146.662 136.409 146.146 136.565 145.728 136.876C145.311 137.183 144.995 137.613 144.782 138.167C144.569 138.717 144.463 139.358 144.463 140.091ZM160.909 137.381L159.554 137.764C159.469 137.538 159.343 137.319 159.177 137.106C159.015 136.888 158.794 136.71 158.512 136.569C158.231 136.428 157.871 136.358 157.432 136.358C156.831 136.358 156.331 136.496 155.93 136.773C155.534 137.046 155.336 137.393 155.336 137.815C155.336 138.19 155.472 138.487 155.745 138.704C156.017 138.921 156.444 139.102 157.023 139.247L158.48 139.605C159.358 139.818 160.012 140.144 160.443 140.583C160.873 141.018 161.088 141.578 161.088 142.264C161.088 142.827 160.926 143.33 160.603 143.773C160.283 144.216 159.836 144.565 159.26 144.821C158.685 145.077 158.016 145.205 157.253 145.205C156.252 145.205 155.423 144.987 154.767 144.553C154.11 144.118 153.695 143.483 153.52 142.648L154.952 142.29C155.088 142.818 155.346 143.214 155.725 143.479C156.109 143.743 156.61 143.875 157.228 143.875C157.931 143.875 158.489 143.726 158.902 143.428C159.32 143.125 159.529 142.763 159.529 142.341C159.529 142 159.409 141.714 159.171 141.484C158.932 141.25 158.566 141.075 158.071 140.96L156.435 140.577C155.536 140.364 154.875 140.033 154.453 139.586C154.036 139.134 153.827 138.57 153.827 137.892C153.827 137.338 153.983 136.848 154.294 136.422C154.609 135.996 155.037 135.661 155.578 135.418C156.124 135.175 156.742 135.054 157.432 135.054C158.404 135.054 159.167 135.267 159.721 135.693C160.279 136.119 160.675 136.682 160.909 137.381ZM163.359 145V135.182H164.868V145H163.359ZM164.126 133.545C163.832 133.545 163.579 133.445 163.366 133.245C163.157 133.045 163.052 132.804 163.052 132.523C163.052 132.241 163.157 132.001 163.366 131.8C163.579 131.6 163.832 131.5 164.126 131.5C164.42 131.5 164.672 131.6 164.881 131.8C165.094 132.001 165.2 132.241 165.2 132.523C165.2 132.804 165.094 133.045 164.881 133.245C164.672 133.445 164.42 133.545 164.126 133.545ZM171.901 135.182V136.46H166.812V135.182H171.901ZM168.295 132.83H169.804V142.188C169.804 142.614 169.866 142.933 169.989 143.146C170.117 143.355 170.279 143.496 170.475 143.568C170.675 143.636 170.886 143.67 171.108 143.67C171.274 143.67 171.411 143.662 171.517 143.645C171.624 143.624 171.709 143.607 171.773 143.594L172.08 144.949C171.977 144.987 171.835 145.026 171.651 145.064C171.468 145.107 171.236 145.128 170.955 145.128C170.528 145.128 170.111 145.036 169.702 144.853C169.297 144.67 168.96 144.391 168.692 144.016C168.428 143.641 168.295 143.168 168.295 142.597V132.83ZM178.181 145.205C177.235 145.205 176.419 144.996 175.733 144.578C175.051 144.156 174.525 143.568 174.154 142.814C173.787 142.055 173.604 141.173 173.604 140.168C173.604 139.162 173.787 138.276 174.154 137.509C174.525 136.737 175.04 136.136 175.701 135.706C176.365 135.271 177.141 135.054 178.027 135.054C178.539 135.054 179.044 135.139 179.542 135.31C180.041 135.48 180.495 135.757 180.904 136.141C181.313 136.52 181.639 137.023 181.882 137.649C182.125 138.276 182.246 139.047 182.246 139.963V140.602H174.678V139.298H180.712C180.712 138.744 180.601 138.25 180.38 137.815C180.162 137.381 179.851 137.038 179.446 136.786C179.046 136.535 178.573 136.409 178.027 136.409C177.426 136.409 176.907 136.558 176.468 136.857C176.033 137.151 175.699 137.534 175.464 138.007C175.23 138.48 175.113 138.987 175.113 139.528V140.398C175.113 141.139 175.24 141.768 175.496 142.283C175.756 142.795 176.116 143.185 176.576 143.453C177.037 143.717 177.571 143.849 178.181 143.849C178.577 143.849 178.935 143.794 179.255 143.683C179.578 143.568 179.858 143.398 180.092 143.172C180.326 142.942 180.507 142.656 180.635 142.315L182.093 142.724C181.939 143.219 181.681 143.653 181.319 144.028C180.957 144.399 180.51 144.689 179.977 144.898C179.444 145.102 178.846 145.205 178.181 145.205ZM185.64 145.102C185.325 145.102 185.054 144.989 184.828 144.763C184.603 144.538 184.49 144.267 184.49 143.952C184.49 143.636 184.603 143.366 184.828 143.14C185.054 142.914 185.325 142.801 185.64 142.801C185.956 142.801 186.226 142.914 186.452 143.14C186.678 143.366 186.791 143.636 186.791 143.952C186.791 144.161 186.738 144.352 186.631 144.527C186.529 144.702 186.39 144.842 186.216 144.949C186.045 145.051 185.853 145.102 185.64 145.102Z" fill="#333333"/>
<rect x="74.5" y="173.5" width="342" height="81" rx="3.5" fill="#F2F2F2"/>
<g clip-path="url(#clip2_1330_6472)">
<path d="M93.1122 203L90.2884 192.818H91.9041L93.8878 200.703H93.9822L96.0455 192.818H97.6463L99.7095 200.708H99.804L101.783 192.818H103.403L100.575 203H99.0284L96.8857 195.374H96.8061L94.6634 203H93.1122ZM107.224 203.154C106.472 203.154 105.824 202.993 105.28 202.672C104.74 202.347 104.322 201.891 104.027 201.305C103.736 200.715 103.59 200.024 103.59 199.232C103.59 198.449 103.736 197.76 104.027 197.163C104.322 196.567 104.733 196.101 105.26 195.766C105.791 195.432 106.41 195.264 107.12 195.264C107.551 195.264 107.968 195.335 108.373 195.478C108.777 195.621 109.14 195.844 109.461 196.149C109.783 196.454 110.036 196.85 110.222 197.337C110.408 197.821 110.5 198.41 110.5 199.102V199.629H104.43V198.516H109.044C109.044 198.125 108.964 197.778 108.805 197.477C108.646 197.172 108.422 196.931 108.134 196.756C107.849 196.58 107.514 196.492 107.13 196.492C106.712 196.492 106.347 196.595 106.036 196.8C105.728 197.003 105.489 197.268 105.32 197.596C105.154 197.921 105.071 198.274 105.071 198.655V199.525C105.071 200.035 105.161 200.469 105.34 200.827C105.522 201.185 105.776 201.459 106.1 201.648C106.425 201.833 106.805 201.926 107.239 201.926C107.521 201.926 107.778 201.886 108.01 201.807C108.242 201.724 108.442 201.601 108.611 201.439C108.78 201.277 108.909 201.076 108.999 200.837L110.406 201.091C110.293 201.505 110.091 201.868 109.799 202.18C109.511 202.488 109.148 202.728 108.711 202.901C108.276 203.07 107.781 203.154 107.224 203.154ZM112.269 203V192.818H113.756V196.602H113.845C113.931 196.442 114.055 196.259 114.218 196.05C114.38 195.841 114.606 195.659 114.894 195.503C115.182 195.344 115.564 195.264 116.037 195.264C116.654 195.264 117.204 195.42 117.688 195.732C118.172 196.043 118.551 196.492 118.827 197.079C119.105 197.665 119.244 198.371 119.244 199.197C119.244 200.022 119.107 200.73 118.831 201.32C118.556 201.906 118.179 202.359 117.698 202.677C117.217 202.992 116.669 203.149 116.052 203.149C115.588 203.149 115.209 203.071 114.914 202.915C114.622 202.76 114.394 202.577 114.228 202.369C114.062 202.16 113.934 201.974 113.845 201.812H113.721V203H112.269ZM113.726 199.182C113.726 199.719 113.804 200.189 113.959 200.594C114.115 200.998 114.34 201.315 114.635 201.543C114.93 201.769 115.292 201.881 115.719 201.881C116.163 201.881 116.535 201.764 116.833 201.528C117.131 201.29 117.357 200.967 117.509 200.559C117.665 200.151 117.743 199.692 117.743 199.182C117.743 198.678 117.666 198.226 117.514 197.825C117.365 197.424 117.14 197.107 116.838 196.875C116.54 196.643 116.167 196.527 115.719 196.527C115.288 196.527 114.924 196.638 114.626 196.86C114.331 197.082 114.107 197.392 113.954 197.79C113.802 198.187 113.726 198.652 113.726 199.182ZM126.636 197.228L125.288 197.467C125.232 197.294 125.143 197.13 125.02 196.974C124.901 196.819 124.738 196.691 124.533 196.592C124.327 196.492 124.07 196.442 123.762 196.442C123.341 196.442 122.99 196.537 122.708 196.726C122.426 196.911 122.286 197.152 122.286 197.447C122.286 197.702 122.38 197.907 122.569 198.063C122.758 198.219 123.063 198.347 123.484 198.446L124.697 198.724C125.399 198.887 125.923 199.137 126.268 199.475C126.612 199.813 126.785 200.252 126.785 200.793C126.785 201.25 126.652 201.658 126.387 202.016C126.125 202.37 125.759 202.649 125.288 202.851C124.821 203.053 124.279 203.154 123.663 203.154C122.808 203.154 122.11 202.972 121.57 202.607C121.029 202.239 120.698 201.717 120.575 201.041L122.012 200.822C122.102 201.197 122.286 201.48 122.564 201.673C122.842 201.862 123.205 201.956 123.653 201.956C124.14 201.956 124.529 201.855 124.821 201.653C125.113 201.447 125.259 201.197 125.259 200.902C125.259 200.663 125.169 200.463 124.99 200.3C124.814 200.138 124.544 200.015 124.18 199.933L122.887 199.649C122.174 199.487 121.647 199.228 121.306 198.874C120.968 198.519 120.799 198.07 120.799 197.526C120.799 197.076 120.925 196.681 121.177 196.343C121.429 196.005 121.777 195.741 122.221 195.553C122.665 195.36 123.174 195.264 123.747 195.264C124.572 195.264 125.222 195.443 125.696 195.801C126.17 196.156 126.483 196.631 126.636 197.228ZM128.419 203V195.364H129.906V203H128.419ZM129.17 194.185C128.911 194.185 128.689 194.099 128.504 193.927C128.321 193.751 128.23 193.542 128.23 193.3C128.23 193.055 128.321 192.846 128.504 192.674C128.689 192.498 128.911 192.411 129.17 192.411C129.428 192.411 129.649 192.498 129.831 192.674C130.017 192.846 130.11 193.055 130.11 193.3C130.11 193.542 130.017 193.751 129.831 193.927C129.649 194.099 129.428 194.185 129.17 194.185ZM135.47 195.364V196.557H131.299V195.364H135.47ZM132.418 193.534H133.904V200.758C133.904 201.046 133.947 201.263 134.033 201.409C134.12 201.552 134.231 201.649 134.366 201.702C134.506 201.752 134.656 201.777 134.819 201.777C134.938 201.777 135.043 201.769 135.132 201.752C135.222 201.736 135.291 201.722 135.341 201.712L135.609 202.94C135.523 202.973 135.401 203.007 135.241 203.04C135.082 203.076 134.884 203.096 134.645 203.099C134.254 203.106 133.889 203.036 133.551 202.891C133.213 202.745 132.94 202.519 132.731 202.214C132.522 201.91 132.418 201.527 132.418 201.066V193.534ZM140.324 203.154C139.571 203.154 138.923 202.993 138.38 202.672C137.84 202.347 137.422 201.891 137.127 201.305C136.835 200.715 136.689 200.024 136.689 199.232C136.689 198.449 136.835 197.76 137.127 197.163C137.422 196.567 137.833 196.101 138.36 195.766C138.89 195.432 139.51 195.264 140.219 195.264C140.65 195.264 141.068 195.335 141.472 195.478C141.876 195.621 142.239 195.844 142.561 196.149C142.882 196.454 143.136 196.85 143.322 197.337C143.507 197.821 143.6 198.41 143.6 199.102V199.629H137.53V198.516H142.143C142.143 198.125 142.064 197.778 141.905 197.477C141.746 197.172 141.522 196.931 141.233 196.756C140.948 196.58 140.614 196.492 140.229 196.492C139.812 196.492 139.447 196.595 139.135 196.8C138.827 197.003 138.589 197.268 138.42 197.596C138.254 197.921 138.171 198.274 138.171 198.655V199.525C138.171 200.035 138.26 200.469 138.439 200.827C138.622 201.185 138.875 201.459 139.2 201.648C139.525 201.833 139.904 201.926 140.339 201.926C140.62 201.926 140.877 201.886 141.109 201.807C141.341 201.724 141.542 201.601 141.711 201.439C141.88 201.277 142.009 201.076 142.099 200.837L143.506 201.091C143.393 201.505 143.191 201.868 142.899 202.18C142.611 202.488 142.248 202.728 141.81 202.901C141.376 203.07 140.881 203.154 140.324 203.154Z" fill="#333333"/>
<path d="M253.577 203L251.251 195.364H252.484L254.134 201.21H254.214L255.844 195.364H257.097L258.708 201.19H258.788L260.438 195.364H261.671L259.344 203H258.191L256.521 197.134H256.401L254.731 203H253.577ZM264.952 203L262.626 195.364H263.859L265.509 201.21H265.589L267.219 195.364H268.472L270.083 201.19H270.163L271.813 195.364H273.046L270.719 203H269.566L267.896 197.134H267.776L266.106 203H264.952ZM276.327 203L274.001 195.364H275.234L276.884 201.21H276.964L278.594 195.364H279.847L281.458 201.19H281.538L283.188 195.364H284.421L282.094 203H280.941L279.271 197.134H279.151L277.481 203H276.327ZM285.788 203.08C285.543 203.08 285.333 202.992 285.157 202.816C284.981 202.64 284.893 202.43 284.893 202.185C284.893 201.939 284.981 201.729 285.157 201.553C285.333 201.378 285.543 201.29 285.788 201.29C286.034 201.29 286.244 201.378 286.42 201.553C286.595 201.729 286.683 201.939 286.683 202.185C286.683 202.347 286.642 202.496 286.559 202.632C286.479 202.768 286.372 202.877 286.236 202.96C286.103 203.04 285.954 203.08 285.788 203.08ZM289.544 205.864C289.346 205.864 289.168 205.847 289.012 205.814C288.857 205.784 288.749 205.754 288.689 205.724L288.988 204.69C289.273 204.763 289.525 204.79 289.743 204.77C289.962 204.75 290.156 204.652 290.325 204.477C290.497 204.304 290.655 204.024 290.797 203.636L291.016 203.04L288.192 195.364H289.465L291.573 201.449H291.652L293.76 195.364H295.033L291.792 204.114C291.646 204.508 291.465 204.835 291.25 205.093C291.034 205.355 290.784 205.549 290.499 205.675C290.217 205.801 289.899 205.864 289.544 205.864ZM299.411 203.159C298.721 203.159 298.116 202.995 297.596 202.667C297.079 202.339 296.674 201.88 296.383 201.29C296.094 200.7 295.95 200.01 295.95 199.222C295.95 198.426 296.094 197.732 296.383 197.138C296.674 196.545 297.079 196.085 297.596 195.756C298.116 195.428 298.721 195.264 299.411 195.264C300.1 195.264 300.703 195.428 301.22 195.756C301.741 196.085 302.145 196.545 302.433 197.138C302.725 197.732 302.871 198.426 302.871 199.222C302.871 200.01 302.725 200.7 302.433 201.29C302.145 201.88 301.741 202.339 301.22 202.667C300.703 202.995 300.1 203.159 299.411 203.159ZM299.411 202.105C299.934 202.105 300.365 201.971 300.703 201.702C301.041 201.434 301.291 201.081 301.454 200.643C301.616 200.206 301.697 199.732 301.697 199.222C301.697 198.711 301.616 198.236 301.454 197.795C301.291 197.354 301.041 196.998 300.703 196.726C300.365 196.454 299.934 196.318 299.411 196.318C298.887 196.318 298.456 196.454 298.118 196.726C297.78 196.998 297.53 197.354 297.367 197.795C297.205 198.236 297.124 198.711 297.124 199.222C297.124 199.732 297.205 200.206 297.367 200.643C297.53 201.081 297.78 201.434 298.118 201.702C298.456 201.971 298.887 202.105 299.411 202.105ZM309.474 199.878V195.364H310.648V203H309.474V201.707H309.395C309.216 202.095 308.937 202.425 308.559 202.697C308.182 202.965 307.704 203.099 307.128 203.099C306.65 203.099 306.226 202.995 305.855 202.786C305.484 202.574 305.192 202.256 304.98 201.832C304.768 201.404 304.662 200.866 304.662 200.216V195.364H305.835V200.136C305.835 200.693 305.991 201.137 306.302 201.469C306.617 201.8 307.018 201.966 307.506 201.966C307.797 201.966 308.094 201.891 308.395 201.742C308.7 201.593 308.956 201.364 309.161 201.056C309.37 200.748 309.474 200.355 309.474 199.878ZM312.797 203V195.364H313.93V196.517H314.01C314.149 196.139 314.401 195.833 314.765 195.597C315.13 195.362 315.541 195.244 315.998 195.244C316.084 195.244 316.192 195.246 316.321 195.249C316.451 195.253 316.548 195.258 316.615 195.264V196.457C316.575 196.447 316.484 196.433 316.341 196.413C316.202 196.389 316.055 196.378 315.899 196.378C315.528 196.378 315.196 196.456 314.904 196.612C314.616 196.764 314.387 196.976 314.218 197.248C314.053 197.516 313.97 197.823 313.97 198.168V203H312.797ZM319.859 203L317.532 195.364H318.765L320.415 201.21H320.495L322.126 195.364H323.379L324.989 201.19H325.069L326.719 195.364H327.952L325.626 203H324.472L322.802 197.134H322.683L321.012 203H319.859ZM332.445 203.159C331.71 203.159 331.075 202.997 330.541 202.672C330.011 202.344 329.602 201.886 329.313 201.3C329.028 200.71 328.886 200.024 328.886 199.241C328.886 198.459 329.028 197.77 329.313 197.173C329.602 196.573 330.003 196.106 330.517 195.771C331.034 195.433 331.637 195.264 332.326 195.264C332.724 195.264 333.117 195.33 333.504 195.463C333.892 195.596 334.245 195.811 334.563 196.109C334.882 196.404 335.135 196.795 335.324 197.283C335.513 197.77 335.607 198.37 335.607 199.082V199.58H329.721V198.565H334.414C334.414 198.134 334.328 197.75 334.156 197.412C333.987 197.074 333.745 196.807 333.43 196.612C333.118 196.416 332.75 196.318 332.326 196.318C331.859 196.318 331.454 196.434 331.113 196.666C330.775 196.895 330.515 197.193 330.333 197.561C330.15 197.929 330.059 198.323 330.059 198.744V199.42C330.059 199.997 330.159 200.486 330.357 200.887C330.56 201.285 330.84 201.588 331.198 201.797C331.556 202.002 331.972 202.105 332.445 202.105C332.754 202.105 333.032 202.062 333.281 201.976C333.533 201.886 333.75 201.754 333.932 201.578C334.114 201.399 334.255 201.177 334.355 200.912L335.488 201.23C335.369 201.615 335.168 201.953 334.887 202.244C334.605 202.533 334.257 202.758 333.843 202.92C333.428 203.08 332.963 203.159 332.445 203.159ZM337.551 203V192.818H338.725V196.577H338.824C338.91 196.444 339.03 196.275 339.182 196.07C339.338 195.861 339.56 195.675 339.848 195.513C340.14 195.347 340.534 195.264 341.031 195.264C341.674 195.264 342.241 195.425 342.732 195.746C343.222 196.068 343.605 196.524 343.88 197.114C344.155 197.704 344.293 198.4 344.293 199.202C344.293 200.01 344.155 200.711 343.88 201.305C343.605 201.895 343.224 202.352 342.737 202.677C342.249 202.998 341.688 203.159 341.051 203.159C340.561 203.159 340.168 203.078 339.873 202.915C339.578 202.75 339.351 202.562 339.192 202.354C339.033 202.142 338.91 201.966 338.824 201.827H338.685V203H337.551ZM338.705 199.182C338.705 199.759 338.789 200.267 338.958 200.708C339.127 201.146 339.374 201.489 339.699 201.737C340.024 201.982 340.422 202.105 340.892 202.105C341.383 202.105 341.792 201.976 342.12 201.717C342.452 201.455 342.7 201.104 342.866 200.663C343.035 200.219 343.119 199.725 343.119 199.182C343.119 198.645 343.037 198.161 342.871 197.73C342.709 197.296 342.462 196.953 342.13 196.701C341.802 196.446 341.389 196.318 340.892 196.318C340.415 196.318 340.014 196.439 339.689 196.681C339.364 196.92 339.119 197.254 338.953 197.685C338.788 198.113 338.705 198.612 338.705 199.182ZM351.497 197.074L350.443 197.372C350.376 197.196 350.279 197.026 350.149 196.86C350.023 196.691 349.851 196.552 349.632 196.442C349.414 196.333 349.133 196.278 348.792 196.278C348.325 196.278 347.935 196.386 347.624 196.602C347.316 196.814 347.161 197.084 347.161 197.412C347.161 197.704 347.267 197.934 347.48 198.103C347.692 198.272 348.023 198.413 348.474 198.526L349.607 198.804C350.29 198.97 350.799 199.223 351.134 199.565C351.468 199.903 351.636 200.339 351.636 200.872C351.636 201.31 351.51 201.701 351.258 202.045C351.009 202.39 350.661 202.662 350.214 202.861C349.767 203.06 349.246 203.159 348.653 203.159C347.874 203.159 347.229 202.99 346.719 202.652C346.209 202.314 345.885 201.82 345.749 201.17L346.863 200.892C346.969 201.303 347.17 201.611 347.465 201.817C347.763 202.022 348.152 202.125 348.633 202.125C349.18 202.125 349.614 202.009 349.936 201.777C350.26 201.542 350.423 201.26 350.423 200.932C350.423 200.667 350.33 200.445 350.144 200.266C349.959 200.083 349.674 199.947 349.289 199.858L348.017 199.56C347.317 199.394 346.803 199.137 346.475 198.789C346.151 198.438 345.988 197.999 345.988 197.472C345.988 197.041 346.109 196.66 346.351 196.328C346.596 195.997 346.929 195.737 347.35 195.548C347.775 195.359 348.255 195.264 348.792 195.264C349.548 195.264 350.141 195.43 350.572 195.761C351.006 196.093 351.314 196.53 351.497 197.074ZM353.402 203V195.364H354.575V203H353.402ZM353.999 194.091C353.77 194.091 353.573 194.013 353.407 193.857C353.245 193.701 353.163 193.514 353.163 193.295C353.163 193.077 353.245 192.889 353.407 192.734C353.573 192.578 353.77 192.5 353.999 192.5C354.227 192.5 354.423 192.578 354.585 192.734C354.751 192.889 354.834 193.077 354.834 193.295C354.834 193.514 354.751 193.701 354.585 193.857C354.423 194.013 354.227 194.091 353.999 194.091ZM360.045 195.364V196.358H356.088V195.364H360.045ZM357.241 193.534H358.415V200.812C358.415 201.144 358.463 201.393 358.559 201.558C358.658 201.721 358.784 201.83 358.937 201.886C359.092 201.939 359.256 201.966 359.429 201.966C359.558 201.966 359.664 201.959 359.747 201.946C359.83 201.929 359.896 201.916 359.946 201.906L360.184 202.96C360.105 202.99 359.994 203.02 359.851 203.05C359.709 203.083 359.528 203.099 359.309 203.099C358.978 203.099 358.653 203.028 358.335 202.886C358.02 202.743 357.758 202.526 357.55 202.234C357.344 201.943 357.241 201.575 357.241 201.131V193.534ZM364.93 203.159C364.194 203.159 363.559 202.997 363.026 202.672C362.495 202.344 362.086 201.886 361.798 201.3C361.513 200.71 361.37 200.024 361.37 199.241C361.37 198.459 361.513 197.77 361.798 197.173C362.086 196.573 362.487 196.106 363.001 195.771C363.518 195.433 364.121 195.264 364.811 195.264C365.208 195.264 365.601 195.33 365.989 195.463C366.377 195.596 366.73 195.811 367.048 196.109C367.366 196.404 367.619 196.795 367.808 197.283C367.997 197.77 368.092 198.37 368.092 199.082V199.58H362.205V198.565H366.899C366.899 198.134 366.812 197.75 366.64 197.412C366.471 197.074 366.229 196.807 365.914 196.612C365.603 196.416 365.235 196.318 364.811 196.318C364.343 196.318 363.939 196.434 363.597 196.666C363.259 196.895 362.999 197.193 362.817 197.561C362.635 197.929 362.544 198.323 362.544 198.744V199.42C362.544 199.997 362.643 200.486 362.842 200.887C363.044 201.285 363.324 201.588 363.682 201.797C364.04 202.002 364.456 202.105 364.93 202.105C365.238 202.105 365.517 202.062 365.765 201.976C366.017 201.886 366.234 201.754 366.416 201.578C366.599 201.399 366.74 201.177 366.839 200.912L367.972 201.23C367.853 201.615 367.653 201.953 367.371 202.244C367.089 202.533 366.741 202.758 366.327 202.92C365.913 203.08 365.447 203.159 364.93 203.159ZM370.732 203.08C370.486 203.08 370.276 202.992 370.1 202.816C369.925 202.64 369.837 202.43 369.837 202.185C369.837 201.939 369.925 201.729 370.1 201.553C370.276 201.378 370.486 201.29 370.732 201.29C370.977 201.29 371.187 201.378 371.363 201.553C371.539 201.729 371.627 201.939 371.627 202.185C371.627 202.347 371.585 202.496 371.502 202.632C371.423 202.768 371.315 202.877 371.179 202.96C371.047 203.04 370.897 203.08 370.732 203.08ZM376.834 203.159C376.118 203.159 375.502 202.99 374.985 202.652C374.468 202.314 374.07 201.848 373.792 201.255C373.513 200.662 373.374 199.984 373.374 199.222C373.374 198.446 373.517 197.762 373.802 197.168C374.09 196.572 374.491 196.106 375.005 195.771C375.522 195.433 376.125 195.264 376.814 195.264C377.351 195.264 377.835 195.364 378.266 195.562C378.697 195.761 379.05 196.04 379.325 196.398C379.6 196.756 379.771 197.173 379.837 197.651H378.664C378.574 197.303 378.376 196.994 378.067 196.726C377.762 196.454 377.351 196.318 376.834 196.318C376.377 196.318 375.976 196.437 375.631 196.676C375.29 196.911 375.023 197.245 374.831 197.675C374.642 198.103 374.547 198.605 374.547 199.182C374.547 199.772 374.64 200.286 374.826 200.723C375.015 201.161 375.28 201.5 375.621 201.742C375.966 201.984 376.37 202.105 376.834 202.105C377.139 202.105 377.416 202.052 377.665 201.946C377.913 201.84 378.124 201.688 378.296 201.489C378.468 201.29 378.591 201.051 378.664 200.773H379.837C379.771 201.223 379.607 201.629 379.345 201.991C379.086 202.349 378.743 202.634 378.316 202.846C377.892 203.055 377.398 203.159 376.834 203.159ZM384.655 203.159C383.965 203.159 383.36 202.995 382.84 202.667C382.323 202.339 381.919 201.88 381.627 201.29C381.339 200.7 381.194 200.01 381.194 199.222C381.194 198.426 381.339 197.732 381.627 197.138C381.919 196.545 382.323 196.085 382.84 195.756C383.36 195.428 383.965 195.264 384.655 195.264C385.344 195.264 385.947 195.428 386.464 195.756C386.985 196.085 387.389 196.545 387.677 197.138C387.969 197.732 388.115 198.426 388.115 199.222C388.115 200.01 387.969 200.7 387.677 201.29C387.389 201.88 386.985 202.339 386.464 202.667C385.947 202.995 385.344 203.159 384.655 203.159ZM384.655 202.105C385.178 202.105 385.609 201.971 385.947 201.702C386.285 201.434 386.536 201.081 386.698 200.643C386.86 200.206 386.942 199.732 386.942 199.222C386.942 198.711 386.86 198.236 386.698 197.795C386.536 197.354 386.285 196.998 385.947 196.726C385.609 196.454 385.178 196.318 384.655 196.318C384.131 196.318 383.7 196.454 383.362 196.726C383.024 196.998 382.774 197.354 382.611 197.795C382.449 198.236 382.368 198.711 382.368 199.222C382.368 199.732 382.449 200.206 382.611 200.643C382.774 201.081 383.024 201.434 383.362 201.702C383.7 201.971 384.131 202.105 384.655 202.105ZM389.906 203V195.364H391.039V196.557H391.139C391.298 196.149 391.555 195.833 391.909 195.607C392.264 195.379 392.69 195.264 393.187 195.264C393.691 195.264 394.11 195.379 394.445 195.607C394.783 195.833 395.047 196.149 395.235 196.557H395.315C395.511 196.162 395.804 195.849 396.195 195.617C396.586 195.382 397.055 195.264 397.602 195.264C398.285 195.264 398.843 195.478 399.277 195.906C399.712 196.33 399.929 196.991 399.929 197.889V203H398.755V197.889C398.755 197.326 398.601 196.923 398.293 196.681C397.985 196.439 397.622 196.318 397.204 196.318C396.667 196.318 396.251 196.481 395.956 196.805C395.661 197.127 395.514 197.535 395.514 198.028V203H394.321V197.77C394.321 197.336 394.18 196.986 393.898 196.721C393.616 196.452 393.253 196.318 392.809 196.318C392.504 196.318 392.219 196.399 391.954 196.562C391.692 196.724 391.48 196.95 391.318 197.238C391.159 197.523 391.079 197.853 391.079 198.227V203H389.906Z" fill="#333333"/>
<path d="M401 213H90V215H401V213Z" fill="#E8E8E8" mask="url(#path-6-inside-1_1330_6472)"/>
<path d="M99.5753 229.129H98.0241C97.9645 228.798 97.8535 228.506 97.6911 228.254C97.5286 228.002 97.3298 227.789 97.0945 227.613C96.8591 227.437 96.5956 227.305 96.304 227.215C96.0156 227.126 95.709 227.081 95.3842 227.081C94.7976 227.081 94.2723 227.228 93.8082 227.523C93.3475 227.818 92.983 228.251 92.7145 228.821C92.4493 229.391 92.3168 230.087 92.3168 230.909C92.3168 231.738 92.4493 232.437 92.7145 233.007C92.983 233.577 93.3492 234.008 93.8132 234.3C94.2772 234.591 94.7992 234.737 95.3793 234.737C95.7008 234.737 96.0057 234.694 96.294 234.608C96.5857 234.518 96.8492 234.388 97.0845 234.215C97.3198 234.043 97.5187 233.832 97.6811 233.584C97.8468 233.332 97.9612 233.044 98.0241 232.719L99.5753 232.724C99.4924 233.224 99.3317 233.685 99.093 234.106C98.8577 234.523 98.5545 234.885 98.1832 235.19C97.8153 235.491 97.3944 235.725 96.9205 235.891C96.4465 236.056 95.9295 236.139 95.3693 236.139C94.4877 236.139 93.7022 235.93 93.0128 235.513C92.3234 235.092 91.7798 234.49 91.3821 233.708C90.9877 232.926 90.7905 231.993 90.7905 230.909C90.7905 229.822 90.9893 228.889 91.3871 228.11C91.7848 227.328 92.3284 226.728 93.0178 226.31C93.7071 225.889 94.491 225.679 95.3693 225.679C95.9096 225.679 96.4134 225.757 96.8807 225.913C97.3513 226.065 97.7739 226.29 98.1484 226.589C98.523 226.884 98.8329 227.245 99.0781 227.673C99.3234 228.097 99.4891 228.582 99.5753 229.129ZM104.511 236.154C103.795 236.154 103.17 235.99 102.637 235.662C102.103 235.334 101.689 234.875 101.394 234.285C101.099 233.695 100.951 233.005 100.951 232.217C100.951 231.424 101.099 230.732 101.394 230.138C101.689 229.545 102.103 229.085 102.637 228.756C103.17 228.428 103.795 228.264 104.511 228.264C105.227 228.264 105.852 228.428 106.385 228.756C106.919 229.085 107.333 229.545 107.628 230.138C107.923 230.732 108.07 231.424 108.07 232.217C108.07 233.005 107.923 233.695 107.628 234.285C107.333 234.875 106.919 235.334 106.385 235.662C105.852 235.99 105.227 236.154 104.511 236.154ZM104.516 234.906C104.98 234.906 105.364 234.784 105.669 234.538C105.974 234.293 106.2 233.967 106.345 233.559C106.494 233.151 106.569 232.702 106.569 232.212C106.569 231.724 106.494 231.277 106.345 230.869C106.2 230.458 105.974 230.129 105.669 229.88C105.364 229.631 104.98 229.507 104.516 229.507C104.048 229.507 103.661 229.631 103.352 229.88C103.048 230.129 102.82 230.458 102.671 230.869C102.526 231.277 102.453 231.724 102.453 232.212C102.453 232.702 102.526 233.151 102.671 233.559C102.82 233.967 103.048 234.293 103.352 234.538C103.661 234.784 104.048 234.906 104.516 234.906ZM111.216 231.466V236H109.73V228.364H111.157V229.607H111.251C111.427 229.202 111.702 228.877 112.076 228.632C112.454 228.387 112.93 228.264 113.503 228.264C114.024 228.264 114.479 228.374 114.87 228.592C115.261 228.808 115.565 229.129 115.78 229.557C115.996 229.984 116.103 230.513 116.103 231.143V236H114.617V231.322C114.617 230.768 114.473 230.336 114.184 230.024C113.896 229.709 113.5 229.552 112.996 229.552C112.651 229.552 112.345 229.626 112.076 229.776C111.811 229.925 111.601 230.143 111.445 230.432C111.292 230.717 111.216 231.062 111.216 231.466ZM121.662 228.364V229.557H117.49V228.364H121.662ZM118.609 226.534H120.096V233.758C120.096 234.046 120.139 234.263 120.225 234.409C120.311 234.552 120.422 234.649 120.558 234.702C120.697 234.752 120.848 234.777 121.01 234.777C121.13 234.777 121.234 234.769 121.324 234.752C121.413 234.736 121.483 234.722 121.532 234.712L121.801 235.94C121.715 235.973 121.592 236.007 121.433 236.04C121.274 236.076 121.075 236.096 120.836 236.099C120.445 236.106 120.081 236.036 119.743 235.891C119.404 235.745 119.131 235.519 118.922 235.214C118.713 234.91 118.609 234.527 118.609 234.066V226.534ZM125.528 236.169C125.044 236.169 124.607 236.08 124.216 235.901C123.825 235.718 123.515 235.455 123.286 235.11C123.061 234.765 122.948 234.343 122.948 233.842C122.948 233.411 123.031 233.057 123.197 232.778C123.362 232.5 123.586 232.28 123.868 232.117C124.149 231.955 124.464 231.832 124.812 231.749C125.16 231.666 125.515 231.603 125.876 231.56C126.334 231.507 126.705 231.464 126.99 231.431C127.275 231.395 127.482 231.337 127.611 231.257C127.741 231.178 127.805 231.048 127.805 230.869V230.835C127.805 230.4 127.683 230.064 127.437 229.825C127.195 229.587 126.834 229.467 126.354 229.467C125.853 229.467 125.459 229.578 125.17 229.8C124.885 230.019 124.688 230.263 124.579 230.531L123.182 230.213C123.347 229.749 123.589 229.375 123.907 229.089C124.229 228.801 124.599 228.592 125.016 228.463C125.434 228.33 125.873 228.264 126.334 228.264C126.639 228.264 126.962 228.301 127.303 228.374C127.648 228.443 127.969 228.572 128.268 228.761C128.569 228.95 128.816 229.22 129.008 229.572C129.201 229.92 129.297 230.372 129.297 230.929V236H127.845V234.956H127.785C127.689 235.148 127.545 235.337 127.353 235.523C127.161 235.708 126.914 235.862 126.612 235.985C126.31 236.108 125.949 236.169 125.528 236.169ZM125.851 234.976C126.262 234.976 126.614 234.895 126.905 234.732C127.2 234.57 127.424 234.358 127.577 234.096C127.732 233.831 127.81 233.547 127.81 233.246V232.261C127.757 232.314 127.654 232.364 127.502 232.411C127.353 232.454 127.182 232.492 126.99 232.525C126.798 232.555 126.61 232.583 126.428 232.609C126.246 232.633 126.093 232.652 125.971 232.669C125.682 232.705 125.419 232.767 125.18 232.853C124.945 232.939 124.756 233.063 124.613 233.226C124.474 233.385 124.405 233.597 124.405 233.862C124.405 234.23 124.541 234.509 124.812 234.697C125.084 234.883 125.43 234.976 125.851 234.976ZM131.277 236V228.364H132.763V236H131.277ZM132.027 227.185C131.769 227.185 131.547 227.099 131.361 226.927C131.179 226.751 131.088 226.542 131.088 226.3C131.088 226.055 131.179 225.846 131.361 225.674C131.547 225.498 131.769 225.411 132.027 225.411C132.286 225.411 132.506 225.498 132.689 225.674C132.874 225.846 132.967 226.055 132.967 226.3C132.967 226.542 132.874 226.751 132.689 226.927C132.506 227.099 132.286 227.185 132.027 227.185ZM136.249 231.466V236H134.763V228.364H136.19V229.607H136.284C136.46 229.202 136.735 228.877 137.11 228.632C137.487 228.387 137.963 228.264 138.536 228.264C139.057 228.264 139.512 228.374 139.904 228.592C140.295 228.808 140.598 229.129 140.813 229.557C141.029 229.984 141.137 230.513 141.137 231.143V236H139.65V231.322C139.65 230.768 139.506 230.336 139.218 230.024C138.929 229.709 138.533 229.552 138.029 229.552C137.685 229.552 137.378 229.626 137.11 229.776C136.844 229.925 136.634 230.143 136.478 230.432C136.326 230.717 136.249 231.062 136.249 231.466ZM146.421 236.154C145.669 236.154 145.021 235.993 144.477 235.672C143.937 235.347 143.52 234.891 143.225 234.305C142.933 233.715 142.787 233.024 142.787 232.232C142.787 231.449 142.933 230.76 143.225 230.163C143.52 229.567 143.931 229.101 144.458 228.766C144.988 228.432 145.608 228.264 146.317 228.264C146.748 228.264 147.165 228.335 147.57 228.478C147.974 228.621 148.337 228.844 148.659 229.149C148.98 229.454 149.234 229.85 149.419 230.337C149.605 230.821 149.698 231.41 149.698 232.102V232.629H143.627V231.516H148.241C148.241 231.125 148.161 230.778 148.002 230.477C147.843 230.172 147.619 229.931 147.331 229.756C147.046 229.58 146.711 229.492 146.327 229.492C145.909 229.492 145.545 229.595 145.233 229.8C144.925 230.003 144.686 230.268 144.517 230.596C144.352 230.921 144.269 231.274 144.269 231.655V232.525C144.269 233.035 144.358 233.469 144.537 233.827C144.719 234.185 144.973 234.459 145.298 234.648C145.623 234.833 146.002 234.926 146.436 234.926C146.718 234.926 146.975 234.886 147.207 234.807C147.439 234.724 147.639 234.601 147.808 234.439C147.977 234.277 148.107 234.076 148.196 233.837L149.603 234.091C149.49 234.505 149.288 234.868 148.997 235.18C148.708 235.488 148.345 235.728 147.908 235.901C147.474 236.07 146.978 236.154 146.421 236.154ZM151.347 236V228.364H152.784V229.577H152.863C153.002 229.166 153.248 228.843 153.599 228.607C153.954 228.369 154.355 228.249 154.802 228.249C154.895 228.249 155.004 228.253 155.13 228.259C155.26 228.266 155.361 228.274 155.434 228.284V229.706C155.374 229.689 155.268 229.671 155.115 229.651C154.963 229.628 154.81 229.616 154.658 229.616C154.307 229.616 153.993 229.691 153.718 229.84C153.447 229.986 153.231 230.19 153.072 230.452C152.913 230.71 152.833 231.005 152.833 231.337V236H151.347ZM162.081 225.818V236H160.544V225.818H162.081ZM167.614 236H164.318V225.818H167.718C168.716 225.818 169.573 226.022 170.289 226.43C171.005 226.834 171.553 227.416 171.934 228.175C172.319 228.93 172.511 229.837 172.511 230.894C172.511 231.955 172.317 232.866 171.929 233.629C171.545 234.391 170.988 234.978 170.259 235.388C169.53 235.796 168.648 236 167.614 236ZM165.854 234.658H167.529C168.305 234.658 168.95 234.512 169.463 234.22C169.977 233.925 170.362 233.499 170.617 232.942C170.872 232.382 171 231.7 171 230.894C171 230.095 170.872 229.418 170.617 228.861C170.365 228.304 169.989 227.881 169.488 227.593C168.988 227.305 168.366 227.161 167.624 227.161H165.854V234.658Z" fill="#333333"/>
<path d="M290.672 229C290.562 228.665 290.418 228.365 290.239 228.1C290.064 227.832 289.853 227.603 289.608 227.414C289.366 227.225 289.091 227.081 288.782 226.982C288.474 226.882 288.136 226.832 287.768 226.832C287.165 226.832 286.617 226.988 286.123 227.3C285.629 227.611 285.236 228.07 284.944 228.677C284.653 229.283 284.507 230.027 284.507 230.909C284.507 231.791 284.654 232.535 284.949 233.141C285.244 233.748 285.644 234.207 286.148 234.518C286.651 234.83 287.218 234.986 287.848 234.986C288.431 234.986 288.945 234.862 289.389 234.613C289.836 234.361 290.184 234.006 290.433 233.549C290.685 233.088 290.811 232.546 290.811 231.923L291.189 232.003H288.126V230.909H292.004V232.003C292.004 232.841 291.825 233.571 291.467 234.19C291.113 234.81 290.622 235.291 289.996 235.632C289.372 235.97 288.657 236.139 287.848 236.139C286.946 236.139 286.154 235.927 285.471 235.503C284.792 235.079 284.262 234.475 283.881 233.693C283.503 232.911 283.314 231.983 283.314 230.909C283.314 230.104 283.421 229.379 283.637 228.737C283.856 228.09 284.164 227.54 284.562 227.086C284.959 226.632 285.43 226.284 285.974 226.042C286.517 225.8 287.115 225.679 287.768 225.679C288.305 225.679 288.806 225.76 289.27 225.923C289.737 226.082 290.153 226.309 290.518 226.604C290.885 226.895 291.192 227.245 291.437 227.653C291.683 228.057 291.852 228.506 291.944 229H290.672ZM293.135 226.912V225.818H300.771V226.912H297.57V236H296.337V226.912H293.135ZM302.674 225.818H304.146L307.606 234.27H307.725L311.186 225.818H312.657V236H311.504V228.264H311.404L308.223 236H307.109L303.927 228.264H303.828V236H302.674V225.818ZM322.468 225.818V236H321.235V227.111H321.175L318.689 228.761V227.509L321.235 225.818H322.468ZM325.396 236V235.105L328.757 231.426C329.151 230.995 329.476 230.621 329.731 230.303C329.986 229.981 330.175 229.679 330.298 229.398C330.424 229.113 330.487 228.814 330.487 228.503C330.487 228.145 330.401 227.835 330.228 227.573C330.059 227.311 329.827 227.109 329.532 226.967C329.237 226.824 328.906 226.753 328.538 226.753C328.147 226.753 327.805 226.834 327.514 226.996C327.225 227.156 327.002 227.379 326.843 227.668C326.687 227.956 326.609 228.294 326.609 228.682H325.436C325.436 228.085 325.573 227.562 325.848 227.111C326.123 226.66 326.498 226.309 326.972 226.057C327.449 225.805 327.984 225.679 328.578 225.679C329.174 225.679 329.703 225.805 330.164 226.057C330.624 226.309 330.985 226.648 331.247 227.076C331.509 227.504 331.64 227.979 331.64 228.503C331.64 228.877 331.572 229.244 331.436 229.602C331.304 229.956 331.072 230.352 330.74 230.79C330.412 231.224 329.956 231.754 329.373 232.381L327.086 234.827V234.906H331.819V236H325.396ZM337.313 236.139C336.656 236.139 336.071 236.027 335.558 235.801C335.047 235.576 334.641 235.263 334.34 234.862C334.041 234.457 333.879 233.988 333.852 233.455H335.105C335.132 233.783 335.244 234.066 335.443 234.305C335.642 234.54 335.902 234.722 336.224 234.852C336.545 234.981 336.902 235.045 337.293 235.045C337.73 235.045 338.118 234.969 338.456 234.817C338.794 234.664 339.059 234.452 339.252 234.18C339.444 233.909 339.54 233.594 339.54 233.236C339.54 232.861 339.447 232.531 339.262 232.246C339.076 231.958 338.804 231.733 338.446 231.57C338.088 231.408 337.651 231.327 337.134 231.327H336.318V230.233H337.134C337.538 230.233 337.893 230.16 338.198 230.014C338.506 229.868 338.746 229.663 338.919 229.398C339.094 229.133 339.182 228.821 339.182 228.463C339.182 228.118 339.106 227.818 338.953 227.563C338.801 227.308 338.585 227.109 338.307 226.967C338.032 226.824 337.707 226.753 337.333 226.753C336.981 226.753 336.65 226.817 336.338 226.947C336.03 227.073 335.778 227.257 335.583 227.499C335.387 227.737 335.281 228.026 335.264 228.364H334.071C334.091 227.83 334.252 227.363 334.553 226.962C334.855 226.557 335.249 226.242 335.737 226.017C336.227 225.792 336.766 225.679 337.352 225.679C337.982 225.679 338.522 225.807 338.973 226.062C339.424 226.314 339.77 226.647 340.012 227.061C340.254 227.475 340.375 227.923 340.375 228.403C340.375 228.977 340.224 229.466 339.923 229.87C339.624 230.274 339.218 230.554 338.705 230.71V230.79C339.348 230.896 339.85 231.169 340.211 231.61C340.572 232.048 340.753 232.589 340.753 233.236C340.753 233.789 340.602 234.286 340.301 234.727C340.002 235.165 339.595 235.509 339.078 235.761C338.561 236.013 337.972 236.139 337.313 236.139ZM346.485 233.912V232.898L350.96 225.818H351.695V227.389H351.198L347.818 232.739V232.818H353.843V233.912H346.485ZM351.278 236V233.604V233.131V225.818H352.451V236H351.278ZM358.888 236.139C358.305 236.139 357.779 236.023 357.312 235.791C356.845 235.559 356.47 235.241 356.189 234.837C355.907 234.432 355.753 233.972 355.726 233.455H356.919C356.966 233.915 357.175 234.296 357.546 234.598C357.92 234.896 358.368 235.045 358.888 235.045C359.306 235.045 359.677 234.948 360.002 234.752C360.33 234.557 360.587 234.288 360.772 233.947C360.961 233.602 361.056 233.213 361.056 232.778C361.056 232.334 360.958 231.938 360.762 231.59C360.57 231.239 360.305 230.962 359.967 230.76C359.629 230.558 359.243 230.455 358.809 230.452C358.497 230.448 358.177 230.496 357.849 230.596C357.521 230.692 357.251 230.816 357.039 230.969L355.885 230.83L356.502 225.818H361.792V226.912H357.536L357.178 229.915H357.238C357.446 229.749 357.708 229.612 358.023 229.502C358.338 229.393 358.666 229.338 359.007 229.338C359.631 229.338 360.186 229.487 360.673 229.786C361.163 230.08 361.548 230.485 361.826 230.999C362.108 231.512 362.249 232.099 362.249 232.759C362.249 233.408 362.103 233.988 361.811 234.499C361.523 235.006 361.125 235.407 360.618 235.702C360.111 235.993 359.534 236.139 358.888 236.139ZM367.605 236.139C367.187 236.133 366.769 236.053 366.352 235.901C365.934 235.748 365.553 235.491 365.208 235.13C364.864 234.765 364.587 234.273 364.378 233.653C364.169 233.03 364.065 232.248 364.065 231.307C364.065 230.405 364.149 229.607 364.318 228.911C364.487 228.211 364.733 227.623 365.054 227.146C365.376 226.665 365.763 226.3 366.218 226.052C366.675 225.803 367.19 225.679 367.764 225.679C368.334 225.679 368.841 225.793 369.285 226.022C369.732 226.247 370.097 226.562 370.379 226.967C370.66 227.371 370.843 227.837 370.926 228.364H369.713C369.6 227.906 369.381 227.527 369.056 227.225C368.731 226.924 368.301 226.773 367.764 226.773C366.975 226.773 366.353 227.116 365.899 227.802C365.449 228.488 365.222 229.451 365.218 230.69H365.298C365.483 230.409 365.704 230.168 365.959 229.969C366.218 229.767 366.503 229.612 366.814 229.502C367.126 229.393 367.455 229.338 367.803 229.338C368.387 229.338 368.92 229.484 369.404 229.776C369.888 230.064 370.276 230.463 370.568 230.974C370.859 231.481 371.005 232.062 371.005 232.719C371.005 233.348 370.864 233.925 370.583 234.449C370.301 234.969 369.905 235.384 369.394 235.692C368.887 235.997 368.291 236.146 367.605 236.139ZM367.605 235.045C368.022 235.045 368.397 234.941 368.728 234.732C369.063 234.523 369.326 234.243 369.519 233.892C369.714 233.541 369.812 233.15 369.812 232.719C369.812 232.298 369.718 231.915 369.529 231.57C369.343 231.222 369.086 230.946 368.758 230.74C368.433 230.535 368.062 230.432 367.644 230.432C367.329 230.432 367.036 230.495 366.764 230.621C366.493 230.743 366.254 230.912 366.048 231.128C365.846 231.343 365.687 231.59 365.571 231.869C365.455 232.144 365.397 232.434 365.397 232.739C365.397 233.143 365.492 233.521 365.681 233.872C365.873 234.223 366.135 234.507 366.466 234.722C366.801 234.938 367.18 235.045 367.605 235.045ZM377.216 236L381.77 226.991V226.912H376.52V225.818H383.043V226.972L378.509 236H377.216ZM387.952 236.139C387.269 236.139 386.666 236.018 386.142 235.776C385.622 235.531 385.216 235.195 384.924 234.767C384.633 234.336 384.489 233.846 384.492 233.295C384.489 232.865 384.573 232.467 384.745 232.102C384.918 231.734 385.153 231.428 385.451 231.183C385.753 230.934 386.089 230.777 386.461 230.71V230.651C385.973 230.525 385.586 230.251 385.297 229.83C385.009 229.406 384.866 228.924 384.87 228.384C384.866 227.866 384.997 227.404 385.262 226.996C385.528 226.589 385.892 226.267 386.356 226.032C386.824 225.797 387.355 225.679 387.952 225.679C388.542 225.679 389.069 225.797 389.533 226.032C389.997 226.267 390.362 226.589 390.627 226.996C390.895 227.404 391.031 227.866 391.034 228.384C391.031 228.924 390.884 229.406 390.592 229.83C390.304 230.251 389.921 230.525 389.444 230.651V230.71C389.811 230.777 390.143 230.934 390.438 231.183C390.733 231.428 390.968 231.734 391.144 232.102C391.319 232.467 391.409 232.865 391.412 233.295C391.409 233.846 391.26 234.336 390.965 234.767C390.673 235.195 390.267 235.531 389.747 235.776C389.23 236.018 388.632 236.139 387.952 236.139ZM387.952 235.045C388.413 235.045 388.81 234.971 389.145 234.822C389.48 234.673 389.739 234.462 389.921 234.19C390.103 233.919 390.196 233.6 390.199 233.236C390.196 232.851 390.096 232.512 389.901 232.217C389.705 231.922 389.439 231.69 389.1 231.521C388.766 231.352 388.383 231.267 387.952 231.267C387.518 231.267 387.13 231.352 386.789 231.521C386.451 231.69 386.184 231.922 385.988 232.217C385.796 232.512 385.702 232.851 385.705 233.236C385.702 233.6 385.789 233.919 385.968 234.19C386.151 234.462 386.411 234.673 386.749 234.822C387.087 234.971 387.488 235.045 387.952 235.045ZM387.952 230.213C388.317 230.213 388.64 230.14 388.922 229.994C389.207 229.848 389.43 229.645 389.593 229.383C389.755 229.121 389.838 228.814 389.841 228.463C389.838 228.118 389.757 227.818 389.598 227.563C389.439 227.305 389.218 227.106 388.936 226.967C388.655 226.824 388.327 226.753 387.952 226.753C387.571 226.753 387.238 226.824 386.953 226.967C386.668 227.106 386.447 227.305 386.292 227.563C386.136 227.818 386.06 228.118 386.063 228.463C386.06 228.814 386.137 229.121 386.297 229.383C386.459 229.645 386.683 229.848 386.968 229.994C387.253 230.14 387.581 230.213 387.952 230.213ZM396.559 225.679C396.977 225.682 397.394 225.762 397.812 225.918C398.23 226.073 398.611 226.332 398.955 226.693C399.3 227.051 399.577 227.54 399.786 228.16C399.994 228.78 400.099 229.557 400.099 230.491C400.099 231.396 400.013 232.2 399.84 232.903C399.671 233.602 399.426 234.192 399.105 234.673C398.786 235.153 398.399 235.518 397.941 235.766C397.487 236.015 396.973 236.139 396.4 236.139C395.83 236.139 395.321 236.027 394.874 235.801C394.43 235.572 394.065 235.256 393.78 234.852C393.498 234.444 393.318 233.972 393.238 233.435H394.451C394.561 233.902 394.778 234.288 395.102 234.593C395.431 234.895 395.863 235.045 396.4 235.045C397.186 235.045 397.805 234.702 398.259 234.016C398.717 233.33 398.945 232.361 398.945 231.108H398.866C398.68 231.386 398.46 231.627 398.205 231.829C397.95 232.031 397.666 232.187 397.355 232.296C397.043 232.406 396.712 232.46 396.36 232.46C395.777 232.46 395.242 232.316 394.754 232.028C394.271 231.736 393.883 231.337 393.591 230.83C393.303 230.319 393.159 229.736 393.159 229.08C393.159 228.456 393.298 227.886 393.576 227.369C393.858 226.849 394.252 226.435 394.759 226.126C395.27 225.818 395.87 225.669 396.559 225.679ZM396.559 226.773C396.142 226.773 395.765 226.877 395.431 227.086C395.099 227.291 394.836 227.57 394.64 227.921C394.448 228.269 394.352 228.655 394.352 229.08C394.352 229.504 394.445 229.89 394.63 230.238C394.819 230.583 395.076 230.858 395.401 231.063C395.729 231.265 396.102 231.366 396.519 231.366C396.834 231.366 397.128 231.305 397.399 231.183C397.671 231.057 397.908 230.886 398.11 230.67C398.316 230.452 398.477 230.205 398.593 229.93C398.709 229.651 398.767 229.361 398.767 229.06C398.767 228.662 398.67 228.289 398.478 227.941C398.289 227.593 398.027 227.311 397.693 227.096C397.361 226.88 396.983 226.773 396.559 226.773Z" fill="#333333"/>
</g>
<rect x="74.5" y="173.5" width="342" height="81" rx="3.5" stroke="#E8E8E8"/>
</g>
</g>
<rect x="1" y="1" width="490" height="278" rx="7" stroke="black" stroke-width="2"/>
<defs>
<clipPath id="clip0_1330_6472">
<rect width="492" height="280" rx="8" fill="white"/>
</clipPath>
<clipPath id="clip1_1330_6472">
<rect width="375" height="1762" fill="white" transform="translate(58 -120)"/>
</clipPath>
<clipPath id="clip2_1330_6472">
<rect width="311" height="50" fill="white" transform="translate(90 189)"/>
</clipPath>
</defs>
</svg>
