    <svg
      id="Layer_1"
      data-name="Layer 1"
      xmlns="http://www.w3.org/2000/svg"
      viewBox="0 0 306.84 135.87"
      width="100%"
      height="100%"
    >
      <path
        d="M83.56,82.37H97V106H83.56v28.06H53V106H1.82L0,87.28,53,2.09V1.82H83.56Zm-54.4,0H53V41.69L51,44.77ZM199.47,80q0,26.79-12,41.33t-33.92,14.53q-22.06,0-34.15-14.63T107.28,80V55.85q0-26.79,12-41.32T153.33,0q22,0,34.06,14.62t12.08,41.32ZM168.86,52q0-14.27-3.72-21.3a12.48,12.48,0,0,0-11.81-7q-7.91,0-11.49,6.54T138,50V83.74q0,14.79,3.72,21.66t11.81,6.85A12.33,12.33,0,0,0,165,105.58q3.72-6.67,3.82-20.94ZM293.4,82.38h13.44V106H293.4v28.06H262.79V106H211.66l-1.82-18.71,53-85.19V1.82H293.4Zm-54.4,0h23.8V41.69l-1.91,3.08Z"
        transform="translate(0 0)"
        style="fill: #fefdfc"
      />
    </svg>