    <svg
      xmlns="http://www.w3.org/2000/svg"
      width="519.375"
      height="233.75"
      viewBox="0 0 519.375 233.75"
    >
      <path
        d="M22.188-111.875,35.313-227.5h127.5v37.656H72.344l-5.625,48.906a71.592,71.592,0,0,1,34.219-8.594q32.5,0,50.938,20.156t18.438,56.406q0,22.031-9.3,39.453A65.619,65.619,0,0,1,134.375-6.484Q117.031,3.125,93.438,3.125A88.315,88.315,0,0,1,55.156-5.234,67.9,67.9,0,0,1,27.266-28.75,64.09,64.09,0,0,1,16.406-63.281H61.094Q62.5-49.062,71.016-41.172t22.266,7.891q15.313,0,23.594-11.016t8.281-31.172q0-19.375-9.531-29.687T88.594-115.469q-16.094,0-26.094,8.438l-4.375,4.063Zm330,17.813q0,47.188-19.531,72.188t-57.187,25q-37.188,0-56.875-24.531T198.438-91.719v-41.875q0-47.656,19.766-72.344t56.953-24.687q37.187,0,56.875,24.453t20.156,70.234ZM307.031-140.1q0-28.311-7.734-41.213t-24.141-12.9q-15.937,0-23.516,12.278t-8.047,38.4v55.366q0,27.839,7.578,41.368t24.3,13.529q16.562,0,23.906-12.981t7.656-39.727Zm228.75,46.04q0,47.188-19.531,72.188t-57.187,25q-37.187,0-56.875-24.531T382.031-91.719v-41.875q0-47.656,19.766-72.344t56.953-24.687q37.187,0,56.875,24.453t20.156,70.234ZM490.625-140.1q0-28.311-7.734-41.213t-24.141-12.9q-15.937,0-23.516,12.278t-8.047,38.4v55.366q0,27.839,7.578,41.368t24.3,13.529q16.562,0,23.906-12.981t7.656-39.727Z"
        transform="translate(-16.406 230.625)"
        fill="#fff"
        opacity="0.62"
      />
    </svg>