<svg id="Calendar" xmlns="http://www.w3.org/2000/svg" width="24" height="24" viewBox="0 0 24 24">
  <rect id="Rectangle_4714" data-name="Rectangle 4714" width="24" height="24" fill="none"/>
  <g id="Calendar-2" data-name="Calendar" transform="translate(3.04 3.365)">
    <path id="Shape" d="M8.96,17.269c-1.578,0-3.174-.078-4.744-.233l-1.193-.118A3.011,3.011,0,0,1,.345,14.386,29,29,0,0,1,.251,6.118l.087-.653a3.382,3.382,0,0,1,2.872-2.9V.75a.75.75,0,0,1,1.5,0V2.417c1.411-.126,2.841-.189,4.25-.189s2.843.064,4.25.189V.75a.75.75,0,0,1,1.5,0V2.567a3.385,3.385,0,0,1,2.872,2.9l.086.653a28.967,28.967,0,0,1-.093,8.267A3.011,3.011,0,0,1,14.9,16.918l-1.193.118C12.134,17.191,10.538,17.269,8.96,17.269ZM1.537,8.5a27.536,27.536,0,0,0,.29,5.656,1.51,1.51,0,0,0,1.344,1.27l1.193.118c1.522.15,3.068.226,4.6.226s3.075-.076,4.6-.226l1.193-.118a1.51,1.51,0,0,0,1.344-1.27,27.6,27.6,0,0,0,.29-5.656ZM8.961,3.729c-1.515,0-3.047.075-4.555.224L3.5,4.042a1.868,1.868,0,0,0-1.675,1.62l-.086.653c-.028.206-.054.424-.083.685H16.264c-.025-.232-.051-.456-.082-.685L16.1,5.662a1.868,1.868,0,0,0-1.675-1.62l-.905-.089C12.008,3.8,10.475,3.729,8.961,3.729Z" transform="translate(0 0)" fill="#0a2f4f"/>
  </g>
</svg>
