<svg id="User" xmlns="http://www.w3.org/2000/svg" width="24" height="24" viewBox="0 0 24 24">
  <rect id="Rectangle_4715" data-name="Rectangle 4715" width="24" height="24" fill="none"/>
  <g id="User-2" data-name="User" transform="translate(4.25 3.51)">
    <path id="Shape" d="M4.25,8.5A4.25,4.25,0,1,1,8.5,4.25,4.255,4.255,0,0,1,4.25,8.5Zm0-7A2.75,2.75,0,1,0,7,4.25,2.753,2.753,0,0,0,4.25,1.5Z" transform="translate(3.5 0)" fill="#0a2f4f"/>
    <path id="Shape-2" data-name="Shape" d="M7.75,6.979a40.173,40.173,0,0,1-6.46-.524A1.531,1.531,0,0,1,0,4.938V3.75A3.755,3.755,0,0,1,3.75,0h.34a1.74,1.74,0,0,1,.544.086L5.5.369A7.228,7.228,0,0,0,7.75.727,7.235,7.235,0,0,0,10,.369l.865-.283A1.74,1.74,0,0,1,11.409,0h.341A3.754,3.754,0,0,1,15.5,3.75V4.938a1.531,1.531,0,0,1-1.289,1.516A40.186,40.186,0,0,1,7.75,6.979ZM3.75,1.5A2.253,2.253,0,0,0,1.5,3.75V4.938a.036.036,0,0,0,.031.036,38.668,38.668,0,0,0,6.219.5,38.668,38.668,0,0,0,6.219-.5A.037.037,0,0,0,14,4.938V3.75A2.253,2.253,0,0,0,11.75,1.5h-.341a.248.248,0,0,0-.077.012l-.866.283a8.728,8.728,0,0,1-2.716.433,8.728,8.728,0,0,1-2.716-.433l-.865-.283A.252.252,0,0,0,4.09,1.5Z" transform="translate(0 10)" fill="#0a2f4f"/>
  </g>
</svg>
