<svg width="500" height="300" viewBox="0 0 500 300" fill="none" xmlns="http://www.w3.org/2000/svg">
<rect x="9" y="1" width="490" height="278" rx="7" fill="white"/>
<rect width="444" height="1" transform="translate(32 155)" fill="#E4E6EC"/>
<rect width="444" height="1" transform="translate(32 122)" fill="#E4E6EC"/>
<rect width="444" height="1" transform="translate(32 89)" fill="#E4E6EC"/>
<rect width="12" height="80" transform="translate(46 108)" fill="#FFBBBB"/>
<rect width="12" height="128" transform="translate(62 60)" fill="#93FAE7"/>
<rect width="12" height="74" transform="translate(109 114)" fill="#FFBBBB"/>
<rect width="12" height="105" transform="translate(125 83)" fill="#93FAE7"/>
<rect width="12" height="80" transform="translate(172 108)" fill="url(#paint0_linear_1274_4349)"/>
<rect width="12" height="94" transform="translate(188.5 94)" fill="#93FAE7"/>
<rect width="12" height="16" transform="translate(235 172)" fill="#FFBBBB"/>
<rect width="12" height="110" transform="translate(251 78)" fill="#93FAE7"/>
<rect width="12" height="10" transform="translate(298 178)" fill="#FFBBBB"/>
<rect width="12" height="116" transform="translate(314 72)" fill="#93FAE7"/>
<rect width="12" height="18" transform="translate(361 170)" fill="#FFBBBB"/>
<rect width="12" height="101" transform="translate(377 87)" fill="#93FAE7"/>
<rect width="12" height="5" transform="translate(423 183)" fill="#FFBBBB"/>
<rect width="12" height="123" transform="translate(439 65)" fill="#93FAE7"/>
<rect width="444" height="4" transform="translate(32 188)" fill="#333333"/>
<rect x="56" y="188" width="8" height="8" rx="4" fill="#333333"/>
<rect x="119" y="188" width="8" height="8" rx="4" fill="#333333"/>
<rect x="182" y="188" width="8" height="8" rx="4" fill="#333333"/>
<rect x="245" y="188" width="8" height="8" rx="4" fill="#333333"/>
<rect x="308" y="188" width="8" height="8" rx="4" fill="#333333"/>
<rect x="371" y="188" width="8" height="8" rx="4" fill="#333333"/>
<rect x="434" y="188" width="8" height="8" rx="4" fill="#333333"/>
<path d="M50.2591 240.111L47.9284 242.442L40.7288 235.242L43.1333 232.838C43.8388 232.132 44.5887 231.671 45.3832 231.453C46.1754 231.233 46.9745 231.256 47.7807 231.523C48.587 231.786 49.3639 232.291 50.1115 233.038C50.8614 233.788 51.3688 234.57 51.6337 235.383C51.9008 236.194 51.9219 237.003 51.697 237.809C51.4696 238.613 50.9903 239.38 50.2591 240.111ZM48.0655 240.407L49.2502 239.222C49.7986 238.674 50.1513 238.115 50.3084 237.545C50.463 236.973 50.4337 236.4 50.2205 235.826C50.0049 235.25 49.6123 234.676 49.0428 234.107C48.478 233.542 47.9085 233.153 47.3343 232.94C46.7624 232.724 46.1976 232.691 45.6398 232.841C45.0821 232.991 44.5407 233.329 44.0157 233.854L42.7642 235.105L48.0655 240.407ZM56.6792 233.93C56.337 234.273 55.9644 234.519 55.5613 234.669C55.1559 234.816 54.7504 234.849 54.345 234.767C53.9419 234.683 53.5634 234.464 53.2095 234.11C52.9048 233.805 52.7126 233.496 52.6329 233.182C52.5533 232.867 52.5556 232.553 52.64 232.239C52.7243 231.925 52.8603 231.616 53.0478 231.311C53.2353 231.007 53.4415 230.711 53.6665 230.425C53.9524 230.065 54.1844 229.772 54.3625 229.547C54.5383 229.319 54.6438 229.132 54.6789 228.984C54.7141 228.836 54.6684 228.699 54.5418 228.573L54.5172 228.548C54.2102 228.241 53.8856 228.09 53.5434 228.095C53.2036 228.097 52.8638 228.268 52.524 228.608C52.1701 228.962 51.9697 229.319 51.9228 229.68C51.8759 230.036 51.9088 230.348 52.0213 230.615L50.8084 231.378C50.5975 230.933 50.5038 230.497 50.5272 230.07C50.5506 229.639 50.6643 229.23 50.8682 228.843C51.0697 228.454 51.3334 228.097 51.6592 227.771C51.8748 227.556 52.1291 227.353 52.422 227.163C52.715 226.969 53.0337 226.833 53.3782 226.755C53.7251 226.676 54.0907 226.692 54.475 226.805C54.857 226.915 55.2449 227.167 55.6386 227.56L59.2244 231.146L58.1979 232.173L57.4596 231.434L57.4175 231.477C57.4854 231.68 57.5171 231.916 57.5124 232.183C57.5077 232.45 57.4421 232.734 57.3155 233.034C57.189 233.334 56.9769 233.633 56.6792 233.93ZM56.064 232.858C56.3546 232.568 56.5456 232.262 56.637 231.941C56.7308 231.617 56.739 231.309 56.6616 231.016C56.5843 230.718 56.439 230.463 56.2257 230.25L55.5297 229.554C55.5297 229.629 55.4922 229.736 55.4172 229.877C55.3422 230.013 55.2484 230.161 55.1359 230.32C55.0211 230.477 54.9086 230.629 54.7985 230.777C54.686 230.922 54.5922 231.044 54.5172 231.143C54.3391 231.372 54.1961 231.602 54.0883 231.832C53.9829 232.059 53.9372 232.28 53.9512 232.496C53.9653 232.707 54.0661 232.906 54.2536 233.094C54.5137 233.354 54.8067 233.455 55.1324 233.396C55.4558 233.335 55.7664 233.156 56.064 232.858ZM63.1204 231.3C62.9634 231.457 62.8075 231.587 62.6528 231.69C62.5005 231.796 62.3786 231.866 62.2872 231.901L61.6791 230.787C61.9228 230.646 62.1161 230.497 62.2591 230.34C62.4021 230.183 62.4782 229.994 62.4876 229.774C62.4993 229.552 62.4302 229.276 62.2802 228.948L62.0517 228.459L54.606 224.965L55.7309 223.84L61.2888 226.663L61.3451 226.607L58.5222 221.049L59.6506 219.92L63.5458 228.266C63.7239 228.65 63.8305 229.02 63.8657 229.373C63.9032 229.73 63.861 230.067 63.7391 230.386C63.6172 230.705 63.411 231.009 63.1204 231.3ZM71.358 219.013L65.3395 210.632L66.1832 209.788L72.2017 218.169L71.358 219.013ZM66.1727 220.345L65.4661 219.364L70.922 213.908L71.6286 214.889L66.1727 220.345ZM68.8268 221.544L62.8084 213.163L63.6521 212.319L69.6705 220.7L68.8268 221.544ZM64.088 217.424L63.3814 216.443L68.8374 210.987L69.544 211.968L64.088 217.424ZM70.4791 205.492L77.6787 212.692L76.5889 213.782L70.4791 207.672L70.4369 207.714L69.8393 210.561L68.7987 209.521L69.4209 206.55L70.4791 205.492Z" fill="#333333"/>
<path d="M112.563 240.807L110.232 243.138L103.033 235.938L105.437 233.534C106.143 232.828 106.893 232.367 107.687 232.149C108.479 231.929 109.279 231.952 110.085 232.219C110.891 232.482 111.668 232.987 112.416 233.734C113.165 234.484 113.673 235.266 113.938 236.079C114.205 236.89 114.226 237.699 114.001 238.505C113.774 239.309 113.294 240.076 112.563 240.807ZM110.37 241.103L111.554 239.918C112.103 239.37 112.455 238.811 112.612 238.241C112.767 237.669 112.738 237.096 112.524 236.522C112.309 235.945 111.916 235.372 111.347 234.803C110.782 234.238 110.212 233.849 109.638 233.636C109.066 233.42 108.502 233.387 107.944 233.537C107.386 233.687 106.845 234.025 106.32 234.55L105.068 235.801L110.37 241.103ZM118.983 234.626C118.641 234.968 118.268 235.215 117.865 235.365C117.46 235.512 117.054 235.545 116.649 235.463C116.246 235.379 115.867 235.159 115.513 234.806C115.209 234.501 115.017 234.192 114.937 233.878C114.857 233.563 114.86 233.249 114.944 232.935C115.028 232.621 115.164 232.312 115.352 232.007C115.539 231.703 115.746 231.407 115.97 231.121C116.256 230.76 116.488 230.468 116.667 230.243C116.842 230.015 116.948 229.828 116.983 229.68C117.018 229.532 116.972 229.395 116.846 229.269L116.821 229.244C116.514 228.937 116.19 228.786 115.847 228.791C115.508 228.793 115.168 228.964 114.828 229.304C114.474 229.658 114.274 230.015 114.227 230.376C114.18 230.732 114.213 231.044 114.325 231.311L113.112 232.074C112.902 231.629 112.808 231.193 112.831 230.766C112.855 230.335 112.968 229.926 113.172 229.539C113.374 229.15 113.637 228.793 113.963 228.467C114.179 228.252 114.433 228.049 114.726 227.859C115.019 227.665 115.338 227.529 115.682 227.451C116.029 227.372 116.395 227.388 116.779 227.501C117.161 227.611 117.549 227.863 117.943 228.256L121.528 231.842L120.502 232.869L119.764 232.13L119.721 232.173C119.789 232.376 119.821 232.612 119.816 232.879C119.812 233.146 119.746 233.43 119.62 233.73C119.493 234.03 119.281 234.329 118.983 234.626ZM118.368 233.554C118.659 233.263 118.85 232.958 118.941 232.637C119.035 232.313 119.043 232.005 118.966 231.712C118.888 231.414 118.743 231.159 118.53 230.946L117.834 230.25C117.834 230.325 117.796 230.432 117.721 230.573C117.646 230.709 117.552 230.857 117.44 231.016C117.325 231.173 117.213 231.325 117.102 231.473C116.99 231.618 116.896 231.74 116.821 231.839C116.643 232.068 116.5 232.298 116.392 232.528C116.287 232.755 116.241 232.976 116.255 233.192C116.269 233.403 116.37 233.602 116.558 233.79C116.818 234.05 117.111 234.151 117.436 234.092C117.76 234.031 118.07 233.852 118.368 233.554ZM125.424 231.996C125.267 232.153 125.112 232.283 124.957 232.386C124.805 232.492 124.683 232.562 124.591 232.597L123.983 231.483C124.227 231.342 124.42 231.193 124.563 231.036C124.706 230.879 124.782 230.69 124.792 230.47C124.803 230.248 124.734 229.972 124.584 229.644L124.356 229.155L116.91 225.661L118.035 224.536L123.593 227.359L123.649 227.303L120.826 221.745L121.955 220.616L125.85 228.962C126.028 229.346 126.135 229.716 126.17 230.069C126.207 230.426 126.165 230.763 126.043 231.082C125.921 231.401 125.715 231.705 125.424 231.996ZM133.662 219.709L127.644 211.328L128.487 210.484L134.506 218.865L133.662 219.709ZM128.477 221.041L127.77 220.06L133.226 214.604L133.933 215.585L128.477 221.041ZM131.131 222.24L125.112 213.859L125.956 213.015L131.975 221.396L131.131 222.24ZM126.392 218.12L125.685 217.139L131.141 211.683L131.848 212.664L126.392 218.12ZM137.251 216.119L136.464 215.332L136.376 210.371C136.362 209.837 136.336 209.382 136.299 209.008C136.261 208.628 136.191 208.302 136.088 208.03C135.985 207.758 135.827 207.517 135.617 207.306C135.378 207.067 135.115 206.917 134.829 206.856C134.541 206.793 134.253 206.812 133.964 206.912C133.674 207.011 133.407 207.182 133.163 207.426C132.905 207.683 132.733 207.961 132.646 208.259C132.559 208.556 132.56 208.853 132.65 209.148C132.739 209.443 132.912 209.72 133.17 209.978L132.133 211.015C131.694 210.577 131.412 210.093 131.286 209.563C131.159 209.033 131.181 208.502 131.352 207.97C131.521 207.436 131.829 206.945 132.277 206.497C132.729 206.045 133.218 205.737 133.743 205.573C134.268 205.404 134.782 205.377 135.286 205.492C135.788 205.605 136.232 205.854 136.618 206.241C136.886 206.508 137.097 206.82 137.251 207.176C137.408 207.53 137.521 207.987 137.589 208.547C137.654 209.105 137.691 209.825 137.698 210.709L137.765 213.637L137.817 213.69L141.058 210.449L141.99 211.38L137.251 216.119Z" fill="#333333"/>
<path d="M175.909 240.962L173.578 243.293L166.378 236.093L168.783 233.689C169.488 232.983 170.238 232.521 171.033 232.303C171.825 232.083 172.624 232.107 173.43 232.374C174.236 232.636 175.013 233.141 175.761 233.889C176.511 234.639 177.018 235.42 177.283 236.234C177.55 237.045 177.571 237.853 177.346 238.659C177.119 239.463 176.64 240.231 175.909 240.962ZM173.715 241.257L174.9 240.073C175.448 239.524 175.801 238.965 175.958 238.396C176.112 237.824 176.083 237.251 175.87 236.677C175.654 236.1 175.262 235.527 174.692 234.958C174.127 234.393 173.558 234.004 172.984 233.79C172.412 233.575 171.847 233.542 171.289 233.692C170.731 233.842 170.19 234.18 169.665 234.704L168.414 235.956L173.715 241.257ZM182.329 234.781C181.986 235.123 181.614 235.369 181.211 235.519C180.805 235.667 180.4 235.7 179.994 235.618C179.591 235.533 179.213 235.314 178.859 234.96C178.554 234.656 178.362 234.346 178.282 234.032C178.203 233.718 178.205 233.404 178.289 233.09C178.374 232.776 178.51 232.467 178.697 232.162C178.885 231.857 179.091 231.562 179.316 231.276C179.602 230.915 179.834 230.622 180.012 230.397C180.188 230.17 180.293 229.982 180.328 229.835C180.363 229.687 180.318 229.55 180.191 229.423L180.167 229.399C179.86 229.092 179.535 228.941 179.193 228.945C178.853 228.948 178.513 229.119 178.173 229.459C177.819 229.812 177.619 230.17 177.572 230.531C177.525 230.887 177.558 231.199 177.671 231.466L176.458 232.229C176.247 231.783 176.153 231.348 176.177 230.921C176.2 230.49 176.314 230.081 176.518 229.694C176.719 229.305 176.983 228.948 177.309 228.622C177.524 228.406 177.778 228.204 178.071 228.014C178.364 227.819 178.683 227.683 179.028 227.606C179.374 227.526 179.74 227.543 180.124 227.655C180.506 227.765 180.894 228.017 181.288 228.411L184.874 231.997L183.847 233.023L183.109 232.285L183.067 232.327C183.135 232.531 183.166 232.767 183.162 233.034C183.157 233.301 183.091 233.585 182.965 233.885C182.838 234.185 182.626 234.483 182.329 234.781ZM181.713 233.709C182.004 233.418 182.195 233.112 182.286 232.791C182.38 232.468 182.388 232.16 182.311 231.867C182.234 231.569 182.088 231.314 181.875 231.1L181.179 230.404C181.179 230.479 181.142 230.587 181.067 230.728C180.992 230.864 180.898 231.011 180.785 231.171C180.67 231.328 180.558 231.48 180.448 231.628C180.335 231.773 180.242 231.895 180.167 231.993C179.988 232.223 179.846 232.453 179.738 232.682C179.632 232.91 179.587 233.131 179.601 233.347C179.615 233.558 179.715 233.757 179.903 233.944C180.163 234.204 180.456 234.305 180.782 234.247C181.105 234.186 181.416 234.006 181.713 233.709ZM188.77 232.151C188.613 232.308 188.457 232.438 188.302 232.541C188.15 232.646 188.028 232.717 187.937 232.752L187.328 231.637C187.572 231.497 187.766 231.348 187.908 231.191C188.051 231.034 188.128 230.845 188.137 230.625C188.149 230.402 188.08 230.127 187.93 229.799L187.701 229.31L180.255 225.816L181.38 224.691L186.938 227.514L186.994 227.457L184.172 221.899L185.3 220.771L189.195 229.117C189.373 229.501 189.48 229.87 189.515 230.224C189.553 230.58 189.51 230.918 189.388 231.237C189.267 231.555 189.06 231.86 188.77 232.151ZM197.007 219.863L190.989 211.482L191.833 210.639L197.851 219.019L197.007 219.863ZM191.822 221.196L191.115 220.215L196.571 214.759L197.278 215.74L191.822 221.196ZM194.476 222.394L188.458 214.013L189.301 213.17L195.32 221.551L194.476 222.394ZM189.737 218.274L189.031 217.293L194.487 211.837L195.193 212.818L189.737 218.274ZM203.202 213.866C202.719 214.349 202.204 214.697 201.658 214.91C201.115 215.121 200.585 215.189 200.069 215.114C199.554 215.034 199.092 214.807 198.684 214.432L199.788 213.328C200.015 213.527 200.272 213.641 200.558 213.669C200.844 213.692 201.134 213.641 201.43 213.514C201.725 213.388 202.002 213.196 202.259 212.938C202.543 212.654 202.745 212.354 202.864 212.038C202.986 211.719 203.021 211.41 202.97 211.11C202.916 210.807 202.773 210.54 202.541 210.308C202.299 210.067 202.025 209.917 201.718 209.858C201.411 209.795 201.086 209.829 200.744 209.96C200.404 210.089 200.068 210.32 199.735 210.653L199.127 211.261L198.241 210.375L198.849 209.767C199.117 209.5 199.303 209.217 199.408 208.92C199.516 208.62 199.542 208.327 199.486 208.041C199.427 207.752 199.282 207.492 199.05 207.26C198.827 207.038 198.583 206.895 198.319 206.831C198.054 206.763 197.783 206.774 197.507 206.863C197.232 206.95 196.972 207.116 196.726 207.362C196.492 207.597 196.316 207.859 196.199 208.15C196.082 208.436 196.039 208.722 196.072 209.007C196.103 209.291 196.223 209.548 196.434 209.777L195.383 210.828C195.006 210.428 194.779 209.971 194.701 209.457C194.626 208.942 194.686 208.42 194.88 207.893C195.075 207.366 195.393 206.882 195.833 206.441C196.295 205.979 196.784 205.671 197.299 205.517C197.815 205.357 198.313 205.335 198.793 205.45C199.276 205.562 199.693 205.797 200.045 206.153C200.45 206.554 200.68 207.008 200.734 207.517C200.79 208.023 200.679 208.512 200.4 208.983L200.456 209.039C201.007 208.634 201.567 208.453 202.136 208.498C202.708 208.54 203.22 208.79 203.673 209.247C204.071 209.64 204.316 210.105 204.407 210.642C204.501 211.176 204.447 211.725 204.246 212.287C204.042 212.848 203.694 213.374 203.202 213.866Z" fill="#333333"/>
<path d="M238.86 241.01L236.529 243.341L229.33 236.141L231.734 233.737C232.44 233.031 233.19 232.57 233.984 232.352C234.776 232.131 235.576 232.155 236.382 232.422C237.188 232.685 237.965 233.19 238.713 233.937C239.462 234.687 239.97 235.469 240.235 236.282C240.502 237.093 240.523 237.902 240.298 238.708C240.071 239.512 239.591 240.279 238.86 241.01ZM236.667 241.306L237.851 240.121C238.4 239.573 238.752 239.014 238.909 238.444C239.064 237.872 239.035 237.299 238.822 236.725C238.606 236.148 238.213 235.575 237.644 235.006C237.079 234.441 236.51 234.052 235.935 233.839C235.363 233.623 234.799 233.59 234.241 233.74C233.683 233.89 233.142 234.228 232.617 234.753L231.365 236.004L236.667 241.306ZM245.28 234.829C244.938 235.171 244.565 235.418 244.162 235.568C243.757 235.715 243.351 235.748 242.946 235.666C242.543 235.582 242.164 235.362 241.811 235.009C241.506 234.704 241.314 234.395 241.234 234.081C241.154 233.766 241.157 233.452 241.241 233.138C241.325 232.824 241.461 232.515 241.649 232.21C241.836 231.906 242.043 231.61 242.268 231.324C242.553 230.963 242.785 230.671 242.964 230.446C243.139 230.218 243.245 230.031 243.28 229.883C243.315 229.735 243.269 229.598 243.143 229.472L243.118 229.447C242.811 229.14 242.487 228.989 242.144 228.994C241.805 228.996 241.465 229.167 241.125 229.507C240.771 229.861 240.571 230.218 240.524 230.579C240.477 230.935 240.51 231.247 240.622 231.514L239.409 232.277C239.199 231.832 239.105 231.396 239.128 230.969C239.152 230.538 239.265 230.129 239.469 229.742C239.671 229.353 239.934 228.996 240.26 228.67C240.476 228.455 240.73 228.252 241.023 228.062C241.316 227.868 241.635 227.732 241.979 227.654C242.326 227.575 242.692 227.591 243.076 227.703C243.458 227.814 243.846 228.066 244.24 228.459L247.825 232.045L246.799 233.072L246.061 232.333L246.018 232.376C246.086 232.579 246.118 232.815 246.113 233.082C246.109 233.349 246.043 233.633 245.917 233.933C245.79 234.233 245.578 234.532 245.28 234.829ZM244.665 233.757C244.956 233.466 245.147 233.161 245.238 232.84C245.332 232.516 245.34 232.208 245.263 231.915C245.185 231.617 245.04 231.362 244.827 231.149L244.131 230.453C244.131 230.528 244.093 230.635 244.018 230.776C243.943 230.912 243.849 231.06 243.737 231.219C243.622 231.376 243.51 231.528 243.399 231.676C243.287 231.821 243.193 231.943 243.118 232.042C242.94 232.271 242.797 232.501 242.689 232.731C242.584 232.958 242.538 233.179 242.552 233.395C242.566 233.606 242.667 233.805 242.855 233.993C243.115 234.253 243.408 234.354 243.733 234.295C244.057 234.234 244.367 234.055 244.665 233.757ZM251.721 232.199C251.564 232.356 251.409 232.486 251.254 232.589C251.102 232.695 250.98 232.765 250.888 232.8L250.28 231.686C250.524 231.545 250.717 231.396 250.86 231.239C251.003 231.082 251.079 230.893 251.089 230.673C251.1 230.451 251.031 230.175 250.881 229.847L250.653 229.358L243.207 225.864L244.332 224.739L249.89 227.562L249.946 227.506L247.123 221.948L248.252 220.819L252.147 229.165C252.325 229.549 252.432 229.919 252.467 230.272C252.504 230.629 252.462 230.966 252.34 231.285C252.218 231.604 252.012 231.908 251.721 232.199ZM259.959 219.912L253.941 211.531L254.784 210.687L260.803 219.068L259.959 219.912ZM254.774 221.244L254.067 220.263L259.523 214.807L260.23 215.788L254.774 221.244ZM257.428 222.443L251.409 214.062L252.253 213.218L258.272 221.599L257.428 222.443ZM252.689 218.323L251.982 217.342L257.438 211.886L258.145 212.867L252.689 218.323ZM261.991 215.067L261.112 214.188L259.309 206.163L260.001 205.47L261.295 206.764L260.855 207.203L262.153 212.951L262.209 213.007L266.473 208.743L267.394 209.664L261.991 215.067ZM266.811 213.06L265.137 211.387L264.744 210.979L259.618 205.853L260.648 204.823L267.848 212.023L266.811 213.06Z" fill="#333333"/>
<path d="M302.029 240.841L299.699 243.172L292.499 235.972L294.904 233.568C295.609 232.862 296.359 232.401 297.153 232.183C297.946 231.962 298.745 231.986 299.551 232.253C300.357 232.515 301.134 233.02 301.882 233.768C302.632 234.518 303.139 235.3 303.404 236.113C303.671 236.924 303.692 237.732 303.467 238.539C303.24 239.342 302.761 240.11 302.029 240.841ZM299.836 241.136L301.02 239.952C301.569 239.403 301.922 238.844 302.079 238.275C302.233 237.703 302.204 237.13 301.991 236.556C301.775 235.979 301.383 235.406 300.813 234.837C300.248 234.272 299.679 233.883 299.105 233.67C298.533 233.454 297.968 233.421 297.41 233.571C296.852 233.721 296.311 234.059 295.786 234.584L294.534 235.835L299.836 241.136ZM308.449 234.66C308.107 235.002 307.735 235.248 307.332 235.398C306.926 235.546 306.521 235.579 306.115 235.497C305.712 235.412 305.334 235.193 304.98 234.839C304.675 234.535 304.483 234.225 304.403 233.911C304.323 233.597 304.326 233.283 304.41 232.969C304.495 232.655 304.63 232.346 304.818 232.041C305.005 231.736 305.212 231.441 305.437 231.155C305.723 230.794 305.955 230.501 306.133 230.276C306.309 230.049 306.414 229.862 306.449 229.714C306.484 229.566 306.439 229.429 306.312 229.303L306.287 229.278C305.98 228.971 305.656 228.82 305.314 228.824C304.974 228.827 304.634 228.998 304.294 229.338C303.94 229.692 303.74 230.049 303.693 230.41C303.646 230.766 303.679 231.078 303.791 231.345L302.579 232.108C302.368 231.663 302.274 231.227 302.297 230.8C302.321 230.369 302.435 229.96 302.638 229.573C302.84 229.184 303.104 228.827 303.429 228.501C303.645 228.285 303.899 228.083 304.192 227.893C304.485 227.698 304.804 227.562 305.148 227.485C305.495 227.405 305.861 227.422 306.245 227.534C306.627 227.644 307.015 227.896 307.409 228.29L310.995 231.876L309.968 232.902L309.23 232.164L309.188 232.206C309.256 232.41 309.287 232.646 309.283 232.913C309.278 233.18 309.212 233.464 309.086 233.764C308.959 234.064 308.747 234.362 308.449 234.66ZM307.834 233.588C308.125 233.297 308.316 232.991 308.407 232.67C308.501 232.347 308.509 232.039 308.432 231.746C308.355 231.448 308.209 231.193 307.996 230.979L307.3 230.283C307.3 230.358 307.262 230.466 307.187 230.607C307.112 230.743 307.019 230.89 306.906 231.05C306.791 231.207 306.679 231.359 306.569 231.507C306.456 231.652 306.362 231.774 306.287 231.872C306.109 232.102 305.966 232.332 305.859 232.561C305.753 232.789 305.707 233.01 305.721 233.226C305.736 233.437 305.836 233.636 306.024 233.823C306.284 234.084 306.577 234.184 306.903 234.126C307.226 234.065 307.537 233.886 307.834 233.588ZM314.891 232.03C314.734 232.187 314.578 232.317 314.423 232.42C314.271 232.525 314.149 232.596 314.057 232.631L313.449 231.516C313.693 231.376 313.886 231.227 314.029 231.07C314.172 230.913 314.248 230.724 314.258 230.504C314.27 230.281 314.2 230.006 314.05 229.678L313.822 229.189L306.376 225.695L307.501 224.57L313.059 227.393L313.115 227.337L310.292 221.779L311.421 220.65L315.316 228.996C315.494 229.38 315.601 229.749 315.636 230.103C315.673 230.459 315.631 230.797 315.509 231.116C315.387 231.434 315.181 231.739 314.891 232.03ZM323.128 219.742L317.11 211.361L317.953 210.518L323.972 218.899L323.128 219.742ZM317.943 221.075L317.236 220.094L322.692 214.638L323.399 215.619L317.943 221.075ZM320.597 222.273L314.579 213.893L315.422 213.049L321.441 221.43L320.597 222.273ZM315.858 218.153L315.152 217.173L320.608 211.717L321.314 212.697L315.858 218.153ZM329.192 213.875C328.752 214.316 328.271 214.627 327.751 214.81C327.231 214.988 326.717 215.033 326.211 214.944C325.705 214.855 325.254 214.626 324.858 214.258L325.912 213.204C326.248 213.487 326.639 213.604 327.087 213.555C327.534 213.506 327.931 213.308 328.278 212.961C328.555 212.684 328.736 212.376 328.823 212.036C328.91 211.692 328.902 211.346 328.799 210.999C328.698 210.65 328.503 210.331 328.215 210.043C327.922 209.75 327.597 209.552 327.241 209.449C326.885 209.346 326.53 209.34 326.176 209.432C325.825 209.521 325.505 209.707 325.216 209.99C324.998 210.208 324.817 210.465 324.671 210.76C324.526 211.056 324.446 211.332 324.432 211.59L323.29 212.437L320.066 208.405L324.025 204.447L324.956 205.378L321.901 208.433L323.687 210.676L323.729 210.634C323.734 210.357 323.807 210.057 323.947 209.734C324.09 209.408 324.295 209.112 324.562 208.844C325.001 208.406 325.495 208.12 326.046 207.987C326.599 207.851 327.155 207.865 327.712 208.029C328.27 208.188 328.781 208.502 329.245 208.971C329.714 209.435 330.024 209.956 330.177 210.535C330.331 211.112 330.327 211.693 330.163 212.279C329.999 212.86 329.675 213.392 329.192 213.875Z" fill="#333333"/>
<path d="M364.952 240.918L362.621 243.249L355.422 236.05L357.826 233.645C358.532 232.94 359.282 232.478 360.076 232.26C360.868 232.04 361.667 232.063 362.474 232.33C363.28 232.593 364.057 233.098 364.804 233.845C365.554 234.595 366.062 235.377 366.327 236.19C366.594 237.001 366.615 237.81 366.39 238.616C366.162 239.42 365.683 240.187 364.952 240.918ZM362.758 241.214L363.943 240.029C364.491 239.481 364.844 238.922 365.001 238.352C365.156 237.78 365.127 237.207 364.913 236.633C364.698 236.057 364.305 235.484 363.736 234.914C363.171 234.349 362.601 233.96 362.027 233.747C361.455 233.531 360.891 233.499 360.333 233.649C359.775 233.799 359.234 234.136 358.709 234.661L357.457 235.912L362.758 241.214ZM371.372 234.737C371.03 235.08 370.657 235.326 370.254 235.476C369.849 235.623 369.443 235.656 369.038 235.574C368.635 235.49 368.256 235.271 367.902 234.917C367.598 234.612 367.406 234.303 367.326 233.989C367.246 233.675 367.248 233.361 367.333 233.047C367.417 232.732 367.553 232.423 367.741 232.118C367.928 231.814 368.134 231.518 368.359 231.233C368.645 230.872 368.877 230.579 369.055 230.354C369.231 230.126 369.337 229.939 369.372 229.791C369.407 229.644 369.361 229.506 369.235 229.38L369.21 229.355C368.903 229.048 368.578 228.897 368.236 228.902C367.896 228.904 367.557 229.075 367.217 229.415C366.863 229.769 366.663 230.126 366.616 230.487C366.569 230.844 366.602 231.155 366.714 231.422L365.501 232.185C365.29 231.74 365.197 231.304 365.22 230.877C365.244 230.446 365.357 230.037 365.561 229.651C365.763 229.262 366.026 228.904 366.352 228.578C366.568 228.363 366.822 228.16 367.115 227.97C367.408 227.776 367.727 227.64 368.071 227.562C368.418 227.483 368.784 227.499 369.168 227.612C369.55 227.722 369.938 227.974 370.332 228.367L373.917 231.953L372.891 232.98L372.153 232.241L372.11 232.284C372.178 232.488 372.21 232.723 372.205 232.99C372.201 233.257 372.135 233.541 372.008 233.841C371.882 234.141 371.67 234.44 371.372 234.737ZM370.757 233.665C371.048 233.375 371.239 233.069 371.33 232.748C371.424 232.424 371.432 232.116 371.355 231.823C371.277 231.526 371.132 231.27 370.919 231.057L370.223 230.361C370.223 230.436 370.185 230.544 370.11 230.684C370.035 230.82 369.941 230.968 369.829 231.127C369.714 231.284 369.601 231.436 369.491 231.584C369.379 231.729 369.285 231.851 369.21 231.95C369.032 232.179 368.889 232.409 368.781 232.639C368.676 232.866 368.63 233.088 368.644 233.303C368.658 233.514 368.759 233.713 368.946 233.901C369.207 234.161 369.5 234.262 369.825 234.203C370.149 234.142 370.459 233.963 370.757 233.665ZM377.813 232.107C377.656 232.264 377.5 232.394 377.346 232.497C377.193 232.603 377.072 232.673 376.98 232.708L376.372 231.594C376.616 231.453 376.809 231.304 376.952 231.147C377.095 230.99 377.171 230.802 377.18 230.581C377.192 230.359 377.123 230.083 376.973 229.755L376.745 229.267L369.299 225.772L370.424 224.647L375.982 227.47L376.038 227.414L373.215 221.856L374.344 220.728L378.239 229.073C378.417 229.458 378.523 229.827 378.559 230.181C378.596 230.537 378.554 230.874 378.432 231.193C378.31 231.512 378.104 231.816 377.813 232.107ZM386.051 219.82L380.032 211.439L380.876 210.595L386.895 218.976L386.051 219.82ZM380.866 221.152L380.159 220.171L385.615 214.715L386.322 215.696L380.866 221.152ZM383.52 222.351L377.501 213.97L378.345 213.126L384.363 221.507L383.52 222.351ZM378.781 218.231L378.074 217.25L383.53 211.794L384.237 212.775L378.781 218.231ZM392.252 213.815C391.926 214.132 391.551 214.389 391.127 214.589C390.705 214.786 390.237 214.879 389.721 214.87C389.205 214.861 388.65 214.711 388.055 214.42C387.462 214.127 386.834 213.649 386.17 212.986C385.542 212.358 385.047 211.738 384.683 211.126C384.322 210.512 384.093 209.919 383.994 209.347C383.894 208.773 383.923 208.23 384.082 207.719C384.242 207.209 384.53 206.745 384.947 206.327C385.376 205.898 385.841 205.602 386.343 205.438C386.844 205.274 387.347 205.238 387.851 205.329C388.357 205.418 388.828 205.624 389.264 205.948L388.192 207.02C387.819 206.793 387.43 206.692 387.025 206.718C386.619 206.743 386.243 206.93 385.896 207.277C385.369 207.804 385.187 208.445 385.351 209.199C385.518 209.952 386.009 210.738 386.824 211.558L386.877 211.506C386.797 211.178 386.776 210.852 386.814 210.528C386.851 210.2 386.944 209.885 387.091 209.583C387.239 209.276 387.438 208.997 387.689 208.746C388.106 208.329 388.585 208.053 389.127 207.92C389.668 207.782 390.218 207.79 390.776 207.944C391.333 208.099 391.842 208.406 392.301 208.866C392.761 209.325 393.072 209.845 393.236 210.426C393.403 211.005 393.407 211.591 393.25 212.184C393.091 212.775 392.758 213.318 392.252 213.815ZM391.335 212.905C391.611 212.628 391.79 212.313 391.872 211.959C391.954 211.605 391.944 211.25 391.841 210.894C391.738 210.538 391.544 210.218 391.261 209.934C390.984 209.658 390.67 209.468 390.319 209.365C389.969 209.259 389.62 209.248 389.271 209.33C388.924 209.409 388.614 209.586 388.339 209.86C388.131 210.069 387.977 210.302 387.879 210.56C387.783 210.815 387.738 211.08 387.745 211.354C387.752 211.629 387.809 211.896 387.914 212.156C388.019 212.411 388.173 212.64 388.375 212.842C388.644 213.111 388.956 213.299 389.31 213.404C389.666 213.507 390.023 213.52 390.382 213.443C390.74 213.361 391.058 213.181 391.335 212.905Z" fill="#333333"/>
<path d="M427.732 240.638L425.402 242.969L418.202 235.769L420.607 233.365C421.312 232.659 422.062 232.198 422.856 231.98C423.649 231.759 424.448 231.783 425.254 232.05C426.06 232.312 426.837 232.817 427.585 233.565C428.335 234.315 428.842 235.097 429.107 235.91C429.374 236.721 429.395 237.529 429.17 238.336C428.943 239.139 428.464 239.907 427.732 240.638ZM425.539 240.933L426.723 239.749C427.272 239.2 427.625 238.641 427.782 238.072C427.936 237.5 427.907 236.927 427.694 236.353C427.478 235.776 427.085 235.203 426.516 234.634C425.951 234.069 425.382 233.68 424.807 233.467C424.236 233.251 423.671 233.218 423.113 233.368C422.555 233.518 422.014 233.856 421.489 234.381L420.237 235.632L425.539 240.933ZM434.152 234.457C433.81 234.799 433.438 235.045 433.035 235.195C432.629 235.343 432.224 235.376 431.818 235.294C431.415 235.209 431.037 234.99 430.683 234.636C430.378 234.332 430.186 234.022 430.106 233.708C430.026 233.394 430.029 233.08 430.113 232.766C430.198 232.452 430.333 232.143 430.521 231.838C430.708 231.533 430.915 231.238 431.14 230.952C431.426 230.591 431.658 230.298 431.836 230.073C432.012 229.846 432.117 229.659 432.152 229.511C432.187 229.363 432.142 229.226 432.015 229.1L431.99 229.075C431.683 228.768 431.359 228.617 431.017 228.621C430.677 228.624 430.337 228.795 429.997 229.135C429.643 229.489 429.443 229.846 429.396 230.207C429.349 230.563 429.382 230.875 429.494 231.142L428.282 231.905C428.071 231.46 427.977 231.024 428 230.597C428.024 230.166 428.137 229.757 428.341 229.37C428.543 228.981 428.807 228.624 429.132 228.298C429.348 228.082 429.602 227.88 429.895 227.69C430.188 227.495 430.507 227.359 430.851 227.282C431.198 227.202 431.564 227.219 431.948 227.331C432.33 227.441 432.718 227.693 433.112 228.087L436.698 231.673L435.671 232.699L434.933 231.961L434.891 232.003C434.959 232.207 434.99 232.443 434.986 232.71C434.981 232.977 434.915 233.261 434.789 233.561C434.662 233.861 434.45 234.159 434.152 234.457ZM433.537 233.385C433.828 233.094 434.019 232.788 434.11 232.467C434.204 232.144 434.212 231.836 434.135 231.543C434.057 231.245 433.912 230.99 433.699 230.776L433.003 230.08C433.003 230.155 432.965 230.263 432.89 230.404C432.815 230.54 432.722 230.687 432.609 230.847C432.494 231.004 432.382 231.156 432.272 231.304C432.159 231.449 432.065 231.571 431.99 231.669C431.812 231.899 431.669 232.129 431.562 232.358C431.456 232.586 431.41 232.807 431.424 233.023C431.438 233.234 431.539 233.433 431.727 233.62C431.987 233.881 432.28 233.981 432.606 233.923C432.929 233.862 433.24 233.683 433.537 233.385ZM440.594 231.827C440.437 231.984 440.281 232.114 440.126 232.217C439.974 232.322 439.852 232.393 439.76 232.428L439.152 231.313C439.396 231.173 439.589 231.024 439.732 230.867C439.875 230.71 439.951 230.521 439.961 230.301C439.973 230.078 439.903 229.803 439.753 229.475L439.525 228.986L432.079 225.492L433.204 224.367L438.762 227.19L438.818 227.134L435.995 221.576L437.124 220.447L441.019 228.793C441.197 229.177 441.304 229.546 441.339 229.9C441.376 230.256 441.334 230.594 441.212 230.913C441.09 231.231 440.884 231.536 440.594 231.827ZM448.831 219.539L442.813 211.159L443.656 210.315L449.675 218.696L448.831 219.539ZM443.646 220.872L442.939 219.891L448.395 214.435L449.102 215.416L443.646 220.872ZM446.3 222.07L440.282 213.69L441.125 212.846L447.144 221.227L446.3 222.07ZM441.561 217.95L440.855 216.97L446.311 211.514L447.017 212.494L441.561 217.95ZM452.663 215.708L449.59 206.349L449.538 206.297L445.903 209.932L444.971 209L449.731 204.24L450.694 205.203L453.798 214.572L452.663 215.708Z" fill="#333333"/>
<rect x="9" y="1" width="490" height="278" rx="7" stroke="black" stroke-width="2"/>
<defs>
<linearGradient id="paint0_linear_1274_4349" x1="6" y1="35" x2="6" y2="121" gradientUnits="userSpaceOnUse">
<stop stop-color="#FA8080"/>
<stop offset="1" stop-color="#FA8080" stop-opacity="0"/>
</linearGradient>
</defs>
</svg>
