<svg width="1920" height="275" viewBox="0 0 1920 275" fill="none" xmlns="http://www.w3.org/2000/svg">
<g clip-path="url(#clip0_1136_4124)">
<path fill-rule="evenodd" clip-rule="evenodd" d="M0 0L80 42C160 84 320 168 480 168C640 168 800 84 960 78C1120 72 1280 144 1440 162C1600 180 1760 144 1840 126L1920 108V252H1840C1760 252 1600 252 1440 252C1280 252 1120 252 960 252C800 252 640 252 480 252C320 252 160 252 80 252H0V0Z" fill="url(#paint0_linear_1136_4124)"/>
<path fill-rule="evenodd" clip-rule="evenodd" d="M1920 156.217L1812.8 144.235C1707.2 132.254 1492.8 108.29 1280 132.254C1067.2 156.217 852.8 228.109 640 240.091C427.2 252.072 212.8 204.145 107.2 180.181L0 156.217V300H107.2C212.8 300 427.2 300 640 300C852.8 300 1067.2 300 1280 300C1492.8 300 1707.2 300 1812.8 300H1920V156.217Z" fill="url(#paint1_linear_1136_4124)"/>
<path fill-rule="evenodd" clip-rule="evenodd" d="M1920 250.387L1812.8 255.121C1707.2 259.855 1492.8 269.322 1280 255.121C1067.2 240.919 852.8 203.048 640 193.58C427.2 184.113 212.8 203.048 107.2 212.516L0 221.984V364H107.2C212.8 364 427.2 364 640 364C852.8 364 1067.2 364 1280 364C1492.8 364 1707.2 364 1812.8 364H1920V250.387Z" fill="#FFFEF2"/>
</g>
<defs>
<linearGradient id="paint0_linear_1136_4124" x1="799.5" y1="533" x2="799.5" y2="-78.5" gradientUnits="userSpaceOnUse">
<stop stop-color="#FFFDF8"/>
<stop offset="1" stop-color="#FFDF83"/>
</linearGradient>
<linearGradient id="paint1_linear_1136_4124" x1="960" y1="364" x2="960" y2="-89" gradientUnits="userSpaceOnUse">
<stop stop-color="#FFFDF8"/>
<stop offset="1" stop-color="#FFDF83"/>
</linearGradient>
<clipPath id="clip0_1136_4124">
<rect width="1920" height="364" fill="white" transform="matrix(-1 0 0 1 1920 0)"/>
</clipPath>
</defs>
</svg>
