<svg fill="none" height="182" viewBox="0 0 1920 182" width="1920" xmlns="http://www.w3.org/2000/svg" xmlns:xlink="http://www.w3.org/1999/xlink"><linearGradient id="a" gradientUnits="userSpaceOnUse" x1="781.938" x2="796.531" y1="192.1" y2="4.90994"><stop offset="0" stop-color="#0500ff"/><stop offset="1" stop-color="#400000"/></linearGradient><g clip-rule="evenodd" fill-rule="evenodd"><path d="m0 34.2173 107.2-11.9819c105.6-11.9818 320-35.9456 532.8-11.9818 212.8 23.9637 427.2 95.8554 640 107.8374 212.8 11.981 427.2-35.9461 532.8-59.9099l107.2-23.9638v143.7827h-107.2c-105.6 0-320 0-532.8 0s-427.2 0-640 0-427.2 0-532.8 0h-107.2z" fill="#fffdf8" fill-opacity=".5"/><path d="m0 165.387 107.2 4.734c105.6 4.734 320 14.201 532.8 0 212.8-14.202 427.2-52.073 640-61.541 212.8-9.4674 427.2 9.468 532.8 18.936l107.2 9.468v142.016h-107.2c-105.6 0-320 0-532.8 0s-427.2 0-640 0-427.2 0-532.8 0h-107.2z" fill="url(#a)"/><path d="m0 165.387 107.2 4.734c105.6 4.734 320 14.201 532.8 0 212.8-14.202 427.2-52.073 640-61.541 212.8-9.4674 427.2 9.468 532.8 18.936l107.2 9.468v142.016h-107.2c-105.6 0-320 0-532.8 0s-427.2 0-640 0-427.2 0-532.8 0h-107.2z" fill="#fffdf8"/></g></svg>