<svg width="980" height="515" viewBox="0 0 980 515" fill="none" xmlns="http://www.w3.org/2000/svg">
<path d="M668.793 160.293C669.183 159.902 669.817 159.902 670.207 160.293L676.571 166.657C676.962 167.047 676.962 167.681 676.571 168.071C676.181 168.462 675.547 168.462 675.157 168.071L669.5 162.414L663.843 168.071C663.453 168.462 662.819 168.462 662.429 168.071C662.038 167.681 662.038 167.047 662.429 166.657L668.793 160.293ZM670.5 161C670.5 175.132 667.637 185.832 662.547 193.908C657.452 201.993 650.18 207.363 641.521 210.925C624.284 218.016 601.371 218 578.75 218C555.996 218 533.534 218.016 516.74 224.925C508.383 228.363 501.476 233.493 496.645 241.158C491.809 248.832 489 259.132 489 273H487C487 258.868 489.863 248.168 494.953 240.092C500.048 232.007 507.32 226.637 515.979 223.075C533.216 215.984 556.129 216 578.75 216C601.504 216 623.966 215.984 640.76 209.075C649.117 205.637 656.024 200.507 660.855 192.842C665.691 185.168 668.5 174.868 668.5 161L670.5 161Z" fill="#333333"/>
<path d="M695.793 354.707C696.183 355.098 696.817 355.098 697.207 354.707L703.571 348.343C703.962 347.953 703.962 347.319 703.571 346.929C703.181 346.538 702.547 346.538 702.157 346.929L696.5 352.586L690.843 346.929C690.453 346.538 689.819 346.538 689.429 346.929C689.038 347.319 689.038 347.953 689.429 348.343L695.793 354.707ZM697.5 354C697.5 343.713 695.053 335.896 690.687 329.991C686.324 324.091 680.117 320.195 672.768 317.619C658.135 312.488 638.691 312.5 619.5 312.5C600.191 312.5 581.135 312.488 566.893 307.494C559.804 305.008 553.98 301.309 549.921 295.82C545.865 290.334 543.5 282.963 543.5 273H541.5C541.5 283.287 543.947 291.104 548.313 297.009C552.676 302.909 558.883 306.805 566.232 309.381C580.865 314.512 600.309 314.5 619.5 314.5C638.809 314.5 657.865 314.512 672.107 319.506C679.196 321.992 685.02 325.691 689.079 331.18C693.135 336.666 695.5 344.037 695.5 354L697.5 354Z" fill="#333333"/>
<path d="M820.207 273.707C820.598 273.317 820.598 272.683 820.207 272.293L813.843 265.929C813.453 265.538 812.819 265.538 812.429 265.929C812.038 266.32 812.038 266.953 812.429 267.343L818.086 273L812.429 278.657C812.038 279.047 812.038 279.681 812.429 280.071C812.819 280.462 813.453 280.462 813.843 280.071L820.207 273.707ZM435 274.001L819.5 274L819.5 272L435 272.001L435 274.001Z" fill="#333333"/>
<rect x="617.5" y="356" width="158" height="158" rx="23" fill="#0081FB" fill-opacity="0.2"/>
<g clip-path="url(#clip0_1238_4738)">
<path d="M682.232 429.064C682.232 430.444 682.537 431.503 682.936 432.144C683.459 432.983 684.239 433.339 685.034 433.339C686.059 433.339 686.997 433.086 688.805 430.604C690.253 428.615 691.959 425.823 693.107 424.073L695.051 421.107C696.402 419.048 697.965 416.759 699.758 415.207C701.221 413.94 702.799 413.236 704.388 413.236C707.055 413.236 709.596 414.771 711.54 417.648C713.668 420.8 714.701 424.769 714.701 428.865C714.701 431.301 714.217 433.09 713.394 434.503C712.599 435.871 711.05 437.236 708.444 437.236V433.339C710.675 433.339 711.232 431.303 711.232 428.973C711.232 425.654 710.453 421.969 708.735 419.337C707.516 417.47 705.936 416.329 704.198 416.329C702.318 416.329 700.806 417.736 699.106 420.245C698.202 421.579 697.274 423.203 696.232 425.037L695.086 427.053C692.782 431.108 692.198 432.032 691.046 433.556C689.027 436.225 687.303 437.236 685.034 437.236C682.341 437.236 680.639 436.079 679.584 434.335C678.724 432.914 678.301 431.049 678.301 428.924L682.232 429.064Z" fill="url(#paint0_linear_1238_4738)"/>
<path d="M681.387 417.923C683.189 415.165 685.791 413.236 688.774 413.236C690.502 413.236 692.22 413.744 694.013 415.198C695.975 416.787 698.066 419.405 700.675 423.719L701.611 425.267C703.869 429.001 705.154 430.922 705.906 431.828C706.873 432.992 707.55 433.339 708.43 433.339C710.661 433.339 711.218 431.303 711.218 428.973L714.687 428.865C714.687 431.301 714.203 433.09 713.38 434.503C712.585 435.871 711.036 437.236 708.43 437.236C706.809 437.236 705.374 436.887 703.787 435.401C702.566 434.26 701.14 432.233 700.042 430.411L696.778 424.998C695.14 422.281 693.637 420.255 692.768 419.338C691.832 418.352 690.63 417.161 688.711 417.161C687.158 417.161 685.839 418.243 684.735 419.897L681.387 417.923Z" fill="url(#paint1_linear_1238_4738)"/>
<path d="M688.725 417.161C687.172 417.161 685.853 418.243 684.749 419.897C683.188 422.236 682.232 425.719 682.232 429.064C682.232 430.444 682.537 431.503 682.936 432.144L679.584 434.335C678.724 432.914 678.301 431.049 678.301 428.924C678.301 425.061 679.369 421.033 681.401 417.923C683.203 415.165 685.805 413.236 688.788 413.236L688.725 417.161Z" fill="url(#paint2_linear_1238_4738)"/>
<path d="M676.881 445.236H679.231L683.226 452.411L687.222 445.236H689.521V457.026H687.604V447.99L684.1 454.247H682.302L678.798 447.99V457.026H676.881V445.236Z" fill="#333333"/>
<path d="M695.7 457.236C694.812 457.236 694.031 457.041 693.359 456.651C692.685 456.261 692.161 455.721 691.785 455.03C691.409 454.34 691.221 453.548 691.221 452.655C691.221 451.751 691.405 450.951 691.772 450.255C692.14 449.559 692.65 449.015 693.303 448.621C693.957 448.229 694.707 448.032 695.556 448.032C696.398 448.032 697.124 448.23 697.732 448.626C698.34 449.022 698.808 449.576 699.136 450.289C699.464 451.002 699.628 451.838 699.628 452.798V453.32H693.121C693.24 454.039 693.532 454.605 693.999 455.017C694.466 455.43 695.055 455.636 695.768 455.636C696.339 455.636 696.831 455.552 697.244 455.384C697.657 455.215 698.044 454.96 698.406 454.617L699.424 455.855C698.412 456.776 697.17 457.237 695.7 457.236ZM697.1 450.243C696.698 449.836 696.172 449.632 695.522 449.632C694.888 449.632 694.358 449.84 693.931 450.255C693.504 450.671 693.234 451.229 693.121 451.931H697.787C697.73 451.212 697.501 450.65 697.1 450.243Z" fill="#333333"/>
<path d="M701.954 449.801H700.189V448.243H701.954V445.666H703.803V448.243H706.484V449.801H703.803V453.751C703.803 454.408 703.917 454.876 704.143 455.157C704.369 455.438 704.756 455.578 705.305 455.578C705.548 455.578 705.754 455.568 705.924 455.549C706.094 455.529 706.281 455.502 706.484 455.469V457.01C706.252 457.076 706.015 457.127 705.776 457.161C705.502 457.201 705.225 457.221 704.949 457.22C702.952 457.22 701.954 456.137 701.954 453.97V449.801Z" fill="#333333"/>
<path d="M716.12 457.026H714.305V455.796C713.982 456.257 713.572 456.612 713.075 456.862C712.577 457.111 712.011 457.236 711.378 457.236C710.597 457.236 709.906 457.039 709.304 456.643C708.701 456.247 708.228 455.702 707.883 455.009C707.538 454.316 707.365 453.523 707.365 452.63C707.365 451.732 707.541 450.937 707.891 450.247C708.242 449.556 708.727 449.015 709.346 448.621C709.965 448.229 710.677 448.032 711.48 448.032C712.085 448.032 712.628 448.148 713.108 448.382C713.583 448.609 713.993 448.949 714.305 449.371V448.243H716.12V457.026ZM714.271 451.316C714.073 450.817 713.76 450.422 713.333 450.133C712.906 449.844 712.413 449.699 711.853 449.699C711.061 449.699 710.43 449.963 709.961 450.491C709.492 451.019 709.257 451.732 709.257 452.63C709.257 453.534 709.483 454.25 709.936 454.777C710.388 455.305 711.002 455.569 711.777 455.569C712.348 455.569 712.857 455.423 713.304 455.131C713.75 454.839 714.073 454.446 714.271 453.952L714.271 451.316Z" fill="#333333"/>
</g>
<rect x="617.5" y="356" width="158" height="158" rx="23" stroke="#333333" stroke-width="2"/>
<rect x="590.5" y="1" width="158" height="158" rx="23" fill="#FEC850" fill-opacity="0.2"/>
<g clip-path="url(#clip1_1238_4738)">
<path d="M675.863 56.0506V79.5927C675.863 82.2289 677.673 83.6947 679.595 83.6947C681.371 83.6947 683.326 82.4463 683.326 79.5927V56.229C683.326 53.8157 681.549 52.3053 679.595 52.3053C677.64 52.3053 675.863 53.9717 675.863 56.0506Z" fill="#F8AB00"/>
<path d="M666.09 68V79.5926C666.09 82.2289 667.9 83.6947 669.821 83.6947C671.598 83.6947 673.552 82.4462 673.552 79.5926V68.1783C673.552 65.765 671.776 64.2546 669.821 64.2546C667.867 64.2546 666.09 65.9211 666.09 68Z" fill="#E37300"/>
<path d="M663.781 79.9494C663.781 82.0172 662.11 83.6948 660.05 83.6948C657.99 83.6948 656.318 82.0172 656.318 79.9494C656.318 77.8817 657.99 76.2041 660.05 76.2041C662.11 76.2041 663.781 77.8817 663.781 79.9494Z" fill="#E37300"/>
<path d="M635.411 100.364C635.411 102.734 633.564 104.48 631.297 104.48C629.031 104.48 627.184 102.734 627.184 100.364C627.184 97.9769 629.031 96.2472 631.297 96.2472C633.564 96.2472 635.411 97.9769 635.411 100.364ZM633.61 100.364C633.61 98.8826 632.54 97.8692 631.297 97.8692C630.055 97.8692 628.984 98.8826 628.984 100.364C628.984 101.83 630.055 102.858 631.297 102.858C632.54 102.858 633.61 101.828 633.61 100.364Z" fill="#333333"/>
<path d="M644.286 100.364C644.286 102.734 642.439 104.48 640.172 104.48C637.906 104.48 636.059 102.734 636.059 100.364C636.059 97.9787 637.906 96.2472 640.172 96.2472C642.439 96.2472 644.286 97.9769 644.286 100.364ZM642.485 100.364C642.485 98.8826 641.415 97.8692 640.172 97.8692C638.93 97.8692 637.859 98.8826 637.859 100.364C637.859 101.83 638.93 102.858 640.172 102.858C641.415 102.858 642.485 101.828 642.485 100.364Z" fill="#333333"/>
<path d="M652.791 96.4959V103.886C652.791 106.926 651.005 108.168 648.894 108.168C646.906 108.168 645.71 106.833 645.259 105.742L646.827 105.087C647.106 105.757 647.79 106.547 648.892 106.547C650.243 106.547 651.081 105.71 651.081 104.135V103.543H651.018C650.615 104.042 649.839 104.478 648.859 104.478C646.808 104.478 644.93 102.685 644.93 100.378C644.93 98.0548 646.808 96.2472 648.859 96.2472C649.837 96.2472 650.613 96.6833 651.018 97.1677H651.081V96.4977H652.791V96.4959ZM651.209 100.378C651.209 98.929 650.245 97.8692 649.019 97.8692C647.777 97.8692 646.736 98.929 646.736 100.378C646.736 101.813 647.777 102.858 649.019 102.858C650.245 102.858 651.209 101.813 651.209 100.378Z" fill="#333333"/>
<path d="M655.61 92.1642V104.227H653.854V92.1642H655.61Z" fill="#333333"/>
<path d="M662.456 101.718L663.853 102.654C663.402 103.324 662.315 104.478 660.437 104.478C658.107 104.478 656.367 102.67 656.367 100.362C656.367 97.9138 658.122 96.2454 660.235 96.2454C662.363 96.2454 663.404 97.9454 663.744 98.864L663.931 99.3317L658.449 101.611C658.869 102.437 659.521 102.858 660.437 102.858C661.354 102.858 661.99 102.405 662.456 101.718ZM658.153 100.237L661.818 98.71C661.616 98.1959 661.01 97.8377 660.296 97.8377C659.381 97.8377 658.107 98.6487 658.153 100.237Z" fill="#333333"/>
<path d="M620.534 99.2927V97.5463H626.397C626.455 97.8507 626.484 98.2107 626.484 98.6005C626.484 99.9107 626.127 101.531 624.977 102.685C623.859 103.855 622.43 104.478 620.536 104.478C617.027 104.478 614.076 101.609 614.076 98.0864C614.076 94.5639 617.027 91.6947 620.536 91.6947C622.478 91.6947 623.861 92.4593 624.9 93.4559L623.672 94.6883C622.927 93.9867 621.917 93.4411 620.534 93.4411C617.972 93.4411 615.968 95.5141 615.968 98.0864C615.968 100.659 617.972 102.732 620.534 102.732C622.197 102.732 623.143 102.062 623.75 101.453C624.241 100.959 624.565 100.254 624.693 99.2909L620.534 99.2927Z" fill="#333333"/>
<path d="M670.866 93.5655L669.06 98.5786H672.744L670.924 93.5655H670.866ZM667.502 102.919H665.93L670.094 91.8116H671.71L675.874 102.919H674.302L673.239 99.9086H668.58L667.502 102.919Z" fill="#333333"/>
<path d="M676.592 95.3194H677.96V96.3717H678.019C678.23 96.0027 678.561 95.6957 679.009 95.4509C679.464 95.1988 679.93 95.0709 680.407 95.0709C681.339 95.0709 682.052 95.3413 682.547 95.8748C683.049 96.4009 683.304 97.1573 683.304 98.1402V102.919H681.877V98.2425C681.848 96.9965 681.226 96.3717 680.014 96.3717C679.449 96.3717 678.972 96.6055 678.587 97.0732C678.208 97.5336 678.019 98.078 678.019 98.7102V102.919H676.592V95.3194Z" fill="#333333"/>
<path d="M685.937 100.596C685.937 100.968 686.09 101.279 686.403 101.531C686.713 101.776 687.08 101.896 687.51 101.896C688.1 101.896 688.631 101.677 689.097 101.239C689.57 100.793 689.81 100.267 689.81 99.6602C689.363 99.3094 688.74 99.134 687.947 99.134C687.372 99.134 686.891 99.2765 686.505 99.5579C686.127 99.8319 685.937 100.179 685.937 100.596ZM687.772 95.0709C688.82 95.0709 689.643 95.3559 690.247 95.9186C690.859 96.485 691.165 97.2596 691.165 98.2425V102.919H689.81V101.867H689.752C689.159 102.737 688.373 103.168 687.393 103.168C686.556 103.168 685.857 102.919 685.297 102.422C684.743 101.926 684.467 101.308 684.467 100.566C684.467 99.7771 684.762 99.1559 685.355 98.6955C685.945 98.2279 686.738 97.994 687.728 97.994C688.573 97.994 689.264 98.1475 689.81 98.4471V98.1255C689.81 97.6286 689.61 97.2121 689.214 96.8686C688.824 96.5178 688.369 96.3425 687.845 96.3425C687.048 96.3425 686.422 96.6786 685.967 97.3509L684.714 96.5617C685.402 95.5678 686.422 95.0709 687.772 95.0709Z" fill="#333333"/>
<path d="M694.142 91.8116V102.919H692.715V91.8116H694.142Z" fill="#333333"/>
<path d="M702.53 95.3193L697.784 106.266H696.328L698.089 102.437L694.959 95.3193H696.502L698.759 100.786H698.788L700.987 95.3193H702.53Z" fill="#333333"/>
<path d="M706.438 103.036C705.826 103.036 705.317 102.846 704.909 102.466C704.501 102.086 704.29 101.556 704.283 100.873V96.6201H702.943V95.3193H704.283V92.9955H705.695V95.3193H707.559V96.6201H705.695V100.406C705.695 100.913 705.79 101.261 705.986 101.443C706.19 101.619 706.412 101.706 706.656 101.706C706.773 101.706 706.882 101.699 706.991 101.677C707.097 101.648 707.199 101.615 707.297 101.575L707.734 102.846C707.362 102.971 706.933 103.036 706.438 103.036Z" fill="#333333"/>
<path d="M710.671 92.7032C710.671 92.9772 710.57 93.2147 710.366 93.4193C710.169 93.6166 709.936 93.7116 709.667 93.7116C709.383 93.7116 709.146 93.6166 708.953 93.4193C708.757 93.2147 708.662 92.9772 708.662 92.7032C708.662 92.4218 708.757 92.1843 708.953 91.987C709.146 91.7934 709.383 91.6947 709.667 91.6947C709.936 91.6947 710.169 91.7934 710.366 91.987C710.57 92.1843 710.671 92.4218 710.671 92.7032ZM710.38 95.3193V102.919H708.953V95.3193H710.38Z" fill="#333333"/>
<path d="M715.173 103.168C714.044 103.168 713.112 102.784 712.377 102.013C711.649 101.235 711.285 100.27 711.285 99.1194C711.285 97.9502 711.649 96.9855 712.377 96.2255C713.112 95.4582 714.044 95.0709 715.173 95.0709C715.948 95.0709 716.622 95.2682 717.197 95.6555C717.768 96.0465 718.201 96.5836 718.493 97.2632L717.197 97.804C716.796 96.8504 716.094 96.3717 715.085 96.3717C714.434 96.3717 713.87 96.6348 713.396 97.1609C712.93 97.6871 712.698 98.3411 712.698 99.1194C712.698 99.9013 712.93 100.552 713.396 101.078C713.87 101.604 714.434 101.867 715.085 101.867C716.123 101.867 716.851 101.392 717.27 100.435L718.536 100.976C718.263 101.659 717.83 102.196 717.24 102.583C716.647 102.971 715.959 103.168 715.173 103.168Z" fill="#333333"/>
<path d="M725.569 100.815C725.569 101.48 725.278 102.039 724.696 102.496C724.121 102.941 723.4 103.168 722.526 103.168C721.769 103.168 721.099 102.967 720.517 102.569C719.942 102.17 719.53 101.644 719.279 100.99L720.546 100.449C720.739 100.91 721.012 101.264 721.361 101.516C721.718 101.772 722.108 101.896 722.526 101.896C722.981 101.896 723.36 101.801 723.662 101.604C723.971 101.41 724.128 101.177 724.128 100.902C724.128 100.417 723.753 100.062 723.007 99.8355L721.711 99.514C720.233 99.134 719.498 98.4179 719.498 97.3655C719.498 96.675 719.778 96.1196 720.342 95.6994C720.903 95.2828 721.624 95.0709 722.497 95.0709C723.167 95.0709 723.771 95.2317 724.317 95.5532C724.86 95.8748 725.238 96.3059 725.453 96.8394L724.186 97.3655C724.041 97.044 723.8 96.7955 723.473 96.6202C723.152 96.4375 722.792 96.3425 722.395 96.3425C722.024 96.3425 721.689 96.4375 721.391 96.6202C721.099 96.8065 720.954 97.0367 720.954 97.3071C720.954 97.7382 721.361 98.0488 722.177 98.2425L723.313 98.5348C724.816 98.9075 725.569 99.6675 725.569 100.815Z" fill="#333333"/>
</g>
<rect x="590.5" y="1" width="158" height="158" rx="23" stroke="#333333" stroke-width="2"/>
<rect x="820.5" y="194" width="158" height="158" rx="23" fill="#4BD870" fill-opacity="0.2"/>
<g clip-path="url(#clip2_1238_4738)">
<path d="M893.674 249.976C894.02 249.087 894.497 248.269 895.204 247.607C898.032 244.913 902.706 245.59 904.625 248.974C906.068 251.541 907.598 254.052 909.084 256.59C911.565 260.807 914.076 265.024 916.529 269.254C918.592 272.794 916.356 277.265 912.258 277.871C909.747 278.238 907.396 277.11 906.097 274.91C903.918 271.201 901.725 267.492 899.547 263.797C899.503 263.712 899.446 263.641 899.388 263.571C899.157 263.388 899.056 263.12 898.912 262.88C897.945 261.216 896.949 259.566 895.983 257.916C895.362 256.844 894.713 255.786 894.093 254.714C893.53 253.755 893.27 252.712 893.299 251.612C893.342 251.048 893.414 250.483 893.674 249.976Z" fill="#3C8BD9"/>
<path d="M893.675 249.976C893.545 250.484 893.43 250.991 893.401 251.527C893.358 252.712 893.661 253.812 894.267 254.841C895.854 257.507 897.441 260.186 899.014 262.866C899.158 263.106 899.273 263.345 899.418 263.571C898.552 265.038 897.686 266.49 896.806 267.957C895.594 270.002 894.382 272.061 893.156 274.106C893.098 274.106 893.083 274.078 893.069 274.035C893.055 273.922 893.098 273.824 893.127 273.711C893.718 271.596 893.228 269.72 891.742 268.112C890.833 267.139 889.678 266.589 888.351 266.406C886.619 266.166 885.09 266.603 883.719 267.661C883.474 267.844 883.315 268.112 883.027 268.253C882.969 268.253 882.94 268.225 882.926 268.183C883.618 267.012 884.296 265.842 884.989 264.671C887.846 259.82 890.703 254.968 893.574 250.131C893.603 250.075 893.646 250.032 893.675 249.976Z" fill="#FABC04"/>
<path d="M882.983 268.225C883.257 267.985 883.517 267.731 883.805 267.506C887.311 264.798 892.578 266.758 893.342 271.045C893.53 272.075 893.429 273.062 893.111 274.049C893.097 274.134 893.083 274.204 893.054 274.289C892.924 274.515 892.808 274.754 892.664 274.98C891.38 277.053 889.49 278.083 887.008 277.928C884.166 277.73 881.929 275.643 881.54 272.879C881.352 271.539 881.626 270.284 882.333 269.127C882.478 268.874 882.651 268.648 882.81 268.394C882.882 268.338 882.853 268.225 882.983 268.225Z" fill="#34A852"/>
<path d="M882.983 268.225C882.926 268.281 882.926 268.38 882.825 268.394C882.81 268.295 882.868 268.239 882.926 268.168L882.983 268.225Z" fill="#FABC04"/>
<path d="M893.053 274.289C892.995 274.19 893.053 274.12 893.111 274.049C893.125 274.063 893.154 274.092 893.169 274.106L893.053 274.289Z" fill="#E1C025"/>
<path d="M881.804 292.722C881.804 295.092 879.957 296.838 877.69 296.838C875.423 296.838 873.576 295.092 873.576 292.722C873.576 290.335 875.423 288.605 877.69 288.605C879.957 288.605 881.804 290.335 881.804 292.722ZM880.003 292.722C880.003 291.241 878.932 290.228 877.69 290.228C876.448 290.228 875.377 291.241 875.377 292.722C875.377 294.188 876.448 295.216 877.69 295.216C878.932 295.216 880.003 294.186 880.003 292.722Z" fill="#333333"/>
<path d="M890.679 292.722C890.679 295.092 888.832 296.838 886.565 296.838C884.298 296.838 882.451 295.092 882.451 292.722C882.451 290.337 884.298 288.605 886.565 288.605C888.832 288.605 890.679 290.335 890.679 292.722ZM888.878 292.722C888.878 291.241 887.807 290.228 886.565 290.228C885.323 290.228 884.252 291.241 884.252 292.722C884.252 294.188 885.323 295.216 886.565 295.216C887.807 295.216 888.878 294.186 888.878 292.722Z" fill="#333333"/>
<path d="M899.184 288.854V296.244C899.184 299.284 897.398 300.526 895.286 300.526C893.299 300.526 892.103 299.191 891.651 298.1L893.219 297.445C893.498 298.115 894.183 298.906 895.284 298.906C896.636 298.906 897.474 298.069 897.474 296.493V295.901H897.411C897.008 296.4 896.231 296.836 895.251 296.836C893.201 296.836 891.322 295.044 891.322 292.737C891.322 290.413 893.201 288.605 895.251 288.605C896.229 288.605 897.006 289.042 897.411 289.526H897.474V288.856H899.184V288.854ZM897.601 292.737C897.601 291.287 896.638 290.228 895.412 290.228C894.17 290.228 893.129 291.287 893.129 292.737C893.129 294.171 894.17 295.216 895.412 295.216C896.638 295.216 897.601 294.171 897.601 292.737Z" fill="#333333"/>
<path d="M902.003 284.522V296.586H900.246V284.522H902.003Z" fill="#333333"/>
<path d="M908.848 294.077L910.246 295.012C909.795 295.682 908.708 296.836 906.829 296.836C904.5 296.836 902.76 295.029 902.76 292.72C902.76 290.272 904.514 288.604 906.628 288.604C908.756 288.604 909.797 290.304 910.137 291.222L910.324 291.69L904.842 293.969C905.261 294.795 905.914 295.216 906.829 295.216C907.746 295.216 908.382 294.763 908.848 294.077ZM904.546 292.596L908.21 291.068C908.009 290.554 907.402 290.196 906.689 290.196C905.773 290.196 904.5 291.007 904.546 292.596Z" fill="#333333"/>
<path d="M866.927 291.651V289.905H872.79C872.847 290.209 872.877 290.569 872.877 290.959C872.877 292.269 872.52 293.889 871.37 295.044C870.251 296.213 868.822 296.836 866.929 296.836C863.42 296.836 860.469 293.967 860.469 290.445C860.469 286.922 863.42 284.053 866.929 284.053C868.87 284.053 870.253 284.818 871.292 285.814L870.065 287.047C869.319 286.345 868.31 285.799 866.927 285.799C864.364 285.799 862.36 287.872 862.36 290.445C862.36 293.017 864.364 295.09 866.927 295.09C868.589 295.09 869.536 294.42 870.142 293.811C870.634 293.318 870.958 292.612 871.085 291.649L866.927 291.651Z" fill="#333333"/>
<path d="M912.834 296.053L917.89 284.005H917.986L923.026 296.053H921.25L917.474 286.437L918.578 285.717L914.354 296.053H912.834ZM915.794 291.669H920.098L920.61 293.013H915.346L915.794 291.669ZM926.409 296.213C925.801 296.213 925.246 296.069 924.745 295.781C924.254 295.482 923.865 295.066 923.577 294.533C923.289 293.989 923.145 293.365 923.145 292.661C923.145 291.925 923.294 291.296 923.593 290.773C923.902 290.25 924.318 289.85 924.841 289.573C925.363 289.296 925.95 289.157 926.601 289.157C927.123 289.157 927.619 289.269 928.089 289.493C928.569 289.717 928.942 290.026 929.209 290.421L929.145 290.949V283.669H930.617V296.053H929.129V294.405L929.289 294.821C928.979 295.226 928.579 295.562 928.089 295.829C927.598 296.085 927.038 296.213 926.409 296.213ZM926.873 294.949C927.267 294.949 927.619 294.88 927.929 294.741C928.238 294.592 928.494 294.389 928.697 294.133C928.899 293.877 929.043 293.573 929.129 293.221V291.973C929.043 291.653 928.889 291.376 928.665 291.141C928.451 290.896 928.19 290.704 927.881 290.565C927.582 290.416 927.246 290.341 926.873 290.341C926.467 290.341 926.094 290.442 925.753 290.645C925.422 290.837 925.155 291.104 924.953 291.445C924.75 291.786 924.649 292.181 924.649 292.629C924.649 293.066 924.75 293.461 924.953 293.813C925.155 294.154 925.427 294.432 925.769 294.645C926.11 294.848 926.478 294.949 926.873 294.949ZM934.101 296.181C933.632 296.181 933.173 296.101 932.725 295.941C932.288 295.77 931.925 295.52 931.637 295.189L932.261 294.325C932.538 294.592 932.821 294.794 933.109 294.933C933.408 295.061 933.701 295.125 933.989 295.125C934.202 295.125 934.4 295.098 934.581 295.045C934.762 294.992 934.906 294.906 935.013 294.789C935.13 294.661 935.189 294.49 935.189 294.277C935.189 294.042 935.109 293.856 934.949 293.717C934.8 293.578 934.602 293.466 934.357 293.381C934.122 293.296 933.872 293.216 933.605 293.141C933.061 292.96 932.645 292.709 932.357 292.389C932.069 292.069 931.925 291.68 931.925 291.221C931.925 290.869 932.01 290.544 932.181 290.245C932.362 289.936 932.624 289.685 932.965 289.493C933.317 289.301 933.749 289.205 934.261 289.205C934.72 289.205 935.13 289.264 935.493 289.381C935.856 289.488 936.197 289.669 936.517 289.925L935.925 290.853C935.733 290.65 935.504 290.501 935.237 290.405C934.97 290.309 934.73 290.256 934.517 290.245C934.336 290.234 934.16 290.261 933.989 290.325C933.829 290.389 933.696 290.48 933.589 290.597C933.482 290.714 933.429 290.853 933.429 291.013C933.429 291.237 933.504 291.418 933.653 291.557C933.802 291.696 933.994 291.808 934.229 291.893C934.474 291.968 934.714 292.048 934.949 292.133C935.28 292.229 935.573 292.357 935.829 292.517C936.085 292.677 936.288 292.874 936.437 293.109C936.597 293.344 936.677 293.637 936.677 293.989C936.677 294.384 936.581 294.752 936.389 295.093C936.208 295.424 935.925 295.69 935.541 295.893C935.168 296.085 934.688 296.181 934.101 296.181Z" fill="#333333"/>
</g>
<rect x="820.5" y="194" width="158" height="158" rx="23" stroke="#333333" stroke-width="2"/>
<rect x="434.5" y="268" width="10" height="10" rx="5" fill="#FFFEF2"/>
<rect x="434.5" y="268" width="10" height="10" rx="5" stroke="#333333" stroke-width="2"/>
<path d="M270.207 273.707C270.598 273.317 270.598 272.683 270.207 272.293L263.843 265.929C263.453 265.538 262.819 265.538 262.429 265.929C262.038 266.319 262.038 266.953 262.429 267.343L268.086 273L262.429 278.657C262.038 279.047 262.038 279.681 262.429 280.071C262.819 280.462 263.453 280.462 263.843 280.071L270.207 273.707ZM160.5 274L269.5 274L269.5 272L160.5 272L160.5 274Z" fill="#333333"/>
<rect x="270.5" y="196" width="160" height="159" rx="24" fill="black"/>
<g filter="url(#filter0_d_1238_4738)">
<rect x="274.5" y="191" width="160" height="160" rx="24" fill="url(#paint3_radial_1238_4738)"/>
<rect x="353" y="237" width="4" height="32" rx="1" fill="#333333"/>
<rect x="360" y="250" width="4" height="6" rx="1" fill="#333333"/>
<rect x="346" y="243" width="4" height="10" rx="1" fill="#333333"/>
<path d="M326.202 284.897V282.909H336.647V284.897H332.601V296H330.248V284.897H326.202ZM340.047 296.198C339.425 296.198 338.865 296.087 338.366 295.866C337.872 295.64 337.48 295.308 337.19 294.869C336.905 294.43 336.762 293.888 336.762 293.245C336.762 292.691 336.864 292.233 337.069 291.871C337.273 291.509 337.552 291.219 337.906 291.001C338.26 290.784 338.658 290.62 339.101 290.509C339.549 290.394 340.011 290.311 340.488 290.26C341.064 290.2 341.53 290.147 341.888 290.1C342.246 290.049 342.506 289.972 342.668 289.87C342.834 289.763 342.917 289.599 342.917 289.378V289.339C342.917 288.858 342.775 288.485 342.489 288.221C342.204 287.957 341.792 287.825 341.256 287.825C340.689 287.825 340.239 287.948 339.907 288.195C339.579 288.442 339.357 288.734 339.242 289.071L337.081 288.764C337.252 288.168 337.533 287.669 337.925 287.268C338.317 286.864 338.797 286.561 339.363 286.361C339.93 286.156 340.557 286.054 341.243 286.054C341.716 286.054 342.187 286.109 342.655 286.22C343.124 286.331 343.552 286.514 343.94 286.77C344.328 287.021 344.639 287.364 344.873 287.799C345.112 288.234 345.231 288.777 345.231 289.429V296H343.007V294.651H342.93C342.79 294.924 342.591 295.18 342.336 295.418C342.084 295.653 341.767 295.842 341.383 295.987C341.004 296.128 340.559 296.198 340.047 296.198ZM340.648 294.498C341.113 294.498 341.515 294.406 341.856 294.223C342.197 294.036 342.459 293.788 342.643 293.482C342.83 293.175 342.924 292.84 342.924 292.478V291.321C342.851 291.381 342.728 291.436 342.553 291.487C342.383 291.538 342.191 291.583 341.978 291.621C341.765 291.66 341.554 291.694 341.345 291.724C341.136 291.754 340.955 291.779 340.802 291.8C340.456 291.847 340.148 291.924 339.875 292.031C339.602 292.137 339.387 292.286 339.229 292.478C339.072 292.665 338.993 292.908 338.993 293.207C338.993 293.633 339.148 293.955 339.459 294.172C339.77 294.389 340.167 294.498 340.648 294.498ZM351.828 299.886C350.997 299.886 350.283 299.773 349.687 299.548C349.09 299.326 348.611 299.028 348.248 298.653C347.886 298.278 347.635 297.862 347.494 297.406L349.578 296.901C349.672 297.093 349.808 297.283 349.987 297.47C350.166 297.662 350.407 297.82 350.709 297.943C351.016 298.071 351.402 298.135 351.866 298.135C352.523 298.135 353.066 297.975 353.496 297.656C353.927 297.34 354.142 296.82 354.142 296.096V294.236H354.027C353.907 294.474 353.733 294.719 353.503 294.971C353.277 295.222 352.976 295.433 352.601 295.604C352.231 295.774 351.764 295.859 351.202 295.859C350.447 295.859 349.763 295.683 349.15 295.329C348.54 294.971 348.055 294.438 347.692 293.731C347.334 293.019 347.155 292.129 347.155 291.059C347.155 289.981 347.334 289.071 347.692 288.33C348.055 287.584 348.542 287.019 349.156 286.636C349.77 286.248 350.454 286.054 351.208 286.054C351.783 286.054 352.256 286.152 352.627 286.348C353.002 286.54 353.3 286.772 353.522 287.045C353.743 287.313 353.912 287.567 354.027 287.805H354.155V286.182H356.437V296.16C356.437 296.999 356.236 297.694 355.836 298.244C355.435 298.793 354.888 299.205 354.193 299.477C353.498 299.75 352.71 299.886 351.828 299.886ZM351.847 294.044C352.337 294.044 352.755 293.925 353.1 293.686C353.445 293.447 353.707 293.104 353.886 292.657C354.065 292.21 354.155 291.673 354.155 291.046C354.155 290.428 354.065 289.887 353.886 289.423C353.711 288.958 353.452 288.598 353.106 288.342C352.765 288.082 352.346 287.952 351.847 287.952C351.331 287.952 350.901 288.087 350.556 288.355C350.211 288.624 349.951 288.992 349.776 289.461C349.601 289.925 349.514 290.454 349.514 291.046C349.514 291.647 349.601 292.173 349.776 292.625C349.955 293.072 350.217 293.422 350.562 293.673C350.912 293.92 351.34 294.044 351.847 294.044ZM363.078 299.886C362.247 299.886 361.533 299.773 360.937 299.548C360.34 299.326 359.861 299.028 359.498 298.653C359.136 298.278 358.885 297.862 358.744 297.406L360.828 296.901C360.922 297.093 361.058 297.283 361.237 297.47C361.416 297.662 361.657 297.82 361.959 297.943C362.266 298.071 362.652 298.135 363.116 298.135C363.773 298.135 364.316 297.975 364.746 297.656C365.177 297.34 365.392 296.82 365.392 296.096V294.236H365.277C365.157 294.474 364.983 294.719 364.753 294.971C364.527 295.222 364.226 295.433 363.851 295.604C363.481 295.774 363.014 295.859 362.452 295.859C361.697 295.859 361.013 295.683 360.4 295.329C359.79 294.971 359.305 294.438 358.942 293.731C358.584 293.019 358.405 292.129 358.405 291.059C358.405 289.981 358.584 289.071 358.942 288.33C359.305 287.584 359.792 287.019 360.406 286.636C361.02 286.248 361.704 286.054 362.458 286.054C363.033 286.054 363.506 286.152 363.877 286.348C364.252 286.54 364.55 286.772 364.772 287.045C364.993 287.313 365.162 287.567 365.277 287.805H365.405V286.182H367.687V296.16C367.687 296.999 367.486 297.694 367.086 298.244C366.685 298.793 366.138 299.205 365.443 299.477C364.748 299.75 363.96 299.886 363.078 299.886ZM363.097 294.044C363.587 294.044 364.005 293.925 364.35 293.686C364.695 293.447 364.957 293.104 365.136 292.657C365.315 292.21 365.405 291.673 365.405 291.046C365.405 290.428 365.315 289.887 365.136 289.423C364.961 288.958 364.702 288.598 364.356 288.342C364.015 288.082 363.596 287.952 363.097 287.952C362.581 287.952 362.151 288.087 361.806 288.355C361.461 288.624 361.201 288.992 361.026 289.461C360.851 289.925 360.764 290.454 360.764 291.046C360.764 291.647 360.851 292.173 361.026 292.625C361.205 293.072 361.467 293.422 361.812 293.673C362.162 293.92 362.59 294.044 363.097 294.044ZM372.372 282.909V296H370.058V282.909H372.372ZM379.034 296.192C378.075 296.192 377.244 295.981 376.541 295.559C375.838 295.137 375.293 294.547 374.905 293.788C374.521 293.03 374.33 292.143 374.33 291.129C374.33 290.115 374.521 289.227 374.905 288.464C375.293 287.701 375.838 287.109 376.541 286.687C377.244 286.265 378.075 286.054 379.034 286.054C379.993 286.054 380.824 286.265 381.527 286.687C382.23 287.109 382.773 287.701 383.157 288.464C383.545 289.227 383.739 290.115 383.739 291.129C383.739 292.143 383.545 293.03 383.157 293.788C382.773 294.547 382.23 295.137 381.527 295.559C380.824 295.981 379.993 296.192 379.034 296.192ZM379.047 294.338C379.567 294.338 380.001 294.195 380.351 293.91C380.7 293.62 380.96 293.232 381.131 292.746C381.305 292.261 381.393 291.719 381.393 291.123C381.393 290.522 381.305 289.979 381.131 289.493C380.96 289.003 380.7 288.613 380.351 288.323C380.001 288.033 379.567 287.888 379.047 287.888C378.514 287.888 378.071 288.033 377.717 288.323C377.368 288.613 377.106 289.003 376.931 289.493C376.761 289.979 376.675 290.522 376.675 291.123C376.675 291.719 376.761 292.261 376.931 292.746C377.106 293.232 377.368 293.62 377.717 293.91C378.071 294.195 378.514 294.338 379.047 294.338Z" fill="#333333"/>
<rect x="275.5" y="192" width="158" height="158" rx="23" stroke="#333333" stroke-width="2"/>
</g>
<rect x="1.5" y="192" width="158" height="158" rx="23" fill="#9EC3FF" fill-opacity="0.2"/>
<g clip-path="url(#clip3_1238_4738)">
<path d="M83.783 274.634L78.2285 269.218L90.1574 257.036L95.9083 262.672L83.783 274.634Z" fill="#8AB4F8"/>
<path d="M83.8061 250.687L78.2716 245.036L66.17 257.023C64.61 258.583 64.61 261.112 66.17 262.674L78.0898 274.672L83.7261 269.4L74.6444 259.849L83.8061 250.687Z" fill="#4285F4"/>
<path d="M95.8275 257.116L83.8276 245.116C82.2658 243.554 79.7331 243.554 78.1713 245.116C76.6096 246.678 76.6096 249.211 78.1713 250.773L90.1712 262.772C91.733 264.334 94.2657 264.334 95.8275 262.772C97.3893 261.211 97.3893 258.678 95.8275 257.116Z" fill="#8AB4F8"/>
<path d="M80.909 275.945C83.0679 275.945 84.8181 274.195 84.8181 272.036C84.8181 269.877 83.0679 268.127 80.909 268.127C78.7501 268.127 77 269.877 77 272.036C77 274.195 78.7501 275.945 80.909 275.945Z" fill="#246FDB"/>
<path d="M31.9074 290.724C31.9074 293.094 30.0603 294.84 27.7935 294.84C25.5268 294.84 23.6797 293.094 23.6797 290.724C23.6797 288.337 25.5268 286.607 27.7935 286.607C30.0603 286.607 31.9074 288.337 31.9074 290.724ZM30.1065 290.724C30.1065 289.243 29.036 288.229 27.7935 288.229C26.551 288.229 25.4805 289.243 25.4805 290.724C25.4805 292.19 26.551 293.218 27.7935 293.218C29.036 293.218 30.1065 292.188 30.1065 290.724Z" fill="#333333"/>
<path d="M40.7824 290.724C40.7824 293.094 38.9353 294.84 36.6685 294.84C34.4018 294.84 32.5547 293.094 32.5547 290.724C32.5547 288.339 34.4018 286.607 36.6685 286.607C38.9353 286.607 40.7824 288.337 40.7824 290.724ZM38.9815 290.724C38.9815 289.243 37.911 288.229 36.6685 288.229C35.426 288.229 34.3555 289.243 34.3555 290.724C34.3555 292.19 35.426 293.218 36.6685 293.218C37.911 293.218 38.9815 292.188 38.9815 290.724Z" fill="#333333"/>
<path d="M49.2874 286.856V294.246C49.2874 297.286 47.5013 298.528 45.3899 298.528C43.4023 298.528 42.206 297.193 41.7549 296.102L43.3228 295.447C43.602 296.117 44.2861 296.908 45.388 296.908C46.7396 296.908 47.5771 296.071 47.5771 294.495V293.903H47.5143C47.1112 294.402 46.3346 294.838 45.3547 294.838C43.3043 294.838 41.4258 293.046 41.4258 290.739C41.4258 288.415 43.3043 286.607 45.3547 286.607C46.3328 286.607 47.1093 287.044 47.5143 287.528H47.5771V286.858H49.2874V286.856ZM47.7047 290.739C47.7047 289.289 46.7414 288.229 45.5156 288.229C44.2731 288.229 43.2322 289.289 43.2322 290.739C43.2322 292.173 44.2731 293.218 45.5156 293.218C46.7414 293.218 47.7047 292.173 47.7047 290.739Z" fill="#333333"/>
<path d="M52.1061 282.524V294.588H50.3496V282.524H52.1061Z" fill="#333333"/>
<path d="M58.9518 292.079L60.3495 293.014C59.8984 293.684 58.8112 294.838 56.9327 294.838C54.6031 294.838 52.8633 293.031 52.8633 290.722C52.8633 288.274 54.6179 286.606 56.7312 286.606C58.8593 286.606 59.9002 288.306 60.2404 289.224L60.4272 289.692L54.9452 291.971C55.3649 292.797 56.0175 293.218 56.9327 293.218C57.8498 293.218 58.4858 292.765 58.9518 292.079ZM54.6493 290.598L58.3139 289.07C58.1123 288.556 57.5059 288.198 56.7922 288.198C55.877 288.198 54.6031 289.009 54.6493 290.598Z" fill="#333333"/>
<path d="M17.0305 289.653V287.907H22.8934C22.9507 288.211 22.9803 288.571 22.9803 288.961C22.9803 290.271 22.6235 291.891 21.4735 293.046C20.3549 294.215 18.9257 294.838 17.0324 294.838C13.5231 294.838 10.5723 291.969 10.5723 288.447C10.5723 284.924 13.5231 282.055 17.0324 282.055C18.9737 282.055 20.3567 282.82 21.3958 283.816L20.1681 285.048C19.423 284.347 18.4135 283.801 17.0305 283.801C14.4679 283.801 12.4637 285.874 12.4637 288.447C12.4637 291.019 14.4679 293.092 17.0305 293.092C18.6927 293.092 19.6393 292.422 20.2458 291.813C20.7376 291.32 21.0611 290.614 21.1887 289.651L17.0305 289.653Z" fill="#333333"/>
<path d="M63.2418 282.487H70.9218V283.975H67.8178V294.055H66.2658V283.975H63.2418V282.487ZM73.0919 294.215C72.4732 294.215 71.9079 294.082 71.3959 293.815C70.8946 293.548 70.4946 293.159 70.1959 292.647C69.9079 292.124 69.7639 291.49 69.7639 290.743C69.7639 290.007 69.9186 289.372 70.2279 288.839C70.5372 288.295 70.9479 287.879 71.4599 287.591C71.9826 287.303 72.5532 287.159 73.1719 287.159C73.7906 287.159 74.3132 287.303 74.7399 287.591C75.1666 287.868 75.4919 288.199 75.7159 288.583L75.6199 288.839L75.7639 287.431H77.1399V294.055H75.6519V292.327L75.8119 292.711C75.7692 292.818 75.6732 292.956 75.5239 293.127C75.3852 293.287 75.1932 293.452 74.9479 293.623C74.7132 293.794 74.4412 293.938 74.1319 294.055C73.8226 294.162 73.4759 294.215 73.0919 294.215ZM73.4919 292.983C73.8652 292.983 74.2012 292.914 74.4999 292.775C74.7986 292.636 75.0439 292.444 75.2359 292.199C75.4386 291.943 75.5772 291.639 75.6519 291.287V289.991C75.5666 289.671 75.4172 289.394 75.2039 289.159C74.9906 288.914 74.7346 288.727 74.4359 288.599C74.1372 288.46 73.8066 288.391 73.4439 288.391C73.0492 288.391 72.6866 288.487 72.3559 288.679C72.0252 288.871 71.7586 289.138 71.5559 289.479C71.3639 289.82 71.2679 290.22 71.2679 290.679C71.2679 291.106 71.3692 291.495 71.5719 291.847C71.7746 292.199 72.0466 292.476 72.3879 292.679C72.7292 292.882 73.0972 292.983 73.4919 292.983ZM81.9389 297.335C81.4482 297.335 81.0162 297.276 80.6429 297.159C80.2696 297.052 79.9282 296.898 79.6189 296.695C79.3202 296.492 79.0322 296.263 78.7549 296.007L79.6189 294.999C79.9709 295.33 80.3282 295.586 80.6909 295.767C81.0536 295.948 81.4589 296.039 81.9069 296.039C82.4082 296.039 82.8296 295.954 83.1709 295.783C83.5229 295.623 83.7896 295.394 83.9709 295.095C84.1522 294.807 84.2429 294.471 84.2429 294.087L84.2589 292.295L84.3869 292.583C84.1949 293.042 83.8482 293.431 83.3469 293.751C82.8456 294.06 82.2376 294.215 81.5229 294.215C80.9149 294.215 80.3549 294.06 79.8429 293.751C79.3416 293.442 78.9362 293.026 78.6269 292.503C78.3282 291.97 78.1789 291.372 78.1789 290.711C78.1789 290.018 78.3389 289.41 78.6589 288.887C78.9789 288.354 79.4002 287.932 79.9229 287.623C80.4456 287.314 81.0162 287.159 81.6349 287.159C82.2216 287.159 82.7549 287.282 83.2349 287.527C83.7256 287.762 84.0829 288.066 84.3069 288.439L84.2269 288.711L84.3869 287.431H85.7469V294.103C85.7469 294.7 85.5922 295.244 85.2829 295.735C84.9736 296.226 84.5362 296.615 83.9709 296.903C83.4056 297.191 82.7282 297.335 81.9389 297.335ZM79.6669 290.679C79.6669 291.106 79.7682 291.495 79.9709 291.847C80.1736 292.199 80.4456 292.476 80.7869 292.679C81.1389 292.882 81.5282 292.983 81.9549 292.983C82.3496 292.983 82.7016 292.914 83.0109 292.775C83.3309 292.626 83.5976 292.428 83.8109 292.183C84.0242 291.927 84.1736 291.634 84.2589 291.303V289.991C84.1629 289.671 84.0029 289.394 83.7789 289.159C83.5549 288.914 83.2882 288.727 82.9789 288.599C82.6696 288.46 82.3282 288.391 81.9549 288.391C81.5282 288.391 81.1389 288.487 80.7869 288.679C80.4456 288.871 80.1736 289.143 79.9709 289.495C79.7682 289.836 79.6669 290.231 79.6669 290.679ZM91.8279 294.055V282.119H91.8439L97.9079 290.727L97.2519 290.599L103.3 282.119H103.332V294.055H101.796V285.639L101.892 286.423L97.5239 292.599H97.4919L93.0599 286.423L93.3319 285.703V294.055H91.8279ZM108.08 294.215C107.461 294.215 106.896 294.082 106.384 293.815C105.883 293.548 105.483 293.159 105.184 292.647C104.896 292.124 104.752 291.49 104.752 290.743C104.752 290.007 104.907 289.372 105.216 288.839C105.525 288.295 105.936 287.879 106.448 287.591C106.971 287.303 107.541 287.159 108.16 287.159C108.779 287.159 109.301 287.303 109.728 287.591C110.155 287.868 110.48 288.199 110.704 288.583L110.608 288.839L110.752 287.431H112.128V294.055H110.64V292.327L110.8 292.711C110.757 292.818 110.661 292.956 110.512 293.127C110.373 293.287 110.181 293.452 109.936 293.623C109.701 293.794 109.429 293.938 109.12 294.055C108.811 294.162 108.464 294.215 108.08 294.215ZM108.48 292.983C108.853 292.983 109.189 292.914 109.488 292.775C109.787 292.636 110.032 292.444 110.224 292.199C110.427 291.943 110.565 291.639 110.64 291.287V289.991C110.555 289.671 110.405 289.394 110.192 289.159C109.979 288.914 109.723 288.727 109.424 288.599C109.125 288.46 108.795 288.391 108.432 288.391C108.037 288.391 107.675 288.487 107.344 288.679C107.013 288.871 106.747 289.138 106.544 289.479C106.352 289.82 106.256 290.22 106.256 290.679C106.256 291.106 106.357 291.495 106.56 291.847C106.763 292.199 107.035 292.476 107.376 292.679C107.717 292.882 108.085 292.983 108.48 292.983ZM115.071 287.431L115.199 289.047L115.135 288.791C115.348 288.3 115.695 287.911 116.175 287.623C116.655 287.324 117.21 287.175 117.839 287.175C118.468 287.175 118.98 287.362 119.375 287.735C119.78 288.098 119.988 288.572 119.999 289.159V294.055H118.495V289.687C118.484 289.324 118.378 289.031 118.175 288.807C117.983 288.572 117.679 288.455 117.263 288.455C116.879 288.455 116.532 288.562 116.223 288.775C115.914 288.988 115.668 289.282 115.487 289.655C115.316 290.028 115.231 290.46 115.231 290.951V294.055H113.743V287.431H115.071ZM124.379 294.215C123.76 294.215 123.195 294.082 122.683 293.815C122.181 293.548 121.781 293.159 121.483 292.647C121.195 292.124 121.051 291.49 121.051 290.743C121.051 290.007 121.205 289.372 121.515 288.839C121.824 288.295 122.235 287.879 122.747 287.591C123.269 287.303 123.84 287.159 124.459 287.159C125.077 287.159 125.6 287.303 126.027 287.591C126.453 287.868 126.779 288.199 127.003 288.583L126.907 288.839L127.051 287.431H128.427V294.055H126.939V292.327L127.099 292.711C127.056 292.818 126.96 292.956 126.811 293.127C126.672 293.287 126.48 293.452 126.235 293.623C126 293.794 125.728 293.938 125.419 294.055C125.109 294.162 124.763 294.215 124.379 294.215ZM124.779 292.983C125.152 292.983 125.488 292.914 125.787 292.775C126.085 292.636 126.331 292.444 126.523 292.199C126.725 291.943 126.864 291.639 126.939 291.287V289.991C126.853 289.671 126.704 289.394 126.491 289.159C126.277 288.914 126.021 288.727 125.723 288.599C125.424 288.46 125.093 288.391 124.731 288.391C124.336 288.391 123.973 288.487 123.643 288.679C123.312 288.871 123.045 289.138 122.843 289.479C122.651 289.82 122.555 290.22 122.555 290.679C122.555 291.106 122.656 291.495 122.859 291.847C123.061 292.199 123.333 292.476 123.675 292.679C124.016 292.882 124.384 292.983 124.779 292.983ZM133.226 297.335C132.735 297.335 132.303 297.276 131.93 297.159C131.556 297.052 131.215 296.898 130.906 296.695C130.607 296.492 130.319 296.263 130.042 296.007L130.906 294.999C131.258 295.33 131.615 295.586 131.978 295.767C132.34 295.948 132.746 296.039 133.194 296.039C133.695 296.039 134.116 295.954 134.458 295.783C134.81 295.623 135.076 295.394 135.258 295.095C135.439 294.807 135.53 294.471 135.53 294.087L135.546 292.295L135.674 292.583C135.482 293.042 135.135 293.431 134.634 293.751C134.132 294.06 133.524 294.215 132.81 294.215C132.202 294.215 131.642 294.06 131.13 293.751C130.628 293.442 130.223 293.026 129.914 292.503C129.615 291.97 129.466 291.372 129.466 290.711C129.466 290.018 129.626 289.41 129.946 288.887C130.266 288.354 130.687 287.932 131.21 287.623C131.732 287.314 132.303 287.159 132.922 287.159C133.508 287.159 134.042 287.282 134.522 287.527C135.012 287.762 135.37 288.066 135.594 288.439L135.514 288.711L135.674 287.431H137.034V294.103C137.034 294.7 136.879 295.244 136.57 295.735C136.26 296.226 135.823 296.615 135.258 296.903C134.692 297.191 134.015 297.335 133.226 297.335ZM130.954 290.679C130.954 291.106 131.055 291.495 131.258 291.847C131.46 292.199 131.732 292.476 132.074 292.679C132.426 292.882 132.815 292.983 133.242 292.983C133.636 292.983 133.988 292.914 134.298 292.775C134.618 292.626 134.884 292.428 135.098 292.183C135.311 291.927 135.46 291.634 135.546 291.303V289.991C135.45 289.671 135.29 289.394 135.066 289.159C134.842 288.914 134.575 288.727 134.266 288.599C133.956 288.46 133.615 288.391 133.242 288.391C132.815 288.391 132.426 288.487 132.074 288.679C131.732 288.871 131.46 289.143 131.258 289.495C131.055 289.836 130.954 290.231 130.954 290.679ZM141.716 294.215C140.959 294.215 140.308 294.066 139.764 293.767C139.22 293.458 138.799 293.042 138.5 292.519C138.212 291.986 138.068 291.378 138.068 290.695C138.068 290.044 138.234 289.452 138.564 288.919C138.895 288.386 139.338 287.959 139.892 287.639C140.447 287.319 141.066 287.159 141.748 287.159C142.623 287.159 143.348 287.415 143.924 287.927C144.5 288.439 144.89 289.143 145.092 290.039L139.636 291.959L139.284 291.079L143.764 289.447L143.444 289.655C143.316 289.303 143.103 288.999 142.804 288.743C142.506 288.476 142.116 288.343 141.636 288.343C141.231 288.343 140.868 288.444 140.548 288.647C140.228 288.839 139.978 289.106 139.796 289.447C139.615 289.788 139.524 290.178 139.524 290.615C139.524 291.074 139.62 291.479 139.812 291.831C140.004 292.172 140.266 292.444 140.596 292.647C140.938 292.839 141.322 292.935 141.748 292.935C142.036 292.935 142.314 292.882 142.58 292.775C142.858 292.668 143.114 292.53 143.348 292.359L144.036 293.463C143.706 293.687 143.332 293.868 142.916 294.007C142.511 294.146 142.111 294.215 141.716 294.215ZM147.325 287.431L147.469 289.351L147.389 289.095C147.559 288.69 147.805 288.348 148.125 288.071C148.455 287.783 148.797 287.564 149.149 287.415C149.511 287.255 149.826 287.175 150.093 287.175L150.013 288.647C149.511 288.615 149.069 288.711 148.685 288.935C148.311 289.159 148.013 289.458 147.789 289.831C147.575 290.204 147.469 290.604 147.469 291.031V294.055H145.997V287.431H147.325Z" fill="#333333"/>
</g>
<rect x="1.5" y="192" width="158" height="158" rx="23" stroke="#333333" stroke-width="2"/>
<rect x="161.5" y="268" width="10" height="10" rx="5" fill="#FFFEF2"/>
<rect x="161.5" y="268" width="10" height="10" rx="5" stroke="#333333" stroke-width="2"/>
<defs>
<filter id="filter0_d_1238_4738" x="266.5" y="187" width="176" height="176" filterUnits="userSpaceOnUse" color-interpolation-filters="sRGB">
<feFlood flood-opacity="0" result="BackgroundImageFix"/>
<feColorMatrix in="SourceAlpha" type="matrix" values="0 0 0 0 0 0 0 0 0 0 0 0 0 0 0 0 0 0 127 0" result="hardAlpha"/>
<feOffset dy="4"/>
<feGaussianBlur stdDeviation="4"/>
<feComposite in2="hardAlpha" operator="out"/>
<feColorMatrix type="matrix" values="0 0 0 0 0 0 0 0 0 0 0 0 0 0 0 0 0 0 0.25 0"/>
<feBlend mode="normal" in2="BackgroundImageFix" result="effect1_dropShadow_1238_4738"/>
<feBlend mode="normal" in="SourceGraphic" in2="effect1_dropShadow_1238_4738" result="shape"/>
</filter>
<linearGradient id="paint0_linear_1238_4738" x1="683.353" y1="427.938" x2="710.734" y2="429.461" gradientUnits="userSpaceOnUse">
<stop stop-color="#0064E1"/>
<stop offset="0.4" stop-color="#0064E1"/>
<stop offset="0.83" stop-color="#0073EE"/>
<stop offset="1" stop-color="#0082FB"/>
</linearGradient>
<linearGradient id="paint1_linear_1238_4738" x1="686.008" y1="427.938" x2="711.071" y2="429.213" gradientUnits="userSpaceOnUse">
<stop stop-color="#0064E1"/>
<stop offset="0.4" stop-color="#0064E1"/>
<stop offset="0.83" stop-color="#0073EE"/>
<stop offset="1" stop-color="#0082FB"/>
</linearGradient>
<linearGradient id="paint2_linear_1238_4738" x1="679.756" y1="426.161" x2="687.667" y2="426.305" gradientUnits="userSpaceOnUse">
<stop stop-color="#0064E1"/>
<stop offset="0.4" stop-color="#0064E1"/>
<stop offset="0.83" stop-color="#0073EE"/>
<stop offset="1" stop-color="#0082FB"/>
</linearGradient>
<radialGradient id="paint3_radial_1238_4738" cx="0" cy="0" r="1" gradientUnits="userSpaceOnUse" gradientTransform="translate(355 271) rotate(90) scale(324.5)">
<stop stop-color="#93FFD2"/>
<stop offset="1" stop-color="#FFFEF2"/>
</radialGradient>
<clipPath id="clip0_1238_4738">
<rect width="39.2401" height="104.473" fill="white" transform="translate(676.881 383)"/>
</clipPath>
<clipPath id="clip1_1238_4738">
<rect width="111.493" height="104.473" fill="white" transform="translate(614.076 28)"/>
</clipPath>
<clipPath id="clip2_1238_4738">
<rect width="77.8541" height="104.473" fill="white" transform="translate(860.469 221)"/>
</clipPath>
<clipPath id="clip3_1238_4738">
<rect width="140.854" height="54.5829" fill="white" transform="translate(10.5723 243.945)"/>
</clipPath>
</defs>
</svg>
