<svg width="345" height="653" viewBox="0 0 345 653" fill="none" xmlns="http://www.w3.org/2000/svg">
<g clip-path="url(#clip0_1322_5734)">
<path d="M237.242 445.429C237.503 445.689 237.503 446.111 237.242 446.371L233.004 450.609C232.744 450.87 232.322 450.87 232.062 450.609C231.801 450.35 231.801 449.927 232.062 449.668L235.83 445.9L232.062 442.132C231.801 441.873 231.801 441.45 232.062 441.191C232.322 440.93 232.744 440.93 233.004 441.191L237.242 445.429ZM236.771 446.566C227.359 446.566 220.233 444.659 214.854 441.269C209.469 437.876 205.893 433.032 203.52 427.265C198.798 415.785 198.808 400.525 198.808 385.459C198.808 370.304 198.798 355.344 194.196 344.159C191.906 338.593 188.49 333.993 183.385 330.775C178.273 327.554 171.413 325.683 162.177 325.683L162.177 324.351C171.589 324.351 178.716 326.258 184.095 329.648C189.479 333.042 193.056 337.885 195.428 343.652C200.151 355.132 200.14 370.393 200.14 385.459C200.14 400.613 200.151 415.573 204.752 426.759C207.042 432.325 210.459 436.925 215.564 440.142C220.675 443.363 227.535 445.234 236.771 445.234L236.771 446.566Z" fill="#333333"/>
<path d="M107.757 463.412C107.497 463.671 107.497 464.094 107.757 464.353L111.996 468.592C112.256 468.852 112.678 468.852 112.938 468.592C113.198 468.332 113.198 467.91 112.938 467.65L109.17 463.883L112.938 460.115C113.198 459.855 113.198 459.433 112.938 459.173C112.678 458.913 112.256 458.913 111.996 459.173L107.757 463.412ZM108.228 464.549C115.08 464.549 120.286 462.919 124.219 460.011C128.148 457.105 130.743 452.971 132.459 448.077C135.876 438.331 135.868 425.381 135.868 412.599C135.868 399.739 135.876 387.047 139.202 377.562C140.858 372.84 143.321 368.961 146.977 366.258C150.631 363.557 155.54 361.982 162.176 361.982L162.176 360.65C155.324 360.65 150.118 362.279 146.185 365.187C142.256 368.093 139.661 372.227 137.945 377.122C134.528 386.867 134.536 399.817 134.536 412.599C134.536 425.459 134.528 438.151 131.202 447.636C129.546 452.358 127.083 456.237 123.427 458.94C119.773 461.641 114.864 463.217 108.228 463.217L108.228 464.549Z" fill="#333333"/>
<path d="M161.706 546.274C161.966 546.534 162.388 546.534 162.648 546.274L166.887 542.035C167.147 541.775 167.147 541.353 166.887 541.093C166.626 540.833 166.205 540.833 165.945 541.093L162.177 544.861L158.41 541.093C158.15 540.833 157.728 540.833 157.468 541.093C157.207 541.353 157.207 541.775 157.468 542.035L161.706 546.274ZM161.511 289.718L161.511 545.803L162.843 545.803L162.843 289.718L161.511 289.718Z" fill="#333333"/>
<path d="M91.5786 411.267H16.9845C8.52432 411.267 1.66602 418.126 1.66602 426.586V501.18C1.66602 509.64 8.52432 516.498 16.9845 516.498H91.5786C100.039 516.498 106.897 509.64 106.897 501.18V426.586C106.897 418.126 100.039 411.267 91.5786 411.267Z" fill="#0081FB" fill-opacity="0.2"/>
<mask id="mask0_1322_5734" style="mask-type:luminance" maskUnits="userSpaceOnUse" x="41" y="429" width="27" height="70">
<path d="M67.3495 429.25H41.2148V498.831H67.3495V429.25Z" fill="white"/>
</mask>
<g mask="url(#mask0_1322_5734)">
<path d="M44.7783 459.929C44.7783 460.848 44.9814 461.554 45.2471 461.981C45.5955 462.539 46.115 462.776 46.6444 462.776C47.3271 462.776 47.9518 462.608 49.156 460.955C50.1204 459.63 51.2566 457.771 52.0212 456.605L53.316 454.63C54.2158 453.258 55.2567 451.734 56.4509 450.7C57.4253 449.856 58.4763 449.387 59.5346 449.387C61.3109 449.387 63.0032 450.41 64.2979 452.326C65.7152 454.425 66.4032 457.069 66.4032 459.797C66.4032 461.419 66.0809 462.611 65.5327 463.552C65.0033 464.463 63.9716 465.372 62.2359 465.372V462.776C63.7218 462.776 64.0928 461.42 64.0928 459.869C64.0928 457.658 63.574 455.204 62.4298 453.451C61.6179 452.207 60.5656 451.447 59.408 451.447C58.1559 451.447 57.1489 452.385 56.0167 454.056C55.4146 454.944 54.7965 456.026 54.1025 457.247L53.3393 458.59C51.8048 461.291 51.4158 461.906 50.6486 462.921C49.3039 464.699 48.1556 465.372 46.6444 465.372C44.8509 465.372 43.7173 464.601 43.0146 463.44C42.4419 462.493 42.1602 461.251 42.1602 459.836L44.7783 459.929Z" fill="url(#paint0_linear_1322_5734)"/>
<path d="M44.2168 452.509C45.417 450.672 47.1499 449.387 49.1367 449.387C50.2875 449.387 51.4318 449.726 52.6259 450.694C53.9327 451.752 55.3253 453.496 57.063 456.369L57.6864 457.4C59.1902 459.887 60.0461 461.167 60.5469 461.77C61.191 462.545 61.6418 462.776 62.2279 462.776C63.7138 462.776 64.0848 461.42 64.0848 459.869L66.3952 459.797C66.3952 461.419 66.0729 462.611 65.5247 463.552C64.9953 464.463 63.9636 465.372 62.2279 465.372C61.1483 465.372 60.1926 465.139 59.1356 464.15C58.3224 463.39 57.3727 462.04 56.6414 460.826L54.4675 457.221C53.3766 455.412 52.3755 454.062 51.7968 453.452C51.1734 452.795 50.3728 452.002 49.0947 452.002C48.0604 452.002 47.1819 452.722 46.4466 453.824L44.2168 452.509Z" fill="url(#paint1_linear_1322_5734)"/>
<path d="M49.1027 452.002C48.0684 452.002 47.1899 452.722 46.4546 453.824C45.415 455.382 44.7783 457.701 44.7783 459.929C44.7783 460.848 44.9814 461.554 45.2471 461.981L43.0146 463.44C42.4419 462.493 42.1602 461.251 42.1602 459.836C42.1602 457.263 42.8714 454.58 44.2248 452.509C45.425 450.672 47.158 449.387 49.1447 449.387L49.1027 452.002Z" fill="url(#paint2_linear_1322_5734)"/>
<path d="M41.2148 470.7H42.78L45.4408 475.479L48.1022 470.7H49.6333V478.552H48.3566V472.534L46.0228 476.702H44.8253L42.4916 472.534V478.552H41.2148V470.7Z" fill="#333333"/>
<path d="M53.7487 478.692C53.1573 478.692 52.6371 478.562 52.1896 478.303C51.7407 478.043 51.3917 477.683 51.1412 477.223C50.8908 476.763 50.7656 476.236 50.7656 475.641C50.7656 475.039 50.8881 474.506 51.1326 474.043C51.3777 473.579 51.7173 473.217 52.1523 472.955C52.5878 472.693 53.0874 472.562 53.6528 472.562C54.2136 472.562 54.6971 472.694 55.1021 472.958C55.507 473.222 55.8187 473.591 56.0372 474.065C56.2556 474.54 56.3648 475.097 56.3648 475.736V476.084H52.031C52.1103 476.563 52.3048 476.94 52.6158 477.214C52.9269 477.489 53.3191 477.627 53.794 477.627C54.1743 477.627 54.502 477.571 54.7771 477.459C55.0521 477.346 55.3099 477.176 55.551 476.948L56.229 477.773C55.555 478.386 54.7278 478.693 53.7487 478.692ZM54.6811 474.035C54.4134 473.764 54.0631 473.628 53.6302 473.628C53.2079 473.628 52.8549 473.766 52.5706 474.043C52.2862 474.32 52.1063 474.692 52.031 475.159H55.1387C55.1007 474.68 54.9482 474.306 54.6811 474.035Z" fill="#333333"/>
<path d="M57.9138 473.74H56.7383V472.703H57.9138V470.986H59.1452V472.703H60.9309V473.74H59.1452V476.371C59.1452 476.809 59.2212 477.121 59.3717 477.308C59.5222 477.495 59.78 477.588 60.1456 477.588C60.3075 477.588 60.4447 477.581 60.5579 477.569C60.6711 477.555 60.7957 477.537 60.9309 477.515V478.542C60.7763 478.586 60.6185 478.62 60.4593 478.642C60.2768 478.669 60.0923 478.682 59.9085 478.682C58.5785 478.682 57.9138 477.96 57.9138 476.517V473.74Z" fill="#333333"/>
<path d="M67.3486 478.552H66.1398V477.733C65.9246 478.04 65.6516 478.277 65.3206 478.443C64.9889 478.609 64.6119 478.692 64.1903 478.692C63.6702 478.692 63.21 478.561 62.809 478.297C62.4074 478.034 62.0924 477.671 61.8626 477.209C61.6328 476.748 61.5176 476.219 61.5176 475.625C61.5176 475.027 61.6348 474.497 61.8679 474.037C62.1017 473.577 62.4247 473.217 62.837 472.955C63.2492 472.693 63.7234 472.562 64.2582 472.562C64.6612 472.562 65.0228 472.639 65.3425 472.795C65.6589 472.947 65.932 473.173 66.1398 473.454V472.703H67.3486V478.552ZM66.1171 474.749C65.9852 474.417 65.7768 474.154 65.4924 473.962C65.208 473.769 64.8797 473.673 64.5067 473.673C63.9792 473.673 63.5589 473.848 63.2466 474.2C62.9342 474.552 62.7777 475.027 62.7777 475.625C62.7777 476.227 62.9282 476.704 63.2299 477.055C63.5309 477.406 63.9399 477.582 64.456 477.582C64.8363 477.582 65.1754 477.485 65.4731 477.29C65.7701 477.096 65.9852 476.834 66.1171 476.505V474.749Z" fill="#333333"/>
</g>
<path d="M91.5786 411.267H16.9845C8.52432 411.267 1.66602 418.126 1.66602 426.586V501.18C1.66602 509.64 8.52432 516.498 16.9845 516.498H91.5786C100.039 516.498 106.897 509.64 106.897 501.18V426.586C106.897 418.126 100.039 411.267 91.5786 411.267Z" stroke="#333333" stroke-width="2"/>
<path d="M328.016 393.285H253.422C244.962 393.285 238.104 400.143 238.104 408.603V483.197C238.104 491.657 244.962 498.516 253.422 498.516H328.016C336.476 498.516 343.335 491.657 343.335 483.197V408.603C343.335 400.143 336.476 393.285 328.016 393.285Z" fill="#FEC850" fill-opacity="0.2"/>
<mask id="mask1_1322_5734" style="mask-type:luminance" maskUnits="userSpaceOnUse" x="253" y="411" width="76" height="70">
<path d="M328.061 411.267H253.805V480.848H328.061V411.267Z" fill="white"/>
</mask>
<g mask="url(#mask1_1322_5734)">
<path d="M294.955 429.949V445.629C294.955 447.385 296.161 448.361 297.441 448.361C298.624 448.361 299.926 447.529 299.926 445.629V430.068C299.926 428.461 298.742 427.455 297.441 427.455C296.139 427.455 294.955 428.565 294.955 429.949Z" fill="#F8AB00"/>
<path d="M288.447 437.908V445.629C288.447 447.385 289.653 448.361 290.932 448.361C292.116 448.361 293.417 447.529 293.417 445.629V438.027C293.417 436.419 292.234 435.413 290.932 435.413C289.631 435.413 288.447 436.523 288.447 437.908Z" fill="#E37300"/>
<path d="M286.91 445.866C286.91 447.244 285.797 448.361 284.425 448.361C283.053 448.361 281.939 447.244 281.939 445.866C281.939 444.489 283.053 443.372 284.425 443.372C285.797 443.372 286.91 444.489 286.91 445.866Z" fill="#E37300"/>
<path d="M268.014 459.463C268.014 461.041 266.784 462.204 265.274 462.204C263.765 462.204 262.535 461.041 262.535 459.463C262.535 457.873 263.765 456.721 265.274 456.721C266.784 456.721 268.014 457.873 268.014 459.463ZM266.815 459.463C266.815 458.476 266.102 457.801 265.274 457.801C264.447 457.801 263.734 458.476 263.734 459.463C263.734 460.439 264.447 461.124 265.274 461.124C266.102 461.124 266.815 460.438 266.815 459.463Z" fill="#333333"/>
<path d="M273.925 459.463C273.925 461.041 272.694 462.204 271.185 462.204C269.675 462.204 268.445 461.041 268.445 459.463C268.445 457.874 269.675 456.721 271.185 456.721C272.694 456.721 273.925 457.873 273.925 459.463ZM272.725 459.463C272.725 458.476 272.012 457.801 271.185 457.801C270.357 457.801 269.644 458.476 269.644 459.463C269.644 460.439 270.357 461.124 271.185 461.124C272.012 461.124 272.725 460.438 272.725 459.463Z" fill="#333333"/>
<path d="M279.589 456.887V461.809C279.589 463.833 278.4 464.66 276.994 464.66C275.67 464.66 274.873 463.771 274.573 463.045L275.617 462.608C275.803 463.055 276.258 463.581 276.992 463.581C277.892 463.581 278.45 463.023 278.45 461.974V461.58H278.408C278.14 461.912 277.623 462.203 276.97 462.203C275.604 462.203 274.354 461.009 274.354 459.472C274.354 457.925 275.604 456.721 276.97 456.721C277.622 456.721 278.139 457.011 278.408 457.334H278.45V456.888H279.589V456.887ZM278.535 459.472C278.535 458.507 277.893 457.801 277.077 457.801C276.25 457.801 275.556 458.507 275.556 459.472C275.556 460.428 276.25 461.124 277.077 461.124C277.893 461.124 278.535 460.428 278.535 459.472Z" fill="#333333"/>
<path d="M281.466 454.002V462.036H280.297V454.002H281.466Z" fill="#333333"/>
<path d="M286.026 460.365L286.957 460.988C286.656 461.434 285.932 462.203 284.681 462.203C283.13 462.203 281.971 460.999 281.971 459.462C281.971 457.831 283.14 456.72 284.547 456.72C285.964 456.72 286.657 457.852 286.884 458.464L287.008 458.775L283.357 460.293C283.637 460.844 284.071 461.124 284.681 461.124C285.292 461.124 285.716 460.822 286.026 460.365ZM283.16 459.378L285.601 458.361C285.467 458.019 285.063 457.78 284.588 457.78C283.978 457.78 283.13 458.32 283.16 459.378Z" fill="#333333"/>
<path d="M258.106 458.749V457.586H262.011C262.049 457.789 262.069 458.029 262.069 458.288C262.069 459.161 261.831 460.24 261.065 461.009C260.32 461.788 259.369 462.203 258.107 462.203C255.77 462.203 253.805 460.292 253.805 457.946C253.805 455.6 255.77 453.689 258.107 453.689C259.401 453.689 260.322 454.198 261.014 454.862L260.196 455.683C259.7 455.215 259.027 454.852 258.106 454.852C256.4 454.852 255.065 456.233 255.065 457.946C255.065 459.659 256.4 461.04 258.106 461.04C259.213 461.04 259.843 460.594 260.248 460.188C260.575 459.859 260.791 459.39 260.876 458.748L258.106 458.749Z" fill="#333333"/>
<path d="M291.627 454.935L290.424 458.274H292.878L291.666 454.935H291.627ZM289.387 461.165H288.34L291.113 453.767H292.189L294.963 461.165H293.916L293.208 459.16H290.105L289.387 461.165Z" fill="#333333"/>
<path d="M295.441 456.103H296.353V456.804H296.392C296.532 456.558 296.753 456.354 297.051 456.191C297.354 456.023 297.665 455.938 297.982 455.938C298.603 455.938 299.078 456.118 299.408 456.473C299.742 456.823 299.912 457.327 299.912 457.982V461.164H298.961V458.05C298.942 457.22 298.528 456.804 297.721 456.804C297.344 456.804 297.027 456.96 296.77 457.271C296.518 457.578 296.392 457.94 296.392 458.361V461.164H295.441V456.103Z" fill="#333333"/>
<path d="M301.665 459.617C301.665 459.865 301.767 460.072 301.975 460.24C302.181 460.403 302.426 460.483 302.712 460.483C303.105 460.483 303.459 460.337 303.769 460.046C304.084 459.749 304.244 459.398 304.244 458.994C303.946 458.76 303.531 458.644 303.003 458.644C302.62 458.644 302.3 458.739 302.043 458.926C301.791 459.108 301.665 459.34 301.665 459.617ZM302.887 455.938C303.585 455.938 304.133 456.127 304.535 456.502C304.943 456.879 305.147 457.395 305.147 458.05V461.164H304.244V460.464H304.205C303.811 461.043 303.287 461.33 302.634 461.33C302.077 461.33 301.611 461.164 301.238 460.833C300.869 460.503 300.686 460.092 300.686 459.597C300.686 459.072 300.882 458.658 301.277 458.352C301.67 458.04 302.198 457.884 302.857 457.884C303.42 457.884 303.88 457.987 304.244 458.186V457.972C304.244 457.641 304.111 457.364 303.847 457.135C303.587 456.901 303.284 456.784 302.935 456.784C302.405 456.784 301.988 457.008 301.685 457.456L300.85 456.93C301.308 456.268 301.988 455.938 302.887 455.938Z" fill="#333333"/>
<path d="M307.13 453.767V461.165H306.18V453.767H307.13Z" fill="#333333"/>
<path d="M312.716 456.103L309.555 463.394H308.586L309.758 460.844L307.674 456.103H308.702L310.205 459.744H310.224L311.689 456.103H312.716Z" fill="#333333"/>
<path d="M315.32 461.242C314.912 461.242 314.573 461.116 314.302 460.863C314.03 460.61 313.889 460.257 313.885 459.802V456.969H312.992V456.103H313.885V454.555H314.825V456.103H316.067V456.969H314.825V459.491C314.825 459.829 314.888 460.06 315.019 460.181C315.155 460.299 315.303 460.357 315.465 460.357C315.543 460.357 315.616 460.352 315.688 460.337C315.759 460.318 315.827 460.296 315.892 460.269L316.183 461.116C315.935 461.199 315.65 461.242 315.32 461.242Z" fill="#333333"/>
<path d="M318.139 454.361C318.139 454.543 318.072 454.701 317.936 454.838C317.804 454.969 317.649 455.032 317.47 455.032C317.281 455.032 317.123 454.969 316.995 454.838C316.864 454.701 316.801 454.543 316.801 454.361C316.801 454.173 316.864 454.015 316.995 453.884C317.123 453.755 317.281 453.689 317.47 453.689C317.649 453.689 317.804 453.755 317.936 453.884C318.072 454.015 318.139 454.173 318.139 454.361ZM317.945 456.103V461.165H316.995V456.103H317.945Z" fill="#333333"/>
<path d="M321.136 461.33C320.384 461.33 319.764 461.075 319.274 460.561C318.789 460.043 318.547 459.4 318.547 458.634C318.547 457.855 318.789 457.213 319.274 456.706C319.764 456.195 320.384 455.938 321.136 455.938C321.653 455.938 322.101 456.069 322.484 456.327C322.865 456.587 323.153 456.945 323.348 457.398L322.484 457.758C322.217 457.123 321.75 456.804 321.078 456.804C320.644 456.804 320.269 456.979 319.953 457.329C319.642 457.68 319.488 458.116 319.488 458.634C319.488 459.155 319.642 459.588 319.953 459.938C320.269 460.289 320.644 460.464 321.078 460.464C321.769 460.464 322.254 460.147 322.533 459.51L323.376 459.87C323.194 460.325 322.906 460.683 322.513 460.941C322.118 461.199 321.66 461.33 321.136 461.33Z" fill="#333333"/>
<path d="M328.06 459.763C328.06 460.206 327.867 460.578 327.479 460.883C327.096 461.179 326.616 461.33 326.034 461.33C325.529 461.33 325.083 461.196 324.696 460.931C324.313 460.666 324.038 460.315 323.871 459.88L324.715 459.519C324.844 459.826 325.025 460.062 325.258 460.23C325.496 460.401 325.755 460.483 326.034 460.483C326.337 460.483 326.589 460.42 326.79 460.289C326.996 460.159 327.101 460.004 327.101 459.821C327.101 459.498 326.851 459.262 326.354 459.111L325.491 458.897C324.506 458.644 324.017 458.167 324.017 457.466C324.017 457.006 324.203 456.636 324.579 456.356C324.953 456.079 325.433 455.938 326.014 455.938C326.461 455.938 326.863 456.045 327.227 456.259C327.588 456.473 327.84 456.76 327.983 457.115L327.139 457.466C327.043 457.252 326.882 457.086 326.664 456.969C326.451 456.848 326.211 456.784 325.946 456.784C325.699 456.784 325.476 456.848 325.278 456.969C325.083 457.093 324.987 457.247 324.987 457.427C324.987 457.714 325.258 457.921 325.801 458.05L326.558 458.245C327.559 458.493 328.06 458.999 328.06 459.763Z" fill="#333333"/>
</g>
<path d="M328.016 393.285H253.422C244.962 393.285 238.104 400.143 238.104 408.603V483.197C238.104 491.657 244.962 498.516 253.422 498.516H328.016C336.476 498.516 343.335 491.657 343.335 483.197V408.603C343.335 400.143 336.476 393.285 328.016 393.285Z" stroke="#333333" stroke-width="2"/>
<path d="M199.475 546.469H124.881C116.421 546.469 109.562 553.327 109.562 561.788V636.382C109.562 644.842 116.421 651.7 124.881 651.7H199.475C207.935 651.7 214.794 644.842 214.794 636.382V561.788C214.794 553.327 207.935 546.469 199.475 546.469Z" fill="#4BD870" fill-opacity="0.2"/>
<mask id="mask2_1322_5734" style="mask-type:luminance" maskUnits="userSpaceOnUse" x="136" y="564" width="53" height="71">
<path d="M188.034 564.452H136.182V634.033H188.034V564.452Z" fill="white"/>
</mask>
<g mask="url(#mask2_1322_5734)">
<path d="M158.296 583.75C158.527 583.158 158.844 582.613 159.315 582.172C161.199 580.378 164.312 580.829 165.59 583.083C166.551 584.792 167.57 586.465 168.559 588.155C170.212 590.964 171.884 593.772 173.518 596.59C174.892 598.947 173.403 601.925 170.673 602.329C169.001 602.573 167.435 601.822 166.57 600.357C165.119 597.886 163.658 595.416 162.208 592.955C162.178 592.899 162.14 592.851 162.102 592.805C161.948 592.683 161.881 592.504 161.785 592.344C161.141 591.236 160.477 590.137 159.834 589.038C159.42 588.324 158.988 587.62 158.575 586.906C158.2 586.267 158.027 585.572 158.046 584.84C158.075 584.464 158.123 584.088 158.296 583.75Z" fill="#3C8BD9"/>
<path d="M158.298 583.75C158.211 584.088 158.135 584.426 158.115 584.783C158.087 585.572 158.288 586.305 158.692 586.99C159.749 588.766 160.806 590.55 161.854 592.335C161.949 592.495 162.026 592.654 162.123 592.805C161.546 593.782 160.969 594.749 160.383 595.726C159.576 597.088 158.769 598.459 157.952 599.821C157.913 599.821 157.903 599.803 157.894 599.774C157.885 599.699 157.913 599.633 157.933 599.558C158.326 598.149 158 596.9 157.01 595.829C156.405 595.181 155.636 594.815 154.752 594.693C153.598 594.533 152.58 594.824 151.667 595.529C151.504 595.651 151.398 595.829 151.206 595.923C151.167 595.923 151.148 595.904 151.139 595.876C151.6 595.096 152.051 594.317 152.513 593.537C154.415 590.306 156.318 587.075 158.23 583.853C158.25 583.816 158.278 583.787 158.298 583.75Z" fill="#FABC04"/>
<path d="M151.177 595.904C151.36 595.745 151.533 595.575 151.725 595.426C154.06 593.622 157.568 594.927 158.076 597.783C158.202 598.469 158.134 599.126 157.923 599.783C157.913 599.84 157.904 599.887 157.885 599.943C157.798 600.094 157.721 600.253 157.625 600.403C156.77 601.784 155.511 602.47 153.858 602.367C151.965 602.235 150.475 600.845 150.216 599.004C150.091 598.112 150.273 597.276 150.744 596.505C150.841 596.337 150.956 596.186 151.062 596.017C151.11 595.98 151.091 595.904 151.177 595.904Z" fill="#34A852"/>
<path d="M151.177 595.904C151.139 595.942 151.139 596.008 151.072 596.017C151.062 595.951 151.101 595.914 151.139 595.866L151.177 595.904Z" fill="#FABC04"/>
<path d="M157.883 599.943C157.845 599.877 157.883 599.83 157.922 599.783C157.931 599.793 157.95 599.812 157.96 599.821L157.883 599.943Z" fill="#E1C025"/>
<path d="M150.392 612.22C150.392 613.798 149.162 614.961 147.652 614.961C146.142 614.961 144.912 613.798 144.912 612.22C144.912 610.63 146.142 609.478 147.652 609.478C149.162 609.478 150.392 610.63 150.392 612.22ZM149.193 612.22C149.193 611.233 148.479 610.559 147.652 610.559C146.825 610.559 146.112 611.233 146.112 612.22C146.112 613.196 146.825 613.881 147.652 613.881C148.479 613.881 149.193 613.195 149.193 612.22Z" fill="#333333"/>
<path d="M156.302 612.22C156.302 613.798 155.072 614.961 153.562 614.961C152.052 614.961 150.822 613.798 150.822 612.22C150.822 610.631 152.052 609.478 153.562 609.478C155.072 609.478 156.302 610.63 156.302 612.22ZM155.103 612.22C155.103 611.233 154.389 610.559 153.562 610.559C152.735 610.559 152.022 611.233 152.022 612.22C152.022 613.196 152.735 613.881 153.562 613.881C154.389 613.881 155.103 613.195 155.103 612.22Z" fill="#333333"/>
<path d="M161.967 609.644V614.565C161.967 616.59 160.777 617.417 159.371 617.417C158.047 617.417 157.251 616.528 156.95 615.802L157.994 615.365C158.18 615.812 158.636 616.338 159.369 616.338C160.27 616.338 160.828 615.781 160.828 614.731V614.337H160.786C160.517 614.669 160 614.96 159.347 614.96C157.982 614.96 156.73 613.766 156.73 612.23C156.73 610.682 157.982 609.478 159.347 609.478C159.999 609.478 160.516 609.769 160.786 610.091H160.828V609.645H161.967V609.644ZM160.912 612.23C160.912 611.264 160.271 610.559 159.454 610.559C158.627 610.559 157.934 611.264 157.934 612.23C157.934 613.185 158.627 613.881 159.454 613.881C160.271 613.881 160.912 613.185 160.912 612.23Z" fill="#333333"/>
<path d="M163.844 606.758V614.793H162.674V606.758H163.844Z" fill="#333333"/>
<path d="M168.402 613.122L169.333 613.745C169.033 614.191 168.309 614.96 167.058 614.96C165.507 614.96 164.348 613.756 164.348 612.219C164.348 610.588 165.516 609.477 166.924 609.477C168.341 609.477 169.034 610.609 169.261 611.221L169.385 611.533L165.734 613.05C166.013 613.6 166.448 613.881 167.058 613.881C167.668 613.881 168.092 613.579 168.402 613.122ZM165.537 612.136L167.977 611.118C167.844 610.776 167.439 610.537 166.964 610.537C166.354 610.537 165.507 611.078 165.537 612.136Z" fill="#333333"/>
<path d="M140.483 611.507V610.344H144.388C144.426 610.546 144.446 610.786 144.446 611.046C144.446 611.918 144.208 612.997 143.442 613.766C142.697 614.545 141.745 614.96 140.484 614.96C138.147 614.96 136.182 613.049 136.182 610.703C136.182 608.357 138.147 606.446 140.484 606.446C141.777 606.446 142.698 606.956 143.39 607.619L142.573 608.44C142.076 607.973 141.404 607.609 140.483 607.609C138.776 607.609 137.441 608.99 137.441 610.703C137.441 612.416 138.776 613.797 140.483 613.797C141.59 613.797 142.22 613.351 142.624 612.945C142.952 612.617 143.168 612.147 143.252 611.505L140.483 611.507Z" fill="#333333"/>
<path d="M171.059 614.438L174.426 606.414H174.49L177.847 614.438H176.664L174.149 608.034L174.884 607.554L172.071 614.438H171.059ZM173.03 611.518H175.897L176.238 612.414H172.732L173.03 611.518ZM180.1 614.545C179.695 614.545 179.325 614.449 178.992 614.257C178.665 614.058 178.405 613.781 178.214 613.426C178.022 613.064 177.926 612.648 177.926 612.179C177.926 611.689 178.025 611.27 178.224 610.922C178.43 610.573 178.707 610.307 179.056 610.122C179.403 609.938 179.794 609.845 180.228 609.845C180.575 609.845 180.906 609.92 181.219 610.069C181.538 610.218 181.787 610.424 181.965 610.687L181.922 611.039V606.19H182.902V614.438H181.911V613.341L182.018 613.618C181.811 613.887 181.545 614.111 181.219 614.289C180.892 614.46 180.519 614.545 180.1 614.545ZM180.409 613.703C180.671 613.703 180.906 613.657 181.112 613.564C181.318 613.465 181.488 613.33 181.624 613.16C181.758 612.989 181.854 612.787 181.911 612.552V611.721C181.854 611.508 181.752 611.323 181.602 611.167C181.46 611.004 181.286 610.876 181.08 610.783C180.881 610.684 180.657 610.634 180.409 610.634C180.138 610.634 179.89 610.701 179.663 610.836C179.442 610.964 179.265 611.142 179.13 611.369C178.995 611.596 178.928 611.859 178.928 612.158C178.928 612.449 178.995 612.712 179.13 612.946C179.265 613.174 179.446 613.359 179.674 613.501C179.901 613.636 180.146 613.703 180.409 613.703ZM185.223 614.524C184.91 614.524 184.605 614.47 184.306 614.364C184.015 614.25 183.774 614.083 183.582 613.863L183.997 613.287C184.182 613.465 184.37 613.6 184.562 613.692C184.761 613.778 184.956 613.82 185.148 613.82C185.29 613.82 185.422 613.802 185.543 613.767C185.663 613.732 185.759 613.674 185.83 613.596C185.908 613.511 185.947 613.397 185.947 613.255C185.947 613.099 185.894 612.975 185.788 612.882C185.688 612.79 185.557 612.715 185.393 612.659C185.237 612.602 185.07 612.549 184.892 612.499C184.53 612.378 184.253 612.211 184.061 611.998C183.869 611.785 183.774 611.526 183.774 611.22C183.774 610.986 183.83 610.769 183.944 610.57C184.065 610.364 184.239 610.197 184.466 610.069C184.701 609.941 184.988 609.877 185.329 609.877C185.635 609.877 185.908 609.917 186.15 609.995C186.392 610.066 186.619 610.186 186.832 610.357L186.438 610.975C186.31 610.84 186.157 610.741 185.979 610.677C185.802 610.613 185.642 610.577 185.5 610.57C185.379 610.563 185.262 610.581 185.148 610.623C185.042 610.666 184.953 610.727 184.882 610.804C184.811 610.882 184.775 610.975 184.775 611.082C184.775 611.231 184.825 611.351 184.924 611.444C185.024 611.536 185.152 611.611 185.308 611.668C185.471 611.718 185.631 611.771 185.788 611.827C186.008 611.891 186.203 611.977 186.374 612.083C186.544 612.19 186.679 612.321 186.779 612.478C186.885 612.634 186.939 612.829 186.939 613.064C186.939 613.327 186.875 613.572 186.747 613.799C186.626 614.019 186.438 614.197 186.182 614.332C185.933 614.46 185.614 614.524 185.223 614.524Z" fill="#333333"/>
</g>
<path d="M199.475 546.469H124.881C116.421 546.469 109.562 553.327 109.562 561.788V636.382C109.562 644.842 116.421 651.7 124.881 651.7H199.475C207.935 651.7 214.794 644.842 214.794 636.382V561.788C214.794 553.327 207.935 546.469 199.475 546.469Z" stroke="#333333" stroke-width="2"/>
<path d="M162.176 296.046C164.015 296.046 165.506 294.555 165.506 292.715C165.506 290.876 164.015 289.385 162.176 289.385C160.337 289.385 158.846 290.876 158.846 292.715C158.846 294.555 160.337 296.046 162.176 296.046Z" fill="#FFFEF2"/>
<path d="M162.176 296.046C164.015 296.046 165.506 294.555 165.506 292.715C165.506 290.876 164.015 289.385 162.176 289.385C160.337 289.385 158.846 290.876 158.846 292.715C158.846 294.555 160.337 296.046 162.176 296.046Z" stroke="#333333" stroke-width="2"/>
<path d="M161.706 179.963C161.966 180.224 162.388 180.224 162.648 179.963L166.887 175.725C167.147 175.465 167.147 175.043 166.887 174.783C166.627 174.522 166.205 174.522 165.945 174.783L162.177 178.55L158.41 174.783C158.15 174.522 157.728 174.522 157.468 174.783C157.207 175.043 157.207 175.465 157.468 175.725L161.706 179.963ZM161.511 106.896L161.511 179.492L162.843 179.492L162.843 106.896L161.511 106.896Z" fill="#333333"/>
<path d="M198.143 183.489H123.549C114.721 183.489 107.564 190.645 107.564 199.473V273.401C107.564 282.229 114.721 289.386 123.549 289.386H198.143C206.971 289.386 214.128 282.229 214.128 273.401V199.473C214.128 190.645 206.971 183.489 198.143 183.489Z" fill="black"/>
<g filter="url(#filter0_d_1322_5734)">
<mask id="mask3_1322_5734" style="mask-type:luminance" maskUnits="userSpaceOnUse" x="110" y="180" width="107" height="107">
<path d="M200.807 180.159H126.213C117.385 180.159 110.229 187.315 110.229 196.143V270.737C110.229 279.565 117.385 286.722 126.213 286.722H200.807C209.635 286.722 216.792 279.565 216.792 270.737V196.143C216.792 187.315 209.635 180.159 200.807 180.159Z" fill="white"/>
</mask>
<g mask="url(#mask3_1322_5734)">
<path d="M200.807 180.159H126.213C117.385 180.159 110.229 187.315 110.229 196.143V270.737C110.229 279.565 117.385 286.722 126.213 286.722H200.807C209.635 286.722 216.792 279.565 216.792 270.737V196.143C216.792 187.315 209.635 180.159 200.807 180.159Z" fill="url(#paint3_radial_1322_5734)"/>
<path d="M163.264 207.958H160.658C160.178 207.958 159.789 208.346 159.789 208.826V234.888C159.789 235.368 160.178 235.757 160.658 235.757H163.264C163.744 235.757 164.133 235.368 164.133 234.888V208.826C164.133 208.346 163.744 207.958 163.264 207.958Z" fill="#333333"/>
<path d="M169.346 217.948H167.174C166.694 217.948 166.305 218.337 166.305 218.816V223.16C166.305 223.64 166.694 224.029 167.174 224.029H169.346C169.825 224.029 170.214 223.64 170.214 223.16V218.816C170.214 218.337 169.825 217.948 169.346 217.948Z" fill="#333333"/>
<path d="M156.749 213.604H154.578C154.098 213.604 153.709 213.993 153.709 214.473V220.988C153.709 221.468 154.098 221.857 154.578 221.857H156.749C157.23 221.857 157.619 221.468 157.619 220.988V214.473C157.619 213.993 157.23 213.604 156.749 213.604Z" fill="#333333"/>
<path d="M135.719 244.589V242.838H146.15V244.589H141.945V256.317H139.918V244.589H135.719ZM148.705 256.54C148.065 256.54 147.486 256.422 146.968 256.185C146.45 255.944 146.04 255.595 145.737 255.138C145.439 254.682 145.29 254.123 145.29 253.46C145.29 252.89 145.399 252.42 145.618 252.052C145.838 251.683 146.134 251.391 146.507 251.176C146.88 250.962 147.297 250.799 147.758 250.689C148.219 250.58 148.688 250.497 149.166 250.44C149.772 250.369 150.263 250.312 150.64 250.268C151.018 250.22 151.292 250.143 151.463 250.038C151.634 249.933 151.719 249.762 151.719 249.525V249.479C151.719 248.904 151.557 248.459 151.233 248.143C150.912 247.827 150.434 247.668 149.798 247.668C149.135 247.668 148.614 247.816 148.232 248.11C147.854 248.399 147.593 248.722 147.448 249.077L145.599 248.656C145.818 248.041 146.139 247.546 146.56 247.169C146.986 246.787 147.475 246.51 148.027 246.339C148.58 246.164 149.162 246.076 149.772 246.076C150.175 246.076 150.603 246.125 151.055 246.221C151.511 246.313 151.937 246.484 152.332 246.734C152.731 246.984 153.058 247.342 153.312 247.807C153.567 248.268 153.694 248.867 153.694 249.604V256.317H151.772V254.935H151.693C151.566 255.189 151.376 255.439 151.12 255.685C150.866 255.93 150.54 256.134 150.14 256.297C149.741 256.459 149.263 256.54 148.705 256.54ZM149.133 254.961C149.677 254.961 150.142 254.853 150.528 254.638C150.919 254.423 151.215 254.142 151.417 253.796C151.623 253.445 151.726 253.07 151.726 252.67V251.367C151.656 251.438 151.52 251.503 151.318 251.565C151.12 251.622 150.895 251.672 150.64 251.716C150.386 251.756 150.138 251.793 149.897 251.828C149.655 251.859 149.453 251.885 149.291 251.907C148.909 251.956 148.56 252.037 148.245 252.151C147.934 252.265 147.683 252.429 147.495 252.644C147.31 252.855 147.218 253.136 147.218 253.487C147.218 253.974 147.398 254.342 147.758 254.592C148.117 254.838 148.576 254.961 149.133 254.961ZM159.395 260.318C158.592 260.318 157.901 260.213 157.322 260.002C156.747 259.791 156.277 259.513 155.913 259.166C155.549 258.82 155.277 258.44 155.097 258.028L156.789 257.33C156.907 257.523 157.065 257.727 157.262 257.942C157.464 258.161 157.737 258.348 158.079 258.501C158.425 258.655 158.87 258.732 159.414 258.732C160.16 258.732 160.777 258.55 161.264 258.185C161.751 257.826 161.995 257.251 161.995 256.461V254.474H161.869C161.751 254.689 161.58 254.928 161.356 255.191C161.137 255.454 160.834 255.683 160.448 255.876C160.062 256.069 159.56 256.165 158.941 256.165C158.142 256.165 157.423 255.978 156.782 255.605C156.146 255.228 155.641 254.674 155.268 253.94C154.9 253.204 154.716 252.297 154.716 251.223C154.716 250.148 154.898 249.226 155.262 248.459C155.631 247.69 156.135 247.103 156.776 246.695C157.416 246.282 158.142 246.076 158.954 246.076C159.582 246.076 160.088 246.181 160.474 246.392C160.86 246.598 161.161 246.84 161.376 247.116C161.596 247.393 161.764 247.636 161.883 247.846H162.027V246.208H163.956V256.54C163.956 257.409 163.754 258.122 163.351 258.679C162.946 259.236 162.4 259.649 161.711 259.916C161.027 260.184 160.255 260.318 159.395 260.318ZM159.375 254.533C159.941 254.533 160.419 254.401 160.81 254.138C161.205 253.87 161.503 253.489 161.705 252.993C161.911 252.492 162.015 251.894 162.015 251.196C162.015 250.516 161.913 249.918 161.711 249.4C161.51 248.882 161.213 248.478 160.823 248.189C160.433 247.895 159.95 247.748 159.375 247.748C158.783 247.748 158.289 247.901 157.895 248.209C157.5 248.511 157.201 248.924 156.999 249.446C156.802 249.968 156.704 250.552 156.704 251.196C156.704 251.859 156.804 252.44 157.006 252.941C157.208 253.441 157.506 253.831 157.901 254.111C158.3 254.392 158.792 254.533 159.375 254.533ZM169.675 260.318C168.872 260.318 168.181 260.213 167.602 260.002C167.027 259.791 166.557 259.513 166.193 259.166C165.829 258.82 165.557 258.44 165.377 258.028L167.069 257.33C167.187 257.523 167.345 257.727 167.542 257.942C167.744 258.161 168.017 258.348 168.359 258.501C168.705 258.655 169.15 258.732 169.694 258.732C170.44 258.732 171.057 258.55 171.544 258.185C172.031 257.826 172.275 257.251 172.275 256.461V254.474H172.149C172.031 254.689 171.86 254.928 171.636 255.191C171.417 255.454 171.114 255.683 170.727 255.876C170.342 256.069 169.84 256.165 169.221 256.165C168.422 256.165 167.702 255.978 167.062 255.605C166.426 255.228 165.921 254.674 165.548 253.94C165.179 253.204 164.996 252.297 164.996 251.223C164.996 250.148 165.177 249.226 165.542 248.459C165.91 247.69 166.415 247.103 167.056 246.695C167.696 246.282 168.422 246.076 169.234 246.076C169.862 246.076 170.368 246.181 170.754 246.392C171.14 246.598 171.441 246.84 171.656 247.116C171.876 247.393 172.044 247.636 172.163 247.846H172.307V246.208H174.235V256.54C174.235 257.409 174.034 258.122 173.63 258.679C173.226 259.236 172.68 259.649 171.991 259.916C171.307 260.184 170.535 260.318 169.675 260.318ZM169.655 254.533C170.221 254.533 170.699 254.401 171.09 254.138C171.485 253.87 171.783 253.489 171.985 252.993C172.191 252.492 172.295 251.894 172.295 251.196C172.295 250.516 172.193 249.918 171.991 249.4C171.79 248.882 171.493 248.478 171.103 248.189C170.712 247.895 170.23 247.748 169.655 247.748C169.062 247.748 168.569 247.901 168.175 248.209C167.78 248.511 167.481 248.924 167.279 249.446C167.082 249.968 166.983 250.552 166.983 251.196C166.983 251.859 167.084 252.44 167.286 252.941C167.488 253.441 167.786 253.831 168.181 254.111C168.58 254.392 169.072 254.533 169.655 254.533ZM177.684 242.838V256.317H175.717V242.838H177.684ZM183.431 256.52C182.483 256.52 181.657 256.303 180.95 255.869C180.243 255.435 179.695 254.827 179.305 254.046C178.914 253.265 178.719 252.352 178.719 251.308C178.719 250.259 178.914 249.343 179.305 248.557C179.695 247.772 180.243 247.162 180.95 246.727C181.657 246.293 182.483 246.076 183.431 246.076C184.379 246.076 185.206 246.293 185.913 246.727C186.619 247.162 187.167 247.772 187.558 248.557C187.948 249.343 188.143 250.259 188.143 251.308C188.143 252.352 187.948 253.265 187.558 254.046C187.167 254.827 186.619 255.435 185.913 255.869C185.206 256.303 184.379 256.52 183.431 256.52ZM183.438 254.869C184.052 254.869 184.561 254.706 184.965 254.382C185.368 254.057 185.666 253.625 185.859 253.085C186.057 252.546 186.156 251.951 186.156 251.301C186.156 250.657 186.057 250.064 185.859 249.525C185.666 248.98 185.368 248.544 184.965 248.215C184.561 247.886 184.052 247.722 183.438 247.722C182.819 247.722 182.305 247.886 181.898 248.215C181.494 248.544 181.193 248.98 180.996 249.525C180.803 250.064 180.707 250.657 180.707 251.301C180.707 251.951 180.803 252.546 180.996 253.085C181.193 253.625 181.494 254.057 181.898 254.382C182.305 254.706 182.819 254.869 183.438 254.869Z" fill="#333333"/>
</g>
<path d="M200.807 180.825H126.213C117.753 180.825 110.895 187.683 110.895 196.143V270.737C110.895 279.197 117.753 286.056 126.213 286.056H200.807C209.267 286.056 216.126 279.197 216.126 270.737V196.143C216.126 187.683 209.267 180.825 200.807 180.825Z" stroke="#333333" stroke-width="2"/>
</g>
<path d="M200.807 0.99939H126.213C117.753 0.99939 110.895 7.85769 110.895 16.3178V90.912C110.895 99.3722 117.753 106.23 126.213 106.23H200.807C209.267 106.23 216.126 99.3722 216.126 90.912V16.3178C216.126 7.85769 209.267 0.99939 200.807 0.99939Z" fill="#9EC3FF" fill-opacity="0.2"/>
<mask id="mask4_1322_5734" style="mask-type:luminance" maskUnits="userSpaceOnUse" x="116" y="35" width="95" height="37">
<path d="M210.749 35.597H116.938V71.9503H210.749V35.597Z" fill="white"/>
</mask>
<g mask="url(#mask4_1322_5734)">
<path d="M165.697 56.0365L161.998 52.4293L169.943 44.3159L173.773 48.0696L165.697 56.0365Z" fill="#8AB4F8"/>
<path d="M165.713 40.0874L162.027 36.3237L153.967 44.3073C152.928 45.3463 152.928 47.0307 153.967 48.071L161.906 56.0619L165.659 52.5506L159.611 46.1895L165.713 40.0874Z" fill="#4285F4"/>
<path d="M173.719 44.3692L165.727 36.3769C164.687 35.3366 163 35.3366 161.96 36.3769C160.92 37.4172 160.92 39.1043 161.96 40.1446L169.952 48.1362C170.992 49.1765 172.679 49.1765 173.719 48.1362C174.759 47.0965 174.759 45.4095 173.719 44.3692Z" fill="#8AB4F8"/>
<path d="M163.783 56.9097C165.221 56.9097 166.387 55.7442 166.387 54.3062C166.387 52.8683 165.221 51.7028 163.783 51.7028C162.345 51.7028 161.18 52.8683 161.18 54.3062C161.18 55.7442 162.345 56.9097 163.783 56.9097Z" fill="#246FDB"/>
<path d="M131.148 66.7527C131.148 68.3312 129.918 69.4941 128.408 69.4941C126.898 69.4941 125.668 68.3312 125.668 66.7527C125.668 65.163 126.898 64.0107 128.408 64.0107C129.918 64.0107 131.148 65.163 131.148 66.7527ZM129.948 66.7527C129.948 65.7664 129.235 65.091 128.408 65.091C127.58 65.091 126.867 65.7664 126.867 66.7527C126.867 67.7291 127.58 68.4138 128.408 68.4138C129.235 68.4138 129.948 67.7278 129.948 66.7527Z" fill="#333333"/>
<path d="M137.058 66.7527C137.058 68.3312 135.828 69.4941 134.318 69.4941C132.808 69.4941 131.578 68.3312 131.578 66.7527C131.578 65.1643 132.808 64.0107 134.318 64.0107C135.828 64.0107 137.058 65.163 137.058 66.7527ZM135.858 66.7527C135.858 65.7664 135.146 65.091 134.318 65.091C133.49 65.091 132.777 65.7664 132.777 66.7527C132.777 67.7291 133.49 68.4138 134.318 68.4138C135.146 68.4138 135.858 67.7278 135.858 66.7527Z" fill="#333333"/>
<path d="M142.722 64.1766V69.0985C142.722 71.1232 141.533 71.9504 140.126 71.9504C138.803 71.9504 138.006 71.0612 137.706 70.3346L138.75 69.8984C138.936 70.3446 139.391 70.8714 140.125 70.8714C141.025 70.8714 141.583 70.314 141.583 69.2643V68.87H141.541C141.273 69.2024 140.756 69.4928 140.103 69.4928C138.737 69.4928 137.486 68.2993 137.486 66.7627C137.486 65.2149 138.737 64.0107 140.103 64.0107C140.754 64.0107 141.272 64.3018 141.541 64.6242H141.583V64.1779H142.722V64.1766ZM141.668 66.7627C141.668 65.797 141.027 65.091 140.21 65.091C139.383 65.091 138.689 65.797 138.689 66.7627C138.689 67.7178 139.383 68.4138 140.21 68.4138C141.027 68.4138 141.668 67.7178 141.668 66.7627Z" fill="#333333"/>
<path d="M144.6 61.2914V69.3263H143.43V61.2914H144.6Z" fill="#333333"/>
<path d="M149.159 67.6553L150.089 68.278C149.789 68.7242 149.065 69.4928 147.814 69.4928C146.262 69.4928 145.104 68.2893 145.104 66.7515C145.104 65.1211 146.272 64.0101 147.68 64.0101C149.097 64.0101 149.79 65.1424 150.017 65.7538L150.141 66.0655L146.49 67.5833C146.77 68.1335 147.204 68.4139 147.814 68.4139C148.425 68.4139 148.848 68.1122 149.159 67.6553ZM146.293 66.6689L148.734 65.6512C148.599 65.3089 148.196 65.0704 147.72 65.0704C147.111 65.0704 146.262 65.6106 146.293 66.6689Z" fill="#333333"/>
<path d="M121.239 66.0394V64.8766H125.144C125.182 65.079 125.201 65.3188 125.201 65.5785C125.201 66.451 124.964 67.53 124.198 68.2992C123.453 69.0778 122.501 69.4927 121.24 69.4927C118.903 69.4927 116.938 67.5819 116.938 65.2362C116.938 62.8898 118.903 60.979 121.24 60.979C122.533 60.979 123.454 61.4885 124.146 62.1519L123.328 62.9724C122.832 62.5055 122.16 62.1419 121.239 62.1419C119.532 62.1419 118.197 63.5225 118.197 65.2362C118.197 66.9492 119.532 68.3299 121.239 68.3299C122.346 68.3299 122.976 67.8836 123.38 67.478C123.708 67.1497 123.923 66.6795 124.008 66.0381L121.239 66.0394Z" fill="#333333"/>
<path d="M152.016 61.2668H157.131V62.2579H155.063V68.9713H154.03V62.2579H152.016V61.2668ZM158.576 69.0779C158.164 69.0779 157.787 68.9893 157.446 68.8115C157.113 68.6337 156.846 68.3746 156.647 68.0336C156.455 67.6853 156.359 67.263 156.359 66.7655C156.359 66.2753 156.463 65.8524 156.669 65.4974C156.875 65.1351 157.148 64.858 157.489 64.6662C157.837 64.4744 158.217 64.3785 158.629 64.3785C159.041 64.3785 159.389 64.4744 159.674 64.6662C159.958 64.8507 160.174 65.0711 160.324 65.3269L160.26 65.4974L160.356 64.5596H161.272V68.9713H160.281V67.8205L160.388 68.0762C160.359 68.1475 160.295 68.2394 160.196 68.3533C160.103 68.4599 159.975 68.5697 159.812 68.6836C159.656 68.7975 159.475 68.8934 159.269 68.9713C159.063 69.0426 158.832 69.0779 158.576 69.0779ZM158.842 68.2574C159.091 68.2574 159.315 68.2114 159.514 68.1188C159.713 68.0263 159.876 67.8984 160.004 67.7352C160.139 67.5647 160.231 67.3622 160.281 67.1278V66.2646C160.224 66.0515 160.125 65.867 159.983 65.7105C159.841 65.5473 159.67 65.4228 159.471 65.3375C159.272 65.245 159.052 65.199 158.81 65.199C158.548 65.199 158.306 65.2629 158.086 65.3908C157.866 65.5187 157.688 65.6965 157.553 65.9236C157.425 66.1508 157.361 66.4172 157.361 66.7229C157.361 67.0072 157.429 67.2663 157.564 67.5008C157.699 67.7352 157.88 67.9197 158.107 68.0549C158.334 68.1901 158.58 68.2574 158.842 68.2574ZM164.468 71.1559C164.141 71.1559 163.854 71.1166 163.605 71.0387C163.356 70.9674 163.129 70.8648 162.923 70.7296C162.724 70.5944 162.532 70.4419 162.348 70.2714L162.923 69.6001C163.158 69.8205 163.396 69.991 163.637 70.1116C163.879 70.2321 164.149 70.2927 164.447 70.2927C164.781 70.2927 165.061 70.2361 165.289 70.1222C165.523 70.0157 165.701 69.8631 165.822 69.664C165.942 69.4722 166.003 69.2484 166.003 68.9927L166.013 67.7992L166.099 67.991C165.971 68.2967 165.74 68.5558 165.406 68.7689C165.072 68.9747 164.667 69.0779 164.191 69.0779C163.786 69.0779 163.413 68.9747 163.072 68.7689C162.738 68.5631 162.468 68.286 162.262 67.9377C162.063 67.5827 161.964 67.1844 161.964 66.7442C161.964 66.2826 162.071 65.8777 162.284 65.5294C162.497 65.1744 162.777 64.8933 163.126 64.6875C163.474 64.4817 163.854 64.3785 164.266 64.3785C164.657 64.3785 165.012 64.4604 165.331 64.6236C165.658 64.7801 165.896 64.9826 166.045 65.231L165.992 65.4121L166.099 64.5596H167.004V69.0033C167.004 69.4009 166.901 69.7632 166.695 70.0902C166.489 70.4173 166.198 70.6764 165.822 70.8682C165.445 71.06 164.994 71.1559 164.468 71.1559ZM162.955 66.7229C162.955 67.0072 163.023 67.2663 163.158 67.5008C163.293 67.7352 163.474 67.9197 163.701 68.0549C163.935 68.1901 164.195 68.2574 164.479 68.2574C164.742 68.2574 164.976 68.2114 165.182 68.1188C165.395 68.0196 165.573 67.8877 165.715 67.7246C165.857 67.5541 165.957 67.3589 166.013 67.1385V66.2646C165.949 66.0515 165.843 65.867 165.694 65.7105C165.545 65.5473 165.367 65.4228 165.161 65.3375C164.955 65.245 164.728 65.199 164.479 65.199C164.195 65.199 163.935 65.2629 163.701 65.3908C163.474 65.5187 163.293 65.6999 163.158 65.9343C163.023 66.1614 162.955 66.4245 162.955 66.7229ZM171.055 68.9713V61.0217H171.065L175.104 66.7548L174.667 66.6696L178.695 61.0217H178.716V68.9713H177.693V63.3661L177.757 63.8883L174.848 68.0016H174.827L171.875 63.8883L172.056 63.4088V68.9713H171.055ZM181.879 69.0779C181.466 69.0779 181.09 68.9893 180.749 68.8115C180.415 68.6337 180.149 68.3746 179.95 68.0336C179.758 67.6853 179.662 67.263 179.662 66.7655C179.662 66.2753 179.765 65.8524 179.971 65.4974C180.177 65.1351 180.451 64.858 180.792 64.6662C181.14 64.4744 181.52 64.3785 181.932 64.3785C182.344 64.3785 182.692 64.4744 182.976 64.6662C183.261 64.8507 183.477 65.0711 183.626 65.3269L183.562 65.4974L183.658 64.5596H184.575V68.9713H183.584V67.8205L183.69 68.0762C183.662 68.1475 183.598 68.2394 183.498 68.3533C183.406 68.4599 183.278 68.5697 183.115 68.6836C182.958 68.7975 182.777 68.8934 182.571 68.9713C182.366 69.0426 182.134 69.0779 181.879 69.0779ZM182.145 68.2574C182.394 68.2574 182.617 68.2114 182.816 68.1188C183.016 68.0263 183.179 67.8984 183.307 67.7352C183.442 67.5647 183.534 67.3622 183.584 67.1278V66.2646C183.527 66.0515 183.427 65.867 183.285 65.7105C183.144 65.5473 182.973 65.4228 182.774 65.3375C182.575 65.245 182.355 65.199 182.113 65.199C181.85 65.199 181.609 65.2629 181.389 65.3908C181.168 65.5187 180.991 65.6965 180.856 65.9236C180.728 66.1508 180.664 66.4172 180.664 66.7229C180.664 67.0072 180.731 67.2663 180.866 67.5008C181.002 67.7352 181.183 67.9197 181.41 68.0549C181.637 68.1901 181.882 68.2574 182.145 68.2574ZM186.535 64.5596L186.62 65.6359L186.578 65.4654C186.719 65.1384 186.95 64.8793 187.27 64.6875C187.59 64.4884 187.959 64.3891 188.378 64.3891C188.797 64.3891 189.138 64.5137 189.401 64.7621C189.671 65.0039 189.81 65.3196 189.817 65.7105V68.9713H188.815V66.0622C188.808 65.8204 188.737 65.6253 188.602 65.4761C188.474 65.3196 188.272 65.2416 187.995 65.2416C187.739 65.2416 187.508 65.3129 187.302 65.4548C187.096 65.5966 186.932 65.7924 186.812 66.0409C186.698 66.2893 186.641 66.577 186.641 66.904V68.9713H185.65V64.5596H186.535ZM192.734 69.0779C192.322 69.0779 191.946 68.9893 191.605 68.8115C191.27 68.6337 191.004 68.3746 190.805 68.0336C190.614 67.6853 190.518 67.263 190.518 66.7655C190.518 66.2753 190.62 65.8524 190.827 65.4974C191.033 65.1351 191.306 64.858 191.647 64.6662C191.995 64.4744 192.375 64.3785 192.787 64.3785C193.199 64.3785 193.547 64.4744 193.832 64.6662C194.116 64.8507 194.333 65.0711 194.482 65.3269L194.418 65.4974L194.514 64.5596H195.43V68.9713H194.439V67.8205L194.546 68.0762C194.517 68.1475 194.453 68.2394 194.354 68.3533C194.261 68.4599 194.133 68.5697 193.97 68.6836C193.814 68.7975 193.633 68.8934 193.427 68.9713C193.22 69.0426 192.99 69.0779 192.734 69.0779ZM193.001 68.2574C193.249 68.2574 193.473 68.2114 193.672 68.1188C193.87 68.0263 194.034 67.8984 194.162 67.7352C194.297 67.5647 194.389 67.3622 194.439 67.1278V66.2646C194.382 66.0515 194.283 65.867 194.141 65.7105C193.998 65.5473 193.828 65.4228 193.629 65.3375C193.43 65.245 193.21 65.199 192.969 65.199C192.706 65.199 192.464 65.2629 192.244 65.3908C192.024 65.5187 191.846 65.6965 191.711 65.9236C191.583 66.1508 191.519 66.4172 191.519 66.7229C191.519 67.0072 191.587 67.2663 191.722 67.5008C191.856 67.7352 192.038 67.9197 192.265 68.0549C192.492 68.1901 192.738 68.2574 193.001 68.2574ZM198.626 71.1559C198.299 71.1559 198.012 71.1166 197.763 71.0387C197.514 70.9674 197.287 70.8648 197.081 70.7296C196.882 70.5944 196.69 70.4419 196.506 70.2714L197.081 69.6001C197.316 69.8205 197.554 69.991 197.795 70.1116C198.036 70.2321 198.307 70.2927 198.605 70.2927C198.939 70.2927 199.219 70.2361 199.447 70.1222C199.681 70.0157 199.859 69.8631 199.98 69.664C200.1 69.4722 200.161 69.2484 200.161 68.9927L200.172 67.7992L200.257 67.991C200.129 68.2967 199.898 68.5558 199.564 68.7689C199.23 68.9747 198.825 69.0779 198.349 69.0779C197.944 69.0779 197.571 68.9747 197.23 68.7689C196.896 68.5631 196.626 68.286 196.421 67.9377C196.221 67.5827 196.122 67.1844 196.122 66.7442C196.122 66.2826 196.229 65.8777 196.442 65.5294C196.655 65.1744 196.935 64.8933 197.284 64.6875C197.631 64.4817 198.012 64.3785 198.424 64.3785C198.814 64.3785 199.17 64.4604 199.49 64.6236C199.816 64.7801 200.054 64.9826 200.204 65.231L200.15 65.4121L200.257 64.5596H201.163V69.0033C201.163 69.4009 201.059 69.7632 200.854 70.0902C200.647 70.4173 200.356 70.6764 199.98 70.8682C199.603 71.06 199.152 71.1559 198.626 71.1559ZM197.113 66.7229C197.113 67.0072 197.181 67.2663 197.316 67.5008C197.45 67.7352 197.631 67.9197 197.859 68.0549C198.094 68.1901 198.353 68.2574 198.637 68.2574C198.9 68.2574 199.134 68.2114 199.34 68.1188C199.554 68.0196 199.731 67.8877 199.873 67.7246C200.015 67.5541 200.114 67.3589 200.172 67.1385V66.2646C200.108 66.0515 200.001 65.867 199.852 65.7105C199.703 65.5473 199.525 65.4228 199.319 65.3375C199.113 65.245 198.886 65.199 198.637 65.199C198.353 65.199 198.094 65.2629 197.859 65.3908C197.631 65.5187 197.45 65.6999 197.316 65.9343C197.181 66.1614 197.113 66.4245 197.113 66.7229ZM204.281 69.0779C203.777 69.0779 203.343 68.9787 202.981 68.7795C202.619 68.5737 202.338 68.2967 202.139 67.9483C201.947 67.5934 201.851 67.1884 201.851 66.7335C201.851 66.2999 201.962 65.9057 202.182 65.5507C202.402 65.1957 202.697 64.9113 203.066 64.6982C203.436 64.485 203.848 64.3785 204.302 64.3785C204.885 64.3785 205.368 64.549 205.752 64.89C206.135 65.231 206.395 65.6999 206.529 66.2966L202.896 67.5754L202.661 66.9893L205.645 65.9023L205.432 66.0409C205.347 65.8064 205.205 65.604 205.006 65.4335C204.807 65.2556 204.547 65.167 204.228 65.167C203.958 65.167 203.716 65.2343 203.503 65.3695C203.29 65.4974 203.123 65.6752 203.002 65.9023C202.882 66.1294 202.821 66.3892 202.821 66.6802C202.821 66.9859 202.885 67.2557 203.013 67.4901C203.141 67.7172 203.315 67.8984 203.535 68.0336C203.763 68.1615 204.019 68.2254 204.302 68.2254C204.494 68.2254 204.679 68.1901 204.856 68.1188C205.042 68.0476 205.212 67.9557 205.368 67.8418L205.826 68.5771C205.606 68.7263 205.357 68.8468 205.08 68.9394C204.81 69.0319 204.544 69.0779 204.281 69.0779ZM208.017 64.5596L208.113 65.8384L208.059 65.6679C208.173 65.3982 208.336 65.1704 208.549 64.9859C208.769 64.7941 208.997 64.6482 209.231 64.549C209.473 64.4424 209.682 64.3891 209.86 64.3891L209.807 65.3695C209.473 65.3482 209.178 65.4121 208.922 65.5613C208.673 65.7105 208.475 65.9096 208.326 66.1581C208.183 66.4065 208.113 66.6729 208.113 66.9573V68.9713H207.132V64.5596H208.017Z" fill="#333333"/>
</g>
<path d="M200.807 0.99939H126.213C117.753 0.99939 110.895 7.85769 110.895 16.3178V90.912C110.895 99.3722 117.753 106.23 126.213 106.23H200.807C209.267 106.23 216.126 99.3722 216.126 90.912V16.3178C216.126 7.85769 209.267 0.99939 200.807 0.99939Z" stroke="#333333" stroke-width="2"/>
<path d="M162.176 114.222C164.015 114.222 165.506 112.731 165.506 110.892C165.506 109.053 164.015 107.562 162.176 107.562C160.337 107.562 158.846 109.053 158.846 110.892C158.846 112.731 160.337 114.222 162.176 114.222Z" fill="#FFFEF2"/>
<path d="M162.176 114.222C164.015 114.222 165.506 112.731 165.506 110.892C165.506 109.053 164.015 107.562 162.176 107.562C160.337 107.562 158.846 109.053 158.846 110.892C158.846 112.731 160.337 114.222 162.176 114.222Z" stroke="#333333" stroke-width="2"/>
</g>
<defs>
<filter id="filter0_d_1322_5734" x="101.895" y="175.825" width="123.23" height="123.231" filterUnits="userSpaceOnUse" color-interpolation-filters="sRGB">
<feFlood flood-opacity="0" result="BackgroundImageFix"/>
<feColorMatrix in="SourceAlpha" type="matrix" values="0 0 0 0 0 0 0 0 0 0 0 0 0 0 0 0 0 0 127 0" result="hardAlpha"/>
<feOffset dy="4"/>
<feGaussianBlur stdDeviation="4"/>
<feComposite in2="hardAlpha" operator="out"/>
<feColorMatrix type="matrix" values="0 0 0 0 0 0 0 0 0 0 0 0 0 0 0 0 0 0 0.25 0"/>
<feBlend mode="normal" in2="BackgroundImageFix" result="effect1_dropShadow_1322_5734"/>
<feBlend mode="normal" in="SourceGraphic" in2="effect1_dropShadow_1322_5734" result="shape"/>
</filter>
<linearGradient id="paint0_linear_1322_5734" x1="45.5249" y1="459.179" x2="63.7611" y2="460.194" gradientUnits="userSpaceOnUse">
<stop stop-color="#0064E1"/>
<stop offset="0.4" stop-color="#0064E1"/>
<stop offset="0.83" stop-color="#0073EE"/>
<stop offset="1" stop-color="#0082FB"/>
</linearGradient>
<linearGradient id="paint1_linear_1322_5734" x1="47.2945" y1="459.179" x2="63.9869" y2="460.028" gradientUnits="userSpaceOnUse">
<stop stop-color="#0064E1"/>
<stop offset="0.4" stop-color="#0064E1"/>
<stop offset="0.83" stop-color="#0073EE"/>
<stop offset="1" stop-color="#0082FB"/>
</linearGradient>
<linearGradient id="paint2_linear_1322_5734" x1="43.1292" y1="457.996" x2="48.3981" y2="458.092" gradientUnits="userSpaceOnUse">
<stop stop-color="#0064E1"/>
<stop offset="0.4" stop-color="#0064E1"/>
<stop offset="0.83" stop-color="#0073EE"/>
<stop offset="1" stop-color="#0082FB"/>
</linearGradient>
<radialGradient id="paint3_radial_1322_5734" cx="0" cy="0" r="1" gradientUnits="userSpaceOnUse" gradientTransform="translate(163.843 233.44) rotate(90) scale(216.123)">
<stop stop-color="#93FFD2"/>
<stop offset="1" stop-color="#FFFEF2"/>
</radialGradient>
<clipPath id="clip0_1322_5734">
<rect width="653" height="345" fill="white" transform="translate(345) rotate(90)"/>
</clipPath>
</defs>
</svg>
