<svg xmlns="http://www.w3.org/2000/svg" width="24" height="24" viewBox="0 0 24 24">
  <g id="Icon_ionic-ios-mail" data-name="Icon ionic-ios-mail" transform="translate(2 5)">
    <rect id="Rectangle_4788" data-name="Rectangle 4788" width="24" height="24" transform="translate(-2 -5)" fill="none"/>
    <path id="Path_11161" data-name="Path 11161" d="M23.338,10.344l-5.206,5.3a.094.094,0,0,0,0,.135l3.643,3.88a.628.628,0,0,1,0,.89.631.631,0,0,1-.89,0l-3.629-3.866a.1.1,0,0,0-.14,0l-.885.9a3.9,3.9,0,0,1-2.777,1.171,3.974,3.974,0,0,1-2.835-1.2l-.852-.866a.1.1,0,0,0-.14,0L6,20.552a.631.631,0,0,1-.89,0,.628.628,0,0,1,0-.89l3.643-3.88a.1.1,0,0,0,0-.135l-5.211-5.3a.1.1,0,0,0-.165.068v10.61A1.553,1.553,0,0,0,4.923,22.57H21.954A1.553,1.553,0,0,0,23.5,21.022V10.411A.1.1,0,0,0,23.338,10.344Z" transform="translate(-3.375 -8.636)" fill="#f7f9fa"/>
    <path id="Path_11162" data-name="Path 11162" d="M13.7,16.734A2.63,2.63,0,0,0,15.6,15.94l7.591-7.727a1.521,1.521,0,0,0-.958-.339H5.184a1.511,1.511,0,0,0-.958.339l7.591,7.727A2.631,2.631,0,0,0,13.7,16.734Z" transform="translate(-3.64 -7.875)" fill="#f7f9fa"/>
  </g>
</svg>
