<svg id="Icon_awesome-phone-alt" data-name="Icon awesome-phone-alt" xmlns="http://www.w3.org/2000/svg" width="24" height="24" viewBox="0 0 24 24">
  <rect id="Rectangle_4788" data-name="Rectangle 4788" width="24" height="24" fill="none"/>
  <path id="Icon_awesome-phone-alt-2" data-name="Icon awesome-phone-alt" d="M16.262,11.829,12.6,10.26a.785.785,0,0,0-.915.226l-1.622,1.981A12.118,12.118,0,0,1,4.27,6.673L6.251,5.052a.783.783,0,0,0,.226-.915L4.907.475a.79.79,0,0,0-.9-.454L.608.8A.785.785,0,0,0,0,1.57,15.168,15.168,0,0,0,15.17,16.74a.785.785,0,0,0,.765-.608l.785-3.4a.794.794,0,0,0-.458-.9Z" transform="translate(3.63 4)" fill="#f7f9fa"/>
</svg>
