<svg width="500" height="300" viewBox="0 0 500 300" fill="none" xmlns="http://www.w3.org/2000/svg">
<rect y="8" width="492" height="280" rx="8" fill="black"/>
<g clip-path="url(#clip0_1274_4403)">
<rect x="8" width="492" height="280" rx="8" fill="white"/>
<g clip-path="url(#clip1_1274_4403)">
<rect width="375" height="1762" transform="translate(66 -120)" fill="white"/>
<path d="M92.2727 73H84.0227V49.7273H92.3409C94.6818 49.7273 96.697 50.1932 98.3864 51.125C100.076 52.0492 101.375 53.3788 102.284 55.1136C103.201 56.8485 103.659 58.9242 103.659 61.3409C103.659 63.7652 103.201 65.8485 102.284 67.5909C101.375 69.3333 100.068 70.6705 98.3636 71.6023C96.6667 72.5341 94.6364 73 92.2727 73ZM88.9432 68.7841H92.0682C93.5227 68.7841 94.7462 68.5265 95.7386 68.0114C96.7386 67.4886 97.4886 66.6818 97.9886 65.5909C98.4962 64.4924 98.75 63.0758 98.75 61.3409C98.75 59.6212 98.4962 58.2159 97.9886 57.125C97.4886 56.0341 96.7424 55.2311 95.75 54.7159C94.7576 54.2008 93.5341 53.9432 92.0795 53.9432H88.9432V68.7841ZM112.19 73.3295C111.077 73.3295 110.084 73.1364 109.213 72.75C108.342 72.3561 107.652 71.7765 107.145 71.0114C106.645 70.2386 106.395 69.2765 106.395 68.125C106.395 67.1553 106.573 66.3409 106.929 65.6818C107.285 65.0227 107.77 64.4924 108.384 64.0909C108.997 63.6894 109.694 63.3864 110.474 63.1818C111.262 62.9773 112.088 62.8333 112.952 62.75C113.967 62.6439 114.785 62.5455 115.406 62.4545C116.027 62.3561 116.478 62.2121 116.759 62.0227C117.039 61.8333 117.179 61.553 117.179 61.1818V61.1136C117.179 60.3939 116.952 59.8371 116.497 59.4432C116.05 59.0492 115.414 58.8523 114.588 58.8523C113.717 58.8523 113.024 59.0455 112.509 59.4318C111.993 59.8106 111.652 60.2879 111.486 60.8636L107.009 60.5C107.236 59.4394 107.683 58.5227 108.349 57.75C109.016 56.9697 109.876 56.3712 110.929 55.9545C111.99 55.5303 113.217 55.3182 114.611 55.3182C115.58 55.3182 116.509 55.4318 117.395 55.6591C118.289 55.8864 119.08 56.2386 119.77 56.7159C120.467 57.1932 121.016 57.8068 121.418 58.5568C121.819 59.2992 122.02 60.1894 122.02 61.2273V73H117.429V70.5795H117.293C117.012 71.125 116.637 71.6061 116.168 72.0227C115.698 72.4318 115.134 72.7538 114.474 72.9886C113.815 73.2159 113.054 73.3295 112.19 73.3295ZM113.577 69.9886C114.289 69.9886 114.918 69.8485 115.463 69.5682C116.009 69.2803 116.437 68.8939 116.747 68.4091C117.058 67.9242 117.213 67.375 117.213 66.7614V64.9091C117.062 65.0076 116.853 65.0985 116.588 65.1818C116.33 65.2576 116.039 65.3295 115.713 65.3977C115.387 65.4583 115.062 65.5152 114.736 65.5682C114.41 65.6136 114.115 65.6553 113.849 65.6932C113.281 65.7765 112.785 65.9091 112.361 66.0909C111.937 66.2727 111.607 66.5189 111.372 66.8295C111.137 67.1326 111.02 67.5114 111.02 67.9659C111.02 68.625 111.259 69.1288 111.736 69.4773C112.221 69.8182 112.834 69.9886 113.577 69.9886ZM125.776 73V55.5455H130.616V73H125.776ZM128.207 53.2955C127.488 53.2955 126.87 53.0568 126.355 52.5795C125.848 52.0947 125.594 51.5152 125.594 50.8409C125.594 50.1742 125.848 49.6023 126.355 49.125C126.87 48.6402 127.488 48.3977 128.207 48.3977C128.927 48.3977 129.541 48.6402 130.048 49.125C130.563 49.6023 130.821 50.1742 130.821 50.8409C130.821 51.5152 130.563 52.0947 130.048 52.5795C129.541 53.0568 128.927 53.2955 128.207 53.2955ZM139.335 49.7273V73H134.494V49.7273H139.335ZM146.202 79.5455C145.588 79.5455 145.012 79.4962 144.474 79.3977C143.944 79.3068 143.505 79.1894 143.156 79.0455L144.247 75.4318C144.815 75.6061 145.327 75.7008 145.781 75.7159C146.243 75.7311 146.641 75.625 146.974 75.3977C147.315 75.1705 147.592 74.7841 147.804 74.2386L148.088 73.5L141.827 55.5455H146.918L150.531 68.3636H150.713L154.361 55.5455H159.486L152.702 74.8864C152.376 75.8258 151.933 76.6439 151.372 77.3409C150.819 78.0455 150.118 78.5871 149.27 78.9659C148.421 79.3523 147.399 79.5455 146.202 79.5455ZM183.892 60.5227L179.46 60.7955C179.384 60.4167 179.222 60.0758 178.972 59.7727C178.722 59.4621 178.392 59.2159 177.983 59.0341C177.581 58.8447 177.1 58.75 176.54 58.75C175.79 58.75 175.157 58.9091 174.642 59.2273C174.127 59.5379 173.869 59.9545 173.869 60.4773C173.869 60.8939 174.036 61.2462 174.369 61.5341C174.703 61.822 175.275 62.053 176.085 62.2273L179.244 62.8636C180.941 63.2121 182.206 63.7727 183.04 64.5455C183.873 65.3182 184.29 66.3333 184.29 67.5909C184.29 68.7348 183.953 69.7386 183.278 70.6023C182.612 71.4659 181.695 72.1402 180.528 72.625C179.369 73.1023 178.032 73.3409 176.517 73.3409C174.206 73.3409 172.366 72.8598 170.994 71.8977C169.631 70.928 168.831 69.6098 168.597 67.9432L173.358 67.6932C173.502 68.3977 173.85 68.9356 174.403 69.3068C174.956 69.6705 175.665 69.8523 176.528 69.8523C177.377 69.8523 178.059 69.6894 178.574 69.3636C179.097 69.0303 179.362 68.6023 179.369 68.0795C179.362 67.6402 179.176 67.2803 178.812 67C178.449 66.7121 177.888 66.4924 177.131 66.3409L174.108 65.7386C172.403 65.3977 171.134 64.8068 170.301 63.9659C169.475 63.125 169.062 62.053 169.062 60.75C169.062 59.6288 169.366 58.6629 169.972 57.8523C170.585 57.0417 171.445 56.4167 172.551 55.9773C173.665 55.5379 174.968 55.3182 176.46 55.3182C178.665 55.3182 180.4 55.7841 181.665 56.7159C182.938 57.6477 183.68 58.9167 183.892 60.5227ZM198.531 65.5682V55.5455H203.372V73H198.724V69.8295H198.543C198.149 70.8523 197.493 71.6742 196.577 72.2955C195.668 72.9167 194.558 73.2273 193.247 73.2273C192.08 73.2273 191.054 72.9621 190.168 72.4318C189.281 71.9015 188.588 71.1477 188.088 70.1705C187.596 69.1932 187.346 68.0227 187.338 66.6591V55.5455H192.179V65.7955C192.187 66.8258 192.463 67.6402 193.009 68.2386C193.554 68.8371 194.285 69.1364 195.202 69.1364C195.785 69.1364 196.33 69.0038 196.838 68.7386C197.346 68.4659 197.755 68.0644 198.065 67.5341C198.384 67.0038 198.539 66.3485 198.531 65.5682ZM207.244 73V55.5455H211.858V58.625H212.062C212.426 57.6023 213.032 56.7955 213.881 56.2045C214.729 55.6136 215.744 55.3182 216.926 55.3182C218.123 55.3182 219.142 55.6174 219.983 56.2159C220.824 56.8068 221.384 57.6098 221.665 58.625H221.847C222.203 57.625 222.847 56.8258 223.778 56.2273C224.718 55.6212 225.828 55.3182 227.108 55.3182C228.737 55.3182 230.059 55.8371 231.074 56.875C232.097 57.9053 232.608 59.3674 232.608 61.2614V73H227.778V62.2159C227.778 61.2462 227.521 60.5189 227.006 60.0341C226.491 59.5492 225.847 59.3068 225.074 59.3068C224.195 59.3068 223.509 59.5871 223.017 60.1477C222.525 60.7008 222.278 61.4318 222.278 62.3409V73H217.585V62.1136C217.585 61.2576 217.339 60.5758 216.847 60.0682C216.362 59.5606 215.722 59.3068 214.926 59.3068C214.388 59.3068 213.903 59.4432 213.472 59.7159C213.047 59.9811 212.71 60.3561 212.46 60.8409C212.21 61.3182 212.085 61.8788 212.085 62.5227V73H207.244ZM236.432 73V55.5455H241.045V58.625H241.25C241.614 57.6023 242.22 56.7955 243.068 56.2045C243.917 55.6136 244.932 55.3182 246.114 55.3182C247.311 55.3182 248.33 55.6174 249.17 56.2159C250.011 56.8068 250.572 57.6098 250.852 58.625H251.034C251.39 57.625 252.034 56.8258 252.966 56.2273C253.905 55.6212 255.015 55.3182 256.295 55.3182C257.924 55.3182 259.246 55.8371 260.261 56.875C261.284 57.9053 261.795 59.3674 261.795 61.2614V73H256.966V62.2159C256.966 61.2462 256.708 60.5189 256.193 60.0341C255.678 59.5492 255.034 59.3068 254.261 59.3068C253.383 59.3068 252.697 59.5871 252.205 60.1477C251.712 60.7008 251.466 61.4318 251.466 62.3409V73H246.773V62.1136C246.773 61.2576 246.527 60.5758 246.034 60.0682C245.549 59.5606 244.909 59.3068 244.114 59.3068C243.576 59.3068 243.091 59.4432 242.659 59.7159C242.235 59.9811 241.898 60.3561 241.648 60.8409C241.398 61.3182 241.273 61.8788 241.273 62.5227V73H236.432ZM270.597 73.3295C269.483 73.3295 268.491 73.1364 267.619 72.75C266.748 72.3561 266.059 71.7765 265.551 71.0114C265.051 70.2386 264.801 69.2765 264.801 68.125C264.801 67.1553 264.979 66.3409 265.335 65.6818C265.691 65.0227 266.176 64.4924 266.79 64.0909C267.403 63.6894 268.1 63.3864 268.881 63.1818C269.669 62.9773 270.494 62.8333 271.358 62.75C272.373 62.6439 273.191 62.5455 273.812 62.4545C274.434 62.3561 274.884 62.2121 275.165 62.0227C275.445 61.8333 275.585 61.553 275.585 61.1818V61.1136C275.585 60.3939 275.358 59.8371 274.903 59.4432C274.456 59.0492 273.82 58.8523 272.994 58.8523C272.123 58.8523 271.43 59.0455 270.915 59.4318C270.4 59.8106 270.059 60.2879 269.892 60.8636L265.415 60.5C265.642 59.4394 266.089 58.5227 266.756 57.75C267.422 56.9697 268.282 56.3712 269.335 55.9545C270.396 55.5303 271.623 55.3182 273.017 55.3182C273.987 55.3182 274.915 55.4318 275.801 55.6591C276.695 55.8864 277.487 56.2386 278.176 56.7159C278.873 57.1932 279.422 57.8068 279.824 58.5568C280.225 59.2992 280.426 60.1894 280.426 61.2273V73H275.835V70.5795H275.699C275.419 71.125 275.044 71.6061 274.574 72.0227C274.104 72.4318 273.54 72.7538 272.881 72.9886C272.222 73.2159 271.46 73.3295 270.597 73.3295ZM271.983 69.9886C272.695 69.9886 273.324 69.8485 273.869 69.5682C274.415 69.2803 274.843 68.8939 275.153 68.4091C275.464 67.9242 275.619 67.375 275.619 66.7614V64.9091C275.468 65.0076 275.259 65.0985 274.994 65.1818C274.737 65.2576 274.445 65.3295 274.119 65.3977C273.794 65.4583 273.468 65.5152 273.142 65.5682C272.816 65.6136 272.521 65.6553 272.256 65.6932C271.688 65.7765 271.191 65.9091 270.767 66.0909C270.343 66.2727 270.013 66.5189 269.778 66.8295C269.544 67.1326 269.426 67.5114 269.426 67.9659C269.426 68.625 269.665 69.1288 270.142 69.4773C270.627 69.8182 271.241 69.9886 271.983 69.9886ZM284.182 73V55.5455H288.875V58.5909H289.057C289.375 57.5076 289.909 56.6894 290.659 56.1364C291.409 55.5758 292.273 55.2955 293.25 55.2955C293.492 55.2955 293.754 55.3106 294.034 55.3409C294.314 55.3712 294.561 55.4129 294.773 55.4659V59.7614C294.545 59.6932 294.231 59.6326 293.83 59.5795C293.428 59.5265 293.061 59.5 292.727 59.5C292.015 59.5 291.379 59.6553 290.818 59.9659C290.265 60.2689 289.826 60.6932 289.5 61.2386C289.182 61.7841 289.023 62.4129 289.023 63.125V73H284.182ZM300.795 79.5455C300.182 79.5455 299.606 79.4962 299.068 79.3977C298.538 79.3068 298.098 79.1894 297.75 79.0455L298.841 75.4318C299.409 75.6061 299.92 75.7008 300.375 75.7159C300.837 75.7311 301.235 75.625 301.568 75.3977C301.909 75.1705 302.186 74.7841 302.398 74.2386L302.682 73.5L296.42 55.5455H301.511L305.125 68.3636H305.307L308.955 55.5455H314.08L307.295 74.8864C306.97 75.8258 306.527 76.6439 305.966 77.3409C305.413 78.0455 304.712 78.5871 303.864 78.9659C303.015 79.3523 301.992 79.5455 300.795 79.5455Z" fill="#333333"/>
<path d="M82.4602 109.909H84.2756L87.9062 116.02H88.0597L91.6903 109.909H93.5057L88.7756 117.605V123H87.1903V117.605L82.4602 109.909ZM98.0792 123.205C97.1332 123.205 96.3171 122.996 95.631 122.578C94.9492 122.156 94.4229 121.568 94.0522 120.814C93.6857 120.055 93.5025 119.173 93.5025 118.168C93.5025 117.162 93.6857 116.276 94.0522 115.509C94.4229 114.737 94.9386 114.136 95.5991 113.706C96.2638 113.271 97.0394 113.054 97.9258 113.054C98.4371 113.054 98.9421 113.139 99.4407 113.31C99.9393 113.48 100.393 113.757 100.802 114.141C101.211 114.52 101.537 115.023 101.78 115.649C102.023 116.276 102.145 117.047 102.145 117.963V118.602H94.5763V117.298H100.61C100.61 116.744 100.5 116.25 100.278 115.815C100.061 115.381 99.7496 115.038 99.3448 114.786C98.9442 114.535 98.4712 114.409 97.9258 114.409C97.3249 114.409 96.805 114.558 96.3661 114.857C95.9315 115.151 95.5969 115.534 95.3626 116.007C95.1282 116.48 95.011 116.987 95.011 117.528V118.398C95.011 119.139 95.1388 119.768 95.3945 120.283C95.6545 120.795 96.0146 121.185 96.4748 121.453C96.935 121.717 97.4698 121.849 98.0792 121.849C98.4755 121.849 98.8335 121.794 99.1531 121.683C99.4769 121.568 99.756 121.398 99.9904 121.172C100.225 120.942 100.406 120.656 100.534 120.315L101.991 120.724C101.838 121.219 101.58 121.653 101.218 122.028C100.855 122.399 100.408 122.689 99.8754 122.898C99.3427 123.102 98.744 123.205 98.0792 123.205ZM111.394 115.381L110.039 115.764C109.953 115.538 109.828 115.319 109.662 115.106C109.5 114.888 109.278 114.71 108.997 114.569C108.716 114.428 108.355 114.358 107.917 114.358C107.316 114.358 106.815 114.496 106.414 114.773C106.018 115.046 105.82 115.393 105.82 115.815C105.82 116.19 105.956 116.487 106.229 116.704C106.502 116.921 106.928 117.102 107.507 117.247L108.965 117.605C109.843 117.818 110.497 118.144 110.927 118.583C111.358 119.018 111.573 119.578 111.573 120.264C111.573 120.827 111.411 121.33 111.087 121.773C110.767 122.216 110.32 122.565 109.745 122.821C109.169 123.077 108.5 123.205 107.738 123.205C106.736 123.205 105.907 122.987 105.251 122.553C104.595 122.118 104.179 121.483 104.005 120.648L105.436 120.29C105.573 120.818 105.831 121.214 106.21 121.479C106.593 121.743 107.094 121.875 107.712 121.875C108.415 121.875 108.973 121.726 109.387 121.428C109.804 121.125 110.013 120.763 110.013 120.341C110.013 120 109.894 119.714 109.655 119.484C109.417 119.25 109.05 119.075 108.556 118.96L106.919 118.577C106.02 118.364 105.36 118.033 104.938 117.586C104.52 117.134 104.311 116.57 104.311 115.892C104.311 115.338 104.467 114.848 104.778 114.422C105.093 113.996 105.522 113.661 106.063 113.418C106.608 113.175 107.226 113.054 107.917 113.054C108.888 113.054 109.651 113.267 110.205 113.693C110.763 114.119 111.159 114.682 111.394 115.381ZM118.113 113.182V114.46H113.025V113.182H118.113ZM114.508 110.83H116.017V120.188C116.017 120.614 116.079 120.933 116.202 121.146C116.33 121.355 116.492 121.496 116.688 121.568C116.888 121.636 117.099 121.67 117.321 121.67C117.487 121.67 117.623 121.662 117.73 121.645C117.836 121.624 117.922 121.607 117.986 121.594L118.292 122.949C118.19 122.987 118.047 123.026 117.864 123.064C117.681 123.107 117.449 123.128 117.167 123.128C116.741 123.128 116.324 123.036 115.915 122.853C115.51 122.67 115.173 122.391 114.905 122.016C114.64 121.641 114.508 121.168 114.508 120.597V110.83ZM124.394 123.205C123.448 123.205 122.632 122.996 121.945 122.578C121.264 122.156 120.737 121.568 120.367 120.814C120 120.055 119.817 119.173 119.817 118.168C119.817 117.162 120 116.276 120.367 115.509C120.737 114.737 121.253 114.136 121.914 113.706C122.578 113.271 123.354 113.054 124.24 113.054C124.752 113.054 125.257 113.139 125.755 113.31C126.254 113.48 126.708 113.757 127.117 114.141C127.526 114.52 127.852 115.023 128.095 115.649C128.338 116.276 128.459 117.047 128.459 117.963V118.602H120.891V117.298H126.925C126.925 116.744 126.814 116.25 126.593 115.815C126.375 115.381 126.064 115.038 125.659 114.786C125.259 114.535 124.786 114.409 124.24 114.409C123.639 114.409 123.119 114.558 122.681 114.857C122.246 115.151 121.911 115.534 121.677 116.007C121.443 116.48 121.325 116.987 121.325 117.528V118.398C121.325 119.139 121.453 119.768 121.709 120.283C121.969 120.795 122.329 121.185 122.789 121.453C123.249 121.717 123.784 121.849 124.394 121.849C124.79 121.849 125.148 121.794 125.468 121.683C125.791 121.568 126.07 121.398 126.305 121.172C126.539 120.942 126.72 120.656 126.848 120.315L128.306 120.724C128.152 121.219 127.894 121.653 127.532 122.028C127.17 122.399 126.722 122.689 126.19 122.898C125.657 123.102 125.058 123.205 124.394 123.205ZM130.754 123V113.182H132.211V114.665H132.313C132.492 114.179 132.816 113.785 133.285 113.482C133.754 113.18 134.282 113.028 134.87 113.028C134.981 113.028 135.119 113.031 135.286 113.035C135.452 113.039 135.578 113.045 135.663 113.054V114.588C135.612 114.575 135.494 114.556 135.311 114.531C135.132 114.501 134.943 114.486 134.742 114.486C134.265 114.486 133.839 114.586 133.464 114.786C133.093 114.982 132.799 115.255 132.582 115.604C132.369 115.95 132.262 116.344 132.262 116.787V123H130.754ZM140.86 123.205C140.041 123.205 139.319 122.998 138.693 122.585C138.066 122.167 137.576 121.579 137.222 120.82C136.869 120.058 136.692 119.156 136.692 118.116C136.692 117.085 136.869 116.19 137.222 115.432C137.576 114.673 138.068 114.087 138.699 113.674C139.33 113.261 140.058 113.054 140.885 113.054C141.524 113.054 142.029 113.161 142.4 113.374C142.775 113.582 143.061 113.821 143.257 114.089C143.457 114.354 143.612 114.571 143.723 114.741H143.851V109.909H145.36V123H143.902V121.491H143.723C143.612 121.67 143.455 121.896 143.25 122.169C143.046 122.437 142.754 122.678 142.374 122.891C141.995 123.1 141.49 123.205 140.86 123.205ZM141.064 121.849C141.669 121.849 142.181 121.692 142.598 121.376C143.016 121.057 143.333 120.616 143.551 120.053C143.768 119.487 143.877 118.832 143.877 118.091C143.877 117.358 143.77 116.717 143.557 116.167C143.344 115.613 143.029 115.183 142.611 114.876C142.193 114.565 141.678 114.409 141.064 114.409C140.425 114.409 139.892 114.573 139.466 114.901C139.044 115.225 138.727 115.666 138.514 116.224C138.305 116.778 138.2 117.401 138.2 118.091C138.2 118.79 138.307 119.425 138.52 119.996C138.737 120.562 139.057 121.014 139.479 121.351C139.905 121.683 140.433 121.849 141.064 121.849ZM151.221 123.23C150.599 123.23 150.034 123.113 149.527 122.879C149.02 122.64 148.617 122.297 148.319 121.849C148.021 121.398 147.872 120.852 147.872 120.213C147.872 119.651 147.982 119.195 148.204 118.845C148.426 118.491 148.722 118.214 149.093 118.014C149.463 117.814 149.872 117.665 150.32 117.567C150.771 117.464 151.225 117.384 151.681 117.324C152.278 117.247 152.762 117.19 153.132 117.151C153.507 117.109 153.78 117.038 153.95 116.94C154.125 116.842 154.213 116.672 154.213 116.429V116.378C154.213 115.747 154.04 115.257 153.695 114.908C153.354 114.558 152.836 114.384 152.142 114.384C151.421 114.384 150.857 114.541 150.448 114.857C150.039 115.172 149.751 115.509 149.585 115.866L148.153 115.355C148.409 114.759 148.749 114.294 149.176 113.962C149.606 113.625 150.075 113.391 150.582 113.259C151.093 113.122 151.596 113.054 152.09 113.054C152.406 113.054 152.768 113.092 153.177 113.169C153.59 113.241 153.989 113.393 154.372 113.623C154.76 113.853 155.082 114.2 155.338 114.665C155.593 115.129 155.721 115.751 155.721 116.531V123H154.213V121.67H154.136C154.034 121.884 153.863 122.112 153.624 122.354C153.386 122.597 153.068 122.804 152.672 122.974C152.276 123.145 151.792 123.23 151.221 123.23ZM151.451 121.875C152.048 121.875 152.551 121.758 152.96 121.523C153.373 121.289 153.684 120.987 153.893 120.616C154.106 120.245 154.213 119.855 154.213 119.446V118.065C154.149 118.142 154.008 118.212 153.791 118.276C153.578 118.336 153.33 118.389 153.049 118.436C152.772 118.479 152.502 118.517 152.237 118.551C151.977 118.581 151.767 118.607 151.605 118.628C151.213 118.679 150.846 118.762 150.505 118.877C150.169 118.988 149.896 119.156 149.687 119.382C149.482 119.604 149.38 119.906 149.38 120.29C149.38 120.814 149.574 121.21 149.962 121.479C150.354 121.743 150.85 121.875 151.451 121.875ZM159.094 126.682C158.839 126.682 158.611 126.661 158.411 126.618C158.21 126.58 158.072 126.541 157.995 126.503L158.379 125.173C158.745 125.267 159.069 125.301 159.35 125.276C159.631 125.25 159.881 125.124 160.098 124.898C160.32 124.677 160.522 124.317 160.705 123.818L160.987 123.051L157.356 113.182H158.992L161.702 121.006H161.805L164.515 113.182H166.151L161.984 124.432C161.796 124.939 161.564 125.359 161.287 125.691C161.01 126.028 160.688 126.277 160.322 126.439C159.96 126.601 159.55 126.682 159.094 126.682ZM175.429 123L172.438 113.182H174.023L176.145 120.699H176.248L178.344 113.182H179.955L182.026 120.673H182.128L184.25 113.182H185.836L182.844 123H181.361L179.213 115.457H179.06L176.912 123H175.429ZM191.612 123.205C190.666 123.205 189.85 122.996 189.164 122.578C188.482 122.156 187.956 121.568 187.585 120.814C187.219 120.055 187.036 119.173 187.036 118.168C187.036 117.162 187.219 116.276 187.585 115.509C187.956 114.737 188.472 114.136 189.132 113.706C189.797 113.271 190.573 113.054 191.459 113.054C191.97 113.054 192.475 113.139 192.974 113.31C193.472 113.48 193.926 113.757 194.335 114.141C194.744 114.52 195.07 115.023 195.313 115.649C195.556 116.276 195.678 117.047 195.678 117.963V118.602H188.11V117.298H194.144C194.144 116.744 194.033 116.25 193.811 115.815C193.594 115.381 193.283 115.038 192.878 114.786C192.477 114.535 192.004 114.409 191.459 114.409C190.858 114.409 190.338 114.558 189.899 114.857C189.465 115.151 189.13 115.534 188.896 116.007C188.661 116.48 188.544 116.987 188.544 117.528V118.398C188.544 119.139 188.672 119.768 188.928 120.283C189.188 120.795 189.548 121.185 190.008 121.453C190.468 121.717 191.003 121.849 191.612 121.849C192.009 121.849 192.367 121.794 192.686 121.683C193.01 121.568 193.289 121.398 193.524 121.172C193.758 120.942 193.939 120.656 194.067 120.315L195.524 120.724C195.371 121.219 195.113 121.653 194.751 122.028C194.389 122.399 193.941 122.689 193.409 122.898C192.876 123.102 192.277 123.205 191.612 123.205ZM207.305 113.182V114.46H202.217V113.182H207.305ZM203.7 110.83H205.208V120.188C205.208 120.614 205.27 120.933 205.394 121.146C205.521 121.355 205.683 121.496 205.879 121.568C206.08 121.636 206.291 121.67 206.512 121.67C206.678 121.67 206.815 121.662 206.921 121.645C207.028 121.624 207.113 121.607 207.177 121.594L207.484 122.949C207.382 122.987 207.239 123.026 207.056 123.064C206.872 123.107 206.64 123.128 206.359 123.128C205.933 123.128 205.515 123.036 205.106 122.853C204.701 122.67 204.365 122.391 204.096 122.016C203.832 121.641 203.7 121.168 203.7 120.597V110.83ZM209.574 123V113.182H211.031V114.665H211.134C211.313 114.179 211.637 113.785 212.105 113.482C212.574 113.18 213.102 113.028 213.691 113.028C213.801 113.028 213.94 113.031 214.106 113.035C214.272 113.039 214.398 113.045 214.483 113.054V114.588C214.432 114.575 214.315 114.556 214.132 114.531C213.953 114.501 213.763 114.486 213.563 114.486C213.085 114.486 212.659 114.586 212.284 114.786C211.914 114.982 211.619 115.255 211.402 115.604C211.189 115.95 211.083 116.344 211.083 116.787V123H209.574ZM219.161 123.23C218.538 123.23 217.974 123.113 217.467 122.879C216.96 122.64 216.557 122.297 216.259 121.849C215.96 121.398 215.811 120.852 215.811 120.213C215.811 119.651 215.922 119.195 216.143 118.845C216.365 118.491 216.661 118.214 217.032 118.014C217.403 117.814 217.812 117.665 218.259 117.567C218.711 117.464 219.165 117.384 219.621 117.324C220.217 117.247 220.701 117.19 221.072 117.151C221.447 117.109 221.719 117.038 221.89 116.94C222.065 116.842 222.152 116.672 222.152 116.429V116.378C222.152 115.747 221.979 115.257 221.634 114.908C221.293 114.558 220.776 114.384 220.081 114.384C219.361 114.384 218.796 114.541 218.387 114.857C217.978 115.172 217.69 115.509 217.524 115.866L216.092 115.355C216.348 114.759 216.689 114.294 217.115 113.962C217.545 113.625 218.014 113.391 218.521 113.259C219.033 113.122 219.536 113.054 220.03 113.054C220.345 113.054 220.707 113.092 221.116 113.169C221.53 113.241 221.928 113.393 222.312 113.623C222.7 113.853 223.021 114.2 223.277 114.665C223.533 115.129 223.661 115.751 223.661 116.531V123H222.152V121.67H222.075C221.973 121.884 221.803 122.112 221.564 122.354C221.325 122.597 221.008 122.804 220.612 122.974C220.215 123.145 219.732 123.23 219.161 123.23ZM219.391 121.875C219.987 121.875 220.49 121.758 220.899 121.523C221.313 121.289 221.624 120.987 221.832 120.616C222.045 120.245 222.152 119.855 222.152 119.446V118.065C222.088 118.142 221.947 118.212 221.73 118.276C221.517 118.336 221.27 118.389 220.989 118.436C220.712 118.479 220.441 118.517 220.177 118.551C219.917 118.581 219.706 118.607 219.544 118.628C219.152 118.679 218.786 118.762 218.445 118.877C218.108 118.988 217.835 119.156 217.626 119.382C217.422 119.604 217.32 119.906 217.32 120.29C217.32 120.814 217.513 121.21 217.901 121.479C218.293 121.743 218.79 121.875 219.391 121.875ZM230.403 123.205C229.482 123.205 228.689 122.987 228.025 122.553C227.36 122.118 226.849 121.519 226.491 120.756C226.133 119.994 225.954 119.122 225.954 118.142C225.954 117.145 226.137 116.265 226.503 115.502C226.874 114.735 227.39 114.136 228.05 113.706C228.715 113.271 229.491 113.054 230.377 113.054C231.067 113.054 231.689 113.182 232.243 113.438C232.797 113.693 233.251 114.051 233.605 114.511C233.959 114.972 234.178 115.509 234.263 116.122H232.755C232.64 115.675 232.384 115.278 231.988 114.933C231.596 114.584 231.067 114.409 230.403 114.409C229.814 114.409 229.299 114.562 228.856 114.869C228.417 115.172 228.074 115.6 227.827 116.154C227.584 116.704 227.462 117.349 227.462 118.091C227.462 118.849 227.581 119.51 227.82 120.072C228.063 120.635 228.404 121.072 228.843 121.383C229.286 121.694 229.806 121.849 230.403 121.849C230.795 121.849 231.15 121.781 231.47 121.645C231.79 121.509 232.06 121.312 232.282 121.057C232.503 120.801 232.661 120.494 232.755 120.136H234.263C234.178 120.716 233.967 121.238 233.631 121.702C233.298 122.163 232.857 122.529 232.307 122.802C231.762 123.07 231.127 123.205 230.403 123.205ZM237.875 119.42L237.849 117.554H238.156L242.452 113.182H244.318L239.741 117.81H239.613L237.875 119.42ZM236.469 123V109.909H237.977V123H236.469ZM242.707 123L238.872 118.142L239.946 117.094L244.625 123H242.707ZM249.972 123.205C249.026 123.205 248.21 122.996 247.524 122.578C246.842 122.156 246.316 121.568 245.945 120.814C245.578 120.055 245.395 119.173 245.395 118.168C245.395 117.162 245.578 116.276 245.945 115.509C246.316 114.737 246.831 114.136 247.492 113.706C248.156 113.271 248.932 113.054 249.818 113.054C250.33 113.054 250.835 113.139 251.333 113.31C251.832 113.48 252.286 113.757 252.695 114.141C253.104 114.52 253.43 115.023 253.673 115.649C253.916 116.276 254.037 117.047 254.037 117.963V118.602H246.469V117.298H252.503C252.503 116.744 252.392 116.25 252.171 115.815C251.953 115.381 251.642 115.038 251.237 114.786C250.837 114.535 250.364 114.409 249.818 114.409C249.218 114.409 248.698 114.558 248.259 114.857C247.824 115.151 247.49 115.534 247.255 116.007C247.021 116.48 246.904 116.987 246.904 117.528V118.398C246.904 119.139 247.031 119.768 247.287 120.283C247.547 120.795 247.907 121.185 248.367 121.453C248.828 121.717 249.362 121.849 249.972 121.849C250.368 121.849 250.726 121.794 251.046 121.683C251.369 121.568 251.649 121.398 251.883 121.172C252.117 120.942 252.298 120.656 252.426 120.315L253.884 120.724C253.73 121.219 253.472 121.653 253.11 122.028C252.748 122.399 252.301 122.689 251.768 122.898C251.235 123.102 250.637 123.205 249.972 123.205ZM260.039 123.205C259.221 123.205 258.499 122.998 257.872 122.585C257.246 122.167 256.756 121.579 256.402 120.82C256.048 120.058 255.872 119.156 255.872 118.116C255.872 117.085 256.048 116.19 256.402 115.432C256.756 114.673 257.248 114.087 257.879 113.674C258.509 113.261 259.238 113.054 260.065 113.054C260.704 113.054 261.209 113.161 261.58 113.374C261.955 113.582 262.24 113.821 262.436 114.089C262.637 114.354 262.792 114.571 262.903 114.741H263.031V109.909H264.539V123H263.082V121.491H262.903C262.792 121.67 262.634 121.896 262.43 122.169C262.225 122.437 261.933 122.678 261.554 122.891C261.175 123.1 260.67 123.205 260.039 123.205ZM260.244 121.849C260.849 121.849 261.36 121.692 261.778 121.376C262.195 121.057 262.513 120.616 262.73 120.053C262.948 119.487 263.056 118.832 263.056 118.091C263.056 117.358 262.95 116.717 262.737 116.167C262.524 115.613 262.208 115.183 261.791 114.876C261.373 114.565 260.857 114.409 260.244 114.409C259.605 114.409 259.072 114.573 258.646 114.901C258.224 115.225 257.906 115.666 257.693 116.224C257.485 116.778 257.38 117.401 257.38 118.091C257.38 118.79 257.487 119.425 257.7 119.996C257.917 120.562 258.237 121.014 258.659 121.351C259.085 121.683 259.613 121.849 260.244 121.849ZM275.463 123.23C274.841 123.23 274.276 123.113 273.769 122.879C273.262 122.64 272.86 122.297 272.561 121.849C272.263 121.398 272.114 120.852 272.114 120.213C272.114 119.651 272.225 119.195 272.446 118.845C272.668 118.491 272.964 118.214 273.335 118.014C273.705 117.814 274.115 117.665 274.562 117.567C275.014 117.464 275.468 117.384 275.923 117.324C276.52 117.247 277.004 117.19 277.374 117.151C277.749 117.109 278.022 117.038 278.193 116.94C278.367 116.842 278.455 116.672 278.455 116.429V116.378C278.455 115.747 278.282 115.257 277.937 114.908C277.596 114.558 277.078 114.384 276.384 114.384C275.664 114.384 275.099 114.541 274.69 114.857C274.281 115.172 273.993 115.509 273.827 115.866L272.395 115.355C272.651 114.759 272.992 114.294 273.418 113.962C273.848 113.625 274.317 113.391 274.824 113.259C275.335 113.122 275.838 113.054 276.333 113.054C276.648 113.054 277.01 113.092 277.419 113.169C277.833 113.241 278.231 113.393 278.615 113.623C279.002 113.853 279.324 114.2 279.58 114.665C279.835 115.129 279.963 115.751 279.963 116.531V123H278.455V121.67H278.378C278.276 121.884 278.105 122.112 277.867 122.354C277.628 122.597 277.311 122.804 276.914 122.974C276.518 123.145 276.034 123.23 275.463 123.23ZM275.693 121.875C276.29 121.875 276.793 121.758 277.202 121.523C277.615 121.289 277.926 120.987 278.135 120.616C278.348 120.245 278.455 119.855 278.455 119.446V118.065C278.391 118.142 278.25 118.212 278.033 118.276C277.82 118.336 277.573 118.389 277.291 118.436C277.014 118.479 276.744 118.517 276.48 118.551C276.22 118.581 276.009 118.607 275.847 118.628C275.455 118.679 275.088 118.762 274.747 118.877C274.411 118.988 274.138 119.156 273.929 119.382C273.725 119.604 273.622 119.906 273.622 120.29C273.622 120.814 273.816 121.21 274.204 121.479C274.596 121.743 275.093 121.875 275.693 121.875ZM292.049 113.182V114.46H286.961V113.182H292.049ZM288.444 110.83H289.952V120.188C289.952 120.614 290.014 120.933 290.138 121.146C290.266 121.355 290.428 121.496 290.624 121.568C290.824 121.636 291.035 121.67 291.256 121.67C291.423 121.67 291.559 121.662 291.665 121.645C291.772 121.624 291.857 121.607 291.921 121.594L292.228 122.949C292.126 122.987 291.983 123.026 291.8 123.064C291.616 123.107 291.384 123.128 291.103 123.128C290.677 123.128 290.259 123.036 289.85 122.853C289.445 122.67 289.109 122.391 288.84 122.016C288.576 121.641 288.444 121.168 288.444 120.597V110.83ZM298.201 123.205C297.315 123.205 296.537 122.994 295.868 122.572C295.203 122.15 294.684 121.56 294.309 120.801C293.938 120.043 293.752 119.156 293.752 118.142C293.752 117.119 293.938 116.227 294.309 115.464C294.684 114.701 295.203 114.109 295.868 113.687C296.537 113.265 297.315 113.054 298.201 113.054C299.088 113.054 299.863 113.265 300.528 113.687C301.197 114.109 301.717 114.701 302.088 115.464C302.463 116.227 302.65 117.119 302.65 118.142C302.65 119.156 302.463 120.043 302.088 120.801C301.717 121.56 301.197 122.15 300.528 122.572C299.863 122.994 299.088 123.205 298.201 123.205ZM298.201 121.849C298.875 121.849 299.429 121.677 299.863 121.332C300.298 120.987 300.62 120.533 300.828 119.97C301.037 119.408 301.142 118.798 301.142 118.142C301.142 117.486 301.037 116.874 300.828 116.308C300.62 115.741 300.298 115.283 299.863 114.933C299.429 114.584 298.875 114.409 298.201 114.409C297.528 114.409 296.974 114.584 296.539 114.933C296.105 115.283 295.783 115.741 295.574 116.308C295.365 116.874 295.261 117.486 295.261 118.142C295.261 118.798 295.365 119.408 295.574 119.97C295.783 120.533 296.105 120.987 296.539 121.332C296.974 121.677 297.528 121.849 298.201 121.849ZM309.223 113.182V114.46H304.135V113.182H309.223ZM305.618 110.83H307.126V120.188C307.126 120.614 307.188 120.933 307.312 121.146C307.439 121.355 307.601 121.496 307.797 121.568C307.998 121.636 308.209 121.67 308.43 121.67C308.596 121.67 308.733 121.662 308.839 121.645C308.946 121.624 309.031 121.607 309.095 121.594L309.402 122.949C309.3 122.987 309.157 123.026 308.974 123.064C308.79 123.107 308.558 123.128 308.277 123.128C307.851 123.128 307.433 123.036 307.024 122.853C306.619 122.67 306.282 122.391 306.014 122.016C305.75 121.641 305.618 121.168 305.618 120.597V110.83ZM314.381 123.23C313.759 123.23 313.194 123.113 312.687 122.879C312.18 122.64 311.778 122.297 311.479 121.849C311.181 121.398 311.032 120.852 311.032 120.213C311.032 119.651 311.143 119.195 311.364 118.845C311.586 118.491 311.882 118.214 312.253 118.014C312.623 117.814 313.032 117.665 313.48 117.567C313.932 117.464 314.385 117.384 314.841 117.324C315.438 117.247 315.922 117.19 316.292 117.151C316.667 117.109 316.94 117.038 317.111 116.94C317.285 116.842 317.373 116.672 317.373 116.429V116.378C317.373 115.747 317.2 115.257 316.855 114.908C316.514 114.558 315.996 114.384 315.302 114.384C314.581 114.384 314.017 114.541 313.608 114.857C313.199 115.172 312.911 115.509 312.745 115.866L311.313 115.355C311.569 114.759 311.91 114.294 312.336 113.962C312.766 113.625 313.235 113.391 313.742 113.259C314.253 113.122 314.756 113.054 315.251 113.054C315.566 113.054 315.928 113.092 316.337 113.169C316.751 113.241 317.149 113.393 317.532 113.623C317.92 113.853 318.242 114.2 318.498 114.665C318.753 115.129 318.881 115.751 318.881 116.531V123H317.373V121.67H317.296C317.194 121.884 317.023 122.112 316.785 122.354C316.546 122.597 316.229 122.804 315.832 122.974C315.436 123.145 314.952 123.23 314.381 123.23ZM314.611 121.875C315.208 121.875 315.711 121.758 316.12 121.523C316.533 121.289 316.844 120.987 317.053 120.616C317.266 120.245 317.373 119.855 317.373 119.446V118.065C317.309 118.142 317.168 118.212 316.951 118.276C316.738 118.336 316.491 118.389 316.209 118.436C315.932 118.479 315.662 118.517 315.398 118.551C315.138 118.581 314.927 118.607 314.765 118.628C314.373 118.679 314.006 118.762 313.665 118.877C313.329 118.988 313.056 119.156 312.847 119.382C312.643 119.604 312.54 119.906 312.54 120.29C312.54 120.814 312.734 121.21 313.122 121.479C313.514 121.743 314.01 121.875 314.611 121.875ZM323.143 109.909V123H321.635V109.909H323.143ZM334.957 123.205C334.071 123.205 333.293 122.994 332.624 122.572C331.959 122.15 331.439 121.56 331.064 120.801C330.694 120.043 330.508 119.156 330.508 118.142C330.508 117.119 330.694 116.227 331.064 115.464C331.439 114.701 331.959 114.109 332.624 113.687C333.293 113.265 334.071 113.054 334.957 113.054C335.844 113.054 336.619 113.265 337.284 113.687C337.953 114.109 338.473 114.701 338.844 115.464C339.219 116.227 339.406 117.119 339.406 118.142C339.406 119.156 339.219 120.043 338.844 120.801C338.473 121.56 337.953 122.15 337.284 122.572C336.619 122.994 335.844 123.205 334.957 123.205ZM334.957 121.849C335.631 121.849 336.184 121.677 336.619 121.332C337.054 120.987 337.376 120.533 337.584 119.97C337.793 119.408 337.898 118.798 337.898 118.142C337.898 117.486 337.793 116.874 337.584 116.308C337.376 115.741 337.054 115.283 336.619 114.933C336.184 114.584 335.631 114.409 334.957 114.409C334.284 114.409 333.73 114.584 333.295 114.933C332.861 115.283 332.539 115.741 332.33 116.308C332.121 116.874 332.017 117.486 332.017 118.142C332.017 118.798 332.121 119.408 332.33 119.97C332.539 120.533 332.861 120.987 333.295 121.332C333.73 121.677 334.284 121.849 334.957 121.849ZM346.081 113.182V114.46H340.788V113.182H346.081ZM342.374 123V111.827C342.374 111.264 342.506 110.795 342.77 110.42C343.034 110.045 343.377 109.764 343.799 109.577C344.221 109.389 344.666 109.295 345.135 109.295C345.506 109.295 345.808 109.325 346.043 109.385C346.277 109.445 346.452 109.5 346.567 109.551L346.132 110.855C346.055 110.83 345.949 110.798 345.812 110.759C345.68 110.721 345.506 110.702 345.288 110.702C344.79 110.702 344.43 110.827 344.208 111.079C343.991 111.33 343.882 111.699 343.882 112.185V123H342.374ZM353.232 123V121.849L357.553 117.119C358.06 116.565 358.478 116.084 358.806 115.675C359.134 115.261 359.377 114.874 359.535 114.511C359.697 114.145 359.778 113.761 359.778 113.361C359.778 112.901 359.667 112.502 359.445 112.165C359.228 111.829 358.93 111.569 358.55 111.386C358.171 111.202 357.745 111.111 357.272 111.111C356.769 111.111 356.33 111.215 355.955 111.424C355.584 111.629 355.297 111.916 355.092 112.287C354.892 112.658 354.792 113.092 354.792 113.591H353.283C353.283 112.824 353.46 112.151 353.814 111.571C354.167 110.991 354.649 110.54 355.258 110.216C355.872 109.892 356.56 109.73 357.323 109.73C358.09 109.73 358.77 109.892 359.362 110.216C359.954 110.54 360.419 110.977 360.756 111.526C361.092 112.076 361.26 112.688 361.26 113.361C361.26 113.842 361.173 114.313 360.998 114.773C360.828 115.229 360.53 115.739 360.104 116.301C359.682 116.859 359.096 117.541 358.346 118.347L355.405 121.491V121.594H361.491V123H353.232ZM363.542 120.315V119.011L369.295 109.909H370.241V111.929H369.602L365.256 118.807V118.909H373.003V120.315H363.542ZM369.704 123V119.919V119.312V109.909H371.213V123H369.704ZM87.4972 145.205C86.5511 145.205 85.7351 144.996 85.049 144.578C84.3672 144.156 83.8409 143.568 83.4702 142.814C83.1037 142.055 82.9205 141.173 82.9205 140.168C82.9205 139.162 83.1037 138.276 83.4702 137.509C83.8409 136.737 84.3565 136.136 85.017 135.706C85.6818 135.271 86.4574 135.054 87.3438 135.054C87.8551 135.054 88.3601 135.139 88.8587 135.31C89.3572 135.48 89.8111 135.757 90.2202 136.141C90.6293 136.52 90.9553 137.023 91.1982 137.649C91.4411 138.276 91.5625 139.047 91.5625 139.963V140.602H83.9943V139.298H90.0284C90.0284 138.744 89.9176 138.25 89.696 137.815C89.4787 137.381 89.1676 137.038 88.7628 136.786C88.3622 136.535 87.8892 136.409 87.3438 136.409C86.7429 136.409 86.223 136.558 85.7841 136.857C85.3494 137.151 85.0149 137.534 84.7805 138.007C84.5462 138.48 84.429 138.987 84.429 139.528V140.398C84.429 141.139 84.5568 141.768 84.8125 142.283C85.0724 142.795 85.4325 143.185 85.8928 143.453C86.353 143.717 86.8878 143.849 87.4972 143.849C87.8935 143.849 88.2514 143.794 88.571 143.683C88.8949 143.568 89.174 143.398 89.4084 143.172C89.6428 142.942 89.8239 142.656 89.9517 142.315L91.4091 142.724C91.2557 143.219 90.9979 143.653 90.6357 144.028C90.2734 144.399 89.826 144.689 89.2933 144.898C88.7607 145.102 88.1619 145.205 87.4972 145.205ZM101.587 135.182L97.9561 145H96.4221L92.7914 135.182H94.4277L97.138 143.006H97.2402L99.9505 135.182H101.587ZM107.343 145.205C106.397 145.205 105.581 144.996 104.895 144.578C104.213 144.156 103.687 143.568 103.316 142.814C102.949 142.055 102.766 141.173 102.766 140.168C102.766 139.162 102.949 138.276 103.316 137.509C103.687 136.737 104.202 136.136 104.863 135.706C105.528 135.271 106.303 135.054 107.189 135.054C107.701 135.054 108.206 135.139 108.704 135.31C109.203 135.48 109.657 135.757 110.066 136.141C110.475 136.52 110.801 137.023 111.044 137.649C111.287 138.276 111.408 139.047 111.408 139.963V140.602H103.84V139.298H109.874C109.874 138.744 109.763 138.25 109.542 137.815C109.324 137.381 109.013 137.038 108.608 136.786C108.208 136.535 107.735 136.409 107.189 136.409C106.589 136.409 106.069 136.558 105.63 136.857C105.195 137.151 104.861 137.534 104.626 138.007C104.392 138.48 104.275 138.987 104.275 139.528V140.398C104.275 141.139 104.403 141.768 104.658 142.283C104.918 142.795 105.278 143.185 105.738 143.453C106.199 143.717 106.733 143.849 107.343 143.849C107.739 143.849 108.097 143.794 108.417 143.683C108.741 143.568 109.02 143.398 109.254 143.172C109.488 142.942 109.67 142.656 109.797 142.315L111.255 142.724C111.101 143.219 110.844 143.653 110.481 144.028C110.119 144.399 109.672 144.689 109.139 144.898C108.606 145.102 108.008 145.205 107.343 145.205ZM115.211 139.094V145H113.703V135.182H115.16V136.716H115.288C115.518 136.217 115.868 135.817 116.336 135.514C116.805 135.207 117.41 135.054 118.152 135.054C118.817 135.054 119.398 135.19 119.897 135.463C120.395 135.732 120.783 136.141 121.06 136.69C121.337 137.236 121.476 137.926 121.476 138.761V145H119.967V138.864C119.967 138.092 119.767 137.491 119.366 137.061C118.966 136.626 118.416 136.409 117.717 136.409C117.236 136.409 116.805 136.513 116.426 136.722C116.051 136.931 115.755 137.236 115.537 137.636C115.32 138.037 115.211 138.523 115.211 139.094ZM128.502 135.182V136.46H123.414V135.182H128.502ZM124.897 132.83H126.406V142.188C126.406 142.614 126.467 142.933 126.591 143.146C126.719 143.355 126.881 143.496 127.077 143.568C127.277 143.636 127.488 143.67 127.71 143.67C127.876 143.67 128.012 143.662 128.119 143.645C128.225 143.624 128.31 143.607 128.374 143.594L128.681 144.949C128.579 144.987 128.436 145.026 128.253 145.064C128.07 145.107 127.837 145.128 127.556 145.128C127.13 145.128 126.712 145.036 126.303 144.853C125.898 144.67 125.562 144.391 125.293 144.016C125.029 143.641 124.897 143.168 124.897 142.597V132.83ZM137.55 137.381L136.195 137.764C136.11 137.538 135.984 137.319 135.818 137.106C135.656 136.888 135.434 136.71 135.153 136.569C134.872 136.428 134.512 136.358 134.073 136.358C133.472 136.358 132.971 136.496 132.571 136.773C132.174 137.046 131.976 137.393 131.976 137.815C131.976 138.19 132.113 138.487 132.385 138.704C132.658 138.921 133.084 139.102 133.664 139.247L135.121 139.605C135.999 139.818 136.653 140.144 137.083 140.583C137.514 141.018 137.729 141.578 137.729 142.264C137.729 142.827 137.567 143.33 137.243 143.773C136.924 144.216 136.476 144.565 135.901 144.821C135.326 145.077 134.657 145.205 133.894 145.205C132.892 145.205 132.064 144.987 131.407 144.553C130.751 144.118 130.336 143.483 130.161 142.648L131.593 142.29C131.729 142.818 131.987 143.214 132.366 143.479C132.75 143.743 133.25 143.875 133.868 143.875C134.571 143.875 135.13 143.726 135.543 143.428C135.961 143.125 136.169 142.763 136.169 142.341C136.169 142 136.05 141.714 135.811 141.484C135.573 141.25 135.206 141.075 134.712 140.96L133.076 140.577C132.176 140.364 131.516 140.033 131.094 139.586C130.676 139.134 130.468 138.57 130.468 137.892C130.468 137.338 130.623 136.848 130.934 136.422C131.25 135.996 131.678 135.661 132.219 135.418C132.765 135.175 133.382 135.054 134.073 135.054C135.044 135.054 135.807 135.267 136.361 135.693C136.919 136.119 137.316 136.682 137.55 137.381ZM149.434 135.182V136.46H144.142V135.182H149.434ZM145.727 145V133.827C145.727 133.264 145.859 132.795 146.123 132.42C146.388 132.045 146.731 131.764 147.153 131.577C147.574 131.389 148.02 131.295 148.488 131.295C148.859 131.295 149.162 131.325 149.396 131.385C149.631 131.445 149.805 131.5 149.92 131.551L149.486 132.855C149.409 132.83 149.302 132.798 149.166 132.759C149.034 132.721 148.859 132.702 148.642 132.702C148.143 132.702 147.783 132.827 147.562 133.079C147.344 133.33 147.236 133.699 147.236 134.185V145H145.727ZM155.133 145.205C154.247 145.205 153.469 144.994 152.8 144.572C152.135 144.15 151.615 143.56 151.24 142.801C150.869 142.043 150.684 141.156 150.684 140.142C150.684 139.119 150.869 138.227 151.24 137.464C151.615 136.701 152.135 136.109 152.8 135.687C153.469 135.265 154.247 135.054 155.133 135.054C156.019 135.054 156.795 135.265 157.46 135.687C158.129 136.109 158.649 136.701 159.019 137.464C159.394 138.227 159.582 139.119 159.582 140.142C159.582 141.156 159.394 142.043 159.019 142.801C158.649 143.56 158.129 144.15 157.46 144.572C156.795 144.994 156.019 145.205 155.133 145.205ZM155.133 143.849C155.806 143.849 156.36 143.677 156.795 143.332C157.23 142.987 157.551 142.533 157.76 141.97C157.969 141.408 158.073 140.798 158.073 140.142C158.073 139.486 157.969 138.874 157.76 138.308C157.551 137.741 157.23 137.283 156.795 136.933C156.36 136.584 155.806 136.409 155.133 136.409C154.46 136.409 153.906 136.584 153.471 136.933C153.036 137.283 152.715 137.741 152.506 138.308C152.297 138.874 152.193 139.486 152.193 140.142C152.193 140.798 152.297 141.408 152.506 141.97C152.715 142.533 153.036 142.987 153.471 143.332C153.906 143.677 154.46 143.849 155.133 143.849ZM161.885 145V135.182H163.342V136.665H163.444C163.623 136.179 163.947 135.785 164.416 135.482C164.885 135.18 165.413 135.028 166.001 135.028C166.112 135.028 166.25 135.031 166.417 135.035C166.583 135.039 166.708 135.045 166.794 135.054V136.588C166.743 136.575 166.625 136.556 166.442 136.531C166.263 136.501 166.074 136.486 165.873 136.486C165.396 136.486 164.97 136.586 164.595 136.786C164.224 136.982 163.93 137.255 163.713 137.604C163.5 137.95 163.393 138.344 163.393 138.787V145H161.885ZM177.965 145.179C177.428 145.17 176.892 145.068 176.355 144.872C175.818 144.676 175.328 144.346 174.884 143.881C174.441 143.413 174.085 142.78 173.817 141.983C173.548 141.182 173.414 140.176 173.414 138.966C173.414 137.807 173.523 136.78 173.74 135.885C173.958 134.986 174.273 134.229 174.686 133.616C175.1 132.998 175.598 132.529 176.182 132.21C176.77 131.89 177.433 131.73 178.17 131.73C178.903 131.73 179.555 131.877 180.126 132.171C180.701 132.461 181.17 132.866 181.532 133.386C181.894 133.906 182.129 134.504 182.235 135.182H180.676C180.531 134.594 180.249 134.106 179.832 133.718C179.414 133.33 178.86 133.136 178.17 133.136C177.156 133.136 176.357 133.577 175.773 134.46C175.193 135.342 174.901 136.58 174.897 138.173H174.999C175.238 137.811 175.521 137.502 175.85 137.246C176.182 136.987 176.548 136.786 176.949 136.646C177.35 136.505 177.774 136.435 178.221 136.435C178.971 136.435 179.657 136.622 180.279 136.997C180.901 137.368 181.4 137.881 181.775 138.538C182.15 139.19 182.338 139.938 182.338 140.781C182.338 141.591 182.156 142.332 181.794 143.006C181.432 143.675 180.923 144.207 180.267 144.604C179.615 144.996 178.847 145.188 177.965 145.179ZM177.965 143.773C178.502 143.773 178.984 143.638 179.41 143.37C179.84 143.102 180.179 142.741 180.426 142.29C180.678 141.838 180.803 141.335 180.803 140.781C180.803 140.24 180.682 139.748 180.439 139.305C180.2 138.857 179.87 138.501 179.448 138.237C179.031 137.973 178.553 137.841 178.017 137.841C177.612 137.841 177.235 137.922 176.885 138.084C176.536 138.241 176.229 138.459 175.965 138.736C175.705 139.013 175.5 139.33 175.351 139.688C175.202 140.042 175.127 140.415 175.127 140.807C175.127 141.327 175.249 141.812 175.492 142.264C175.739 142.716 176.075 143.08 176.502 143.357C176.932 143.634 177.42 143.773 177.965 143.773ZM194.209 135.182V136.46H189.121V135.182H194.209ZM190.604 132.83H192.113V142.188C192.113 142.614 192.174 142.933 192.298 143.146C192.426 143.355 192.588 143.496 192.784 143.568C192.984 143.636 193.195 143.67 193.417 143.67C193.583 143.67 193.719 143.662 193.826 143.645C193.932 143.624 194.017 143.607 194.081 143.594L194.388 144.949C194.286 144.987 194.143 145.026 193.96 145.064C193.777 145.107 193.544 145.128 193.263 145.128C192.837 145.128 192.419 145.036 192.01 144.853C191.605 144.67 191.269 144.391 191 144.016C190.736 143.641 190.604 143.168 190.604 142.597V132.83ZM199.368 145.23C198.745 145.23 198.181 145.113 197.674 144.879C197.167 144.64 196.764 144.297 196.466 143.849C196.167 143.398 196.018 142.852 196.018 142.213C196.018 141.651 196.129 141.195 196.35 140.845C196.572 140.491 196.868 140.214 197.239 140.014C197.61 139.814 198.019 139.665 198.466 139.567C198.918 139.464 199.372 139.384 199.828 139.324C200.424 139.247 200.908 139.19 201.279 139.151C201.654 139.109 201.926 139.038 202.097 138.94C202.272 138.842 202.359 138.672 202.359 138.429V138.378C202.359 137.747 202.186 137.257 201.841 136.908C201.5 136.558 200.983 136.384 200.288 136.384C199.568 136.384 199.003 136.541 198.594 136.857C198.185 137.172 197.897 137.509 197.731 137.866L196.299 137.355C196.555 136.759 196.896 136.294 197.322 135.962C197.752 135.625 198.221 135.391 198.728 135.259C199.24 135.122 199.743 135.054 200.237 135.054C200.552 135.054 200.914 135.092 201.324 135.169C201.737 135.241 202.135 135.393 202.519 135.623C202.907 135.853 203.228 136.2 203.484 136.665C203.74 137.129 203.868 137.751 203.868 138.531V145H202.359V143.67H202.282C202.18 143.884 202.01 144.112 201.771 144.354C201.532 144.597 201.215 144.804 200.819 144.974C200.422 145.145 199.939 145.23 199.368 145.23ZM199.598 143.875C200.194 143.875 200.697 143.758 201.106 143.523C201.52 143.289 201.831 142.987 202.039 142.616C202.252 142.245 202.359 141.855 202.359 141.446V140.065C202.295 140.142 202.154 140.212 201.937 140.276C201.724 140.336 201.477 140.389 201.196 140.436C200.919 140.479 200.648 140.517 200.384 140.551C200.124 140.581 199.913 140.607 199.751 140.628C199.359 140.679 198.993 140.762 198.652 140.877C198.315 140.988 198.042 141.156 197.833 141.382C197.629 141.604 197.527 141.906 197.527 142.29C197.527 142.814 197.721 143.21 198.108 143.479C198.5 143.743 198.997 143.875 199.598 143.875ZM210.584 148.886C209.855 148.886 209.229 148.793 208.705 148.605C208.181 148.422 207.744 148.179 207.394 147.876C207.049 147.578 206.774 147.259 206.57 146.918L207.771 146.074C207.908 146.253 208.08 146.457 208.289 146.688C208.498 146.922 208.784 147.124 209.146 147.295C209.512 147.469 209.992 147.557 210.584 147.557C211.377 147.557 212.031 147.365 212.546 146.982C213.062 146.598 213.32 145.997 213.32 145.179V143.185H213.192C213.081 143.364 212.923 143.585 212.719 143.849C212.519 144.109 212.229 144.342 211.85 144.546C211.475 144.746 210.968 144.847 210.328 144.847C209.536 144.847 208.824 144.659 208.193 144.284C207.567 143.909 207.07 143.364 206.704 142.648C206.342 141.932 206.161 141.062 206.161 140.04C206.161 139.034 206.338 138.158 206.691 137.413C207.045 136.663 207.537 136.083 208.168 135.674C208.798 135.261 209.527 135.054 210.354 135.054C210.993 135.054 211.5 135.161 211.875 135.374C212.254 135.582 212.544 135.821 212.744 136.089C212.949 136.354 213.107 136.571 213.218 136.741H213.371V135.182H214.828V145.281C214.828 146.125 214.637 146.811 214.253 147.339C213.874 147.872 213.362 148.262 212.719 148.509C212.08 148.761 211.368 148.886 210.584 148.886ZM210.533 143.491C211.138 143.491 211.649 143.353 212.067 143.076C212.485 142.799 212.802 142.401 213.019 141.881C213.237 141.361 213.345 140.739 213.345 140.014C213.345 139.307 213.239 138.683 213.026 138.141C212.813 137.6 212.497 137.176 212.08 136.869C211.662 136.562 211.146 136.409 210.533 136.409C209.894 136.409 209.361 136.571 208.935 136.895C208.513 137.219 208.195 137.653 207.982 138.199C207.774 138.744 207.669 139.349 207.669 140.014C207.669 140.696 207.776 141.299 207.989 141.823C208.206 142.343 208.526 142.752 208.948 143.05C209.374 143.344 209.902 143.491 210.533 143.491ZM224.544 137.381L223.189 137.764C223.104 137.538 222.978 137.319 222.812 137.106C222.65 136.888 222.428 136.71 222.147 136.569C221.866 136.428 221.506 136.358 221.067 136.358C220.466 136.358 219.965 136.496 219.565 136.773C219.169 137.046 218.97 137.393 218.97 137.815C218.97 138.19 219.107 138.487 219.379 138.704C219.652 138.921 220.078 139.102 220.658 139.247L222.115 139.605C222.993 139.818 223.647 140.144 224.078 140.583C224.508 141.018 224.723 141.578 224.723 142.264C224.723 142.827 224.561 143.33 224.237 143.773C223.918 144.216 223.47 144.565 222.895 144.821C222.32 145.077 221.651 145.205 220.888 145.205C219.887 145.205 219.058 144.987 218.401 144.553C217.745 144.118 217.33 143.483 217.155 142.648L218.587 142.29C218.723 142.818 218.981 143.214 219.36 143.479C219.744 143.743 220.244 143.875 220.862 143.875C221.566 143.875 222.124 143.726 222.537 143.428C222.955 143.125 223.164 142.763 223.164 142.341C223.164 142 223.044 141.714 222.806 141.484C222.567 141.25 222.2 141.075 221.706 140.96L220.07 140.577C219.171 140.364 218.51 140.033 218.088 139.586C217.671 139.134 217.462 138.57 217.462 137.892C217.462 137.338 217.617 136.848 217.928 136.422C218.244 135.996 218.672 135.661 219.213 135.418C219.759 135.175 220.377 135.054 221.067 135.054C222.039 135.054 222.801 135.267 223.355 135.693C223.914 136.119 224.31 136.682 224.544 137.381ZM228.093 145.102C227.778 145.102 227.507 144.989 227.282 144.763C227.056 144.538 226.943 144.267 226.943 143.952C226.943 143.636 227.056 143.366 227.282 143.14C227.507 142.914 227.778 142.801 228.093 142.801C228.409 142.801 228.679 142.914 228.905 143.14C229.131 143.366 229.244 143.636 229.244 143.952C229.244 144.161 229.191 144.352 229.084 144.527C228.982 144.702 228.843 144.842 228.669 144.949C228.498 145.051 228.306 145.102 228.093 145.102Z" fill="#333333"/>
<rect x="82.5" y="173.5" width="342" height="81" rx="3.5" fill="#F2F2F2"/>
<g clip-path="url(#clip2_1274_4403)">
<path d="M101.112 203L98.2884 192.818H99.9041L101.888 200.703H101.982L104.045 192.818H105.646L107.71 200.708H107.804L109.783 192.818H111.403L108.575 203H107.028L104.886 195.374H104.806L102.663 203H101.112ZM115.224 203.154C114.472 203.154 113.824 202.993 113.28 202.672C112.74 202.347 112.322 201.891 112.027 201.305C111.736 200.715 111.59 200.024 111.59 199.232C111.59 198.449 111.736 197.76 112.027 197.163C112.322 196.567 112.733 196.101 113.26 195.766C113.791 195.432 114.41 195.264 115.12 195.264C115.551 195.264 115.968 195.335 116.373 195.478C116.777 195.621 117.14 195.844 117.461 196.149C117.783 196.454 118.036 196.85 118.222 197.337C118.408 197.821 118.5 198.41 118.5 199.102V199.629H112.43V198.516H117.044C117.044 198.125 116.964 197.778 116.805 197.477C116.646 197.172 116.422 196.931 116.134 196.756C115.849 196.58 115.514 196.492 115.13 196.492C114.712 196.492 114.347 196.595 114.036 196.8C113.728 197.003 113.489 197.268 113.32 197.596C113.154 197.921 113.071 198.274 113.071 198.655V199.525C113.071 200.035 113.161 200.469 113.34 200.827C113.522 201.185 113.776 201.459 114.1 201.648C114.425 201.833 114.805 201.926 115.239 201.926C115.521 201.926 115.778 201.886 116.01 201.807C116.242 201.724 116.442 201.601 116.611 201.439C116.78 201.277 116.909 201.076 116.999 200.837L118.406 201.091C118.293 201.505 118.091 201.868 117.799 202.18C117.511 202.488 117.148 202.728 116.711 202.901C116.276 203.07 115.781 203.154 115.224 203.154ZM120.269 203V192.818H121.756V196.602H121.845C121.931 196.442 122.055 196.259 122.218 196.05C122.38 195.841 122.606 195.659 122.894 195.503C123.182 195.344 123.564 195.264 124.037 195.264C124.654 195.264 125.204 195.42 125.688 195.732C126.172 196.043 126.551 196.492 126.827 197.079C127.105 197.665 127.244 198.371 127.244 199.197C127.244 200.022 127.107 200.73 126.831 201.32C126.556 201.906 126.179 202.359 125.698 202.677C125.217 202.992 124.669 203.149 124.052 203.149C123.588 203.149 123.209 203.071 122.914 202.915C122.622 202.76 122.394 202.577 122.228 202.369C122.062 202.16 121.934 201.974 121.845 201.812H121.721V203H120.269ZM121.726 199.182C121.726 199.719 121.804 200.189 121.959 200.594C122.115 200.998 122.34 201.315 122.635 201.543C122.93 201.769 123.292 201.881 123.719 201.881C124.163 201.881 124.535 201.764 124.833 201.528C125.131 201.29 125.357 200.967 125.509 200.559C125.665 200.151 125.743 199.692 125.743 199.182C125.743 198.678 125.666 198.226 125.514 197.825C125.365 197.424 125.14 197.107 124.838 196.875C124.54 196.643 124.167 196.527 123.719 196.527C123.288 196.527 122.924 196.638 122.626 196.86C122.331 197.082 122.107 197.392 121.954 197.79C121.802 198.187 121.726 198.652 121.726 199.182ZM134.636 197.228L133.288 197.467C133.232 197.294 133.143 197.13 133.02 196.974C132.901 196.819 132.738 196.691 132.533 196.592C132.327 196.492 132.07 196.442 131.762 196.442C131.341 196.442 130.99 196.537 130.708 196.726C130.426 196.911 130.286 197.152 130.286 197.447C130.286 197.702 130.38 197.907 130.569 198.063C130.758 198.219 131.063 198.347 131.484 198.446L132.697 198.724C133.399 198.887 133.923 199.137 134.268 199.475C134.612 199.813 134.785 200.252 134.785 200.793C134.785 201.25 134.652 201.658 134.387 202.016C134.125 202.37 133.759 202.649 133.288 202.851C132.821 203.053 132.279 203.154 131.663 203.154C130.808 203.154 130.11 202.972 129.57 202.607C129.029 202.239 128.698 201.717 128.575 201.041L130.012 200.822C130.102 201.197 130.286 201.48 130.564 201.673C130.842 201.862 131.205 201.956 131.653 201.956C132.14 201.956 132.529 201.855 132.821 201.653C133.113 201.447 133.259 201.197 133.259 200.902C133.259 200.663 133.169 200.463 132.99 200.3C132.814 200.138 132.544 200.015 132.18 199.933L130.887 199.649C130.174 199.487 129.647 199.228 129.306 198.874C128.968 198.519 128.799 198.07 128.799 197.526C128.799 197.076 128.925 196.681 129.177 196.343C129.429 196.005 129.777 195.741 130.221 195.553C130.665 195.36 131.174 195.264 131.747 195.264C132.572 195.264 133.222 195.443 133.696 195.801C134.17 196.156 134.483 196.631 134.636 197.228ZM136.419 203V195.364H137.906V203H136.419ZM137.17 194.185C136.911 194.185 136.689 194.099 136.504 193.927C136.321 193.751 136.23 193.542 136.23 193.3C136.23 193.055 136.321 192.846 136.504 192.674C136.689 192.498 136.911 192.411 137.17 192.411C137.428 192.411 137.649 192.498 137.831 192.674C138.017 192.846 138.11 193.055 138.11 193.3C138.11 193.542 138.017 193.751 137.831 193.927C137.649 194.099 137.428 194.185 137.17 194.185ZM143.47 195.364V196.557H139.299V195.364H143.47ZM140.418 193.534H141.904V200.758C141.904 201.046 141.947 201.263 142.033 201.409C142.12 201.552 142.231 201.649 142.366 201.702C142.506 201.752 142.656 201.777 142.819 201.777C142.938 201.777 143.043 201.769 143.132 201.752C143.222 201.736 143.291 201.722 143.341 201.712L143.609 202.94C143.523 202.973 143.401 203.007 143.241 203.04C143.082 203.076 142.884 203.096 142.645 203.099C142.254 203.106 141.889 203.036 141.551 202.891C141.213 202.745 140.94 202.519 140.731 202.214C140.522 201.91 140.418 201.527 140.418 201.066V193.534ZM148.324 203.154C147.571 203.154 146.923 202.993 146.38 202.672C145.84 202.347 145.422 201.891 145.127 201.305C144.835 200.715 144.689 200.024 144.689 199.232C144.689 198.449 144.835 197.76 145.127 197.163C145.422 196.567 145.833 196.101 146.36 195.766C146.89 195.432 147.51 195.264 148.219 195.264C148.65 195.264 149.068 195.335 149.472 195.478C149.876 195.621 150.239 195.844 150.561 196.149C150.882 196.454 151.136 196.85 151.322 197.337C151.507 197.821 151.6 198.41 151.6 199.102V199.629H145.53V198.516H150.143C150.143 198.125 150.064 197.778 149.905 197.477C149.746 197.172 149.522 196.931 149.233 196.756C148.948 196.58 148.614 196.492 148.229 196.492C147.812 196.492 147.447 196.595 147.135 196.8C146.827 197.003 146.589 197.268 146.42 197.596C146.254 197.921 146.171 198.274 146.171 198.655V199.525C146.171 200.035 146.26 200.469 146.439 200.827C146.622 201.185 146.875 201.459 147.2 201.648C147.525 201.833 147.904 201.926 148.339 201.926C148.62 201.926 148.877 201.886 149.109 201.807C149.341 201.724 149.542 201.601 149.711 201.439C149.88 201.277 150.009 201.076 150.099 200.837L151.506 201.091C151.393 201.505 151.191 201.868 150.899 202.18C150.611 202.488 150.248 202.728 149.81 202.901C149.376 203.07 148.881 203.154 148.324 203.154Z" fill="#333333"/>
<path d="M261.577 203L259.251 195.364H260.484L262.134 201.21H262.214L263.844 195.364H265.097L266.708 201.19H266.788L268.438 195.364H269.671L267.344 203H266.191L264.521 197.134H264.401L262.731 203H261.577ZM272.952 203L270.626 195.364H271.859L273.509 201.21H273.589L275.219 195.364H276.472L278.083 201.19H278.163L279.813 195.364H281.046L278.719 203H277.566L275.896 197.134H275.776L274.106 203H272.952ZM284.327 203L282.001 195.364H283.234L284.884 201.21H284.964L286.594 195.364H287.847L289.458 201.19H289.538L291.188 195.364H292.421L290.094 203H288.941L287.271 197.134H287.151L285.481 203H284.327ZM293.788 203.08C293.543 203.08 293.333 202.992 293.157 202.816C292.981 202.64 292.893 202.43 292.893 202.185C292.893 201.939 292.981 201.729 293.157 201.553C293.333 201.378 293.543 201.29 293.788 201.29C294.034 201.29 294.244 201.378 294.42 201.553C294.595 201.729 294.683 201.939 294.683 202.185C294.683 202.347 294.642 202.496 294.559 202.632C294.479 202.768 294.372 202.877 294.236 202.96C294.103 203.04 293.954 203.08 293.788 203.08ZM297.544 205.864C297.346 205.864 297.168 205.847 297.012 205.814C296.857 205.784 296.749 205.754 296.689 205.724L296.988 204.69C297.273 204.763 297.525 204.79 297.743 204.77C297.962 204.75 298.156 204.652 298.325 204.477C298.497 204.304 298.655 204.024 298.797 203.636L299.016 203.04L296.192 195.364H297.465L299.573 201.449H299.652L301.76 195.364H303.033L299.792 204.114C299.646 204.508 299.465 204.835 299.25 205.093C299.034 205.355 298.784 205.549 298.499 205.675C298.217 205.801 297.899 205.864 297.544 205.864ZM307.411 203.159C306.721 203.159 306.116 202.995 305.596 202.667C305.079 202.339 304.674 201.88 304.383 201.29C304.094 200.7 303.95 200.01 303.95 199.222C303.95 198.426 304.094 197.732 304.383 197.138C304.674 196.545 305.079 196.085 305.596 195.756C306.116 195.428 306.721 195.264 307.411 195.264C308.1 195.264 308.703 195.428 309.22 195.756C309.741 196.085 310.145 196.545 310.433 197.138C310.725 197.732 310.871 198.426 310.871 199.222C310.871 200.01 310.725 200.7 310.433 201.29C310.145 201.88 309.741 202.339 309.22 202.667C308.703 202.995 308.1 203.159 307.411 203.159ZM307.411 202.105C307.934 202.105 308.365 201.971 308.703 201.702C309.041 201.434 309.291 201.081 309.454 200.643C309.616 200.206 309.697 199.732 309.697 199.222C309.697 198.711 309.616 198.236 309.454 197.795C309.291 197.354 309.041 196.998 308.703 196.726C308.365 196.454 307.934 196.318 307.411 196.318C306.887 196.318 306.456 196.454 306.118 196.726C305.78 196.998 305.53 197.354 305.367 197.795C305.205 198.236 305.124 198.711 305.124 199.222C305.124 199.732 305.205 200.206 305.367 200.643C305.53 201.081 305.78 201.434 306.118 201.702C306.456 201.971 306.887 202.105 307.411 202.105ZM317.474 199.878V195.364H318.648V203H317.474V201.707H317.395C317.216 202.095 316.937 202.425 316.559 202.697C316.182 202.965 315.704 203.099 315.128 203.099C314.65 203.099 314.226 202.995 313.855 202.786C313.484 202.574 313.192 202.256 312.98 201.832C312.768 201.404 312.662 200.866 312.662 200.216V195.364H313.835V200.136C313.835 200.693 313.991 201.137 314.302 201.469C314.617 201.8 315.018 201.966 315.506 201.966C315.797 201.966 316.094 201.891 316.395 201.742C316.7 201.593 316.956 201.364 317.161 201.056C317.37 200.748 317.474 200.355 317.474 199.878ZM320.797 203V195.364H321.93V196.517H322.01C322.149 196.139 322.401 195.833 322.765 195.597C323.13 195.362 323.541 195.244 323.998 195.244C324.084 195.244 324.192 195.246 324.321 195.249C324.451 195.253 324.548 195.258 324.615 195.264V196.457C324.575 196.447 324.484 196.433 324.341 196.413C324.202 196.389 324.055 196.378 323.899 196.378C323.528 196.378 323.196 196.456 322.904 196.612C322.616 196.764 322.387 196.976 322.218 197.248C322.053 197.516 321.97 197.823 321.97 198.168V203H320.797ZM327.859 203L325.532 195.364H326.765L328.415 201.21H328.495L330.126 195.364H331.379L332.989 201.19H333.069L334.719 195.364H335.952L333.626 203H332.472L330.802 197.134H330.683L329.012 203H327.859ZM340.445 203.159C339.71 203.159 339.075 202.997 338.541 202.672C338.011 202.344 337.602 201.886 337.313 201.3C337.028 200.71 336.886 200.024 336.886 199.241C336.886 198.459 337.028 197.77 337.313 197.173C337.602 196.573 338.003 196.106 338.517 195.771C339.034 195.433 339.637 195.264 340.326 195.264C340.724 195.264 341.117 195.33 341.504 195.463C341.892 195.596 342.245 195.811 342.563 196.109C342.882 196.404 343.135 196.795 343.324 197.283C343.513 197.77 343.607 198.37 343.607 199.082V199.58H337.721V198.565H342.414C342.414 198.134 342.328 197.75 342.156 197.412C341.987 197.074 341.745 196.807 341.43 196.612C341.118 196.416 340.75 196.318 340.326 196.318C339.859 196.318 339.454 196.434 339.113 196.666C338.775 196.895 338.515 197.193 338.333 197.561C338.15 197.929 338.059 198.323 338.059 198.744V199.42C338.059 199.997 338.159 200.486 338.357 200.887C338.56 201.285 338.84 201.588 339.198 201.797C339.556 202.002 339.972 202.105 340.445 202.105C340.754 202.105 341.032 202.062 341.281 201.976C341.533 201.886 341.75 201.754 341.932 201.578C342.114 201.399 342.255 201.177 342.355 200.912L343.488 201.23C343.369 201.615 343.168 201.953 342.887 202.244C342.605 202.533 342.257 202.758 341.843 202.92C341.428 203.08 340.963 203.159 340.445 203.159ZM345.551 203V192.818H346.725V196.577H346.824C346.91 196.444 347.03 196.275 347.182 196.07C347.338 195.861 347.56 195.675 347.848 195.513C348.14 195.347 348.534 195.264 349.031 195.264C349.674 195.264 350.241 195.425 350.732 195.746C351.222 196.068 351.605 196.524 351.88 197.114C352.155 197.704 352.293 198.4 352.293 199.202C352.293 200.01 352.155 200.711 351.88 201.305C351.605 201.895 351.224 202.352 350.737 202.677C350.249 202.998 349.688 203.159 349.051 203.159C348.561 203.159 348.168 203.078 347.873 202.915C347.578 202.75 347.351 202.562 347.192 202.354C347.033 202.142 346.91 201.966 346.824 201.827H346.685V203H345.551ZM346.705 199.182C346.705 199.759 346.789 200.267 346.958 200.708C347.127 201.146 347.374 201.489 347.699 201.737C348.024 201.982 348.422 202.105 348.892 202.105C349.383 202.105 349.792 201.976 350.12 201.717C350.452 201.455 350.7 201.104 350.866 200.663C351.035 200.219 351.119 199.725 351.119 199.182C351.119 198.645 351.037 198.161 350.871 197.73C350.709 197.296 350.462 196.953 350.13 196.701C349.802 196.446 349.389 196.318 348.892 196.318C348.415 196.318 348.014 196.439 347.689 196.681C347.364 196.92 347.119 197.254 346.953 197.685C346.788 198.113 346.705 198.612 346.705 199.182ZM359.497 197.074L358.443 197.372C358.376 197.196 358.279 197.026 358.149 196.86C358.023 196.691 357.851 196.552 357.632 196.442C357.414 196.333 357.133 196.278 356.792 196.278C356.325 196.278 355.935 196.386 355.624 196.602C355.316 196.814 355.161 197.084 355.161 197.412C355.161 197.704 355.267 197.934 355.48 198.103C355.692 198.272 356.023 198.413 356.474 198.526L357.607 198.804C358.29 198.97 358.799 199.223 359.134 199.565C359.468 199.903 359.636 200.339 359.636 200.872C359.636 201.31 359.51 201.701 359.258 202.045C359.009 202.39 358.661 202.662 358.214 202.861C357.767 203.06 357.246 203.159 356.653 203.159C355.874 203.159 355.229 202.99 354.719 202.652C354.209 202.314 353.885 201.82 353.749 201.17L354.863 200.892C354.969 201.303 355.17 201.611 355.465 201.817C355.763 202.022 356.152 202.125 356.633 202.125C357.18 202.125 357.614 202.009 357.936 201.777C358.26 201.542 358.423 201.26 358.423 200.932C358.423 200.667 358.33 200.445 358.144 200.266C357.959 200.083 357.674 199.947 357.289 199.858L356.017 199.56C355.317 199.394 354.803 199.137 354.475 198.789C354.151 198.438 353.988 197.999 353.988 197.472C353.988 197.041 354.109 196.66 354.351 196.328C354.596 195.997 354.929 195.737 355.35 195.548C355.775 195.359 356.255 195.264 356.792 195.264C357.548 195.264 358.141 195.43 358.572 195.761C359.006 196.093 359.314 196.53 359.497 197.074ZM361.402 203V195.364H362.575V203H361.402ZM361.999 194.091C361.77 194.091 361.573 194.013 361.407 193.857C361.245 193.701 361.163 193.514 361.163 193.295C361.163 193.077 361.245 192.889 361.407 192.734C361.573 192.578 361.77 192.5 361.999 192.5C362.227 192.5 362.423 192.578 362.585 192.734C362.751 192.889 362.834 193.077 362.834 193.295C362.834 193.514 362.751 193.701 362.585 193.857C362.423 194.013 362.227 194.091 361.999 194.091ZM368.045 195.364V196.358H364.088V195.364H368.045ZM365.241 193.534H366.415V200.812C366.415 201.144 366.463 201.393 366.559 201.558C366.658 201.721 366.784 201.83 366.937 201.886C367.092 201.939 367.256 201.966 367.429 201.966C367.558 201.966 367.664 201.959 367.747 201.946C367.83 201.929 367.896 201.916 367.946 201.906L368.184 202.96C368.105 202.99 367.994 203.02 367.851 203.05C367.709 203.083 367.528 203.099 367.309 203.099C366.978 203.099 366.653 203.028 366.335 202.886C366.02 202.743 365.758 202.526 365.55 202.234C365.344 201.943 365.241 201.575 365.241 201.131V193.534ZM372.93 203.159C372.194 203.159 371.559 202.997 371.026 202.672C370.495 202.344 370.086 201.886 369.798 201.3C369.513 200.71 369.37 200.024 369.37 199.241C369.37 198.459 369.513 197.77 369.798 197.173C370.086 196.573 370.487 196.106 371.001 195.771C371.518 195.433 372.121 195.264 372.811 195.264C373.208 195.264 373.601 195.33 373.989 195.463C374.377 195.596 374.73 195.811 375.048 196.109C375.366 196.404 375.619 196.795 375.808 197.283C375.997 197.77 376.092 198.37 376.092 199.082V199.58H370.205V198.565H374.899C374.899 198.134 374.812 197.75 374.64 197.412C374.471 197.074 374.229 196.807 373.914 196.612C373.603 196.416 373.235 196.318 372.811 196.318C372.343 196.318 371.939 196.434 371.597 196.666C371.259 196.895 370.999 197.193 370.817 197.561C370.635 197.929 370.544 198.323 370.544 198.744V199.42C370.544 199.997 370.643 200.486 370.842 200.887C371.044 201.285 371.324 201.588 371.682 201.797C372.04 202.002 372.456 202.105 372.93 202.105C373.238 202.105 373.517 202.062 373.765 201.976C374.017 201.886 374.234 201.754 374.416 201.578C374.599 201.399 374.74 201.177 374.839 200.912L375.972 201.23C375.853 201.615 375.653 201.953 375.371 202.244C375.089 202.533 374.741 202.758 374.327 202.92C373.913 203.08 373.447 203.159 372.93 203.159ZM378.732 203.08C378.486 203.08 378.276 202.992 378.1 202.816C377.925 202.64 377.837 202.43 377.837 202.185C377.837 201.939 377.925 201.729 378.1 201.553C378.276 201.378 378.486 201.29 378.732 201.29C378.977 201.29 379.187 201.378 379.363 201.553C379.539 201.729 379.627 201.939 379.627 202.185C379.627 202.347 379.585 202.496 379.502 202.632C379.423 202.768 379.315 202.877 379.179 202.96C379.047 203.04 378.897 203.08 378.732 203.08ZM384.834 203.159C384.118 203.159 383.502 202.99 382.985 202.652C382.468 202.314 382.07 201.848 381.792 201.255C381.513 200.662 381.374 199.984 381.374 199.222C381.374 198.446 381.517 197.762 381.802 197.168C382.09 196.572 382.491 196.106 383.005 195.771C383.522 195.433 384.125 195.264 384.814 195.264C385.351 195.264 385.835 195.364 386.266 195.562C386.697 195.761 387.05 196.04 387.325 196.398C387.6 196.756 387.771 197.173 387.837 197.651H386.664C386.574 197.303 386.376 196.994 386.067 196.726C385.762 196.454 385.351 196.318 384.834 196.318C384.377 196.318 383.976 196.437 383.631 196.676C383.29 196.911 383.023 197.245 382.831 197.675C382.642 198.103 382.547 198.605 382.547 199.182C382.547 199.772 382.64 200.286 382.826 200.723C383.015 201.161 383.28 201.5 383.621 201.742C383.966 201.984 384.37 202.105 384.834 202.105C385.139 202.105 385.416 202.052 385.665 201.946C385.913 201.84 386.124 201.688 386.296 201.489C386.468 201.29 386.591 201.051 386.664 200.773H387.837C387.771 201.223 387.607 201.629 387.345 201.991C387.086 202.349 386.743 202.634 386.316 202.846C385.892 203.055 385.398 203.159 384.834 203.159ZM392.655 203.159C391.965 203.159 391.36 202.995 390.84 202.667C390.323 202.339 389.919 201.88 389.627 201.29C389.339 200.7 389.194 200.01 389.194 199.222C389.194 198.426 389.339 197.732 389.627 197.138C389.919 196.545 390.323 196.085 390.84 195.756C391.36 195.428 391.965 195.264 392.655 195.264C393.344 195.264 393.947 195.428 394.464 195.756C394.985 196.085 395.389 196.545 395.677 197.138C395.969 197.732 396.115 198.426 396.115 199.222C396.115 200.01 395.969 200.7 395.677 201.29C395.389 201.88 394.985 202.339 394.464 202.667C393.947 202.995 393.344 203.159 392.655 203.159ZM392.655 202.105C393.178 202.105 393.609 201.971 393.947 201.702C394.285 201.434 394.536 201.081 394.698 200.643C394.86 200.206 394.942 199.732 394.942 199.222C394.942 198.711 394.86 198.236 394.698 197.795C394.536 197.354 394.285 196.998 393.947 196.726C393.609 196.454 393.178 196.318 392.655 196.318C392.131 196.318 391.7 196.454 391.362 196.726C391.024 196.998 390.774 197.354 390.611 197.795C390.449 198.236 390.368 198.711 390.368 199.222C390.368 199.732 390.449 200.206 390.611 200.643C390.774 201.081 391.024 201.434 391.362 201.702C391.7 201.971 392.131 202.105 392.655 202.105ZM397.906 203V195.364H399.039V196.557H399.139C399.298 196.149 399.555 195.833 399.909 195.607C400.264 195.379 400.69 195.264 401.187 195.264C401.691 195.264 402.11 195.379 402.445 195.607C402.783 195.833 403.047 196.149 403.235 196.557H403.315C403.511 196.162 403.804 195.849 404.195 195.617C404.586 195.382 405.055 195.264 405.602 195.264C406.285 195.264 406.843 195.478 407.277 195.906C407.712 196.33 407.929 196.991 407.929 197.889V203H406.755V197.889C406.755 197.326 406.601 196.923 406.293 196.681C405.985 196.439 405.622 196.318 405.204 196.318C404.667 196.318 404.251 196.481 403.956 196.805C403.661 197.127 403.514 197.535 403.514 198.028V203H402.321V197.77C402.321 197.336 402.18 196.986 401.898 196.721C401.616 196.452 401.253 196.318 400.809 196.318C400.504 196.318 400.219 196.399 399.954 196.562C399.692 196.724 399.48 196.95 399.318 197.238C399.159 197.523 399.079 197.853 399.079 198.227V203H397.906Z" fill="#333333"/>
<path d="M409 213H98V215H409V213Z" fill="#E8E8E8" mask="url(#path-7-inside-1_1274_4403)"/>
<path d="M107.575 229.129H106.024C105.964 228.798 105.853 228.506 105.691 228.254C105.529 228.002 105.33 227.789 105.094 227.613C104.859 227.437 104.596 227.305 104.304 227.215C104.016 227.126 103.709 227.081 103.384 227.081C102.798 227.081 102.272 227.228 101.808 227.523C101.348 227.818 100.983 228.251 100.714 228.821C100.449 229.391 100.317 230.087 100.317 230.909C100.317 231.738 100.449 232.437 100.714 233.007C100.983 233.577 101.349 234.008 101.813 234.3C102.277 234.591 102.799 234.737 103.379 234.737C103.701 234.737 104.006 234.694 104.294 234.608C104.586 234.518 104.849 234.388 105.085 234.215C105.32 234.043 105.519 233.832 105.681 233.584C105.847 233.332 105.961 233.044 106.024 232.719L107.575 232.724C107.492 233.224 107.332 233.685 107.093 234.106C106.858 234.523 106.554 234.885 106.183 235.19C105.815 235.491 105.394 235.725 104.92 235.891C104.446 236.056 103.929 236.139 103.369 236.139C102.488 236.139 101.702 235.93 101.013 235.513C100.323 235.092 99.7798 234.49 99.3821 233.708C98.9877 232.926 98.7905 231.993 98.7905 230.909C98.7905 229.822 98.9893 228.889 99.3871 228.11C99.7848 227.328 100.328 226.728 101.018 226.31C101.707 225.889 102.491 225.679 103.369 225.679C103.91 225.679 104.413 225.757 104.881 225.913C105.351 226.065 105.774 226.29 106.148 226.589C106.523 226.884 106.833 227.245 107.078 227.673C107.323 228.097 107.489 228.582 107.575 229.129ZM112.511 236.154C111.795 236.154 111.17 235.99 110.637 235.662C110.103 235.334 109.689 234.875 109.394 234.285C109.099 233.695 108.951 233.005 108.951 232.217C108.951 231.424 109.099 230.732 109.394 230.138C109.689 229.545 110.103 229.085 110.637 228.756C111.17 228.428 111.795 228.264 112.511 228.264C113.227 228.264 113.852 228.428 114.385 228.756C114.919 229.085 115.333 229.545 115.628 230.138C115.923 230.732 116.07 231.424 116.07 232.217C116.07 233.005 115.923 233.695 115.628 234.285C115.333 234.875 114.919 235.334 114.385 235.662C113.852 235.99 113.227 236.154 112.511 236.154ZM112.516 234.906C112.98 234.906 113.364 234.784 113.669 234.538C113.974 234.293 114.2 233.967 114.345 233.559C114.494 233.151 114.569 232.702 114.569 232.212C114.569 231.724 114.494 231.277 114.345 230.869C114.2 230.458 113.974 230.129 113.669 229.88C113.364 229.631 112.98 229.507 112.516 229.507C112.048 229.507 111.661 229.631 111.352 229.88C111.048 230.129 110.82 230.458 110.671 230.869C110.526 231.277 110.453 231.724 110.453 232.212C110.453 232.702 110.526 233.151 110.671 233.559C110.82 233.967 111.048 234.293 111.352 234.538C111.661 234.784 112.048 234.906 112.516 234.906ZM119.216 231.466V236H117.73V228.364H119.157V229.607H119.251C119.427 229.202 119.702 228.877 120.076 228.632C120.454 228.387 120.93 228.264 121.503 228.264C122.024 228.264 122.479 228.374 122.87 228.592C123.261 228.808 123.565 229.129 123.78 229.557C123.996 229.984 124.103 230.513 124.103 231.143V236H122.617V231.322C122.617 230.768 122.473 230.336 122.184 230.024C121.896 229.709 121.5 229.552 120.996 229.552C120.651 229.552 120.345 229.626 120.076 229.776C119.811 229.925 119.601 230.143 119.445 230.432C119.292 230.717 119.216 231.062 119.216 231.466ZM129.662 228.364V229.557H125.49V228.364H129.662ZM126.609 226.534H128.096V233.758C128.096 234.046 128.139 234.263 128.225 234.409C128.311 234.552 128.422 234.649 128.558 234.702C128.697 234.752 128.848 234.777 129.01 234.777C129.13 234.777 129.234 234.769 129.324 234.752C129.413 234.736 129.483 234.722 129.532 234.712L129.801 235.94C129.715 235.973 129.592 236.007 129.433 236.04C129.274 236.076 129.075 236.096 128.836 236.099C128.445 236.106 128.081 236.036 127.743 235.891C127.404 235.745 127.131 235.519 126.922 235.214C126.713 234.91 126.609 234.527 126.609 234.066V226.534ZM133.528 236.169C133.044 236.169 132.607 236.08 132.216 235.901C131.825 235.718 131.515 235.455 131.286 235.11C131.061 234.765 130.948 234.343 130.948 233.842C130.948 233.411 131.031 233.057 131.197 232.778C131.362 232.5 131.586 232.28 131.868 232.117C132.149 231.955 132.464 231.832 132.812 231.749C133.16 231.666 133.515 231.603 133.876 231.56C134.334 231.507 134.705 231.464 134.99 231.431C135.275 231.395 135.482 231.337 135.611 231.257C135.741 231.178 135.805 231.048 135.805 230.869V230.835C135.805 230.4 135.683 230.064 135.437 229.825C135.195 229.587 134.834 229.467 134.354 229.467C133.853 229.467 133.459 229.578 133.17 229.8C132.885 230.019 132.688 230.263 132.579 230.531L131.182 230.213C131.347 229.749 131.589 229.375 131.907 229.089C132.229 228.801 132.599 228.592 133.016 228.463C133.434 228.33 133.873 228.264 134.334 228.264C134.639 228.264 134.962 228.301 135.303 228.374C135.648 228.443 135.969 228.572 136.268 228.761C136.569 228.95 136.816 229.22 137.008 229.572C137.201 229.92 137.297 230.372 137.297 230.929V236H135.845V234.956H135.785C135.689 235.148 135.545 235.337 135.353 235.523C135.161 235.708 134.914 235.862 134.612 235.985C134.31 236.108 133.949 236.169 133.528 236.169ZM133.851 234.976C134.262 234.976 134.614 234.895 134.905 234.732C135.2 234.57 135.424 234.358 135.577 234.096C135.732 233.831 135.81 233.547 135.81 233.246V232.261C135.757 232.314 135.654 232.364 135.502 232.411C135.353 232.454 135.182 232.492 134.99 232.525C134.798 232.555 134.61 232.583 134.428 232.609C134.246 232.633 134.093 232.652 133.971 232.669C133.682 232.705 133.419 232.767 133.18 232.853C132.945 232.939 132.756 233.063 132.613 233.226C132.474 233.385 132.405 233.597 132.405 233.862C132.405 234.23 132.541 234.509 132.812 234.697C133.084 234.883 133.43 234.976 133.851 234.976ZM139.277 236V228.364H140.763V236H139.277ZM140.027 227.185C139.769 227.185 139.547 227.099 139.361 226.927C139.179 226.751 139.088 226.542 139.088 226.3C139.088 226.055 139.179 225.846 139.361 225.674C139.547 225.498 139.769 225.411 140.027 225.411C140.286 225.411 140.506 225.498 140.689 225.674C140.874 225.846 140.967 226.055 140.967 226.3C140.967 226.542 140.874 226.751 140.689 226.927C140.506 227.099 140.286 227.185 140.027 227.185ZM144.249 231.466V236H142.763V228.364H144.19V229.607H144.284C144.46 229.202 144.735 228.877 145.11 228.632C145.487 228.387 145.963 228.264 146.536 228.264C147.057 228.264 147.512 228.374 147.904 228.592C148.295 228.808 148.598 229.129 148.813 229.557C149.029 229.984 149.137 230.513 149.137 231.143V236H147.65V231.322C147.65 230.768 147.506 230.336 147.218 230.024C146.929 229.709 146.533 229.552 146.029 229.552C145.685 229.552 145.378 229.626 145.11 229.776C144.844 229.925 144.634 230.143 144.478 230.432C144.326 230.717 144.249 231.062 144.249 231.466ZM154.421 236.154C153.669 236.154 153.021 235.993 152.477 235.672C151.937 235.347 151.52 234.891 151.225 234.305C150.933 233.715 150.787 233.024 150.787 232.232C150.787 231.449 150.933 230.76 151.225 230.163C151.52 229.567 151.931 229.101 152.458 228.766C152.988 228.432 153.608 228.264 154.317 228.264C154.748 228.264 155.165 228.335 155.57 228.478C155.974 228.621 156.337 228.844 156.659 229.149C156.98 229.454 157.234 229.85 157.419 230.337C157.605 230.821 157.698 231.41 157.698 232.102V232.629H151.627V231.516H156.241C156.241 231.125 156.161 230.778 156.002 230.477C155.843 230.172 155.619 229.931 155.331 229.756C155.046 229.58 154.711 229.492 154.327 229.492C153.909 229.492 153.545 229.595 153.233 229.8C152.925 230.003 152.686 230.268 152.517 230.596C152.352 230.921 152.269 231.274 152.269 231.655V232.525C152.269 233.035 152.358 233.469 152.537 233.827C152.719 234.185 152.973 234.459 153.298 234.648C153.623 234.833 154.002 234.926 154.436 234.926C154.718 234.926 154.975 234.886 155.207 234.807C155.439 234.724 155.639 234.601 155.808 234.439C155.977 234.277 156.107 234.076 156.196 233.837L157.603 234.091C157.49 234.505 157.288 234.868 156.997 235.18C156.708 235.488 156.345 235.728 155.908 235.901C155.474 236.07 154.978 236.154 154.421 236.154ZM159.347 236V228.364H160.784V229.577H160.863C161.002 229.166 161.248 228.843 161.599 228.607C161.954 228.369 162.355 228.249 162.802 228.249C162.895 228.249 163.004 228.253 163.13 228.259C163.26 228.266 163.361 228.274 163.434 228.284V229.706C163.374 229.689 163.268 229.671 163.115 229.651C162.963 229.628 162.81 229.616 162.658 229.616C162.307 229.616 161.993 229.691 161.718 229.84C161.447 229.986 161.231 230.19 161.072 230.452C160.913 230.71 160.833 231.005 160.833 231.337V236H159.347ZM170.081 225.818V236H168.544V225.818H170.081ZM175.614 236H172.318V225.818H175.718C176.716 225.818 177.573 226.022 178.289 226.43C179.005 226.834 179.553 227.416 179.934 228.175C180.319 228.93 180.511 229.837 180.511 230.894C180.511 231.955 180.317 232.866 179.929 233.629C179.545 234.391 178.988 234.978 178.259 235.388C177.53 235.796 176.648 236 175.614 236ZM173.854 234.658H175.529C176.305 234.658 176.95 234.512 177.463 234.22C177.977 233.925 178.362 233.499 178.617 232.942C178.872 232.382 179 231.7 179 230.894C179 230.095 178.872 229.418 178.617 228.861C178.365 228.304 177.989 227.881 177.488 227.593C176.988 227.305 176.366 227.161 175.624 227.161H173.854V234.658Z" fill="#333333"/>
<path d="M298.672 229C298.562 228.665 298.418 228.365 298.239 228.1C298.064 227.832 297.853 227.603 297.608 227.414C297.366 227.225 297.091 227.081 296.782 226.982C296.474 226.882 296.136 226.832 295.768 226.832C295.165 226.832 294.617 226.988 294.123 227.3C293.629 227.611 293.236 228.07 292.944 228.677C292.653 229.283 292.507 230.027 292.507 230.909C292.507 231.791 292.654 232.535 292.949 233.141C293.244 233.748 293.644 234.207 294.148 234.518C294.651 234.83 295.218 234.986 295.848 234.986C296.431 234.986 296.945 234.862 297.389 234.613C297.836 234.361 298.184 234.006 298.433 233.549C298.685 233.088 298.811 232.546 298.811 231.923L299.189 232.003H296.126V230.909H300.004V232.003C300.004 232.841 299.825 233.571 299.467 234.19C299.113 234.81 298.622 235.291 297.996 235.632C297.372 235.97 296.657 236.139 295.848 236.139C294.946 236.139 294.154 235.927 293.471 235.503C292.792 235.079 292.262 234.475 291.881 233.693C291.503 232.911 291.314 231.983 291.314 230.909C291.314 230.104 291.421 229.379 291.637 228.737C291.856 228.09 292.164 227.54 292.562 227.086C292.959 226.632 293.43 226.284 293.974 226.042C294.517 225.8 295.115 225.679 295.768 225.679C296.305 225.679 296.806 225.76 297.27 225.923C297.737 226.082 298.153 226.309 298.518 226.604C298.885 226.895 299.192 227.245 299.437 227.653C299.683 228.057 299.852 228.506 299.944 229H298.672ZM301.135 226.912V225.818H308.771V226.912H305.57V236H304.337V226.912H301.135ZM310.674 225.818H312.146L315.606 234.27H315.725L319.186 225.818H320.657V236H319.504V228.264H319.404L316.223 236H315.109L311.927 228.264H311.828V236H310.674V225.818ZM330.468 225.818V236H329.235V227.111H329.175L326.689 228.761V227.509L329.235 225.818H330.468ZM333.396 236V235.105L336.757 231.426C337.151 230.995 337.476 230.621 337.731 230.303C337.986 229.981 338.175 229.679 338.298 229.398C338.424 229.113 338.487 228.814 338.487 228.503C338.487 228.145 338.401 227.835 338.228 227.573C338.059 227.311 337.827 227.109 337.532 226.967C337.237 226.824 336.906 226.753 336.538 226.753C336.147 226.753 335.805 226.834 335.514 226.996C335.225 227.156 335.002 227.379 334.843 227.668C334.687 227.956 334.609 228.294 334.609 228.682H333.436C333.436 228.085 333.573 227.562 333.848 227.111C334.123 226.66 334.498 226.309 334.972 226.057C335.449 225.805 335.984 225.679 336.578 225.679C337.174 225.679 337.703 225.805 338.164 226.057C338.624 226.309 338.985 226.648 339.247 227.076C339.509 227.504 339.64 227.979 339.64 228.503C339.64 228.877 339.572 229.244 339.436 229.602C339.304 229.956 339.072 230.352 338.74 230.79C338.412 231.224 337.956 231.754 337.373 232.381L335.086 234.827V234.906H339.819V236H333.396ZM345.313 236.139C344.656 236.139 344.071 236.027 343.558 235.801C343.047 235.576 342.641 235.263 342.34 234.862C342.041 234.457 341.879 233.988 341.852 233.455H343.105C343.132 233.783 343.244 234.066 343.443 234.305C343.642 234.54 343.902 234.722 344.224 234.852C344.545 234.981 344.902 235.045 345.293 235.045C345.73 235.045 346.118 234.969 346.456 234.817C346.794 234.664 347.059 234.452 347.252 234.18C347.444 233.909 347.54 233.594 347.54 233.236C347.54 232.861 347.447 232.531 347.262 232.246C347.076 231.958 346.804 231.733 346.446 231.57C346.088 231.408 345.651 231.327 345.134 231.327H344.318V230.233H345.134C345.538 230.233 345.893 230.16 346.198 230.014C346.506 229.868 346.746 229.663 346.919 229.398C347.094 229.133 347.182 228.821 347.182 228.463C347.182 228.118 347.106 227.818 346.953 227.563C346.801 227.308 346.585 227.109 346.307 226.967C346.032 226.824 345.707 226.753 345.333 226.753C344.981 226.753 344.65 226.817 344.338 226.947C344.03 227.073 343.778 227.257 343.583 227.499C343.387 227.737 343.281 228.026 343.264 228.364H342.071C342.091 227.83 342.252 227.363 342.553 226.962C342.855 226.557 343.249 226.242 343.737 226.017C344.227 225.792 344.766 225.679 345.352 225.679C345.982 225.679 346.522 225.807 346.973 226.062C347.424 226.314 347.77 226.647 348.012 227.061C348.254 227.475 348.375 227.923 348.375 228.403C348.375 228.977 348.224 229.466 347.923 229.87C347.624 230.274 347.218 230.554 346.705 230.71V230.79C347.348 230.896 347.85 231.169 348.211 231.61C348.572 232.048 348.753 232.589 348.753 233.236C348.753 233.789 348.602 234.286 348.301 234.727C348.002 235.165 347.595 235.509 347.078 235.761C346.561 236.013 345.972 236.139 345.313 236.139ZM354.485 233.912V232.898L358.96 225.818H359.695V227.389H359.198L355.818 232.739V232.818H361.843V233.912H354.485ZM359.278 236V233.604V233.131V225.818H360.451V236H359.278ZM366.888 236.139C366.305 236.139 365.779 236.023 365.312 235.791C364.845 235.559 364.47 235.241 364.189 234.837C363.907 234.432 363.753 233.972 363.726 233.455H364.919C364.966 233.915 365.175 234.296 365.546 234.598C365.92 234.896 366.368 235.045 366.888 235.045C367.306 235.045 367.677 234.948 368.002 234.752C368.33 234.557 368.587 234.288 368.772 233.947C368.961 233.602 369.056 233.213 369.056 232.778C369.056 232.334 368.958 231.938 368.762 231.59C368.57 231.239 368.305 230.962 367.967 230.76C367.629 230.558 367.243 230.455 366.809 230.452C366.497 230.448 366.177 230.496 365.849 230.596C365.521 230.692 365.251 230.816 365.039 230.969L363.885 230.83L364.502 225.818H369.792V226.912H365.536L365.178 229.915H365.238C365.446 229.749 365.708 229.612 366.023 229.502C366.338 229.393 366.666 229.338 367.007 229.338C367.631 229.338 368.186 229.487 368.673 229.786C369.163 230.08 369.548 230.485 369.826 230.999C370.108 231.512 370.249 232.099 370.249 232.759C370.249 233.408 370.103 233.988 369.811 234.499C369.523 235.006 369.125 235.407 368.618 235.702C368.111 235.993 367.534 236.139 366.888 236.139ZM375.605 236.139C375.187 236.133 374.769 236.053 374.352 235.901C373.934 235.748 373.553 235.491 373.208 235.13C372.864 234.765 372.587 234.273 372.378 233.653C372.169 233.03 372.065 232.248 372.065 231.307C372.065 230.405 372.149 229.607 372.318 228.911C372.487 228.211 372.733 227.623 373.054 227.146C373.376 226.665 373.763 226.3 374.218 226.052C374.675 225.803 375.19 225.679 375.764 225.679C376.334 225.679 376.841 225.793 377.285 226.022C377.732 226.247 378.097 226.562 378.379 226.967C378.66 227.371 378.843 227.837 378.926 228.364H377.713C377.6 227.906 377.381 227.527 377.056 227.225C376.731 226.924 376.301 226.773 375.764 226.773C374.975 226.773 374.353 227.116 373.899 227.802C373.449 228.488 373.222 229.451 373.218 230.69H373.298C373.483 230.409 373.704 230.168 373.959 229.969C374.218 229.767 374.503 229.612 374.814 229.502C375.126 229.393 375.455 229.338 375.803 229.338C376.387 229.338 376.92 229.484 377.404 229.776C377.888 230.064 378.276 230.463 378.568 230.974C378.859 231.481 379.005 232.062 379.005 232.719C379.005 233.348 378.864 233.925 378.583 234.449C378.301 234.969 377.905 235.384 377.394 235.692C376.887 235.997 376.291 236.146 375.605 236.139ZM375.605 235.045C376.022 235.045 376.397 234.941 376.728 234.732C377.063 234.523 377.326 234.243 377.519 233.892C377.714 233.541 377.812 233.15 377.812 232.719C377.812 232.298 377.718 231.915 377.529 231.57C377.343 231.222 377.086 230.946 376.758 230.74C376.433 230.535 376.062 230.432 375.644 230.432C375.329 230.432 375.036 230.495 374.764 230.621C374.493 230.743 374.254 230.912 374.048 231.128C373.846 231.343 373.687 231.59 373.571 231.869C373.455 232.144 373.397 232.434 373.397 232.739C373.397 233.143 373.492 233.521 373.681 233.872C373.873 234.223 374.135 234.507 374.466 234.722C374.801 234.938 375.18 235.045 375.605 235.045ZM385.216 236L389.77 226.991V226.912H384.52V225.818H391.043V226.972L386.509 236H385.216ZM395.952 236.139C395.269 236.139 394.666 236.018 394.142 235.776C393.622 235.531 393.216 235.195 392.924 234.767C392.633 234.336 392.489 233.846 392.492 233.295C392.489 232.865 392.573 232.467 392.745 232.102C392.918 231.734 393.153 231.428 393.451 231.183C393.753 230.934 394.089 230.777 394.461 230.71V230.651C393.973 230.525 393.586 230.251 393.297 229.83C393.009 229.406 392.866 228.924 392.87 228.384C392.866 227.866 392.997 227.404 393.262 226.996C393.528 226.589 393.892 226.267 394.356 226.032C394.824 225.797 395.355 225.679 395.952 225.679C396.542 225.679 397.069 225.797 397.533 226.032C397.997 226.267 398.362 226.589 398.627 226.996C398.895 227.404 399.031 227.866 399.034 228.384C399.031 228.924 398.884 229.406 398.592 229.83C398.304 230.251 397.921 230.525 397.444 230.651V230.71C397.811 230.777 398.143 230.934 398.438 231.183C398.733 231.428 398.968 231.734 399.144 232.102C399.319 232.467 399.409 232.865 399.412 233.295C399.409 233.846 399.26 234.336 398.965 234.767C398.673 235.195 398.267 235.531 397.747 235.776C397.23 236.018 396.632 236.139 395.952 236.139ZM395.952 235.045C396.413 235.045 396.81 234.971 397.145 234.822C397.48 234.673 397.739 234.462 397.921 234.19C398.103 233.919 398.196 233.6 398.199 233.236C398.196 232.851 398.096 232.512 397.901 232.217C397.705 231.922 397.439 231.69 397.1 231.521C396.766 231.352 396.383 231.267 395.952 231.267C395.518 231.267 395.13 231.352 394.789 231.521C394.451 231.69 394.184 231.922 393.988 232.217C393.796 232.512 393.702 232.851 393.705 233.236C393.702 233.6 393.789 233.919 393.968 234.19C394.151 234.462 394.411 234.673 394.749 234.822C395.087 234.971 395.488 235.045 395.952 235.045ZM395.952 230.213C396.317 230.213 396.64 230.14 396.922 229.994C397.207 229.848 397.43 229.645 397.593 229.383C397.755 229.121 397.838 228.814 397.841 228.463C397.838 228.118 397.757 227.818 397.598 227.563C397.439 227.305 397.218 227.106 396.936 226.967C396.655 226.824 396.327 226.753 395.952 226.753C395.571 226.753 395.238 226.824 394.953 226.967C394.668 227.106 394.447 227.305 394.292 227.563C394.136 227.818 394.06 228.118 394.063 228.463C394.06 228.814 394.137 229.121 394.297 229.383C394.459 229.645 394.683 229.848 394.968 229.994C395.253 230.14 395.581 230.213 395.952 230.213ZM404.559 225.679C404.977 225.682 405.394 225.762 405.812 225.918C406.23 226.073 406.611 226.332 406.955 226.693C407.3 227.051 407.577 227.54 407.786 228.16C407.994 228.78 408.099 229.557 408.099 230.491C408.099 231.396 408.013 232.2 407.84 232.903C407.671 233.602 407.426 234.192 407.105 234.673C406.786 235.153 406.399 235.518 405.941 235.766C405.487 236.015 404.973 236.139 404.4 236.139C403.83 236.139 403.321 236.027 402.874 235.801C402.43 235.572 402.065 235.256 401.78 234.852C401.498 234.444 401.318 233.972 401.238 233.435H402.451C402.561 233.902 402.778 234.288 403.102 234.593C403.431 234.895 403.863 235.045 404.4 235.045C405.186 235.045 405.805 234.702 406.259 234.016C406.717 233.33 406.945 232.361 406.945 231.108H406.866C406.68 231.386 406.46 231.627 406.205 231.829C405.95 232.031 405.666 232.187 405.355 232.296C405.043 232.406 404.712 232.46 404.36 232.46C403.777 232.46 403.242 232.316 402.754 232.028C402.271 231.736 401.883 231.337 401.591 230.83C401.303 230.319 401.159 229.736 401.159 229.08C401.159 228.456 401.298 227.886 401.576 227.369C401.858 226.849 402.252 226.435 402.759 226.126C403.27 225.818 403.87 225.669 404.559 225.679ZM404.559 226.773C404.142 226.773 403.765 226.877 403.431 227.086C403.099 227.291 402.836 227.57 402.64 227.921C402.448 228.269 402.352 228.655 402.352 229.08C402.352 229.504 402.445 229.89 402.63 230.238C402.819 230.583 403.076 230.858 403.401 231.063C403.729 231.265 404.102 231.366 404.519 231.366C404.834 231.366 405.128 231.305 405.399 231.183C405.671 231.057 405.908 230.886 406.11 230.67C406.316 230.452 406.477 230.205 406.593 229.93C406.709 229.651 406.767 229.361 406.767 229.06C406.767 228.662 406.67 228.289 406.478 227.941C406.289 227.593 406.027 227.311 405.693 227.096C405.361 226.88 404.983 226.773 404.559 226.773Z" fill="#333333"/>
</g>
<rect x="82.5" y="173.5" width="342" height="81" rx="3.5" stroke="#E8E8E8"/>
</g>
</g>
<rect x="9" y="1" width="490" height="278" rx="7" stroke="black" stroke-width="2"/>
<defs>
<clipPath id="clip0_1274_4403">
<rect x="8" width="492" height="280" rx="8" fill="white"/>
</clipPath>
<clipPath id="clip1_1274_4403">
<rect width="375" height="1762" fill="white" transform="translate(66 -120)"/>
</clipPath>
<clipPath id="clip2_1274_4403">
<rect width="311" height="50" fill="white" transform="translate(98 189)"/>
</clipPath>
</defs>
</svg>
