<svg width="368" height="160" viewBox="0 0 368 160" fill="none" xmlns="http://www.w3.org/2000/svg">
<path d="M83.375 44H76.625C75.3824 44 74.375 45.0074 74.375 46.25V113.75C74.375 114.993 75.3824 116 76.625 116H83.375C84.6176 116 85.625 114.993 85.625 113.75V46.25C85.625 45.0074 84.6176 44 83.375 44Z" fill="#333333"/>
<path d="M99.125 69.875H93.5C92.2574 69.875 91.25 70.8824 91.25 72.125V83.375C91.25 84.6176 92.2574 85.625 93.5 85.625H99.125C100.368 85.625 101.375 84.6176 101.375 83.375V72.125C101.375 70.8824 100.368 69.875 99.125 69.875Z" fill="#333333"/>
<path d="M66.5 58.625H60.875C59.6324 58.625 58.625 59.6324 58.625 60.875V77.75C58.625 78.9926 59.6324 80 60.875 80H66.5C67.7426 80 68.75 78.9926 68.75 77.75V60.875C68.75 59.6324 67.7426 58.625 66.5 58.625Z" fill="#333333"/>
<path d="M126.881 62.5V56.4545H162.903V62.5H148.381V103H141.381V62.5H126.881ZM171.727 103.773C169.515 103.773 167.515 103.364 165.727 102.545C163.939 101.712 162.523 100.508 161.477 98.9318C160.447 97.3561 159.932 95.4242 159.932 93.1364C159.932 91.1667 160.311 89.5455 161.068 88.2727C161.826 87 162.848 85.9924 164.136 85.25C165.424 84.5076 166.864 83.947 168.455 83.5682C170.045 83.1894 171.667 82.9015 173.318 82.7045C175.409 82.4621 177.106 82.2652 178.409 82.1136C179.712 81.947 180.659 81.6818 181.25 81.3182C181.841 80.9545 182.136 80.3636 182.136 79.5455V79.3864C182.136 77.4015 181.576 75.8636 180.455 74.7727C179.348 73.6818 177.697 73.1364 175.5 73.1364C173.212 73.1364 171.409 73.6439 170.091 74.6591C168.788 75.6591 167.886 76.7727 167.386 78L161 76.5455C161.758 74.4242 162.864 72.7121 164.318 71.4091C165.788 70.0909 167.477 69.1364 169.386 68.5455C171.295 67.9394 173.303 67.6364 175.409 67.6364C176.803 67.6364 178.28 67.803 179.841 68.1364C181.417 68.4545 182.886 69.0455 184.25 69.9091C185.629 70.7727 186.758 72.0076 187.636 73.6136C188.515 75.2045 188.955 77.2727 188.955 79.8182V103H182.318V98.2273H182.045C181.606 99.1061 180.947 99.9697 180.068 100.818C179.189 101.667 178.061 102.371 176.682 102.932C175.303 103.492 173.652 103.773 171.727 103.773ZM173.205 98.3182C175.083 98.3182 176.689 97.947 178.023 97.2045C179.371 96.4621 180.394 95.4924 181.091 94.2955C181.803 93.0833 182.159 91.7879 182.159 90.4091V85.9091C181.917 86.1515 181.447 86.3788 180.75 86.5909C180.068 86.7879 179.288 86.9621 178.409 87.1136C177.53 87.25 176.674 87.3788 175.841 87.5C175.008 87.6061 174.311 87.697 173.75 87.7727C172.432 87.9394 171.227 88.2197 170.136 88.6136C169.061 89.0076 168.197 89.5758 167.545 90.3182C166.909 91.0455 166.591 92.0152 166.591 93.2273C166.591 94.9091 167.212 96.1818 168.455 97.0455C169.697 97.8939 171.28 98.3182 173.205 98.3182ZM208.642 116.818C205.869 116.818 203.483 116.455 201.483 115.727C199.498 115 197.877 114.038 196.619 112.841C195.362 111.644 194.422 110.333 193.801 108.909L199.642 106.5C200.051 107.167 200.597 107.871 201.278 108.614C201.975 109.371 202.915 110.015 204.097 110.545C205.294 111.076 206.831 111.341 208.71 111.341C211.286 111.341 213.415 110.712 215.097 109.455C216.778 108.212 217.619 106.227 217.619 103.5V96.6364H217.188C216.778 97.3788 216.188 98.2045 215.415 99.1136C214.657 100.023 213.612 100.811 212.278 101.477C210.945 102.144 209.21 102.477 207.074 102.477C204.316 102.477 201.831 101.833 199.619 100.545C197.422 99.2424 195.68 97.3258 194.392 94.7955C193.119 92.25 192.483 89.1212 192.483 85.4091C192.483 81.697 193.112 78.5152 194.369 75.8636C195.642 73.2121 197.384 71.1818 199.597 69.7727C201.809 68.3485 204.316 67.6364 207.119 67.6364C209.286 67.6364 211.036 68 212.369 68.7273C213.703 69.4394 214.741 70.2727 215.483 71.2273C216.241 72.1818 216.824 73.0227 217.233 73.75H217.733V68.0909H224.392V103.773C224.392 106.773 223.695 109.235 222.301 111.159C220.907 113.083 219.021 114.508 216.642 115.432C214.278 116.356 211.612 116.818 208.642 116.818ZM208.574 96.8409C210.528 96.8409 212.18 96.3864 213.528 95.4773C214.892 94.553 215.922 93.2348 216.619 91.5227C217.331 89.7955 217.688 87.7273 217.688 85.3182C217.688 82.9697 217.339 80.9015 216.642 79.1136C215.945 77.3258 214.922 75.9318 213.574 74.9318C212.225 73.9167 210.559 73.4091 208.574 73.4091C206.528 73.4091 204.824 73.9394 203.46 75C202.097 76.0455 201.066 77.4697 200.369 79.2727C199.688 81.0758 199.347 83.0909 199.347 85.3182C199.347 87.6061 199.695 89.6136 200.392 91.3409C201.089 93.0682 202.119 94.4167 203.483 95.3864C204.862 96.3561 206.559 96.8409 208.574 96.8409ZM244.142 116.818C241.369 116.818 238.983 116.455 236.983 115.727C234.998 115 233.377 114.038 232.119 112.841C230.862 111.644 229.922 110.333 229.301 108.909L235.142 106.5C235.551 107.167 236.097 107.871 236.778 108.614C237.475 109.371 238.415 110.015 239.597 110.545C240.794 111.076 242.331 111.341 244.21 111.341C246.786 111.341 248.915 110.712 250.597 109.455C252.278 108.212 253.119 106.227 253.119 103.5V96.6364H252.688C252.278 97.3788 251.688 98.2045 250.915 99.1136C250.157 100.023 249.112 100.811 247.778 101.477C246.445 102.144 244.71 102.477 242.574 102.477C239.816 102.477 237.331 101.833 235.119 100.545C232.922 99.2424 231.18 97.3258 229.892 94.7955C228.619 92.25 227.983 89.1212 227.983 85.4091C227.983 81.697 228.612 78.5152 229.869 75.8636C231.142 73.2121 232.884 71.1818 235.097 69.7727C237.309 68.3485 239.816 67.6364 242.619 67.6364C244.786 67.6364 246.536 68 247.869 68.7273C249.203 69.4394 250.241 70.2727 250.983 71.2273C251.741 72.1818 252.324 73.0227 252.733 73.75H253.233V68.0909H259.892V103.773C259.892 106.773 259.195 109.235 257.801 111.159C256.407 113.083 254.521 114.508 252.142 115.432C249.778 116.356 247.112 116.818 244.142 116.818ZM244.074 96.8409C246.028 96.8409 247.68 96.3864 249.028 95.4773C250.392 94.553 251.422 93.2348 252.119 91.5227C252.831 89.7955 253.188 87.7273 253.188 85.3182C253.188 82.9697 252.839 80.9015 252.142 79.1136C251.445 77.3258 250.422 75.9318 249.074 74.9318C247.725 73.9167 246.059 73.4091 244.074 73.4091C242.028 73.4091 240.324 73.9394 238.96 75C237.597 76.0455 236.566 77.4697 235.869 79.2727C235.188 81.0758 234.847 83.0909 234.847 85.3182C234.847 87.6061 235.195 89.6136 235.892 91.3409C236.589 93.0682 237.619 94.4167 238.983 95.3864C240.362 96.3561 242.059 96.8409 244.074 96.8409ZM271.801 56.4545V103H265.006V56.4545H271.801ZM291.648 103.705C288.375 103.705 285.519 102.955 283.08 101.455C280.64 99.9545 278.746 97.8561 277.398 95.1591C276.049 92.4621 275.375 89.3106 275.375 85.7045C275.375 82.0833 276.049 78.9167 277.398 76.2045C278.746 73.4924 280.64 71.3864 283.08 69.8864C285.519 68.3864 288.375 67.6364 291.648 67.6364C294.92 67.6364 297.777 68.3864 300.216 69.8864C302.655 71.3864 304.549 73.4924 305.898 76.2045C307.246 78.9167 307.92 82.0833 307.92 85.7045C307.92 89.3106 307.246 92.4621 305.898 95.1591C304.549 97.8561 302.655 99.9545 300.216 101.455C297.777 102.955 294.92 103.705 291.648 103.705ZM291.67 98C293.792 98 295.549 97.4394 296.943 96.3182C298.337 95.197 299.367 93.7045 300.034 91.8409C300.716 89.9773 301.057 87.9242 301.057 85.6818C301.057 83.4545 300.716 81.4091 300.034 79.5455C299.367 77.6667 298.337 76.1591 296.943 75.0227C295.549 73.8864 293.792 73.3182 291.67 73.3182C289.534 73.3182 287.761 73.8864 286.352 75.0227C284.958 76.1591 283.92 77.6667 283.239 79.5455C282.572 81.4091 282.239 83.4545 282.239 85.6818C282.239 87.9242 282.572 89.9773 283.239 91.8409C283.92 93.7045 284.958 95.197 286.352 96.3182C287.761 97.4394 289.534 98 291.67 98Z" fill="#333333"/>
</svg>
