<svg width="87" height="48" viewBox="0 0 87 48" fill="none" xmlns="http://www.w3.org/2000/svg">
<rect x="10" y="12" width="4" height="24" rx="0.75" fill="#333333"/>
<rect x="17" y="21" width="4" height="6" rx="0.75" fill="#333333"/>
<rect x="3" y="16" width="4" height="8" rx="0.75" fill="#333333"/>
<path d="M29.2008 19.6094V17.9091H39.3322V19.6094H35.2477V31H33.2789V19.6094H29.2008ZM42.9389 31.2173C42.3168 31.2173 41.7543 31.1023 41.2514 30.8722C40.7486 30.6378 40.3501 30.299 40.0561 29.8558C39.7663 29.4126 39.6214 28.8693 39.6214 28.2259C39.6214 27.6719 39.728 27.2159 39.9411 26.858C40.1541 26.5 40.4418 26.2166 40.804 26.0078C41.1662 25.799 41.571 25.6413 42.0185 25.5348C42.4659 25.4283 42.9219 25.3473 43.3864 25.2919C43.9744 25.2237 44.4517 25.1683 44.8182 25.1257C45.1847 25.0788 45.451 25.0043 45.6172 24.902C45.7834 24.7997 45.8665 24.6335 45.8665 24.4034V24.3587C45.8665 23.8004 45.7088 23.3679 45.3935 23.0611C45.0824 22.7543 44.6179 22.6009 44 22.6009C43.3565 22.6009 42.8494 22.7436 42.4787 23.0291C42.1122 23.3104 41.8587 23.6236 41.718 23.9688L39.9219 23.5597C40.1349 22.9631 40.446 22.4815 40.8551 22.1151C41.2685 21.7443 41.7436 21.4759 42.2805 21.3097C42.8175 21.1392 43.3821 21.054 43.9744 21.054C44.3665 21.054 44.782 21.1009 45.2209 21.1946C45.6641 21.2841 46.0774 21.4503 46.4609 21.6932C46.8487 21.9361 47.1662 22.2834 47.4134 22.7351C47.6605 23.1825 47.7841 23.7642 47.7841 24.4801V31H45.9176V29.6577H45.8409C45.7173 29.9048 45.532 30.1477 45.2848 30.3864C45.0376 30.625 44.7202 30.8232 44.3324 30.9808C43.9446 31.1385 43.4801 31.2173 42.9389 31.2173ZM43.3544 29.6832C43.8828 29.6832 44.3345 29.5788 44.7095 29.37C45.0888 29.1612 45.3764 28.8885 45.5724 28.5518C45.7727 28.2109 45.8729 27.8466 45.8729 27.4588V26.1932C45.8047 26.2614 45.6726 26.3253 45.4766 26.3849C45.2848 26.4403 45.0653 26.4893 44.8182 26.532C44.571 26.5703 44.3303 26.6065 44.0959 26.6406C43.8615 26.6705 43.6655 26.696 43.5078 26.7173C43.1371 26.7642 42.7983 26.843 42.4915 26.9538C42.1889 27.0646 41.946 27.2244 41.7628 27.4332C41.5838 27.6378 41.4943 27.9105 41.4943 28.2514C41.4943 28.7244 41.669 29.0824 42.0185 29.3253C42.3679 29.5639 42.8132 29.6832 43.3544 29.6832ZM54.4462 34.8864C53.6664 34.8864 52.9952 34.7841 52.4327 34.5795C51.8745 34.375 51.4185 34.1044 51.0648 33.7678C50.7111 33.4311 50.4469 33.0625 50.2722 32.6619L51.915 31.9844C52.03 32.1719 52.1834 32.37 52.3752 32.5788C52.5712 32.7919 52.8354 32.973 53.1678 33.1222C53.5044 33.2713 53.937 33.3459 54.4654 33.3459C55.1898 33.3459 55.7885 33.169 56.2615 32.8153C56.7346 32.4659 56.9711 31.9077 56.9711 31.1406V29.2102H56.8496C56.7346 29.419 56.5684 29.6513 56.351 29.907C56.138 30.1626 55.8439 30.3842 55.4689 30.5717C55.0939 30.7592 54.606 30.853 54.0051 30.853C53.2296 30.853 52.5307 30.6719 51.9086 30.3097C51.2907 29.9432 50.8006 29.4041 50.4384 28.6925C50.0804 27.9766 49.9015 27.0966 49.9015 26.0526C49.9015 25.0085 50.0783 24.1136 50.432 23.3679C50.79 22.6222 51.28 22.0511 51.9022 21.6548C52.5243 21.2543 53.2296 21.054 54.0179 21.054C54.6273 21.054 55.1195 21.1562 55.4945 21.3608C55.8695 21.5611 56.1614 21.7955 56.3702 22.0639C56.5833 22.3324 56.7473 22.5689 56.8624 22.7734H57.003V21.1818H58.8759V31.2173C58.8759 32.0611 58.6799 32.7536 58.2878 33.2947C57.8958 33.8359 57.3652 34.2365 56.6962 34.4964C56.0314 34.7564 55.2814 34.8864 54.4462 34.8864ZM54.427 29.2678C54.9767 29.2678 55.4412 29.1399 55.8205 28.8842C56.204 28.6243 56.4938 28.2536 56.6898 27.772C56.8901 27.2862 56.9902 26.7045 56.9902 26.027C56.9902 25.3665 56.8922 24.7848 56.6962 24.282C56.5002 23.7791 56.2125 23.3871 55.8333 23.1058C55.454 22.8203 54.9853 22.6776 54.427 22.6776C53.8517 22.6776 53.3723 22.8267 52.9888 23.125C52.6053 23.419 52.3155 23.8196 52.1195 24.3267C51.9277 24.8338 51.8319 25.4006 51.8319 26.027C51.8319 26.6705 51.9299 27.2351 52.1259 27.7209C52.3219 28.2067 52.6117 28.5859 52.9952 28.8587C53.383 29.1314 53.8603 29.2678 54.427 29.2678ZM65.5556 34.8864C64.7757 34.8864 64.1046 34.7841 63.5421 34.5795C62.9838 34.375 62.5279 34.1044 62.1742 33.7678C61.8205 33.4311 61.5563 33.0625 61.3816 32.6619L63.0243 31.9844C63.1394 32.1719 63.2928 32.37 63.4846 32.5788C63.6806 32.7919 63.9448 32.973 64.2772 33.1222C64.6138 33.2713 65.0463 33.3459 65.5748 33.3459C66.2992 33.3459 66.8979 33.169 67.3709 32.8153C67.8439 32.4659 68.0804 31.9077 68.0804 31.1406V29.2102H67.959C67.8439 29.419 67.6777 29.6513 67.4604 29.907C67.2473 30.1626 66.9533 30.3842 66.5783 30.5717C66.2033 30.7592 65.7154 30.853 65.1145 30.853C64.339 30.853 63.6401 30.6719 63.0179 30.3097C62.4 29.9432 61.91 29.4041 61.5478 28.6925C61.1898 27.9766 61.0108 27.0966 61.0108 26.0526C61.0108 25.0085 61.1877 24.1136 61.5414 23.3679C61.8993 22.6222 62.3894 22.0511 63.0115 21.6548C63.6337 21.2543 64.339 21.054 65.1273 21.054C65.7367 21.054 66.2289 21.1562 66.6039 21.3608C66.9789 21.5611 67.2708 21.7955 67.4796 22.0639C67.6926 22.3324 67.8567 22.5689 67.9718 22.7734H68.1124V21.1818H69.9853V31.2173C69.9853 32.0611 69.7892 32.7536 69.3972 33.2947C69.0051 33.8359 68.4746 34.2365 67.8056 34.4964C67.1408 34.7564 66.3908 34.8864 65.5556 34.8864ZM65.5364 29.2678C66.0861 29.2678 66.5506 29.1399 66.9299 28.8842C67.3134 28.6243 67.6032 28.2536 67.7992 27.772C67.9995 27.2862 68.0996 26.7045 68.0996 26.027C68.0996 25.3665 68.0016 24.7848 67.8056 24.282C67.6096 23.7791 67.3219 23.3871 66.9426 23.1058C66.5634 22.8203 66.0946 22.6776 65.5364 22.6776C64.9611 22.6776 64.4817 22.8267 64.0982 23.125C63.7147 23.419 63.4249 23.8196 63.2289 24.3267C63.0371 24.8338 62.9412 25.4006 62.9412 26.027C62.9412 26.6705 63.0392 27.2351 63.2353 27.7209C63.4313 28.2067 63.7211 28.5859 64.1046 28.8587C64.4924 29.1314 64.9696 29.2678 65.5364 29.2678ZM74.4597 17.9091V31H72.5485V17.9091H74.4597ZM81.1665 31.1982C80.2461 31.1982 79.4428 30.9872 78.7567 30.5653C78.0707 30.1435 77.538 29.5533 77.1587 28.7947C76.7795 28.0362 76.5898 27.1499 76.5898 26.1357C76.5898 25.1172 76.7795 24.2266 77.1587 23.4638C77.538 22.701 78.0707 22.1087 78.7567 21.6868C79.4428 21.2649 80.2461 21.054 81.1665 21.054C82.087 21.054 82.8903 21.2649 83.5763 21.6868C84.2624 22.1087 84.7951 22.701 85.1744 23.4638C85.5536 24.2266 85.7433 25.1172 85.7433 26.1357C85.7433 27.1499 85.5536 28.0362 85.1744 28.7947C84.7951 29.5533 84.2624 30.1435 83.5763 30.5653C82.8903 30.9872 82.087 31.1982 81.1665 31.1982ZM81.1729 29.5938C81.7695 29.5938 82.2638 29.4361 82.6559 29.1207C83.0479 28.8054 83.3377 28.3857 83.5252 27.8615C83.717 27.3374 83.8129 26.7599 83.8129 26.1293C83.8129 25.5028 83.717 24.9276 83.5252 24.4034C83.3377 23.875 83.0479 23.451 82.6559 23.1314C82.2638 22.8118 81.7695 22.652 81.1729 22.652C80.5721 22.652 80.0735 22.8118 79.6772 23.1314C79.2852 23.451 78.9933 23.875 78.8015 24.4034C78.614 24.9276 78.5202 25.5028 78.5202 26.1293C78.5202 26.7599 78.614 27.3374 78.8015 27.8615C78.9933 28.3857 79.2852 28.8054 79.6772 29.1207C80.0735 29.4361 80.5721 29.5938 81.1729 29.5938Z" fill="#333333"/>
</svg>
