<svg width="176" height="80" viewBox="0 0 176 80" fill="none" xmlns="http://www.w3.org/2000/svg">
<g clip-path="url(#clip0_854_1349)">
<path d="M43.0086 54.6891L37.4541 49.2728L49.383 37.0912L55.1339 42.7275L43.0086 54.6891Z" fill="#B4B4B4"/>
<path d="M43.0327 30.7422L37.4982 25.0914L25.3965 37.0785C23.8366 38.6384 23.8366 41.1675 25.3965 42.7293L37.3164 54.7273L42.9527 49.4547L33.871 39.9039L43.0327 30.7422Z" fill="#8F8F8F"/>
<path d="M55.054 37.1712L43.0542 25.1713C41.4924 23.6096 38.9597 23.6096 37.3979 25.1713C35.8361 26.7331 35.8361 29.2658 37.3979 30.8276L49.3977 42.8275C50.9595 44.3893 53.4922 44.3893 55.054 42.8275C56.6158 41.2657 56.6158 38.733 55.054 37.1712Z" fill="#B4B4B4"/>
<path d="M40.1346 56C42.2935 56 44.0437 54.2498 44.0437 52.0909C44.0437 49.932 42.2935 48.1819 40.1346 48.1819C37.9757 48.1819 36.2256 49.932 36.2256 52.0909C36.2256 54.2498 37.9757 56 40.1346 56Z" fill="#757575"/>
<path d="M83.671 32.4324C83.671 34.8024 81.824 36.5488 79.5572 36.5488C77.2904 36.5488 75.4434 34.8024 75.4434 32.4324C75.4434 30.0457 77.2904 28.316 79.5572 28.316C81.824 28.316 83.671 30.0457 83.671 32.4324ZM81.8702 32.4324C81.8702 30.9514 80.7997 29.9381 79.5572 29.9381C78.3147 29.9381 77.2442 30.9514 77.2442 32.4324C77.2442 33.8986 78.3147 34.9267 79.5572 34.9267C80.7997 34.9267 81.8702 33.8967 81.8702 32.4324Z" fill="#757575"/>
<path d="M92.545 32.4324C92.545 34.8024 90.698 36.5488 88.4312 36.5488C86.1644 36.5488 84.3174 34.8024 84.3174 32.4324C84.3174 30.0476 86.1644 28.316 88.4312 28.316C90.698 28.316 92.545 30.0457 92.545 32.4324ZM90.7442 32.4324C90.7442 30.9514 89.6737 29.9381 88.4312 29.9381C87.1887 29.9381 86.1182 30.9514 86.1182 32.4324C86.1182 33.8986 87.1887 34.9267 88.4312 34.9267C89.6737 34.9267 90.7442 33.8967 90.7442 32.4324Z" fill="#757575"/>
<path d="M101.05 28.5647V35.9549C101.05 38.9948 99.264 40.2364 97.1525 40.2364C95.165 40.2364 93.9687 38.902 93.5176 37.8108L95.0855 37.1557C95.3646 37.8256 96.0487 38.6162 97.1507 38.6162C98.5023 38.6162 99.3398 37.7792 99.3398 36.2036V35.6115H99.2769C98.8739 36.1108 98.0973 36.5469 97.1174 36.5469C95.067 36.5469 93.1885 34.7541 93.1885 32.4473C93.1885 30.1237 95.067 28.316 97.1174 28.316C98.0955 28.316 98.872 28.7522 99.2769 29.2366H99.3398V28.5666H101.05V28.5647ZM99.4674 32.4473C99.4674 30.9978 98.5041 29.9381 97.2783 29.9381C96.0358 29.9381 94.9949 30.9978 94.9949 32.4473C94.9949 33.8819 96.0358 34.9267 97.2783 34.9267C98.5041 34.9267 99.4674 33.8819 99.4674 32.4473Z" fill="#757575"/>
<path d="M103.87 24.2331V36.2964H102.113V24.2331H103.87Z" fill="#757575"/>
<path d="M110.714 33.7872L112.112 34.7226C111.661 35.3926 110.574 36.5469 108.695 36.5469C106.366 36.5469 104.626 34.7393 104.626 32.4306C104.626 29.9827 106.381 28.3142 108.494 28.3142C110.622 28.3142 111.663 30.0142 112.003 30.9329L112.19 31.4006L106.708 33.6796C107.128 34.5055 107.78 34.9267 108.695 34.9267C109.612 34.9267 110.249 34.4739 110.714 33.7872ZM106.412 32.3062L110.077 30.7788C109.875 30.2648 109.269 29.9066 108.555 29.9066C107.64 29.9066 106.366 30.7176 106.412 32.3062Z" fill="#757575"/>
<path d="M68.7942 31.3616V29.6152H74.6571C74.7144 29.9195 74.744 30.2796 74.744 30.6693C74.744 31.9796 74.3872 33.5998 73.2371 34.7541C72.1185 35.9233 70.6893 36.5469 68.796 36.5469C65.2868 36.5469 62.3359 33.6777 62.3359 30.1552C62.3359 26.6328 65.2868 23.7635 68.796 23.7635C70.7374 23.7635 72.1204 24.5282 73.1595 25.5248L71.9318 26.7571C71.1867 26.0556 70.1772 25.5099 68.7942 25.5099C66.2316 25.5099 64.2274 27.583 64.2274 30.1552C64.2274 32.7275 66.2316 34.8005 68.7942 34.8005C70.4564 34.8005 71.403 34.1306 72.0095 33.5218C72.5013 33.0282 72.8248 32.3229 72.9524 31.3597L68.7942 31.3616Z" fill="#757575"/>
<path d="M63.1519 40.6684H70.8319V42.1564H67.7279V52.2365H66.1759V42.1564H63.1519V40.6684ZM73.0021 52.3965C72.3834 52.3965 71.8181 52.2631 71.3061 51.9965C70.8047 51.7298 70.4047 51.3405 70.1061 50.8285C69.8181 50.3058 69.6741 49.6711 69.6741 48.9244C69.6741 48.1884 69.8287 47.5538 70.1381 47.0205C70.4474 46.4765 70.8581 46.0605 71.3701 45.7724C71.8927 45.4844 72.4634 45.3404 73.0821 45.3404C73.7007 45.3404 74.2234 45.4844 74.6501 45.7724C75.0767 46.0498 75.4021 46.3804 75.6261 46.7645L75.5301 47.0205L75.6741 45.6124H77.0501V52.2365H75.5621V50.5085L75.7221 50.8925C75.6794 50.9991 75.5834 51.1378 75.4341 51.3085C75.2954 51.4685 75.1034 51.6338 74.8581 51.8045C74.6234 51.9751 74.3514 52.1191 74.0421 52.2365C73.7327 52.3431 73.3861 52.3965 73.0021 52.3965ZM73.4021 51.1645C73.7754 51.1645 74.1114 51.0951 74.4101 50.9565C74.7087 50.8178 74.9541 50.6258 75.1461 50.3805C75.3487 50.1245 75.4874 49.8205 75.5621 49.4685V48.1725C75.4767 47.8525 75.3274 47.5751 75.1141 47.3404C74.9007 47.0951 74.6447 46.9084 74.3461 46.7804C74.0474 46.6418 73.7167 46.5725 73.3541 46.5725C72.9594 46.5725 72.5967 46.6685 72.2661 46.8604C71.9354 47.0524 71.6687 47.3191 71.4661 47.6604C71.2741 48.0018 71.1781 48.4018 71.1781 48.8605C71.1781 49.2871 71.2794 49.6765 71.4821 50.0285C71.6847 50.3805 71.9567 50.6578 72.2981 50.8605C72.6394 51.0631 73.0074 51.1645 73.4021 51.1645ZM81.8491 55.5165C81.3584 55.5165 80.9264 55.4578 80.5531 55.3405C80.1797 55.2338 79.8384 55.0791 79.5291 54.8765C79.2304 54.6738 78.9424 54.4445 78.6651 54.1885L79.5291 53.1805C79.8811 53.5111 80.2384 53.7671 80.6011 53.9485C80.9637 54.1298 81.3691 54.2205 81.8171 54.2205C82.3184 54.2205 82.7397 54.1351 83.0811 53.9645C83.4331 53.8045 83.6997 53.5751 83.8811 53.2765C84.0624 52.9885 84.1531 52.6525 84.1531 52.2685L84.1691 50.4765L84.2971 50.7645C84.1051 51.2231 83.7584 51.6125 83.2571 51.9325C82.7557 52.2418 82.1477 52.3965 81.4331 52.3965C80.8251 52.3965 80.2651 52.2418 79.7531 51.9325C79.2517 51.6231 78.8464 51.2071 78.5371 50.6845C78.2384 50.1511 78.0891 49.5538 78.0891 48.8925C78.0891 48.1991 78.2491 47.5911 78.5691 47.0684C78.8891 46.5351 79.3104 46.1138 79.8331 45.8045C80.3557 45.4951 80.9264 45.3404 81.5451 45.3404C82.1317 45.3404 82.6651 45.4631 83.1451 45.7084C83.6357 45.9431 83.9931 46.2471 84.2171 46.6205L84.1371 46.8924L84.2971 45.6124H85.6571V52.2845C85.6571 52.8818 85.5024 53.4258 85.1931 53.9165C84.8837 54.4071 84.4464 54.7965 83.8811 55.0845C83.3157 55.3725 82.6384 55.5165 81.8491 55.5165ZM79.5771 48.8605C79.5771 49.2871 79.6784 49.6765 79.8811 50.0285C80.0837 50.3805 80.3557 50.6578 80.6971 50.8605C81.0491 51.0631 81.4384 51.1645 81.8651 51.1645C82.2597 51.1645 82.6117 51.0951 82.9211 50.9565C83.2411 50.8071 83.5077 50.6098 83.7211 50.3645C83.9344 50.1085 84.0837 49.8151 84.1691 49.4845V48.1725C84.0731 47.8525 83.9131 47.5751 83.6891 47.3404C83.4651 47.0951 83.1984 46.9084 82.8891 46.7804C82.5797 46.6418 82.2384 46.5725 81.8651 46.5725C81.4384 46.5725 81.0491 46.6685 80.6971 46.8604C80.3557 47.0524 80.0837 47.3244 79.8811 47.6764C79.6784 48.0178 79.5771 48.4124 79.5771 48.8605ZM91.7381 52.2365V40.3004H91.7541L97.8181 48.9085L97.1621 48.7805L103.21 40.3004H103.242V52.2365H101.706V43.8204L101.802 44.6044L97.4341 50.7805H97.4021L92.9701 44.6044L93.2421 43.8844V52.2365H91.7381ZM107.99 52.3965C107.372 52.3965 106.806 52.2631 106.294 51.9965C105.793 51.7298 105.393 51.3405 105.094 50.8285C104.806 50.3058 104.662 49.6711 104.662 48.9244C104.662 48.1884 104.817 47.5538 105.126 47.0205C105.436 46.4765 105.846 46.0605 106.358 45.7724C106.881 45.4844 107.452 45.3404 108.07 45.3404C108.689 45.3404 109.212 45.4844 109.638 45.7724C110.065 46.0498 110.39 46.3804 110.614 46.7645L110.518 47.0205L110.662 45.6124H112.038V52.2365H110.55V50.5085L110.71 50.8925C110.668 50.9991 110.572 51.1378 110.422 51.3085C110.284 51.4685 110.092 51.6338 109.846 51.8045C109.612 51.9751 109.34 52.1191 109.03 52.2365C108.721 52.3431 108.374 52.3965 107.99 52.3965ZM108.39 51.1645C108.764 51.1645 109.1 51.0951 109.398 50.9565C109.697 50.8178 109.942 50.6258 110.134 50.3805C110.337 50.1245 110.476 49.8205 110.55 49.4685V48.1725C110.465 47.8525 110.316 47.5751 110.102 47.3404C109.889 47.0951 109.633 46.9084 109.334 46.7804C109.036 46.6418 108.705 46.5725 108.342 46.5725C107.948 46.5725 107.585 46.6685 107.254 46.8604C106.924 47.0524 106.657 47.3191 106.454 47.6604C106.262 48.0018 106.166 48.4018 106.166 48.8605C106.166 49.2871 106.268 49.6765 106.47 50.0285C106.673 50.3805 106.945 50.6578 107.286 50.8605C107.628 51.0631 107.996 51.1645 108.39 51.1645ZM114.981 45.6124L115.109 47.2284L115.045 46.9724C115.259 46.4818 115.605 46.0924 116.085 45.8045C116.565 45.5058 117.12 45.3565 117.749 45.3565C118.379 45.3565 118.891 45.5431 119.285 45.9165C119.691 46.2791 119.899 46.7538 119.909 47.3404V52.2365H118.405V47.8685C118.395 47.5058 118.288 47.2125 118.085 46.9885C117.893 46.7538 117.589 46.6364 117.173 46.6364C116.789 46.6364 116.443 46.7431 116.133 46.9564C115.824 47.1698 115.579 47.4631 115.397 47.8365C115.227 48.2098 115.141 48.6418 115.141 49.1325V52.2365H113.653V45.6124H114.981ZM124.289 52.3965C123.67 52.3965 123.105 52.2631 122.593 51.9965C122.092 51.7298 121.692 51.3405 121.393 50.8285C121.105 50.3058 120.961 49.6711 120.961 48.9244C120.961 48.1884 121.116 47.5538 121.425 47.0205C121.734 46.4765 122.145 46.0605 122.657 45.7724C123.18 45.4844 123.75 45.3404 124.369 45.3404C124.988 45.3404 125.51 45.4844 125.937 45.7724C126.364 46.0498 126.689 46.3804 126.913 46.7645L126.817 47.0205L126.961 45.6124H128.337V52.2365H126.849V50.5085L127.009 50.8925C126.966 50.9991 126.87 51.1378 126.721 51.3085C126.582 51.4685 126.39 51.6338 126.145 51.8045C125.91 51.9751 125.638 52.1191 125.329 52.2365C125.02 52.3431 124.673 52.3965 124.289 52.3965ZM124.689 51.1645C125.062 51.1645 125.398 51.0951 125.697 50.9565C125.996 50.8178 126.241 50.6258 126.433 50.3805C126.636 50.1245 126.774 49.8205 126.849 49.4685V48.1725C126.764 47.8525 126.614 47.5751 126.401 47.3404C126.188 47.0951 125.932 46.9084 125.633 46.7804C125.334 46.6418 125.004 46.5725 124.641 46.5725C124.246 46.5725 123.884 46.6685 123.553 46.8604C123.222 47.0524 122.956 47.3191 122.753 47.6604C122.561 48.0018 122.465 48.4018 122.465 48.8605C122.465 49.2871 122.566 49.6765 122.769 50.0285C122.972 50.3805 123.244 50.6578 123.585 50.8605C123.926 51.0631 124.294 51.1645 124.689 51.1645ZM133.136 55.5165C132.645 55.5165 132.213 55.4578 131.84 55.3405C131.467 55.2338 131.125 55.0791 130.816 54.8765C130.517 54.6738 130.229 54.4445 129.952 54.1885L130.816 53.1805C131.168 53.5111 131.525 53.7671 131.888 53.9485C132.251 54.1298 132.656 54.2205 133.104 54.2205C133.605 54.2205 134.027 54.1351 134.368 53.9645C134.72 53.8045 134.987 53.5751 135.168 53.2765C135.349 52.9885 135.44 52.6525 135.44 52.2685L135.456 50.4765L135.584 50.7645C135.392 51.2231 135.045 51.6125 134.544 51.9325C134.043 52.2418 133.435 52.3965 132.72 52.3965C132.112 52.3965 131.552 52.2418 131.04 51.9325C130.539 51.6231 130.133 51.2071 129.824 50.6845C129.525 50.1511 129.376 49.5538 129.376 48.8925C129.376 48.1991 129.536 47.5911 129.856 47.0684C130.176 46.5351 130.597 46.1138 131.12 45.8045C131.643 45.4951 132.213 45.3404 132.832 45.3404C133.419 45.3404 133.952 45.4631 134.432 45.7084C134.923 45.9431 135.28 46.2471 135.504 46.6205L135.424 46.8924L135.584 45.6124H136.944V52.2845C136.944 52.8818 136.789 53.4258 136.48 53.9165C136.171 54.4071 135.733 54.7965 135.168 55.0845C134.603 55.3725 133.925 55.5165 133.136 55.5165ZM130.864 48.8605C130.864 49.2871 130.965 49.6765 131.168 50.0285C131.371 50.3805 131.643 50.6578 131.984 50.8605C132.336 51.0631 132.725 51.1645 133.152 51.1645C133.547 51.1645 133.899 51.0951 134.208 50.9565C134.528 50.8071 134.795 50.6098 135.008 50.3645C135.221 50.1085 135.371 49.8151 135.456 49.4845V48.1725C135.36 47.8525 135.2 47.5751 134.976 47.3404C134.752 47.0951 134.485 46.9084 134.176 46.7804C133.867 46.6418 133.525 46.5725 133.152 46.5725C132.725 46.5725 132.336 46.6685 131.984 46.8604C131.643 47.0524 131.371 47.3244 131.168 47.6764C130.965 48.0178 130.864 48.4124 130.864 48.8605ZM141.626 52.3965C140.869 52.3965 140.218 52.2471 139.674 51.9485C139.13 51.6391 138.709 51.2231 138.41 50.7005C138.122 50.1671 137.978 49.5591 137.978 48.8765C137.978 48.2258 138.144 47.6338 138.474 47.1005C138.805 46.5671 139.248 46.1404 139.802 45.8204C140.357 45.5004 140.976 45.3404 141.658 45.3404C142.533 45.3404 143.258 45.5964 143.834 46.1084C144.41 46.6205 144.8 47.3245 145.002 48.2204L139.546 50.1405L139.194 49.2605L143.674 47.6284L143.354 47.8365C143.226 47.4844 143.013 47.1804 142.714 46.9244C142.416 46.6578 142.026 46.5244 141.546 46.5244C141.141 46.5244 140.778 46.6258 140.458 46.8284C140.138 47.0204 139.888 47.2871 139.706 47.6284C139.525 47.9698 139.434 48.3591 139.434 48.7965C139.434 49.2551 139.53 49.6605 139.722 50.0124C139.914 50.3538 140.176 50.6258 140.506 50.8285C140.848 51.0205 141.232 51.1165 141.658 51.1165C141.946 51.1165 142.224 51.0631 142.49 50.9565C142.768 50.8498 143.024 50.7111 143.258 50.5405L143.946 51.6445C143.616 51.8685 143.242 52.0498 142.826 52.1885C142.421 52.3271 142.021 52.3965 141.626 52.3965ZM147.235 45.6124L147.379 47.5325L147.299 47.2765C147.47 46.8711 147.715 46.5298 148.035 46.2524C148.366 45.9644 148.707 45.7458 149.059 45.5964C149.422 45.4365 149.736 45.3565 150.003 45.3565L149.923 46.8284C149.422 46.7964 148.979 46.8924 148.595 47.1164C148.222 47.3404 147.923 47.6391 147.699 48.0125C147.486 48.3858 147.379 48.7858 147.379 49.2125V52.2365H145.907V45.6124H147.235Z" fill="#757575"/>
</g>
<defs>
<clipPath id="clip0_854_1349">
<rect width="127.109" height="32.4729" fill="white" transform="translate(24.2266 23.7635)"/>
</clipPath>
</defs>
</svg>
