<svg width="143" height="80" viewBox="0 0 143 80" fill="none" xmlns="http://www.w3.org/2000/svg">
<path d="M43.8809 28.0506V51.5927C43.8809 54.2289 45.691 55.6947 47.6121 55.6947C49.3889 55.6947 51.3434 54.4463 51.3434 51.5927V28.229C51.3434 25.8157 49.5666 24.3053 47.6121 24.3053C45.6576 24.3053 43.8809 25.9717 43.8809 28.0506Z" fill="#B4B4B4"/>
<path d="M34.1084 40V51.5927C34.1084 54.2289 35.9185 55.6947 37.8396 55.6947C39.6164 55.6947 41.5709 54.4463 41.5709 51.5927V40.1784C41.5709 37.7651 39.7941 36.2547 37.8396 36.2547C35.8852 36.2547 34.1084 37.9211 34.1084 40Z" fill="#757575"/>
<path d="M31.7984 51.9494C31.7984 54.0171 30.1271 55.6947 28.0672 55.6947C26.0072 55.6947 24.3359 54.0171 24.3359 51.9494C24.3359 49.8816 26.0072 48.204 28.0672 48.204C30.1271 48.204 31.7984 49.8816 31.7984 51.9494Z" fill="#757575"/>
<path d="M80.6779 32.6466C80.6779 35.0166 78.8308 36.763 76.564 36.763C74.2973 36.763 72.4502 35.0166 72.4502 32.6466C72.4502 30.26 74.2973 28.5303 76.564 28.5303C78.8308 28.5303 80.6779 30.26 80.6779 32.6466ZM78.877 32.6466C78.877 31.1656 77.8065 30.1523 76.564 30.1523C75.3216 30.1523 74.251 31.1656 74.251 32.6466C74.251 34.1128 75.3216 35.141 76.564 35.141C77.8065 35.141 78.877 34.1109 78.877 32.6466Z" fill="#757575"/>
<path d="M89.5519 32.6466C89.5519 35.0166 87.7048 36.763 85.4381 36.763C83.1713 36.763 81.3242 35.0166 81.3242 32.6466C81.3242 30.2618 83.1713 28.5303 85.4381 28.5303C87.7048 28.5303 89.5519 30.26 89.5519 32.6466ZM87.751 32.6466C87.751 31.1656 86.6805 30.1523 85.4381 30.1523C84.1956 30.1523 83.1251 31.1656 83.1251 32.6466C83.1251 34.1128 84.1956 35.141 85.4381 35.141C86.6805 35.141 87.751 34.1109 87.751 32.6466Z" fill="#757575"/>
<path d="M98.0569 28.779V36.1691C98.0569 39.2091 96.2708 40.4507 94.1594 40.4507C92.1718 40.4507 90.9756 39.1163 90.5244 38.025L92.0923 37.3699C92.3715 38.0399 93.0556 38.8305 94.1575 38.8305C95.5091 38.8305 96.3466 37.9935 96.3466 36.4178V35.8258H96.2838C95.8807 36.325 95.1042 36.7612 94.1243 36.7612C92.0738 36.7612 90.1953 34.9684 90.1953 32.6615C90.1953 30.3379 92.0738 28.5303 94.1243 28.5303C95.1023 28.5303 95.8789 28.9664 96.2838 29.4508H96.3466V28.7808H98.0569V28.779ZM96.4742 32.6615C96.4742 31.212 95.5109 30.1523 94.2851 30.1523C93.0426 30.1523 92.0017 31.212 92.0017 32.6615C92.0017 34.0961 93.0426 35.141 94.2851 35.141C95.5109 35.141 96.4742 34.0961 96.4742 32.6615Z" fill="#757575"/>
<path d="M100.877 24.4473V36.5106H99.1201V24.4473H100.877Z" fill="#757575"/>
<path d="M107.721 34.0015L109.119 34.9368C108.668 35.6068 107.581 36.7612 105.702 36.7612C103.373 36.7612 101.633 34.9535 101.633 32.6448C101.633 30.1969 103.387 28.5284 105.501 28.5284C107.629 28.5284 108.67 30.2284 109.01 31.1471L109.197 31.6148L103.715 33.8938C104.134 34.7197 104.787 35.141 105.702 35.141C106.619 35.141 107.255 34.6881 107.721 34.0015ZM103.419 32.5205L107.083 30.9931C106.882 30.479 106.275 30.1208 105.562 30.1208C104.647 30.1208 103.373 30.9318 103.419 32.5205Z" fill="#757575"/>
<path d="M65.801 31.5758V29.8294H71.6639C71.7212 30.1338 71.7508 30.4938 71.7508 30.8836C71.7508 32.1938 71.394 33.814 70.244 34.9684C69.1254 36.1376 67.6962 36.7612 65.8029 36.7612C62.2936 36.7612 59.3428 33.892 59.3428 30.3695C59.3428 26.847 62.2936 23.9778 65.8029 23.9778C67.7442 23.9778 69.1272 24.7424 70.1663 25.739L68.9386 26.9713C68.1935 26.2698 67.184 25.7242 65.801 25.7242C63.2384 25.7242 61.2342 27.7972 61.2342 30.3695C61.2342 32.9417 63.2384 35.0148 65.801 35.0148C67.4632 35.0148 68.4098 34.3448 69.0163 33.7361C69.5081 33.2424 69.8317 32.5372 69.9592 31.5739L65.801 31.5758Z" fill="#757575"/>
<path d="M64.2788 43.3215L62.4733 48.3346H66.1571L64.337 43.3215H64.2788ZM60.9153 52.6753H59.3428L63.5071 41.5676H65.1233L69.2876 52.6753H67.715L66.6521 49.6646H61.9928L60.9153 52.6753Z" fill="#747474"/>
<path d="M70.0049 45.0753H71.3736V46.1276H71.4318C71.6429 45.7586 71.9742 45.4517 72.4219 45.2068C72.8769 44.9547 73.3429 44.8268 73.8197 44.8268C74.7516 44.8268 75.4651 45.0972 75.9601 45.6307C76.4624 46.1568 76.7173 46.9132 76.7173 47.8961V52.6753H75.2903V47.9984C75.2612 46.7524 74.6388 46.1276 73.4266 46.1276C72.8624 46.1276 72.3855 46.3615 71.9997 46.8292C71.6211 47.2895 71.4318 47.834 71.4318 48.4661V52.6753H70.0049V45.0753Z" fill="#747474"/>
<path d="M79.3505 50.3515C79.3505 50.7242 79.5034 51.0347 79.8164 51.2869C80.1258 51.5317 80.4935 51.6522 80.923 51.6522C81.5127 51.6522 82.0442 51.433 82.5101 50.9946C82.9833 50.5488 83.2236 50.0226 83.2236 49.4161C82.7758 49.0653 82.1534 48.8899 81.3598 48.8899C80.7847 48.8899 80.3042 49.0324 79.9183 49.3138C79.5398 49.5878 79.3505 49.9349 79.3505 50.3515ZM81.1851 44.8268C82.2335 44.8268 83.0561 45.1118 83.6604 45.6745C84.2719 46.2409 84.5777 47.0155 84.5777 47.9984V52.6753H83.2236V51.623H83.1653C82.572 52.4926 81.7857 52.9238 80.8065 52.9238C79.9693 52.9238 79.2704 52.6753 78.7098 52.1784C78.1565 51.6815 77.8799 51.064 77.8799 50.3222C77.8799 49.533 78.1747 48.9119 78.7681 48.4515C79.3578 47.9838 80.1513 47.7499 81.1414 47.7499C81.9859 47.7499 82.6776 47.9034 83.2236 48.203V47.8815C83.2236 47.3845 83.0234 46.968 82.6266 46.6245C82.2371 46.2738 81.7821 46.0984 81.2579 46.0984C80.4607 46.0984 79.8346 46.4345 79.3796 47.1068L78.1274 46.3176C78.8154 45.3238 79.8346 44.8268 81.1851 44.8268Z" fill="#747474"/>
<path d="M87.5549 41.5676V52.6753H86.1279V41.5676H87.5549Z" fill="#747474"/>
<path d="M95.9425 45.0753L91.1958 56.0223H89.7398L91.5016 52.193L88.3711 45.0753H89.9145L92.1714 50.5415H92.2005L94.3991 45.0753H95.9425Z" fill="#747474"/>
<path d="M99.8519 52.7923C99.2404 52.7923 98.7308 52.6023 98.3231 52.2223C97.9154 51.8423 97.7043 51.3124 97.697 50.6292V46.3761H96.3574V45.0753H97.697V42.7515H99.1094V45.0753H100.973V46.3761H99.1094V50.1615C99.1094 50.6694 99.204 51.0165 99.4006 51.1992C99.6044 51.3746 99.8265 51.4623 100.07 51.4623C100.187 51.4623 100.296 51.455 100.405 51.433C100.511 51.4038 100.613 51.3709 100.711 51.3307L101.148 52.6023C100.777 52.7265 100.347 52.7923 99.8519 52.7923Z" fill="#747474"/>
<path d="M104.085 42.4591C104.085 42.7332 103.983 42.9707 103.779 43.1753C103.582 43.3726 103.349 43.4676 103.08 43.4676C102.796 43.4676 102.559 43.3726 102.366 43.1753C102.17 42.9707 102.075 42.7332 102.075 42.4591C102.075 42.1778 102.17 41.9403 102.366 41.743C102.559 41.5493 102.796 41.4507 103.08 41.4507C103.349 41.4507 103.582 41.5493 103.779 41.743C103.983 41.9403 104.085 42.1778 104.085 42.4591ZM103.793 45.0753V52.6753H102.366V45.0753H103.793Z" fill="#747474"/>
<path d="M108.587 52.9238C107.458 52.9238 106.527 52.5401 105.791 51.7692C105.063 50.9909 104.699 50.0263 104.699 48.8753C104.699 47.7061 105.063 46.7415 105.791 45.9815C106.527 45.2142 107.458 44.8268 108.587 44.8268C109.362 44.8268 110.036 45.0242 110.611 45.4115C111.182 45.8024 111.615 46.3395 111.907 47.0192L110.611 47.5599C110.21 46.6063 109.508 46.1276 108.5 46.1276C107.848 46.1276 107.284 46.3907 106.81 46.9168C106.345 47.443 106.112 48.097 106.112 48.8753C106.112 49.6572 106.345 50.3076 106.81 50.8338C107.284 51.3599 107.848 51.623 108.5 51.623C109.537 51.623 110.265 51.148 110.684 50.1907L111.95 50.7315C111.677 51.4147 111.244 51.9519 110.654 52.3392C110.061 52.7265 109.373 52.9238 108.587 52.9238Z" fill="#747474"/>
<path d="M118.983 50.5707C118.983 51.2357 118.691 51.7947 118.109 52.2515C117.534 52.6972 116.813 52.9238 115.939 52.9238C115.182 52.9238 114.512 52.7228 113.93 52.3246C113.355 51.9263 112.944 51.4001 112.692 50.7461L113.959 50.2053C114.152 50.6657 114.425 51.0201 114.775 51.2722C115.131 51.528 115.521 51.6522 115.939 51.6522C116.394 51.6522 116.773 51.5572 117.075 51.3599C117.384 51.1663 117.541 50.9324 117.541 50.6584C117.541 50.1724 117.166 49.818 116.42 49.5915L115.124 49.2699C113.646 48.8899 112.911 48.1738 112.911 47.1215C112.911 46.4309 113.191 45.8755 113.755 45.4553C114.316 45.0388 115.037 44.8268 115.91 44.8268C116.58 44.8268 117.184 44.9876 117.73 45.3092C118.273 45.6307 118.651 46.0618 118.866 46.5953L117.599 47.1215C117.454 46.7999 117.213 46.5515 116.886 46.3761C116.565 46.1934 116.205 46.0984 115.808 46.0984C115.437 46.0984 115.102 46.1934 114.804 46.3761C114.512 46.5624 114.367 46.7926 114.367 47.063C114.367 47.4942 114.775 47.8047 115.59 47.9984L116.726 48.2907C118.229 48.6634 118.983 49.4234 118.983 50.5707Z" fill="#747474"/>
</svg>
