<svg width="141" height="80" viewBox="0 0 141 80" fill="none" xmlns="http://www.w3.org/2000/svg">
<path d="M37.1742 28.0308C37.5205 27.1423 37.9966 26.3243 38.7036 25.6615C41.5316 22.9679 46.2064 23.6448 48.1254 27.0295C49.5682 29.5962 51.0976 32.1065 52.5838 34.645C55.0655 38.8618 57.576 43.0785 60.0289 47.3094C62.0921 50.8492 59.8557 55.3198 55.758 55.9262C53.2475 56.2929 50.8956 55.1647 49.5971 52.9646C47.4184 49.2556 45.2253 45.5465 43.0466 41.8516C43.0033 41.767 42.9456 41.6965 42.8878 41.6259C42.657 41.4426 42.556 41.1746 42.4117 40.9349C41.445 39.2708 40.4494 37.6207 39.4827 35.9707C38.8623 34.8989 38.213 33.8412 37.5926 32.7693C37.0299 31.8104 36.7702 30.7667 36.799 29.6667C36.8423 29.1026 36.9145 28.5385 37.1742 28.0308Z" fill="#8F8F8F"/>
<path d="M37.174 28.0308C37.0442 28.5385 36.9287 29.0462 36.8999 29.5821C36.8566 30.7668 37.1596 31.8668 37.7656 32.8963C39.3527 35.5617 40.9398 38.2413 42.5125 40.9208C42.6568 41.1606 42.7723 41.4003 42.9165 41.626C42.0508 43.0927 41.1851 44.5453 40.305 46.012C39.093 48.0569 37.881 50.1159 36.6546 52.1608C36.5969 52.1608 36.5824 52.1326 36.568 52.0903C36.5536 51.9775 36.5969 51.8787 36.6257 51.7659C37.2173 49.6505 36.7267 47.7748 35.2406 46.1671C34.3316 45.194 33.1773 44.644 31.8499 44.4606C30.1185 44.2209 28.5891 44.6581 27.2184 45.7158C26.9731 45.8991 26.8144 46.1671 26.5258 46.3081C26.4681 46.3081 26.4392 46.2799 26.4248 46.2376C27.1174 45.0671 27.7955 43.8965 28.4881 42.726C31.3449 37.8746 34.2017 33.0232 37.073 28.186C37.1019 28.1295 37.1452 28.0872 37.174 28.0308Z" fill="#B4B4B4"/>
<path d="M26.4827 46.2799C26.7568 46.0402 27.0165 45.7863 27.3051 45.5607C30.8112 42.8529 36.0776 44.8132 36.8423 49.1005C37.0299 50.13 36.9289 51.1172 36.6114 52.1044C36.597 52.189 36.5826 52.2595 36.5537 52.3441C36.4239 52.5698 36.3084 52.8095 36.1642 53.0352C34.88 55.1083 32.9899 56.1378 30.5082 55.9827C27.6658 55.7852 25.4294 53.698 25.0398 50.9339C24.8522 49.5941 25.1264 48.3389 25.8334 47.1825C25.9777 46.9286 26.1508 46.703 26.3095 46.4492C26.3817 46.3927 26.3528 46.2799 26.4827 46.2799Z" fill="#757575"/>
<path d="M26.4822 46.2799C26.4245 46.3363 26.4245 46.435 26.3235 46.4491C26.3091 46.3504 26.3668 46.294 26.4245 46.2234L26.4822 46.2799Z" fill="#FABC04"/>
<path d="M36.5542 52.3441C36.4965 52.2454 36.5542 52.1749 36.6119 52.1044C36.6263 52.1185 36.6552 52.1467 36.6696 52.1608L36.5542 52.3441Z" fill="#E1C025"/>
<path d="M88.254 32.4324C88.254 34.8024 86.407 36.5488 84.1402 36.5488C81.8734 36.5488 80.0264 34.8024 80.0264 32.4324C80.0264 30.0457 81.8734 28.316 84.1402 28.316C86.407 28.316 88.254 30.0457 88.254 32.4324ZM86.4532 32.4324C86.4532 30.9514 85.3827 29.9381 84.1402 29.9381C82.8977 29.9381 81.8272 30.9514 81.8272 32.4324C81.8272 33.8986 82.8977 34.9267 84.1402 34.9267C85.3827 34.9267 86.4532 33.8967 86.4532 32.4324Z" fill="#757575"/>
<path d="M97.1281 32.4324C97.1281 34.8024 95.281 36.5488 93.0142 36.5488C90.7475 36.5488 88.9004 34.8024 88.9004 32.4324C88.9004 30.0476 90.7475 28.316 93.0142 28.316C95.281 28.316 97.1281 30.0457 97.1281 32.4324ZM95.3272 32.4324C95.3272 30.9514 94.2567 29.9381 93.0142 29.9381C91.7718 29.9381 90.7012 30.9514 90.7012 32.4324C90.7012 33.8986 91.7718 34.9267 93.0142 34.9267C94.2567 34.9267 95.3272 33.8967 95.3272 32.4324Z" fill="#757575"/>
<path d="M105.633 28.5647V35.9549C105.633 38.9948 103.847 40.2364 101.736 40.2364C99.748 40.2364 98.5517 38.902 98.1006 37.8108L99.6685 37.1557C99.9477 37.8256 100.632 38.6162 101.734 38.6162C103.085 38.6162 103.923 37.7792 103.923 36.2036V35.6115H103.86C103.457 36.1108 102.68 36.5469 101.7 36.5469C99.65 36.5469 97.7715 34.7541 97.7715 32.4473C97.7715 30.1237 99.65 28.316 101.7 28.316C102.678 28.316 103.455 28.7522 103.86 29.2366H103.923V28.5666H105.633V28.5647ZM104.05 32.4473C104.05 30.9978 103.087 29.9381 101.861 29.9381C100.619 29.9381 99.5779 30.9978 99.5779 32.4473C99.5779 33.8819 100.619 34.9267 101.861 34.9267C103.087 34.9267 104.05 33.8819 104.05 32.4473Z" fill="#757575"/>
<path d="M108.453 24.2331V36.2964H106.696V24.2331H108.453Z" fill="#757575"/>
<path d="M115.297 33.7872L116.695 34.7226C116.244 35.3926 115.157 36.5469 113.278 36.5469C110.949 36.5469 109.209 34.7393 109.209 32.4306C109.209 29.9827 110.964 28.3142 113.077 28.3142C115.205 28.3142 116.246 30.0142 116.586 30.9329L116.773 31.4006L111.291 33.6796C111.711 34.5055 112.363 34.9267 113.278 34.9267C114.196 34.9267 114.832 34.4739 115.297 33.7872ZM110.995 32.3062L114.66 30.7788C114.458 30.2648 113.852 29.9066 113.138 29.9066C112.223 29.9066 110.949 30.7176 110.995 32.3062Z" fill="#757575"/>
<path d="M73.3772 31.3616V29.6152H79.2401C79.2974 29.9195 79.327 30.2796 79.327 30.6693C79.327 31.9796 78.9702 33.5998 77.8201 34.7541C76.7015 35.9233 75.2723 36.5469 73.379 36.5469C69.8698 36.5469 66.9189 33.6777 66.9189 30.1552C66.9189 26.6328 69.8698 23.7635 73.379 23.7635C75.3204 23.7635 76.7034 24.5282 77.7425 25.5248L76.5148 26.7571C75.7697 26.0556 74.7602 25.5099 73.3772 25.5099C70.8146 25.5099 68.8104 27.583 68.8104 30.1552C68.8104 32.7275 70.8146 34.8005 73.3772 34.8005C75.0394 34.8005 75.986 34.1306 76.5925 33.5218C77.0843 33.0282 77.4078 32.3229 77.5354 31.3597L73.3772 31.3616Z" fill="#757575"/>
<path d="M67.4309 52.2365L72.4869 40.1884H72.5829L77.6229 52.2365H75.8469L72.0709 42.6205L73.1749 41.9004L68.9509 52.2365H67.4309ZM70.3909 47.8524H74.6949L75.2069 49.1964H69.9429L70.3909 47.8524ZM81.0054 52.3965C80.3974 52.3965 79.8428 52.2525 79.3414 51.9645C78.8508 51.6658 78.4614 51.2498 78.1734 50.7165C77.8854 50.1725 77.7414 49.5484 77.7414 48.8444C77.7414 48.1084 77.8908 47.4791 78.1894 46.9564C78.4988 46.4338 78.9148 46.0338 79.4374 45.7564C79.9601 45.4791 80.5468 45.3404 81.1974 45.3404C81.7201 45.3404 82.2161 45.4524 82.6854 45.6764C83.1654 45.9004 83.5388 46.2098 83.8054 46.6044L83.7414 47.1325V39.8524H85.2134V52.2365H83.7254V50.5885L83.8854 51.0045C83.5761 51.4098 83.1761 51.7458 82.6854 52.0125C82.1948 52.2685 81.6348 52.3965 81.0054 52.3965ZM81.4694 51.1325C81.8641 51.1325 82.2161 51.0631 82.5254 50.9245C82.8348 50.7751 83.0908 50.5725 83.2934 50.3165C83.4961 50.0605 83.6401 49.7565 83.7254 49.4045V48.1564C83.6401 47.8364 83.4854 47.5591 83.2614 47.3245C83.0481 47.0791 82.7868 46.8871 82.4774 46.7484C82.1788 46.5991 81.8428 46.5244 81.4694 46.5244C81.0641 46.5244 80.6908 46.6258 80.3494 46.8284C80.0188 47.0204 79.7521 47.2871 79.5494 47.6284C79.3468 47.9698 79.2454 48.3644 79.2454 48.8124C79.2454 49.2498 79.3468 49.6445 79.5494 49.9965C79.7521 50.3378 80.0241 50.6151 80.3654 50.8285C80.7068 51.0311 81.0748 51.1325 81.4694 51.1325ZM88.6978 52.3645C88.2285 52.3645 87.7698 52.2845 87.3218 52.1245C86.8845 51.9538 86.5218 51.7031 86.2338 51.3725L86.8578 50.5085C87.1352 50.7751 87.4178 50.9778 87.7058 51.1165C88.0045 51.2445 88.2978 51.3085 88.5858 51.3085C88.7992 51.3085 88.9965 51.2818 89.1778 51.2285C89.3592 51.1751 89.5032 51.0898 89.6098 50.9725C89.7272 50.8445 89.7858 50.6738 89.7858 50.4605C89.7858 50.2258 89.7058 50.0391 89.5458 49.9004C89.3965 49.7618 89.1992 49.6498 88.9538 49.5645C88.7192 49.4791 88.4685 49.3991 88.2018 49.3245C87.6578 49.1431 87.2418 48.8924 86.9538 48.5724C86.6658 48.2525 86.5218 47.8631 86.5218 47.4044C86.5218 47.0525 86.6072 46.7271 86.7778 46.4285C86.9592 46.1191 87.2205 45.8684 87.5618 45.6764C87.9138 45.4844 88.3458 45.3884 88.8578 45.3884C89.3165 45.3884 89.7272 45.4471 90.0898 45.5644C90.4525 45.6711 90.7938 45.8525 91.1138 46.1084L90.5218 47.0364C90.3298 46.8338 90.1005 46.6844 89.8338 46.5884C89.5672 46.4924 89.3272 46.4391 89.1138 46.4285C88.9325 46.4178 88.7565 46.4444 88.5858 46.5085C88.4258 46.5724 88.2925 46.6631 88.1858 46.7804C88.0792 46.8978 88.0258 47.0364 88.0258 47.1964C88.0258 47.4205 88.1005 47.6018 88.2498 47.7404C88.3992 47.8791 88.5912 47.9911 88.8258 48.0764C89.0712 48.1511 89.3112 48.2311 89.5458 48.3165C89.8765 48.4124 90.1698 48.5404 90.4258 48.7004C90.6818 48.8604 90.8845 49.0578 91.0338 49.2924C91.1938 49.5271 91.2738 49.8205 91.2738 50.1725C91.2738 50.5671 91.1778 50.9351 90.9858 51.2765C90.8045 51.6071 90.5218 51.8738 90.1378 52.0765C89.7645 52.2685 89.2845 52.3645 88.6978 52.3645Z" fill="#757575"/>
</svg>
