<svg width="159" height="80" viewBox="0 0 159 80" fill="none" xmlns="http://www.w3.org/2000/svg">
<path d="M65.1465 29.6957H69.3157L76.4048 42.4254L83.4938 29.6957H87.5727V50.6129H84.1712V34.5814L77.955 45.6825H74.7642L68.548 34.5814V50.6129H65.1465V29.6957Z" fill="#757575"/>
<path d="M98.5447 50.9865C96.9692 50.9865 95.5845 50.6404 94.3906 49.9481C93.1964 49.2559 92.2657 48.2972 91.5986 47.072C90.9312 45.8468 90.5975 44.4424 90.5977 42.8587C90.5977 41.2551 90.9238 39.8357 91.576 38.6005C92.2282 37.3656 93.1338 36.3994 94.2927 35.7019C95.4517 35.0049 96.7838 34.6563 98.2888 34.6561C99.7838 34.6561 101.071 35.0072 102.149 35.7093C103.228 36.4117 104.058 37.3954 104.64 38.6603C105.222 39.9253 105.513 41.4095 105.513 43.1127V44.0389H93.9691C94.1799 45.3141 94.6992 46.3176 95.527 47.0495C96.3548 47.7817 97.4008 48.1477 98.6651 48.1476C99.6785 48.1476 100.551 47.9982 101.284 47.6994C102.016 47.4006 102.704 46.9474 103.346 46.3399L105.152 48.5361C103.356 50.1699 101.153 50.9867 98.5447 50.9865ZM101.028 38.578C100.316 37.856 99.3824 37.4949 98.2287 37.4948C97.1047 37.4948 96.164 37.8634 95.4065 38.6005C94.6488 39.3376 94.1697 40.3287 93.9691 41.5738H102.247C102.147 40.2988 101.741 39.3002 101.028 38.578Z" fill="#757575"/>
<path d="M109.638 37.7938H106.507V35.0297H109.638V30.4578H112.919V35.0297H117.675V37.7938H112.919V44.801C112.919 45.9663 113.119 46.798 113.521 47.2961C113.922 47.7943 114.609 48.0433 115.583 48.0431C116.014 48.0431 116.38 48.0257 116.682 47.9908C116.983 47.9561 117.314 47.9088 117.675 47.8488V50.583C117.263 50.7013 116.843 50.7913 116.418 50.852C115.932 50.923 115.442 50.958 114.951 50.9566C111.408 50.9566 109.637 49.0342 109.638 45.1895V37.7938Z" fill="#757575"/>
<path d="M134.773 50.6129H131.552V48.4316C130.98 49.2484 130.253 49.8784 129.37 50.3215C128.487 50.7646 127.483 50.9863 126.359 50.9865C124.975 50.9865 123.748 50.6354 122.679 49.9331C121.611 49.2309 120.77 48.2647 120.158 47.0346C119.546 45.8045 119.24 44.3975 119.24 42.8139C119.24 41.2202 119.551 39.8107 120.173 38.5855C120.795 37.3604 121.656 36.3993 122.755 35.7019C123.853 35.0049 125.115 34.6563 126.54 34.6561C127.614 34.6561 128.577 34.8628 129.43 35.2762C130.271 35.6802 131 36.283 131.552 37.0317V35.0297H134.773V50.6129ZM131.492 40.4831C131.141 39.5966 130.586 38.8968 129.829 38.3838C129.071 37.8709 128.196 37.6144 127.202 37.6144C125.797 37.6144 124.679 38.0825 123.846 39.0188C123.013 39.9551 122.597 41.2201 122.597 42.8138C122.597 44.4176 122.998 45.6876 123.801 46.6238C124.603 47.5601 125.692 48.0283 127.067 48.0282C128.08 48.0282 128.983 47.7692 129.776 47.2512C130.569 46.7335 131.141 46.0363 131.492 45.1595L131.492 40.4831Z" fill="#757575"/>
<path d="M28.3774 43.5085C28.3774 44.7732 28.6571 45.7442 29.0226 46.3316C29.5018 47.1011 30.2166 47.427 30.9453 47.427C31.8851 47.427 32.745 47.1955 34.4019 44.9206C35.7293 43.0973 37.2935 40.5379 38.3459 38.9334L40.1282 36.2151C41.3663 34.3272 42.7993 32.2286 44.4423 30.8061C45.7837 29.645 47.2306 29 48.6868 29C51.1317 29 53.4605 30.4064 55.2427 33.0441C57.1933 35.9329 58.1401 39.5715 58.1401 43.3265C58.1401 45.5588 57.6969 47.1989 56.9426 48.4948C56.214 49.748 54.7937 51 52.4046 51V47.427C54.4502 47.427 54.9608 45.561 54.9608 43.4255C54.9608 40.3824 54.246 37.0052 52.6714 34.5921C51.554 32.8805 50.1059 31.8347 48.5128 31.8347C46.7897 31.8347 45.4031 33.1247 43.8448 35.4249C43.0163 36.647 42.1657 38.1363 41.2108 39.8169L40.1595 41.6656C38.0477 45.3825 37.5128 46.2291 36.4569 47.6263C34.6061 50.0728 33.0258 51 30.9453 51C28.4772 51 26.9166 49.9392 25.95 48.3404C25.161 47.0377 24.7734 45.3284 24.7734 43.3806L28.3774 43.5085Z" fill="#757575"/>
<path d="M27.6152 33.2963C29.2676 30.7681 31.652 29 34.387 29C35.9708 29 37.5454 29.4653 39.1896 30.798C40.9881 32.2551 42.905 34.6544 45.2965 38.6086L46.1539 40.0277C48.224 43.4509 49.4017 45.212 50.091 46.0425C50.9775 47.1091 51.5982 47.427 52.4047 47.427C54.4504 47.427 54.9609 45.561 54.9609 43.4255L58.1402 43.3265C58.1402 45.5588 57.697 47.1989 56.9428 48.4948C56.2141 49.748 54.7938 51 52.4047 51C50.9194 51 49.6036 50.6798 48.1486 49.3172C47.03 48.2713 45.7223 46.4134 44.7163 44.7432L41.7238 39.7811C40.2223 37.2909 38.845 35.4341 38.0478 34.5933C37.1903 33.6891 36.088 32.5972 34.3289 32.5972C32.9052 32.5972 31.6961 33.5889 30.6843 35.1059L27.6152 33.2963Z" fill="#757575"/>
<path d="M34.3288 32.5972C32.9051 32.5972 31.696 33.5889 30.6842 35.1059C29.2535 37.2494 28.3774 40.4423 28.3774 43.5085C28.3774 44.7732 28.6571 45.7442 29.0226 46.3316L25.95 48.3404C25.161 47.0377 24.7734 45.3284 24.7734 43.3806C24.7734 39.8387 25.7528 36.1471 27.6151 33.2963C29.2674 30.7681 31.6519 29 34.3868 29L34.3288 32.5972Z" fill="#757575"/>
</svg>
