<svg width="20" height="20" viewBox="0 0 20 20" fill="none" xmlns="http://www.w3.org/2000/svg">
<path d="M17.8867 19.3708L11.2269 12.7251C10.7363 13.1294 10.1604 13.4456 9.49911 13.6735C8.83784 13.9014 8.12682 14.0153 7.36603 14.0153C5.49738 14.0153 3.91518 13.3668 2.61943 12.0697C1.32366 10.7726 0.675781 9.20771 0.675781 7.37509C0.675781 5.54247 1.32434 3.97761 2.62146 2.68051C3.91856 1.38341 5.48758 0.734863 7.32853 0.734863C9.16947 0.734863 10.7343 1.38341 12.0231 2.68051C13.3119 3.97761 13.9563 5.54372 13.9563 7.37884C13.9563 8.11184 13.8467 8.80461 13.6275 9.45716C13.4082 10.1097 13.0794 10.7229 12.641 11.2968L19.3258 17.9316L17.8867 19.3708ZM7.34601 12.0349C8.64032 12.0349 9.73553 11.5804 10.6316 10.6715C11.5277 9.76267 11.9758 8.66386 11.9758 7.37509C11.9758 6.08632 11.527 4.9875 10.6296 4.07864C9.73207 3.16975 8.63756 2.71531 7.34601 2.71531C6.04057 2.71531 4.93259 3.16975 4.02206 4.07864C3.11152 4.9875 2.65626 6.08632 2.65626 7.37509C2.65626 8.66386 3.11083 9.76267 4.01998 10.6715C4.92913 11.5804 6.03781 12.0349 7.34601 12.0349Z" fill="#103E2B"/>
</svg>
