<svg width="18" height="21" viewBox="0 0 18 21" fill="none" xmlns="http://www.w3.org/2000/svg">
<path d="M6 1.5V0H12V1.5H6ZM8.25 12.675H9.75V6.925H8.25V12.675ZM9 20.975C7.76667 20.975 6.60417 20.7375 5.5125 20.2625C4.42083 19.7875 3.46667 19.1417 2.65 18.325C1.83333 17.5083 1.1875 16.5542 0.7125 15.4625C0.2375 14.3708 0 13.2083 0 11.975C0 10.7417 0.2375 9.57917 0.7125 8.4875C1.1875 7.39583 1.83333 6.44167 2.65 5.625C3.46667 4.80833 4.42083 4.1625 5.5125 3.6875C6.60417 3.2125 7.76667 2.975 9 2.975C10.1167 2.975 11.1667 3.1625 12.15 3.5375C13.1333 3.9125 14.0083 4.43333 14.775 5.1L16.05 3.825L17.1 4.875L15.825 6.15C16.425 6.81667 16.9375 7.625 17.3625 8.575C17.7875 9.525 18 10.6583 18 11.975C18 13.2083 17.7625 14.3708 17.2875 15.4625C16.8125 16.5542 16.1667 17.5083 15.35 18.325C14.5333 19.1417 13.5792 19.7875 12.4875 20.2625C11.3958 20.7375 10.2333 20.975 9 20.975ZM9 19.475C11.0833 19.475 12.8542 18.7458 14.3125 17.2875C15.7708 15.8292 16.5 14.0583 16.5 11.975C16.5 9.89167 15.7708 8.12083 14.3125 6.6625C12.8542 5.20417 11.0833 4.475 9 4.475C6.91667 4.475 5.14583 5.20417 3.6875 6.6625C2.22917 8.12083 1.5 9.89167 1.5 11.975C1.5 14.0583 2.22917 15.8292 3.6875 17.2875C5.14583 18.7458 6.91667 19.475 9 19.475Z" fill="#103E2B"/>
</svg>
