<svg width="22" height="16" viewBox="0 0 22 16" fill="none" xmlns="http://www.w3.org/2000/svg">
<path d="M4.4 16L3.35 14.95L13.55 4.75H10V6.75H8.5V3.25H14.075C14.3083 3.25 14.5333 3.29167 14.75 3.375C14.9667 3.45833 15.1583 3.58333 15.325 3.75L18.325 6.725C18.8083 7.20833 19.3667 7.575 20 7.825C20.6333 8.075 21.3 8.21667 22 8.25V9.75C21.1333 9.71667 20.3 9.55417 19.5 9.2625C18.7 8.97083 18 8.51667 17.4 7.9L16.25 6.75L13.4 9.6L15.55 11.75L9.45 15.275L8.7 13.975L13.1 11.425L11.05 9.375L4.4 16ZM2 9V7.5H7V9H2ZM0 5.75V4.25H5V5.75H0ZM18.75 3.75C18.2667 3.75 17.8542 3.57917 17.5125 3.2375C17.1708 2.89583 17 2.48333 17 2C17 1.51667 17.1708 1.10417 17.5125 0.7625C17.8542 0.420833 18.2667 0.25 18.75 0.25C19.2333 0.25 19.6458 0.420833 19.9875 0.7625C20.3292 1.10417 20.5 1.51667 20.5 2C20.5 2.48333 20.3292 2.89583 19.9875 3.2375C19.6458 3.57917 19.2333 3.75 18.75 3.75ZM2 2.5V1H7V2.5H2Z" fill="#103E2B"/>
</svg>
